<svg width="51" height="33" viewBox="0 0 31 23" fill="#fff" xmlns="http://www.w3.org/2000/svg">
<path id="Vector" d="M13.3372 22.4567C0.88789 22.4916 9.19714 4.29368 0.225938 1.13489C0.0691595 1.08263 -0.0237462 0.920043 0.00528686 0.757458C0.0343199 0.594874 0.179485 0.478741 0.34207 0.478741C5.32994 0.507774 10.5327 0.501968 15.956 0.449708C24.7646 0.368416 24.3175 8.40476 25.293 14.7514C25.9144 18.7521 26.7621 20.436 30.217 22.2361C30.5538 22.4161 30.5306 22.5032 30.1474 22.4974C24.6717 22.4567 19.0684 22.4393 13.3372 22.4567ZM14.1037 7.16214C13.1863 7.79506 11.8914 8.27701 11.5024 9.24091C11.4211 9.43833 11.6243 9.63575 11.8217 9.55446L14.9166 8.30024C15.0967 8.22475 15.2941 8.3583 15.2941 8.55573C15.2767 10.3384 15.4334 12.1384 15.7528 13.9617C15.7818 14.1068 15.8341 14.2114 15.9154 14.2694C16.0605 14.3681 16.258 14.2752 16.2754 14.101L16.7864 8.63702C16.8154 8.34088 16.9722 8.24798 17.2451 8.36411L19.9974 9.50801C20.2007 9.59511 20.4213 9.43252 20.3981 9.21187C20.3749 9.00284 20.2529 8.7996 20.0265 8.60218C19.3935 8.05636 18.6967 7.67312 17.9245 7.44667C17.6516 7.37118 17.5877 7.01117 17.8199 6.84859C18.3251 6.48858 18.8767 6.23309 19.4748 6.08211C19.5735 6.05889 19.6258 5.95437 19.5852 5.86727L19.5097 5.69307C19.4342 5.53049 19.2542 5.43758 19.08 5.48403L17.0012 6.01243C16.8212 6.05889 16.6412 5.93114 16.6238 5.74533C16.5831 5.3679 16.4728 5.02531 16.2928 4.71756C16.1186 4.42143 15.6715 4.47368 15.5786 4.80466L15.3057 5.75694C15.2534 5.94856 15.0502 6.05889 14.8586 6.00082L12.9947 5.46661C12.7972 5.41435 12.6288 5.455 12.4837 5.60017L12.3617 5.72791C12.263 5.82662 12.2979 5.98921 12.4256 6.04727L14.0573 6.73245C14.336 6.84859 14.3534 6.99375 14.1037 7.16214ZM14.8664 16.0457C14.9283 15.8779 14.4347 15.5353 13.7605 15.2777C13.0876 15.0243 12.4895 14.9488 12.4236 15.1178C12.3617 15.2856 12.8553 15.6282 13.5295 15.8857C14.2024 16.1392 14.8005 16.2146 14.8664 16.0457ZM13.4185 17.103C12.1411 17.5037 10.9275 17.9798 9.772 18.5257C9.3365 18.7347 9.35973 18.845 9.84167 18.8508C11.3862 18.8683 12.7392 18.8915 14.185 18.0902C15.898 17.1495 17.6167 16.2262 19.3471 15.3146C19.3993 15.2856 19.4168 15.2333 19.3993 15.152C19.3819 15.0301 19.3181 14.9836 19.1961 15.0127C17.1696 15.4772 15.2534 16.5224 13.4185 17.103ZM22.1749 18.5663C20.9787 17.9044 19.1961 17.254 17.8722 16.9695C17.6806 16.9288 17.518 16.9289 17.3961 16.9811C17.2567 17.0392 17.1406 17.1205 17.0477 17.2308C16.9141 17.3992 16.9257 17.5443 17.0941 17.6779C18.8303 19.0599 20.2413 18.7463 22.0878 18.8508C22.5349 18.8799 22.5639 18.7812 22.1749 18.5663Z" fill="#00685e"/>
</svg>
