<svg width="148" height="134" viewBox="0 0 148 134" fill="none" xmlns="http://www.w3.org/2000/svg">
<path d="M144.912 106.917L89.8934 9.23465C82.8864 -3.18885 64.9772 -3.05056 58.1777 9.48819C45.8234 32.2377 26.4851 66.2813 3.13632 106.733C-3.84757 118.81 4.86501 133.931 18.8328 133.931H129.123C142.999 133.931 151.711 118.995 144.912 106.917Z" fill="url(#paint0_linear_78_56357)"/>
<path d="M144.912 106.917L89.8934 9.23465C82.8864 -3.18885 64.9772 -3.05056 58.1777 9.48819C45.8234 32.2377 26.4851 66.2813 3.13632 106.733C-3.84757 118.81 4.86501 133.931 18.8328 133.931H129.123C142.999 133.931 151.711 118.995 144.912 106.917Z" fill="black" fill-opacity="0.2"/>
<path d="M144.912 106.917L89.8934 9.23465C82.8864 -3.18885 64.9772 -3.05056 58.1777 9.48819C45.8234 32.2377 26.4851 66.2813 3.13632 106.733C-3.84757 118.81 4.86501 133.931 18.8328 133.931H129.123C142.999 133.931 151.711 118.995 144.912 106.917Z" fill="black" fill-opacity="0.2"/>
<path d="M70.408 103.359V62.3994L74.888 66.8794H61.448V58.5594H80.776V103.359H70.408Z" fill="white"/>
<defs>
<linearGradient id="paint0_linear_78_56357" x1="-0.528488" y1="-39.1455" x2="97.4996" y2="164.747" gradientUnits="userSpaceOnUse">
<stop stop-color="#60ACFF"/>
<stop offset="0.24" stop-color="#59B3FF"/>
<stop offset="0.6" stop-color="#46C8FF"/>
<stop offset="1" stop-color="#2AE8FF"/>
</linearGradient>
</defs>
</svg>
