<svg width="279" height="110" viewBox="0 0 279 110" fill="none" xmlns="http://www.w3.org/2000/svg">
<path d="M45.468 9.80753C32.1225 32.7645 17.9473 57.0122 3.35719 81.8362C-3.74195 93.9139 4.97063 109.149 18.9845 109.149H260.125C274 109.149 282.713 94.2136 275.914 82.1358L235.301 10.038C232.074 4.34488 226.058 0.818359 219.512 0.818359H61.1184C54.6646 0.818359 48.6949 4.25268 45.468 9.80753Z" fill="url(#paint0_linear_800_5817)"/>
<path d="M45.468 9.80753C32.1225 32.7645 17.9473 57.0122 3.35719 81.8362C-3.74195 93.9139 4.97063 109.149 18.9845 109.149H260.125C274 109.149 282.713 94.2136 275.914 82.1358L235.301 10.038C232.074 4.34488 226.058 0.818359 219.512 0.818359H61.1184C54.6646 0.818359 48.6949 4.25268 45.468 9.80753Z" fill="black" fill-opacity="0.2"/>
<path d="M45.468 9.80753C32.1225 32.7645 17.9473 57.0122 3.35719 81.8362C-3.74195 93.9139 4.97063 109.149 18.9845 109.149H260.125C274 109.149 282.713 94.2136 275.914 82.1358L235.301 10.038C232.074 4.34488 226.058 0.818359 219.512 0.818359H61.1184C54.6646 0.818359 48.6949 4.25268 45.468 9.80753Z" fill="black" fill-opacity="0.2"/>
<path d="M123.112 78.3594V71.6394L140.392 55.3194C141.757 54.082 142.76 52.9727 143.4 51.9914C144.04 51.01 144.467 50.114 144.68 49.3034C144.936 48.4927 145.064 47.746 145.064 47.0634C145.064 45.2714 144.445 43.906 143.208 42.9674C142.013 41.986 140.243 41.4954 137.896 41.4954C136.019 41.4954 134.269 41.858 132.648 42.5834C131.069 43.3087 129.725 44.4394 128.616 45.9754L121.064 41.1114C122.771 38.5514 125.16 36.5247 128.232 35.0314C131.304 33.538 134.845 32.7914 138.856 32.7914C142.184 32.7914 145.085 33.346 147.56 34.4554C150.077 35.522 152.019 37.0367 153.384 38.9994C154.792 40.962 155.496 43.3087 155.496 46.0394C155.496 47.49 155.304 48.9407 154.92 50.3914C154.579 51.7994 153.853 53.2927 152.744 54.8714C151.677 56.45 150.099 58.2207 148.008 60.1834L133.672 73.6874L131.688 69.9114H156.968V78.3594H123.112Z" fill="white"/>
<defs>
<linearGradient id="paint0_linear_800_5817" x1="52.7515" y1="-89.5344" x2="176.779" y2="168.455" gradientUnits="userSpaceOnUse">
<stop stop-color="#00685E"/>
<stop offset="0.26" stop-color="#00685E"/>
<stop offset="0.64" stop-color="#019486"/>
<stop offset="1" stop-color="#00685E"/>
</linearGradient>
</defs>
</svg>
