<svg width="414" height="110" viewBox="0 0 414 110" fill="none" xmlns="http://www.w3.org/2000/svg">
<path d="M45.551 9.20518C31.2375 33.522 16.7857 58.0233 2.5413 82.1327C-4.60394 94.2105 4.10864 109.469 18.1456 109.469H395.622C409.497 109.469 418.21 94.5332 411.41 82.4554L370.314 9.50482C367.11 3.81168 361.071 0.285156 354.525 0.285156H61.1784C54.7476 0.285156 48.824 3.67338 45.5741 9.20518H45.551Z" fill="url(#paint0_linear_78_56351)"/>
<path d="M45.551 9.20518C31.2375 33.522 16.7857 58.0233 2.5413 82.1327C-4.60394 94.2105 4.10864 109.469 18.1456 109.469H395.622C409.497 109.469 418.21 94.5332 411.41 82.4554L370.314 9.50482C367.11 3.81168 361.071 0.285156 354.525 0.285156H61.1784C54.7476 0.285156 48.824 3.67338 45.5741 9.20518H45.551Z" fill="black" fill-opacity="0.2"/>
<path d="M45.551 9.20518C31.2375 33.522 16.7857 58.0233 2.5413 82.1327C-4.60394 94.2105 4.10864 109.469 18.1456 109.469H395.622C409.497 109.469 418.21 94.5332 411.41 82.4554L370.314 9.50482C367.11 3.81168 361.071 0.285156 354.525 0.285156H61.1784C54.7476 0.285156 48.824 3.67338 45.5741 9.20518H45.551Z" fill="black" fill-opacity="0.2"/>
<path d="M204.024 79.1274C200.909 79.1274 197.816 78.722 194.744 77.9114C191.672 77.058 189.069 75.8634 186.936 74.3274L190.968 66.3914C192.675 67.6287 194.659 68.61 196.92 69.3354C199.181 70.0607 201.464 70.4234 203.768 70.4234C206.371 70.4234 208.419 69.9114 209.912 68.8874C211.405 67.8634 212.152 66.4554 212.152 64.6634C212.152 62.9567 211.491 61.6127 210.168 60.6314C208.845 59.65 206.712 59.1594 203.768 59.1594H199.032V52.3114L211.512 38.1674L212.664 41.8794H189.176V33.5594H220.536V40.2794L208.12 54.4234L202.872 51.4154H205.88C211.384 51.4154 215.544 52.6527 218.36 55.1274C221.176 57.602 222.584 60.7807 222.584 64.6634C222.584 67.1807 221.923 69.5487 220.6 71.7674C219.277 73.9434 217.251 75.714 214.52 77.0794C211.789 78.4447 208.291 79.1274 204.024 79.1274Z" fill="white"/>
<defs>
<linearGradient id="paint0_linear_78_56351" x1="95.6599" y1="-139.992" x2="259.032" y2="199.822" gradientUnits="userSpaceOnUse">
<stop stop-color="#2B95A4"/>
<stop offset="0.24" stop-color="#55CAEF"/>
<stop offset="0.6" stop-color="#36B7A8"/>
<stop offset="1" stop-color="#72B3FF"/>
</linearGradient>
</defs>
</svg>
