<svg width="550" height="110" viewBox="0 0 550 110" fill="none" xmlns="http://www.w3.org/2000/svg">
<path d="M546.657 82.9203L505.56 9.96966C502.356 4.27652 496.317 0.75 489.771 0.75H62.2787C55.871 0.75 49.9474 4.13823 46.6744 9.64698C31.5772 35.1393 16.9871 59.6867 3.41112 82.5745C-3.75717 94.6523 4.93236 109.957 18.9923 109.957H530.868C544.744 109.957 553.456 95.0211 546.657 82.9433V82.9203Z" fill="url(#paint0_linear_800_5811)"/>
<path d="M546.657 82.9203L505.56 9.96966C502.356 4.27652 496.317 0.75 489.771 0.75H62.2787C55.871 0.75 49.9474 4.13823 46.6744 9.64698C31.5772 35.1393 16.9871 59.6867 3.41112 82.5745C-3.75717 94.6523 4.93236 109.957 18.9923 109.957H530.868C544.744 109.957 553.456 95.0211 546.657 82.9433V82.9203Z" fill="black" fill-opacity="0.2"/>
<path d="M546.657 82.9203L505.56 9.96966C502.356 4.27652 496.317 0.75 489.771 0.75H62.2787C55.871 0.75 49.9474 4.13823 46.6744 9.64698C31.5772 35.1393 16.9871 59.6867 3.41112 82.5745C-3.75717 94.6523 4.93236 109.957 18.9923 109.957H530.868C544.744 109.957 553.456 95.0211 546.657 82.9433V82.9203Z" fill="black" fill-opacity="0.2"/>
<path d="M253.984 68.9514V61.9754L275.104 33.5594H285.984L265.312 61.9754L260.256 60.5034H295.52V68.9514H253.984ZM278.112 78.3594V68.9514L278.432 60.5034V52.1194H288.224V78.3594H278.112Z" fill="white"/>
<defs>
<linearGradient id="paint0_linear_800_5811" x1="139.954" y1="-188.945" x2="341.773" y2="230.873" gradientUnits="userSpaceOnUse">
<stop stop-color="#00685E"/>
<stop offset="0.25" stop-color="#00685E"/>
<stop offset="0.63" stop-color="#019F90"/>
<stop offset="1" stop-color="#00685E"/>
</linearGradient>
</defs>
</svg>
