<svg width="684" height="111" viewBox="0 0 684 111" fill="none" xmlns="http://www.w3.org/2000/svg">
<path d="M46.6372 9.06572C28.4283 39.6289 13.2159 65.1674 2.59023 82.9383C-4.62416 95.0161 4.08842 110.344 18.1484 110.344H665.853C679.729 110.344 688.441 95.4079 681.642 83.3301L640.015 9.43451C636.811 3.74137 630.772 0.214844 624.226 0.214844H62.2184C55.8338 0.214844 49.9102 3.60307 46.6372 9.08877V9.06572Z" fill="url(#paint0_linear_800_5808)"/>
<path d="M46.6372 9.06572C28.4283 39.6289 13.2159 65.1674 2.59023 82.9383C-4.62416 95.0161 4.08842 110.344 18.1484 110.344H665.853C679.729 110.344 688.441 95.4079 681.642 83.3301L640.015 9.43451C636.811 3.74137 630.772 0.214844 624.226 0.214844H62.2184C55.8338 0.214844 49.9102 3.60307 46.6372 9.08877V9.06572Z" fill="black" fill-opacity="0.2"/>
<path d="M46.6372 9.06572C28.4283 39.6289 13.2159 65.1674 2.59023 82.9383C-4.62416 95.0161 4.08842 110.344 18.1484 110.344H665.853C679.729 110.344 688.441 95.4079 681.642 83.3301L640.015 9.43451C636.811 3.74137 630.772 0.214844 624.226 0.214844H62.2184C55.8338 0.214844 49.9102 3.60307 46.6372 9.08877V9.06572Z" fill="black" fill-opacity="0.2"/>
<path d="M339.728 86.1274C336.613 86.1274 333.52 85.722 330.448 84.9114C327.419 84.058 324.816 82.8634 322.64 81.3274L326.736 73.3914C328.443 74.6287 330.405 75.61 332.624 76.3354C334.885 77.0607 337.168 77.4234 339.472 77.4234C342.075 77.4234 344.123 76.9114 345.616 75.8874C347.109 74.8634 347.856 73.434 347.856 71.5994C347.856 70.4474 347.557 69.4234 346.96 68.5274C346.363 67.6314 345.296 66.9487 343.76 66.4794C342.267 66.01 340.155 65.7754 337.424 65.7754H325.968L328.272 40.5594H355.6V48.8794H331.984L337.36 44.1434L335.76 62.1274L330.384 57.3914H339.856C344.293 57.3914 347.856 58.01 350.544 59.2474C353.275 60.442 355.259 62.0847 356.496 64.1754C357.733 66.266 358.352 68.634 358.352 71.2794C358.352 73.9247 357.691 76.378 356.368 78.6394C355.045 80.858 352.997 82.6714 350.224 84.0794C347.493 85.4447 343.995 86.1274 339.728 86.1274Z" fill="white"/>
<defs>
<linearGradient id="paint0_linear_800_5808" x1="182.627" y1="-239.312" x2="423.745" y2="262.215" gradientUnits="userSpaceOnUse">
<stop stop-color="#00685E"/>
<stop offset="0.2" stop-color="#00685E"/>
<stop offset="0.52" stop-color="#00A998"/>
<stop offset="1" stop-color="#00685E"/>
</linearGradient>
</defs>
</svg>
