<svg width="64" height="65" viewBox="0 0 64 65" fill="none" xmlns="http://www.w3.org/2000/svg">
<g clip-path="url(#clip0_506_10726)">
<path d="M4.06641 15.2478C3.5194 15.2478 2.99479 15.0305 2.608 14.6437C2.2212 14.2569 2.00391 13.7323 2.00391 13.1853V4.9353C2.00391 4.38829 2.2212 3.86369 2.608 3.47689C2.99479 3.0901 3.5194 2.8728 4.06641 2.8728H12.3164C12.8634 2.8728 13.388 3.0901 13.7748 3.47689C14.1616 3.86369 14.3789 4.38829 14.3789 4.9353C14.3789 5.48231 14.1616 6.00692 13.7748 6.39371C13.388 6.7805 12.8634 6.9978 12.3164 6.9978H6.12891V13.1853C6.12891 13.7323 5.91161 14.2569 5.52481 14.6437C5.13802 15.0305 4.61342 15.2478 4.06641 15.2478ZM61.8164 15.2478C61.2694 15.2478 60.7448 15.0305 60.358 14.6437C59.9712 14.2569 59.7539 13.7323 59.7539 13.1853V6.9978H53.5664C53.0194 6.9978 52.4948 6.7805 52.108 6.39371C51.7212 6.00692 51.5039 5.48231 51.5039 4.9353C51.5039 4.38829 51.7212 3.86369 52.108 3.47689C52.4948 3.0901 53.0194 2.8728 53.5664 2.8728H61.8164C62.3634 2.8728 62.888 3.0901 63.2748 3.47689C63.6616 3.86369 63.8789 4.38829 63.8789 4.9353V13.1853C63.8789 13.7323 63.6616 14.2569 63.2748 14.6437C62.888 15.0305 62.3634 15.2478 61.8164 15.2478ZM12.3164 64.7478H4.06641C3.5194 64.7478 2.99479 64.5305 2.608 64.1437C2.2212 63.7569 2.00391 63.2323 2.00391 62.6853V54.4353C2.00391 53.8883 2.2212 53.3637 2.608 52.9769C2.99479 52.5901 3.5194 52.3728 4.06641 52.3728C4.61342 52.3728 5.13802 52.5901 5.52481 52.9769C5.91161 53.3637 6.12891 53.8883 6.12891 54.4353V60.6228H12.3164C12.8634 60.6228 13.388 60.8401 13.7748 61.2269C14.1616 61.6137 14.3789 62.1383 14.3789 62.6853C14.3789 63.2323 14.1616 63.7569 13.7748 64.1437C13.388 64.5305 12.8634 64.7478 12.3164 64.7478ZM61.8164 64.7478H53.5664C53.0194 64.7478 52.4948 64.5305 52.108 64.1437C51.7212 63.7569 51.5039 63.2323 51.5039 62.6853C51.5039 62.1383 51.7212 61.6137 52.108 61.2269C52.4948 60.8401 53.0194 60.6228 53.5664 60.6228H59.7539V54.4353C59.7539 53.8883 59.9712 53.3637 60.358 52.9769C60.7448 52.5901 61.2694 52.3728 61.8164 52.3728C62.3634 52.3728 62.888 52.5901 63.2748 52.9769C63.6616 53.3637 63.8789 53.8883 63.8789 54.4353V62.6853C63.8789 63.2323 63.6616 63.7569 63.2748 64.1437C62.888 64.5305 62.3634 64.7478 61.8164 64.7478Z" fill="#1C7A54"/>
<path d="M32.9414 52.3728C48.8886 52.3728 61.8164 44.0621 61.8164 33.8103C61.8164 23.5585 48.8886 15.2478 32.9414 15.2478C16.9942 15.2478 4.06641 23.5585 4.06641 33.8103C4.06641 44.0621 16.9942 52.3728 32.9414 52.3728Z" fill="#EEF5FD"/>
<path d="M32.9418 54.4353C26.5104 54.2885 20.2433 52.3752 14.8267 48.9047C9.40997 45.4342 5.05248 40.5405 2.23117 34.7591C2.07928 34.4659 2 34.1405 2 33.8103C2 33.4801 2.07928 33.1547 2.23117 32.8616C5.05248 27.0801 9.40997 22.1864 14.8267 18.7159C20.2433 15.2454 26.5104 13.3321 32.9418 13.1853C39.3732 13.3321 45.6403 15.2454 51.0569 18.7159C56.4736 22.1864 60.8311 27.0801 63.6524 32.8616C63.8043 33.1547 63.8836 33.4801 63.8836 33.8103C63.8836 34.1405 63.8043 34.4659 63.6524 34.7591C60.8311 40.5405 56.4736 45.4342 51.0569 48.9047C45.6403 52.3752 39.3732 54.2885 32.9418 54.4353ZM6.41804 33.8103C8.96753 38.6747 12.7708 42.7694 17.4341 45.6704C22.0975 48.5714 27.4515 50.1733 32.9418 50.3103C38.4321 50.1733 43.7861 48.5714 48.4494 45.6704C53.1128 42.7694 56.9161 38.6747 59.4655 33.8103C56.9161 28.9459 53.1128 24.8512 48.4494 21.9502C43.7861 19.0492 38.4321 17.4473 32.9418 17.3103C27.4515 17.4473 22.0975 19.0492 17.4341 21.9502C12.7708 24.8512 8.96753 28.9459 6.41804 33.8103Z" fill="#1C7A54"/>
<path d="M32.9414 44.1228C38.6368 44.1228 43.2539 39.5057 43.2539 33.8103C43.2539 28.1149 38.6368 23.4978 32.9414 23.4978C27.246 23.4978 22.6289 28.1149 22.6289 33.8103C22.6289 39.5057 27.246 44.1228 32.9414 44.1228Z" fill="#9FD9C1"/>
<path d="M32.9414 46.1853C30.4939 46.1853 28.1013 45.4595 26.0662 44.0997C24.0312 42.74 22.445 40.8073 21.5084 38.546C20.5718 36.2848 20.3267 33.7966 20.8042 31.3961C21.2817 28.9956 22.4603 26.7905 24.191 25.0599C25.9216 23.3292 28.1267 22.1506 30.5272 21.6731C32.9277 21.1956 35.4159 21.4407 37.6771 22.3773C39.9384 23.3139 41.8711 24.9001 43.2308 26.9351C44.5906 28.9702 45.3164 31.3628 45.3164 33.8103C45.3164 37.0924 44.0126 40.24 41.6919 42.5608C39.3711 44.8815 36.2235 46.1853 32.9414 46.1853ZM32.9414 25.5603C31.3097 25.5603 29.7147 26.0442 28.358 26.9507C27.0013 27.8572 25.9438 29.1457 25.3194 30.6532C24.695 32.1607 24.5316 33.8195 24.8499 35.4198C25.1683 37.0201 25.954 38.4902 27.1078 39.6439C28.2616 40.7977 29.7316 41.5835 31.3319 41.9018C32.9323 42.2201 34.5911 42.0567 36.0985 41.4323C37.606 40.8079 38.8945 39.7505 39.801 38.3938C40.7076 37.0371 41.1914 35.442 41.1914 33.8103C41.1914 31.6223 40.3222 29.5239 38.775 27.9767C37.2279 26.4295 35.1294 25.5603 32.9414 25.5603Z" fill="#1C7A54"/>
</g>
<defs>
<clipPath id="clip0_506_10726">
<rect width="64" height="64" fill="white" transform="translate(0 0.872803)"/>
</clipPath>
</defs>
</svg>
