<svg width="307" height="144" viewBox="0 0 307 144" fill="none" xmlns="http://www.w3.org/2000/svg">
<path d="M177.23 126.748C178.53 125.248 196.64 112.598 198 111.648L194.91 111.118C194.91 111.118 178.35 125.188 177.23 126.748Z" fill="#0077C7"/>
<g opacity="0.1">
<path d="M177.17 126.858C177.17 126.858 177.17 126.858 177.17 126.918C177.31 127.238 178.55 127.518 179.94 127.708H179.99C181.271 127.945 182.581 127.972 183.87 127.788C184.27 127.518 197.68 120.788 205.65 116.788C204.34 117.428 187.14 125.698 183.65 121.788C181.419 123.321 179.269 124.97 177.21 126.728C177.21 126.728 177.21 126.778 177.21 126.798L177.17 126.858Z" fill="black"/>
</g>
<path d="M-0.000640869 141.618C-0.000640869 143.418 9.90937 143.998 11.2594 143.618C12.6094 143.238 120.609 100.738 120.609 100.738L80.9194 85.0283L79.7694 85.8183L79.2694 86.1683C71.9494 91.2283 50.0994 106.378 31.0194 119.708L29.8894 120.498L28.3894 121.498C15.1594 130.798 3.68936 138.868 -0.000640869 141.618Z" fill="#0077C7"/>
<path d="M-9.15527e-05 141.618C9.65991 134.408 72.6699 90.7483 80.9199 85.0383L75.9199 83.0383C75.9199 83.0383 2.51993 138.868 0.299927 141.088C0.135597 141.22 0.0281601 141.41 -9.15527e-05 141.618Z" fill="#0077C7"/>
<path d="M89.95 114.678C93.02 116.168 96.35 117.328 96.6 114.248C96.69 112.988 95.71 111.638 90.78 109.248C89.63 108.688 86.78 107.448 85.97 110.008C85.16 112.568 88.8 114.108 89.95 114.678Z" fill="#0077C7"/>
<path opacity="0.1" d="M89.95 114.678C93.02 116.168 96.35 117.328 96.6 114.248C96.69 112.988 95.71 111.638 90.78 109.248C89.63 108.688 86.78 107.448 85.97 110.008C85.16 112.568 88.8 114.108 89.95 114.678Z" fill="black"/>
<path d="M64.9195 124.918C67.9895 126.408 71.3295 127.578 71.5695 124.498C71.6695 123.228 70.6895 121.878 65.7495 119.498C64.5995 118.938 61.7495 117.708 60.9395 120.268C60.1295 122.828 63.7695 124.358 64.9195 124.918Z" fill="#0077C7"/>
<path opacity="0.1" d="M64.9195 124.918C67.9895 126.408 71.3295 127.578 71.5695 124.498C71.6695 123.228 70.6895 121.878 65.7495 119.498C64.5995 118.938 61.7495 117.708 60.9395 120.268C60.1295 122.828 63.7695 124.358 64.9195 124.918Z" fill="black"/>
<path d="M39.9002 135.158C42.9602 136.648 46.3002 137.818 46.5402 134.738C46.6402 133.478 45.6602 132.128 40.7302 129.738C39.5702 129.188 36.7302 127.948 35.9102 130.508C35.0902 133.068 38.7402 134.598 39.9002 135.158Z" fill="#0077C7"/>
<path opacity="0.1" d="M39.9002 135.158C42.9602 136.648 46.3002 137.818 46.5402 134.738C46.6402 133.478 45.6602 132.128 40.7302 129.738C39.5702 129.188 36.7302 127.948 35.9102 130.508C35.0902 133.068 38.7402 134.598 39.9002 135.158Z" fill="black"/>
<path d="M47.9398 100.758C47.9398 106.628 51.6099 111.388 56.1399 111.388C60.6699 111.388 64.3398 106.628 64.3398 100.758C64.3398 94.8884 60.6699 90.1284 56.1399 90.1284C51.6099 90.1284 47.9398 94.8884 47.9398 100.758Z" fill="#263238"/>
<path d="M48.9006 100.758C48.9006 105.948 52.1406 110.148 56.1406 110.148C60.1406 110.148 63.3906 105.948 63.3906 100.758C63.3906 95.5684 60.1406 91.3584 56.1406 91.3584C52.1406 91.3584 48.9006 95.5684 48.9006 100.758Z" fill="#0076C7"/>
<path d="M219.8 97.9383L221.7 98.6383L225.98 100.188L240.78 93.7983C255.1 87.6483 272.1 80.4083 275.35 79.2883L274.94 79.4083L274.56 79.5283L274.06 79.6883L273.78 79.7883L272.65 80.1483L271.49 80.5283L268.24 81.5983L267.12 81.9683L266.12 82.3183L265.55 82.5083L263.78 83.0983L262.61 83.4883L247.38 88.6083L245.94 89.0983L240.27 91.0083L230.49 94.3183L229.11 94.7883C227.53 95.3183 226.11 95.7883 224.85 96.2283L223.76 96.5983L223.26 96.7683L223 96.8483C220.96 97.5583 219.8 97.9383 219.8 97.9383Z" fill="#0077C7"/>
<path d="M225.98 100.188L237.44 104.368C237.44 104.368 263.04 92.4884 278.31 85.0384L278.47 84.9684L278.68 84.8684L283.1 82.7084C287.05 80.7084 289.55 79.3884 289.45 79.2084C289.03 78.3584 279.53 78.1484 275.73 79.2084H275.62L275.38 79.2884C272.22 80.3584 256.27 87.1384 242.26 93.1584L241.94 93.2884L240.81 93.7784L225.98 100.188Z" fill="#0077C7"/>
<g opacity="0.1">
<path d="M196.491 83.8483L224.301 97.2283C224.301 97.2283 224.021 73.3783 223.801 56.2283C219.711 65.3683 211.621 77.8483 198.651 75.5883C197.361 80.4283 196.491 83.8483 196.491 83.8483Z" fill="black"/>
</g>
<path d="M243.729 111.808C246.589 104.648 234.439 98.1484 220.639 91.9584C206.839 85.7684 70.8193 25.7784 51.0993 20.4284C31.3793 15.0784 8.41933 22.4284 4.53932 33.6584C-1.28069 50.5584 23.2493 64.7184 111.359 101.248C122.909 106.038 174.549 118.438 203.589 118.528C234.649 118.628 242.319 115.288 243.729 111.808Z" fill="#0077C7"/>
<path d="M200.609 88.2084L197.489 86.8484V91.4484L200.609 92.7984V88.2084Z" fill="#0076C7"/>
<path d="M194.91 85.7383L191.57 84.2883V88.8883L194.91 90.3283V85.7383Z" fill="#0076C7"/>
<path d="M189 83.1783L185.66 81.7283V86.3283L189 87.7683V83.1783Z" fill="#0076C7"/>
<path d="M183.08 80.6184L179.75 79.1685V83.7685L183.08 85.2085V80.6184Z" fill="#0076C7"/>
<path d="M177.17 78.0584L173.83 76.6084V81.2084L177.17 82.6484V78.0584Z" fill="#0076C7"/>
<path d="M171.25 75.4983L167.92 74.0483V78.6483L171.25 80.0983V75.4983Z" fill="#0076C7"/>
<path d="M165.34 72.9383L162 71.4883V76.0883L165.34 77.5383V72.9383Z" fill="#0076C7"/>
<path d="M159.43 70.3784L156.09 68.9285V73.5284L159.43 74.9785V70.3784Z" fill="#0076C7"/>
<path d="M153.51 67.8184L150.18 66.3684V70.9684L153.51 72.4184V67.8184Z" fill="#0076C7"/>
<path d="M147.6 65.2584L144.26 63.8083V68.4084L147.6 69.8484V65.2584Z" fill="#0076C7"/>
<path d="M141.68 62.6983L138.35 61.2483V65.8483L141.68 67.2883V62.6983Z" fill="#0076C7"/>
<path d="M135.77 60.1385L132.43 58.6885V63.2885L135.77 64.7285V60.1385Z" fill="#0076C7"/>
<path d="M129.859 57.5784L126.519 56.1384V60.7284L129.859 62.1684V57.5784Z" fill="#0076C7"/>
<path d="M123.939 55.0184L120.609 53.5784V58.1684L123.939 59.6084V55.0184Z" fill="#0076C7"/>
<path d="M118.029 52.4583L114.689 51.0183V55.6083L118.029 57.0483V52.4583Z" fill="#0076C7"/>
<path d="M112.121 49.8985L108.781 48.4585V53.0485L112.121 54.4985V49.8985Z" fill="#0076C7"/>
<path d="M106.199 47.3384L102.859 45.8984V50.4885L106.199 51.9384V47.3384Z" fill="#0076C7"/>
<path d="M100.291 44.7784L96.951 43.3384V47.9284L100.291 49.3784V44.7784Z" fill="#0076C7"/>
<path d="M94.3711 42.2183L91.0411 40.7783V45.3683L94.3711 46.8183V42.2183Z" fill="#0076C7"/>
<path d="M88.4609 39.6583L85.1209 38.2183V42.8083L88.4609 44.2583V39.6583Z" fill="#0076C7"/>
<path d="M82.5508 37.0984L79.2108 35.6584V40.2484L82.5508 41.6985V37.0984Z" fill="#0076C7"/>
<path d="M73.2909 33.0984V37.6884L76.6309 39.1384V34.5384L73.2909 33.0984Z" fill="#0076C7"/>
<path d="M67.3807 30.5383V35.1283L70.7207 36.5783V31.9783L67.3807 30.5383Z" fill="#0076C7"/>
<path d="M61.4708 27.9783V32.5683L64.8008 34.0183V29.4183L61.4708 27.9783Z" fill="#0076C7"/>
<path d="M55.5506 25.4185V30.0085L58.8906 31.4585V26.8585L55.5506 25.4185Z" fill="#0076C7"/>
<path d="M40.0996 23.5384C38.264 22.1419 36.1495 21.1562 33.8996 20.6484V23.6484C35.8796 23.6284 37.9196 23.5784 40.0996 23.5384Z" fill="#0076C7"/>
<path d="M26.6306 19.9183V24.1383C28.1906 23.9983 29.7405 23.9083 31.3105 23.8283V20.1383C29.7612 19.9148 28.194 19.8411 26.6306 19.9183Z" fill="#0076C7"/>
<path d="M11.7598 25.8785C13.0698 25.8785 14.2698 25.6185 15.4698 25.4785C16.6698 25.3385 17.8398 25.1185 19.0098 25.0085C20.7098 24.7485 22.3898 24.5685 24.0098 24.4085V20.1885C21.9748 20.4652 19.9846 21.0064 18.0898 21.7985C16.9141 22.278 15.7831 22.8602 14.7097 23.5385C14.1627 23.8651 13.6412 24.2329 13.1497 24.6385C12.6997 25.0385 12.2098 25.4385 11.7598 25.8785Z" fill="#0076C7"/>
<path d="M112.311 60.7384L123.951 66.3383C153.731 53.8583 277.601 4.88837 287.951 0.778366L288.271 0.648361L288.531 0.568359H288.621C288.162 0.612609 287.707 0.692862 287.261 0.808365C284.181 1.62836 112.311 60.7384 112.311 60.7384Z" fill="#0077C7"/>
<path d="M196.261 61.6483C200.091 63.5083 204.261 64.9683 204.561 61.1183C204.681 59.5383 203.461 57.8484 197.291 54.8884C195.851 54.1884 192.291 52.6384 191.291 55.8884C190.291 59.1384 194.811 60.9483 196.261 61.6483Z" fill="#0077C7"/>
<path d="M229.431 44.8883C233.261 46.7483 237.431 48.2083 237.731 44.3583C237.851 42.7783 236.631 41.0983 230.461 38.1283C229.021 37.4283 225.461 35.8883 224.461 39.1283C223.461 42.3683 227.981 44.1883 229.431 44.8883Z" fill="#0077C7"/>
<path opacity="0.1" d="M229.431 44.8883C233.261 46.7483 237.431 48.2083 237.731 44.3583C237.851 42.7783 236.631 41.0983 230.461 38.1283C229.021 37.4283 225.461 35.8883 224.461 39.1283C223.461 42.3683 227.981 44.1883 229.431 44.8883Z" fill="black"/>
<path d="M262.7 27.9284C266.27 29.6684 270.16 31.0284 270.44 27.4384C270.55 25.9684 269.44 24.4384 263.67 21.6384C262.32 20.9884 259.03 19.5484 258.07 22.5284C257.11 25.5084 261.36 27.2884 262.7 27.9284Z" fill="#0077C7"/>
<path opacity="0.1" d="M262.7 27.9284C266.27 29.6684 270.16 31.0284 270.44 27.4384C270.55 25.9684 269.44 24.4384 263.67 21.6384C262.32 20.9884 259.03 19.5484 258.07 22.5284C257.11 25.5084 261.36 27.2884 262.7 27.9284Z" fill="black"/>
<path d="M146.77 57.8484C149.77 63.2184 156.63 65.1484 160.96 66.8484C172.47 71.4484 180.81 74.0384 184.96 63.5784C185.452 62.371 185.763 61.0971 185.88 59.7984C186.56 51.9184 178.39 47.9784 174.25 45.7984C169.25 43.1684 165.71 41.4584 163.07 40.3484C158.77 38.5384 156.85 38.3484 154.88 38.2384C152.55 38.1584 147.3 38.7484 145.57 48.3884C144.822 51.5836 145.248 54.941 146.77 57.8484Z" fill="#0077C7"/>
<path d="M154.829 60.9883C150.301 60.9883 146.629 56.2291 146.629 50.3583C146.629 44.4875 150.301 39.7283 154.829 39.7283C159.358 39.7283 163.029 44.4875 163.029 50.3583C163.029 56.2291 159.358 60.9883 154.829 60.9883Z" fill="#263238"/>
<path opacity="0.5" d="M177.23 126.749C178.53 125.249 196.64 112.599 198 111.649L194.91 111.119C194.91 111.119 178.35 125.189 177.23 126.749Z" fill="white"/>
<path d="M177.17 126.86C177.17 126.86 177.17 126.86 177.17 126.92C177.31 127.24 178.55 127.52 179.94 127.71H179.99C181.27 127.947 182.581 127.974 183.87 127.79C184.26 127.52 197.33 120.98 205.33 116.98L205.65 116.83H205.71L206.84 116.26L210.14 114.62L211.42 113.98L197.97 111.68C197.2 112.21 191.09 116.48 185.68 120.37L185.12 120.77C184.62 121.13 184.12 121.49 183.64 121.83C181.408 123.363 179.259 125.012 177.2 126.77C177.2 126.77 177.2 126.82 177.2 126.84L177.17 126.86Z" fill="#0077C7"/>
<path opacity="0.5" d="M-9.15527e-05 141.619C9.65991 134.409 72.6699 90.7491 80.9199 85.0391L75.9199 83.0391C75.9199 83.0391 2.51993 138.869 0.299927 141.089C0.135597 141.221 0.0281601 141.41 -9.15527e-05 141.619Z" fill="white"/>
<g opacity="0.5">
<path opacity="0.1" d="M-0.000640869 141.619C-0.000640869 143.419 9.90937 143.999 11.2594 143.619C12.6094 143.239 120.609 100.739 120.609 100.739L80.9194 85.0293C80.9194 85.0293 90.7294 96.2493 67.4394 113.519C51.5694 125.289 34.6694 127.729 28.4394 121.519C15.1594 130.799 3.68936 138.869 -0.000640869 141.619Z" fill="black"/>
</g>
<path d="M48.1001 108.288C51.1001 113.658 57.9601 115.588 62.2901 117.288C73.8001 121.888 82.1401 124.468 86.2901 114.018C86.7826 112.81 87.0926 111.537 87.2101 110.238C87.8901 102.358 79.7201 98.4178 75.5801 96.2378C70.5801 93.5978 67.0401 91.8978 64.4001 90.7878C60.1001 88.9678 58.18 88.7878 56.2101 88.6778C53.8801 88.5978 48.6301 89.1878 46.9001 98.8278C46.1525 102.023 46.5784 105.38 48.1001 108.288Z" fill="#0077C7"/>
<path opacity="0.5" d="M219.802 97.9391L221.702 98.6391L225.982 100.189L240.782 93.7991C255.102 87.6491 272.102 80.4091 275.352 79.2891L274.942 79.4091L274.562 79.5291L274.062 79.6891L273.782 79.7891L272.652 80.149L271.492 80.5291L268.242 81.5991L267.122 81.9691L266.122 82.3191L265.552 82.5091L263.782 83.0991L262.612 83.4891L247.382 88.6091L245.942 89.0991L240.272 91.0091L230.492 94.3191L229.112 94.7891C227.532 95.3191 226.112 95.7891 224.852 96.2291L223.762 96.5991L223.262 96.7691L223.002 96.8491C220.962 97.5591 219.802 97.9391 219.802 97.9391Z" fill="white"/>
<g opacity="0.1">
<path d="M225.981 100.189L237.441 104.369C237.441 104.369 263.041 92.4891 278.311 85.0391C275.781 86.1191 249.871 97.5291 243.491 95.9391C242.897 95.8337 242.339 95.5832 241.866 95.2098C241.394 94.8364 241.021 94.3517 240.781 93.7991L225.981 100.189Z" fill="black"/>
</g>
<path d="M196.491 83.8483L224.301 97.2283C224.301 97.2283 224.021 73.3783 223.801 56.2283C223.801 55.6383 223.801 55.0583 223.801 54.4883C223.801 53.9183 223.801 53.5483 223.801 53.0883C223.731 47.2183 223.661 42.4883 223.631 40.3383C223.531 33.4383 222.791 32.0383 220.961 33.1583C219.131 34.2783 211.011 41.3483 208.571 44.4983C206.571 47.0783 202.131 62.7383 199.241 73.4983C199.241 73.5983 199.241 73.6783 199.181 73.7683C199.011 74.3983 198.841 75.0083 198.691 75.5883C197.361 80.4283 196.491 83.8483 196.491 83.8483Z" fill="#0077C7"/>
<path opacity="0.5" d="M243.731 111.808C246.591 104.648 234.441 98.1479 220.641 91.9579C206.841 85.7679 70.8213 25.7779 51.1013 20.4279C31.3813 15.0779 8.42128 22.4279 4.54128 33.6579C-1.27873 50.5579 23.2513 64.7179 111.361 101.248C122.911 106.038 174.551 118.438 203.591 118.528C234.651 118.628 242.321 115.288 243.731 111.808Z" fill="white"/>
<path opacity="0.1" d="M111.369 101.288C122.919 106.078 174.559 118.468 203.599 118.568C234.649 118.668 242.319 115.368 243.729 111.848C245.229 108.108 242.619 104.538 237.809 101.098C237.841 101.823 237.715 102.547 237.439 103.218C236.149 106.418 229.189 109.408 201.019 109.318C174.669 109.228 136.769 87.8883 126.299 83.5483C46.3494 50.3583 15.0993 47.5983 20.4093 32.2883C22.7093 25.6083 32.4093 20.4583 43.8393 19.0483C26.1193 16.9283 7.95935 23.7783 4.54935 33.6783C-1.27066 50.5583 23.2593 64.7183 111.369 101.288Z" fill="black"/>
<path d="M118.03 63.2897L157.23 82.1497C157.23 82.1497 219.53 48.7497 264.23 24.3497L264.33 24.2897C288.19 11.2897 306.41 1.12971 306.11 0.739709C305.36 -0.260291 293.36 -0.150281 288.61 0.499719C288.151 0.543969 287.696 0.624206 287.25 0.739709C285.25 1.28971 214.74 27.3997 165.38 45.7397L118.03 63.2897Z" fill="#0077C7"/>
<g opacity="0.1">
<path d="M118.03 63.2896L157.23 82.1496C157.23 82.1496 219.53 48.7496 264.23 24.3496C260.73 26.1096 180.58 66.4996 170.11 60.4396C166.16 58.1496 165.11 52.2396 165.4 45.7096L118.03 63.2896Z" fill="black"/>
</g>
<path opacity="0.5" d="M112.311 60.7384L123.951 66.3383C153.731 53.8583 277.601 4.88837 287.951 0.778366L288.271 0.648361L288.531 0.568359H288.621C288.162 0.612609 287.707 0.692862 287.261 0.808365C284.181 1.62836 112.311 60.7384 112.311 60.7384Z" fill="white"/>
<path opacity="0.1" d="M196.261 61.6486C200.091 63.5086 204.261 64.9686 204.561 61.1186C204.681 59.5386 203.461 57.8486 197.291 54.8886C195.851 54.1886 192.291 52.6386 191.291 55.8886C190.291 59.1386 194.811 60.9486 196.261 61.6486Z" fill="black"/>
<path d="M147.59 50.3588C147.59 55.5488 150.83 59.7487 154.83 59.7487C158.83 59.7487 162.08 55.5488 162.08 50.3588C162.08 45.1688 158.83 40.9688 154.83 40.9688C150.83 40.9688 147.59 45.1688 147.59 50.3588Z" fill="#0076C7"/>
</svg>
