<svg width="64" height="65" viewBox="0 0 64 65" fill="none" xmlns="http://www.w3.org/2000/svg">
<g clip-path="url(#clip0_506_10738)">
<g clip-path="url(#clip1_506_10738)">
<path d="M32.1049 23.201C32.9858 23.201 33.6992 22.4872 33.6992 21.6067C33.6992 20.7263 32.9858 20.0125 32.1049 20.0125C25.0616 20.0125 19.3516 25.7224 19.3516 32.7663C19.3516 39.8098 25.0616 45.5198 32.1049 45.5198C39.1489 45.5198 44.8589 39.8098 44.8589 32.7663C44.8589 31.8856 44.1451 31.1722 43.2647 31.1722C42.3843 31.1722 41.6704 31.8856 41.6704 32.7663C41.6704 38.0491 37.3882 42.3318 32.1049 42.3318C26.8223 42.3318 22.5396 38.0491 22.5396 32.7663C22.5396 27.4832 26.8223 23.201 32.1049 23.201Z" fill="#1C7A54"/>
<path d="M62.5249 23.2971C62.2479 22.4606 61.3456 22.0071 60.5086 22.2839C59.6912 22.5544 59.2361 23.4245 59.4799 24.2501C64.2474 39.4324 55.805 55.6046 40.6229 60.3722C25.4413 65.1397 9.26896 56.6974 4.50147 41.5154C-0.266648 26.3333 8.17621 10.1609 23.3578 5.3933C28.9776 3.62866 35.0031 3.62866 40.6229 5.3933C41.4666 5.64768 42.3568 5.17018 42.6113 4.32643C42.8618 3.49531 42.4023 2.61693 41.5765 2.34843C24.7187 -2.94068 6.76459 6.4378 1.4756 23.2961C-3.81352 40.154 5.56534 58.1081 22.4233 63.3971C39.2816 68.6862 57.2352 59.3077 62.5242 42.4494C64.4802 36.2151 64.4804 29.5315 62.5247 23.2971H62.5249Z" fill="#1C7A54"/>
<path d="M35.1441 12.2624C35.1523 11.3546 34.4551 10.5959 33.5498 10.528C33.0737 10.4875 32.5972 10.447 32.1083 10.447C19.7817 10.447 9.78906 20.4396 9.78906 32.7663C9.78906 45.0925 19.7817 55.0851 32.1083 55.0851C44.4346 55.0851 54.4272 45.0925 54.4272 32.7664C54.4272 32.1896 54.3921 31.6135 54.3213 31.0413C54.1938 30.1663 53.3813 29.5603 52.5063 29.6878C51.6313 29.8146 51.0253 30.6278 51.1523 31.5028C51.1572 31.5359 51.1631 31.5685 51.1698 31.6018C51.2046 31.988 51.2387 32.3708 51.2387 32.7654C51.2392 43.3313 42.6743 51.8961 32.1088 51.8971C21.5429 51.8976 12.9779 43.3321 12.9776 32.7668C12.9771 22.2014 21.5414 13.6359 32.1074 13.6355H32.1078C32.5034 13.6355 32.8866 13.6696 33.2719 13.7038L33.5707 13.7288C34.4038 13.7644 35.1078 13.1179 35.1431 12.2849C35.1436 12.277 35.1436 12.2698 35.1441 12.2624Z" fill="#9FD9C1"/>
<path d="M41.6713 15.2297V20.9466L30.9788 31.6389C30.3456 32.2507 30.3281 33.2601 30.9398 33.8933C31.5517 34.5266 32.5611 34.5442 33.1942 33.9324C33.2074 33.9197 33.2206 33.9066 33.2333 33.8933L43.9258 23.2009H49.6424C50.0653 23.2009 50.4706 23.0329 50.7699 22.7337L60.3349 13.1682C60.9574 12.5457 60.9574 11.5364 60.3349 10.9138C60.1869 10.7658 60.0112 10.6484 59.8179 10.5683C59.6245 10.4882 59.4172 10.447 59.2079 10.4471H54.4252V5.66431C54.4252 4.78393 53.7114 4.07006 52.8304 4.07056C52.4079 4.07066 52.0028 4.23854 51.7041 4.53731L42.1386 14.1028C41.9904 14.2507 41.8729 14.4264 41.7927 14.6197C41.7125 14.8131 41.6713 15.0204 41.6713 15.2297ZM44.8598 15.8899L51.2367 9.51293V12.0413C51.2367 12.9217 51.9506 13.6356 52.8309 13.6356H55.3593L48.9823 20.0124H44.8598V15.8899Z" fill="#1C7A54"/>
</g>
</g>
<defs>
<clipPath id="clip0_506_10738">
<rect width="64" height="64" fill="white" transform="translate(0 0.872803)"/>
</clipPath>
<clipPath id="clip1_506_10738">
<rect width="64" height="64" fill="white" transform="translate(0 0.872803)"/>
</clipPath>
</defs>
</svg>
