<svg width="842" height="629" viewBox="0 0 842 629" fill="none" xmlns="http://www.w3.org/2000/svg">
<path d="M3.79258 478.471L0.498047 476.568L705.894 68.7202L709.189 70.6229L3.79258 478.471ZM2.23627 476.568L3.79258 477.479L707.45 70.6229L705.894 69.7323L2.23627 476.568Z" fill="#150035"/>
<path d="M325.445 613.017L322.15 611.114L322.797 610.73L781.628 345.949L784.923 347.852L784.276 348.236L325.445 613.017ZM323.889 611.114L325.445 612.025L783.205 347.872L781.648 346.982L323.889 611.134V611.114Z" fill="#150035"/>
<path d="M840.666 113.049L552.04 279.759C548.261 281.945 546.34 290.204 553.354 291.358L713.513 307.551C725.054 308.947 736.737 306.741 746.964 301.215L840.666 250.267V113.049Z" fill="#3BA1FD"/>
<path d="M720.345 308.543C718.041 308.543 715.737 308.401 713.433 308.118L553.294 291.924C550.424 291.459 548.625 289.819 548.18 287.329C547.655 284.374 549.292 280.67 551.758 279.253L840.364 112.543L840.95 113.535L552.324 280.245C550.262 281.419 548.847 284.637 549.292 287.127C549.535 288.524 550.464 290.285 553.435 290.791L713.554 306.984C725.035 308.381 736.495 306.215 746.682 300.709L840.384 249.761L840.93 250.773L747.227 301.721C738.88 306.235 729.704 308.543 720.345 308.543Z" fill="#150035"/>
<path d="M840.242 116.187L551.616 282.896C547.836 285.083 548.988 290.831 553.334 291.358L713.069 310.688C724.61 312.085 736.292 309.879 746.519 304.353L840.222 253.405V116.187H840.242Z" fill="#3BA1FD"/>
<path d="M719.941 311.7C717.637 311.7 715.333 311.559 713.029 311.275L553.294 291.944C551.071 291.681 549.333 290.082 548.888 287.876C548.443 285.67 549.413 283.524 551.354 282.411L839.96 115.701L840.546 116.693L551.92 283.402C550.08 284.455 549.737 286.277 549.999 287.633C550.282 288.989 551.313 290.528 553.415 290.791L713.15 310.121C724.631 311.518 736.091 309.352 746.257 303.847L839.96 252.898L840.505 253.911L746.803 304.859C738.455 309.372 729.279 311.68 719.921 311.68L719.941 311.7Z" fill="#150035"/>
<path d="M942.717 328.116L654.091 494.826C650.311 497.012 648.391 505.271 655.405 506.425L815.564 522.618C827.105 524.015 838.788 521.808 849.015 516.282L942.717 465.334V328.116Z" fill="#3BA1FD"/>
<path d="M822.396 523.61C820.092 523.61 817.788 523.468 815.484 523.185L655.345 506.991C652.475 506.526 650.676 504.886 650.231 502.396C649.706 499.441 651.343 495.737 653.809 494.32L942.435 327.61L943.021 328.602L654.395 495.312C652.333 496.486 650.918 499.704 651.363 502.194C651.606 503.591 652.535 505.352 655.486 505.858L815.605 522.051C827.106 523.448 838.546 521.282 848.732 515.776L942.435 464.828L942.981 465.84L849.278 516.788C840.931 521.302 831.754 523.61 822.396 523.61Z" fill="#150035"/>
<path d="M942.314 331.274L653.688 497.984C649.908 500.17 651.061 505.919 655.406 506.445L815.141 525.776C826.682 527.172 838.364 524.966 848.592 519.44L942.294 468.492V331.274H942.314Z" fill="#3BA1FD"/>
<path d="M821.992 526.767C819.688 526.767 817.384 526.626 815.08 526.342L655.345 507.012C653.122 506.748 651.383 505.149 650.939 502.943C650.494 500.737 651.464 498.591 653.404 497.478L942.031 330.768L942.617 331.76L653.991 498.47C652.151 499.522 651.808 501.344 652.07 502.7C652.353 504.056 653.384 505.595 655.466 505.858L815.201 525.189C826.681 526.585 838.121 524.419 848.308 518.914L942.011 467.966L942.556 468.978L848.854 519.926C840.506 524.44 831.33 526.747 821.972 526.747L821.992 526.767Z" fill="#150035"/>
<path d="M137.272 263.465C134.968 263.465 132.664 263.323 130.36 263.04L49.6133 253.263L49.7548 252.109L130.501 261.886C141.982 263.282 153.442 261.117 163.609 255.611L607.26 0L607.826 0.991838L164.174 256.623C155.827 261.137 146.631 263.444 137.272 263.444V263.465Z" fill="#150035"/>
<path d="M162.678 506.04L356.854 394.023C367.425 387.93 379.693 385.461 391.78 386.999L548.827 407.322C553.556 407.929 555.375 416.613 551.252 418.981L200.171 617.693L162.678 506.02V506.04Z" fill="#3BA1FD"/>
<path d="M200.454 618.219L199.888 617.207L550.969 418.495C552.95 417.361 553.213 414.649 552.809 412.686C552.364 410.5 550.949 408.172 548.746 407.909L391.699 387.586C379.795 386.068 367.526 388.537 357.137 394.529L162.961 506.546L162.375 505.554L356.551 393.537C367.162 387.424 379.694 384.894 391.841 386.453L548.888 406.775C551.313 407.079 553.294 409.326 553.92 412.483C554.527 415.56 553.597 418.333 551.515 419.527L200.434 618.239L200.454 618.219Z" fill="#150035"/>
<path d="M168.762 505.412L356.43 397.201C367.001 391.108 379.27 388.639 391.356 390.177L548.403 410.5C553.133 411.107 554.386 417.382 550.242 419.75L186.852 628.198L168.742 505.433L168.762 505.412Z" fill="#3BA1FD"/>
<path d="M187.156 628.684L186.59 627.692L549.98 419.244C552.001 418.09 552.405 416.066 552.102 414.568C551.799 413.07 550.667 411.37 548.343 411.066L391.296 390.744C379.391 389.226 367.123 391.695 356.734 397.687L169.066 505.898L168.5 504.886L356.168 396.675C366.779 390.562 379.31 388.031 391.458 389.59L548.504 409.913C550.91 410.216 552.769 411.957 553.234 414.325C553.699 416.714 552.648 419.021 550.566 420.236L187.176 628.684H187.156Z" fill="#150035"/>
<path d="M259.98 441.044C259.98 441.975 258.767 442.745 257.292 442.745C255.816 442.745 254.604 441.975 254.604 441.044C254.604 440.113 255.816 439.344 257.292 439.344C258.767 439.344 259.98 440.113 259.98 441.044Z" fill="#150035"/>
<path d="M257.291 443.19C255.533 443.19 254.158 442.259 254.158 441.065C254.158 439.87 255.533 438.939 257.291 438.939C259.049 438.939 260.424 439.87 260.424 441.065C260.424 442.259 259.049 443.19 257.291 443.19ZM257.291 439.789C256.078 439.789 255.027 440.376 255.027 441.044C255.027 441.712 256.078 442.299 257.291 442.299C258.504 442.299 259.555 441.712 259.555 441.044C259.555 440.376 258.504 439.789 257.291 439.789Z" fill="#150035"/>
<path d="M259.595 439.891C259.595 440.68 258.564 441.328 257.29 441.328C256.017 441.328 254.986 440.68 254.986 439.891C254.986 439.101 256.017 438.453 257.29 438.453C258.564 438.453 259.595 439.101 259.595 439.891Z" fill="#3BA1FD"/>
<path d="M257.291 441.773C255.755 441.773 254.562 440.943 254.562 439.891C254.562 438.838 255.755 438.008 257.291 438.008C258.827 438.008 260.02 438.838 260.02 439.891C260.02 440.943 258.827 441.773 257.291 441.773ZM257.291 438.878C256.2 438.878 255.432 439.405 255.432 439.891C255.432 440.376 256.2 440.903 257.291 440.903C258.383 440.903 259.151 440.376 259.151 439.891C259.151 439.405 258.383 438.878 257.291 438.878Z" fill="#150035"/>
<path d="M259.595 437.299C259.595 438.575 258.564 439.607 257.29 439.607C256.017 439.607 254.986 438.575 254.986 437.299C254.986 436.024 256.017 434.992 257.29 434.992C258.564 434.992 259.595 436.024 259.595 437.299Z" fill="#3BA1FD"/>
<path d="M257.291 440.032C255.795 440.032 254.562 438.797 254.562 437.299C254.562 435.802 255.795 434.567 257.291 434.567C258.787 434.567 260.02 435.802 260.02 437.299C260.02 438.797 258.787 440.032 257.291 440.032ZM257.291 435.437C256.26 435.437 255.432 436.267 255.432 437.299C255.432 438.332 256.26 439.162 257.291 439.162C258.322 439.162 259.151 438.332 259.151 437.299C259.151 436.267 258.322 435.437 257.291 435.437Z" fill="#150035"/>
<path d="M258.343 442.542C258.12 441.206 257.736 440.68 257.736 440.68L258.424 440.133C258.424 440.133 258.949 440.822 259.192 442.38L258.343 442.522V442.542Z" fill="#3BA1FD"/>
<path d="M257.796 437.299C257.796 437.583 257.573 437.806 257.29 437.806C257.007 437.806 256.785 437.583 256.785 437.299C256.785 437.016 257.007 436.793 257.29 436.793C257.573 436.793 257.796 437.016 257.796 437.299Z" fill="white"/>
<path d="M257.291 438.251C256.786 438.251 256.361 437.826 256.361 437.32C256.361 436.814 256.786 436.389 257.291 436.389C257.796 436.389 258.221 436.814 258.221 437.32C258.221 437.826 257.796 438.251 257.291 438.251Z" fill="white"/>
<path d="M302.203 416.754C302.203 417.685 300.99 418.455 299.514 418.455C298.039 418.455 296.826 417.685 296.826 416.754C296.826 415.823 298.039 415.054 299.514 415.054C300.99 415.054 302.203 415.823 302.203 416.754Z" fill="#150035"/>
<path d="M299.514 418.9C297.755 418.9 296.381 417.969 296.381 416.775C296.381 415.58 297.755 414.649 299.514 414.649C301.272 414.649 302.647 415.58 302.647 416.775C302.647 417.969 301.272 418.9 299.514 418.9ZM299.514 415.499C298.301 415.499 297.25 416.086 297.25 416.754C297.25 417.422 298.301 418.009 299.514 418.009C300.726 418.009 301.777 417.422 301.777 416.754C301.777 416.086 300.726 415.499 299.514 415.499Z" fill="#150035"/>
<path d="M299.513 417.038C300.786 417.038 301.817 416.394 301.817 415.6C301.817 414.807 300.786 414.163 299.513 414.163C298.241 414.163 297.209 414.807 297.209 415.6C297.209 416.394 298.241 417.038 299.513 417.038Z" fill="#3BA1FD"/>
<path d="M299.514 417.483C297.978 417.483 296.785 416.653 296.785 415.601C296.785 414.548 297.978 413.718 299.514 413.718C301.05 413.718 302.242 414.548 302.242 415.601C302.242 416.653 301.05 417.483 299.514 417.483ZM299.514 414.588C298.422 414.588 297.654 415.115 297.654 415.601C297.654 416.086 298.422 416.613 299.514 416.613C300.605 416.613 301.373 416.086 301.373 415.601C301.373 415.115 300.605 414.588 299.514 414.588Z" fill="#150035"/>
<path d="M299.513 415.337C300.786 415.337 301.817 414.304 301.817 413.03C301.817 411.755 300.786 410.722 299.513 410.722C298.241 410.722 297.209 411.755 297.209 413.03C297.209 414.304 298.241 415.337 299.513 415.337Z" fill="#3BA1FD"/>
<path d="M299.514 415.762C298.018 415.762 296.785 414.528 296.785 413.03C296.785 411.532 298.018 410.297 299.514 410.297C301.009 410.297 302.242 411.532 302.242 413.03C302.242 414.528 301.009 415.762 299.514 415.762ZM299.514 411.168C298.483 411.168 297.654 411.997 297.654 413.03C297.654 414.062 298.483 414.892 299.514 414.892C300.545 414.892 301.373 414.062 301.373 413.03C301.373 411.997 300.545 411.168 299.514 411.168Z" fill="#150035"/>
<path d="M300.565 418.252C300.343 416.916 299.959 416.39 299.959 416.39L300.626 415.843C300.626 415.843 301.151 416.531 301.414 418.11L300.565 418.252Z" fill="#3BA1FD"/>
<path d="M299.513 413.536C299.792 413.536 300.018 413.309 300.018 413.03C300.018 412.75 299.792 412.524 299.513 412.524C299.234 412.524 299.008 412.75 299.008 413.03C299.008 413.309 299.234 413.536 299.513 413.536Z" fill="white"/>
<path d="M299.514 413.961C299.008 413.961 298.584 413.536 298.584 413.03C298.584 412.524 299.008 412.099 299.514 412.099C300.019 412.099 300.443 412.524 300.443 413.03C300.443 413.536 300.019 413.961 299.514 413.961Z" fill="white"/>
<path d="M344.425 392.201C344.425 393.132 343.212 393.902 341.737 393.902C340.262 393.902 339.049 393.132 339.049 392.201C339.049 391.27 340.262 390.501 341.737 390.501C343.212 390.501 344.425 391.27 344.425 392.201Z" fill="#150035"/>
<path d="M341.736 394.327C339.978 394.327 338.604 393.396 338.604 392.201C338.604 391.007 339.978 390.076 341.736 390.076C343.495 390.076 344.869 391.007 344.869 392.201C344.869 393.396 343.495 394.327 341.736 394.327ZM341.736 390.926C340.524 390.926 339.473 391.513 339.473 392.181C339.473 392.849 340.524 393.436 341.736 393.436C342.949 393.436 344 392.849 344 392.181C344 391.513 342.949 390.926 341.736 390.926Z" fill="#150035"/>
<path d="M341.736 392.485C343.008 392.485 344.04 391.841 344.04 391.048C344.04 390.254 343.008 389.61 341.736 389.61C340.463 389.61 339.432 390.254 339.432 391.048C339.432 391.841 340.463 392.485 341.736 392.485Z" fill="#3BA1FD"/>
<path d="M341.736 392.93C340.2 392.93 339.008 392.1 339.008 391.048C339.008 389.995 340.2 389.165 341.736 389.165C343.273 389.165 344.465 389.995 344.465 391.048C344.465 392.1 343.273 392.93 341.736 392.93ZM341.736 390.035C340.645 390.035 339.877 390.562 339.877 391.048C339.877 391.533 340.645 392.06 341.736 392.06C342.828 392.06 343.596 391.533 343.596 391.048C343.596 390.562 342.828 390.035 341.736 390.035Z" fill="#150035"/>
<path d="M341.736 390.764C343.008 390.764 344.04 389.731 344.04 388.456C344.04 387.182 343.008 386.149 341.736 386.149C340.463 386.149 339.432 387.182 339.432 388.456C339.432 389.731 340.463 390.764 341.736 390.764Z" fill="#3BA1FD"/>
<path d="M341.736 391.189C340.241 391.189 339.008 389.954 339.008 388.457C339.008 386.959 340.241 385.724 341.736 385.724C343.232 385.724 344.465 386.959 344.465 388.457C344.465 389.954 343.232 391.189 341.736 391.189ZM341.736 386.594C340.706 386.594 339.877 387.424 339.877 388.457C339.877 389.489 340.706 390.319 341.736 390.319C342.767 390.319 343.596 389.489 343.596 388.457C343.596 387.424 342.767 386.594 341.736 386.594Z" fill="#150035"/>
<path d="M342.788 393.699C342.566 392.363 342.182 391.837 342.182 391.837L342.849 391.29C342.849 391.29 343.374 391.978 343.637 393.557L342.788 393.699Z" fill="#3BA1FD"/>
<path d="M342.241 388.456C342.241 388.74 342.019 388.963 341.736 388.963C341.453 388.963 341.23 388.74 341.23 388.456C341.23 388.173 341.453 387.95 341.736 387.95C342.019 387.95 342.241 388.173 342.241 388.456Z" fill="white"/>
<path d="M341.736 389.388C341.231 389.388 340.807 388.963 340.807 388.457C340.807 387.95 341.231 387.525 341.736 387.525C342.242 387.525 342.666 387.95 342.666 388.457C342.666 388.963 342.242 389.388 341.736 389.388Z" fill="white"/>
<path d="M215.069 467.217C216.554 467.217 217.757 466.455 217.757 465.516C217.757 464.577 216.554 463.816 215.069 463.816C213.584 463.816 212.381 464.577 212.381 465.516C212.381 466.455 213.584 467.217 215.069 467.217Z" fill="#150035"/>
<path d="M215.068 467.662C213.31 467.662 211.936 466.731 211.936 465.537C211.936 464.342 213.31 463.411 215.068 463.411C216.827 463.411 218.201 464.342 218.201 465.537C218.201 466.731 216.827 467.662 215.068 467.662ZM215.068 464.261C213.856 464.261 212.805 464.848 212.805 465.516C212.805 466.184 213.856 466.771 215.068 466.771C216.281 466.771 217.332 466.184 217.332 465.516C217.332 464.848 216.281 464.261 215.068 464.261Z" fill="#150035"/>
<path d="M215.068 465.8C216.34 465.8 217.372 465.156 217.372 464.362C217.372 463.569 216.34 462.925 215.068 462.925C213.795 462.925 212.764 463.569 212.764 464.362C212.764 465.156 213.795 465.8 215.068 465.8Z" fill="#3BA1FD"/>
<path d="M215.068 466.245C213.532 466.245 212.34 465.415 212.34 464.362C212.34 463.31 213.532 462.48 215.068 462.48C216.605 462.48 217.797 463.31 217.797 464.362C217.797 465.415 216.605 466.245 215.068 466.245ZM215.068 463.35C213.977 463.35 213.209 463.877 213.209 464.362C213.209 464.848 213.977 465.375 215.068 465.375C216.16 465.375 216.928 464.848 216.928 464.362C216.928 463.877 216.16 463.35 215.068 463.35Z" fill="#150035"/>
<path d="M215.068 464.079C216.34 464.079 217.372 463.046 217.372 461.771C217.372 460.497 216.34 459.464 215.068 459.464C213.795 459.464 212.764 460.497 212.764 461.771C212.764 463.046 213.795 464.079 215.068 464.079Z" fill="#3BA1FD"/>
<path d="M215.068 464.504C213.573 464.504 212.34 463.269 212.34 461.771C212.34 460.274 213.573 459.039 215.068 459.039C216.564 459.039 217.797 460.274 217.797 461.771C217.797 463.269 216.564 464.504 215.068 464.504ZM215.068 459.909C214.038 459.909 213.209 460.739 213.209 461.771C213.209 462.804 214.038 463.634 215.068 463.634C216.099 463.634 216.928 462.804 216.928 461.771C216.928 460.739 216.099 459.909 215.068 459.909Z" fill="#150035"/>
<path d="M216.12 467.014C215.898 465.678 215.514 465.152 215.514 465.152L216.201 464.605C216.201 464.605 216.726 465.293 216.969 466.872L216.12 467.014Z" fill="#3BA1FD"/>
<path d="M215.068 462.277C215.347 462.277 215.573 462.051 215.573 461.771C215.573 461.492 215.347 461.265 215.068 461.265C214.789 461.265 214.562 461.492 214.562 461.771C214.562 462.051 214.789 462.277 215.068 462.277Z" fill="white"/>
<path d="M215.068 462.723C214.563 462.723 214.139 462.298 214.139 461.792C214.139 461.286 214.563 460.861 215.068 460.861C215.574 460.861 215.998 461.286 215.998 461.792C215.998 462.298 215.574 462.723 215.068 462.723Z" fill="white"/>
<path d="M766.066 419.851C766.066 420.782 764.853 421.551 763.378 421.551C761.902 421.551 760.689 420.782 760.689 419.851C760.689 418.92 761.902 418.151 763.378 418.151C764.853 418.151 766.066 418.92 766.066 419.851Z" fill="#150035"/>
<path d="M763.357 421.976C761.599 421.976 760.225 421.045 760.225 419.851C760.225 418.657 761.599 417.726 763.357 417.726C765.116 417.726 766.49 418.657 766.49 419.851C766.49 421.045 765.116 421.976 763.357 421.976ZM763.357 418.576C762.145 418.576 761.094 419.163 761.094 419.831C761.094 420.499 762.145 421.086 763.357 421.086C764.57 421.086 765.621 420.499 765.621 419.831C765.621 419.163 764.57 418.576 763.357 418.576Z" fill="#150035"/>
<path d="M765.661 418.697C765.661 419.487 764.63 420.135 763.357 420.135C762.084 420.135 761.053 419.487 761.053 418.697C761.053 417.908 762.084 417.26 763.357 417.26C764.63 417.26 765.661 417.908 765.661 418.697Z" fill="#3BA1FD"/>
<path d="M763.358 420.58C761.821 420.58 760.629 419.75 760.629 418.697C760.629 417.645 761.821 416.815 763.358 416.815C764.894 416.815 766.086 417.645 766.086 418.697C766.086 419.75 764.894 420.58 763.358 420.58ZM763.358 417.685C762.266 417.685 761.498 418.212 761.498 418.697C761.498 419.183 762.266 419.71 763.358 419.71C764.449 419.71 765.217 419.183 765.217 418.697C765.217 418.212 764.449 417.685 763.358 417.685Z" fill="#150035"/>
<path d="M765.661 416.106C765.661 417.382 764.63 418.414 763.357 418.414C762.084 418.414 761.053 417.382 761.053 416.106C761.053 414.831 762.084 413.799 763.357 413.799C764.63 413.799 765.661 414.831 765.661 416.106Z" fill="#3BA1FD"/>
<path d="M763.358 418.839C761.862 418.839 760.629 417.604 760.629 416.106C760.629 414.609 761.862 413.374 763.358 413.374C764.853 413.374 766.086 414.609 766.086 416.106C766.086 417.604 764.853 418.839 763.358 418.839ZM763.358 414.244C762.327 414.244 761.498 415.074 761.498 416.106C761.498 417.139 762.327 417.969 763.358 417.969C764.388 417.969 765.217 417.139 765.217 416.106C765.217 415.074 764.388 414.244 763.358 414.244Z" fill="#150035"/>
<path d="M764.409 421.349C764.187 420.013 763.803 419.487 763.803 419.487L764.47 418.94C764.47 418.94 764.995 419.628 765.258 421.187L764.409 421.329V421.349Z" fill="#3BA1FD"/>
<path d="M763.862 416.106C763.862 416.39 763.64 416.612 763.357 416.612C763.074 416.612 762.852 416.39 762.852 416.106C762.852 415.823 763.074 415.6 763.357 415.6C763.64 415.6 763.862 415.823 763.862 416.106Z" fill="white"/>
<path d="M763.357 417.038C762.852 417.038 762.428 416.612 762.428 416.106C762.428 415.6 762.852 415.175 763.357 415.175C763.863 415.175 764.287 415.6 764.287 416.106C764.287 416.612 763.863 417.038 763.357 417.038Z" fill="white"/>
<path d="M805.581 397.261C807.065 397.261 808.269 396.5 808.269 395.561C808.269 394.622 807.065 393.861 805.581 393.861C804.096 393.861 802.893 394.622 802.893 395.561C802.893 396.5 804.096 397.261 805.581 397.261Z" fill="#150035"/>
<path d="M805.58 397.687C803.822 397.687 802.447 396.755 802.447 395.561C802.447 394.367 803.822 393.436 805.58 393.436C807.339 393.436 808.713 394.367 808.713 395.561C808.713 396.755 807.339 397.687 805.58 397.687ZM805.58 394.286C804.367 394.286 803.316 394.873 803.316 395.541C803.316 396.209 804.367 396.796 805.58 396.796C806.793 396.796 807.844 396.209 807.844 395.541C807.844 394.873 806.793 394.286 805.58 394.286Z" fill="#150035"/>
<path d="M805.58 395.845C806.852 395.845 807.884 395.201 807.884 394.408C807.884 393.614 806.852 392.97 805.58 392.97C804.307 392.97 803.275 393.614 803.275 394.408C803.275 395.201 804.307 395.845 805.58 395.845Z" fill="#3BA1FD"/>
<path d="M805.58 396.29C804.044 396.29 802.852 395.46 802.852 394.408C802.852 393.355 804.044 392.525 805.58 392.525C807.116 392.525 808.309 393.355 808.309 394.408C808.309 395.46 807.116 396.29 805.58 396.29ZM805.58 393.396C804.489 393.396 803.721 393.922 803.721 394.408C803.721 394.893 804.489 395.42 805.58 395.42C806.672 395.42 807.44 394.893 807.44 394.408C807.44 393.922 806.672 393.396 805.58 393.396Z" fill="#150035"/>
<path d="M805.58 394.124C806.852 394.124 807.884 393.091 807.884 391.817C807.884 390.542 806.852 389.509 805.58 389.509C804.307 389.509 803.275 390.542 803.275 391.817C803.275 393.091 804.307 394.124 805.58 394.124Z" fill="#3BA1FD"/>
<path d="M805.58 394.549C804.085 394.549 802.852 393.314 802.852 391.817C802.852 390.319 804.085 389.084 805.58 389.084C807.076 389.084 808.309 390.319 808.309 391.817C808.309 393.314 807.076 394.549 805.58 394.549ZM805.58 389.954C804.549 389.954 803.721 390.784 803.721 391.817C803.721 392.849 804.549 393.679 805.58 393.679C806.611 393.679 807.44 392.849 807.44 391.817C807.44 390.784 806.611 389.954 805.58 389.954Z" fill="#150035"/>
<path d="M806.632 397.059C806.409 395.723 806.025 395.197 806.025 395.197L806.713 394.65C806.713 394.65 807.238 395.339 807.481 396.897L806.632 397.039V397.059Z" fill="#3BA1FD"/>
<path d="M805.58 392.323C805.859 392.323 806.085 392.096 806.085 391.817C806.085 391.537 805.859 391.311 805.58 391.311C805.3 391.311 805.074 391.537 805.074 391.817C805.074 392.096 805.3 392.323 805.58 392.323Z" fill="white"/>
<path d="M805.58 392.748C805.055 392.748 804.65 392.323 804.65 391.817C804.65 391.311 805.075 390.885 805.58 390.885C806.085 390.885 806.51 391.311 806.51 391.817C806.51 392.323 806.085 392.748 805.58 392.748Z" fill="white"/>
<path d="M681.621 468.613C681.621 469.544 680.408 470.313 678.932 470.313C677.457 470.313 676.244 469.544 676.244 468.613C676.244 467.682 677.457 466.913 678.932 466.913C680.408 466.913 681.621 467.682 681.621 468.613Z" fill="#150035"/>
<path d="M678.912 470.739C677.154 470.739 675.779 469.807 675.779 468.613C675.779 467.419 677.154 466.488 678.912 466.488C680.671 466.488 682.045 467.419 682.045 468.613C682.045 469.807 680.671 470.739 678.912 470.739ZM678.912 467.338C677.699 467.338 676.648 467.925 676.648 468.593C676.648 469.261 677.699 469.848 678.912 469.848C680.125 469.848 681.176 469.261 681.176 468.593C681.176 467.925 680.125 467.338 678.912 467.338Z" fill="#150035"/>
<path d="M678.912 468.897C680.184 468.897 681.216 468.253 681.216 467.459C681.216 466.666 680.184 466.022 678.912 466.022C677.639 466.022 676.607 466.666 676.607 467.459C676.607 468.253 677.639 468.897 678.912 468.897Z" fill="#3BA1FD"/>
<path d="M678.912 469.342C677.376 469.342 676.184 468.512 676.184 467.459C676.184 466.407 677.376 465.577 678.912 465.577C680.448 465.577 681.641 466.407 681.641 467.459C681.641 468.512 680.448 469.342 678.912 469.342ZM678.912 466.447C677.821 466.447 677.053 466.974 677.053 467.459C677.053 467.945 677.821 468.471 678.912 468.471C680.004 468.471 680.772 467.945 680.772 467.459C680.772 466.974 680.004 466.447 678.912 466.447Z" fill="#150035"/>
<path d="M681.216 464.868C681.216 466.144 680.185 467.176 678.912 467.176C677.638 467.176 676.607 466.144 676.607 464.868C676.607 463.593 677.638 462.561 678.912 462.561C680.185 462.561 681.216 463.593 681.216 464.868Z" fill="#3BA1FD"/>
<path d="M678.912 467.601C677.417 467.601 676.184 466.366 676.184 464.868C676.184 463.37 677.417 462.136 678.912 462.136C680.408 462.136 681.641 463.37 681.641 464.868C681.641 466.366 680.408 467.601 678.912 467.601ZM678.912 463.006C677.881 463.006 677.053 463.836 677.053 464.868C677.053 465.901 677.881 466.731 678.912 466.731C679.943 466.731 680.772 465.901 680.772 464.868C680.772 463.836 679.943 463.006 678.912 463.006Z" fill="#150035"/>
<path d="M679.964 470.111C679.741 468.775 679.357 468.249 679.357 468.249L680.045 467.702C680.045 467.702 680.57 468.39 680.813 469.949L679.964 470.091V470.111Z" fill="#3BA1FD"/>
<path d="M679.417 464.868C679.417 465.152 679.195 465.374 678.912 465.374C678.629 465.374 678.406 465.152 678.406 464.868C678.406 464.585 678.629 464.362 678.912 464.362C679.195 464.362 679.417 464.585 679.417 464.868Z" fill="white"/>
<path d="M678.912 465.799C678.407 465.799 677.982 465.374 677.982 464.868C677.982 464.362 678.407 463.937 678.912 463.937C679.417 463.937 679.842 464.362 679.842 464.868C679.842 465.374 679.417 465.799 678.912 465.799Z" fill="white"/>
<path d="M721.135 446.024C722.62 446.024 723.824 445.262 723.824 444.323C723.824 443.384 722.62 442.623 721.135 442.623C719.651 442.623 718.447 443.384 718.447 444.323C718.447 445.262 719.651 446.024 721.135 446.024Z" fill="#150035"/>
<path d="M721.135 446.449C719.376 446.449 718.002 445.518 718.002 444.323C718.002 443.129 719.376 442.198 721.135 442.198C722.893 442.198 724.268 443.129 724.268 444.323C724.268 445.518 722.893 446.449 721.135 446.449ZM721.135 443.048C719.922 443.048 718.871 443.635 718.871 444.303C718.871 444.971 719.922 445.558 721.135 445.558C722.347 445.558 723.399 444.971 723.399 444.303C723.399 443.635 722.347 443.048 721.135 443.048Z" fill="#150035"/>
<path d="M723.438 443.17C723.438 443.959 722.408 444.607 721.134 444.607C719.861 444.607 718.83 443.959 718.83 443.17C718.83 442.38 719.861 441.732 721.134 441.732C722.408 441.732 723.438 442.38 723.438 443.17Z" fill="#3BA1FD"/>
<path d="M721.135 445.052C719.599 445.052 718.406 444.222 718.406 443.17C718.406 442.117 719.599 441.287 721.135 441.287C722.671 441.287 723.863 442.117 723.863 443.17C723.863 444.222 722.671 445.052 721.135 445.052ZM721.135 442.158C720.043 442.158 719.275 442.684 719.275 443.17C719.275 443.655 720.043 444.182 721.135 444.182C722.226 444.182 722.994 443.655 722.994 443.17C722.994 442.684 722.226 442.158 721.135 442.158Z" fill="#150035"/>
<path d="M721.134 442.886C722.407 442.886 723.438 441.853 723.438 440.579C723.438 439.304 722.407 438.271 721.134 438.271C719.862 438.271 718.83 439.304 718.83 440.579C718.83 441.853 719.862 442.886 721.134 442.886Z" fill="#3BA1FD"/>
<path d="M721.135 443.311C719.639 443.311 718.406 442.076 718.406 440.579C718.406 439.081 719.639 437.846 721.135 437.846C722.63 437.846 723.863 439.081 723.863 440.579C723.863 442.076 722.63 443.311 721.135 443.311ZM721.135 438.716C720.104 438.716 719.275 439.546 719.275 440.579C719.275 441.611 720.104 442.441 721.135 442.441C722.166 442.441 722.994 441.611 722.994 440.579C722.994 439.546 722.166 438.716 721.135 438.716Z" fill="#150035"/>
<path d="M722.186 445.821C721.964 444.485 721.58 443.959 721.58 443.959L722.247 443.412C722.247 443.412 722.773 444.101 723.035 445.659L722.186 445.801V445.821Z" fill="#3BA1FD"/>
<path d="M721.134 441.085C721.413 441.085 721.64 440.858 721.64 440.579C721.64 440.299 721.413 440.073 721.134 440.073C720.855 440.073 720.629 440.299 720.629 440.579C720.629 440.858 720.855 441.085 721.134 441.085Z" fill="white"/>
<path d="M721.135 441.51C720.63 441.51 720.205 441.085 720.205 440.579C720.205 440.073 720.63 439.647 721.135 439.647C721.64 439.647 722.065 440.073 722.065 440.579C722.065 441.085 721.64 441.51 721.135 441.51Z" fill="white"/>
<path d="M420.745 508.752C422.229 508.752 423.433 507.991 423.433 507.052C423.433 506.113 422.229 505.352 420.745 505.352C419.26 505.352 418.057 506.113 418.057 507.052C418.057 507.991 419.26 508.752 420.745 508.752Z" fill="#150035"/>
<path d="M420.744 509.178C418.986 509.178 417.611 508.246 417.611 507.052C417.611 505.858 418.986 504.927 420.744 504.927C422.503 504.927 423.877 505.858 423.877 507.052C423.877 508.246 422.503 509.178 420.744 509.178ZM420.744 505.777C419.531 505.777 418.48 506.364 418.48 507.032C418.48 507.7 419.531 508.287 420.744 508.287C421.957 508.287 423.008 507.7 423.008 507.032C423.008 506.364 421.957 505.777 420.744 505.777Z" fill="#150035"/>
<path d="M420.744 507.335C422.016 507.335 423.048 506.692 423.048 505.898C423.048 505.105 422.016 504.461 420.744 504.461C419.471 504.461 418.439 505.105 418.439 505.898C418.439 506.692 419.471 507.335 420.744 507.335Z" fill="#3BA1FD"/>
<path d="M420.744 507.761C419.208 507.761 418.016 506.931 418.016 505.878C418.016 504.825 419.208 503.996 420.744 503.996C422.28 503.996 423.473 504.825 423.473 505.878C423.473 506.931 422.28 507.761 420.744 507.761ZM420.744 504.866C419.653 504.866 418.885 505.392 418.885 505.878C418.885 506.364 419.653 506.89 420.744 506.89C421.836 506.89 422.604 506.364 422.604 505.878C422.604 505.392 421.836 504.866 420.744 504.866Z" fill="#150035"/>
<path d="M420.744 505.615C422.016 505.615 423.048 504.582 423.048 503.307C423.048 502.033 422.016 501 420.744 501C419.471 501 418.439 502.033 418.439 503.307C418.439 504.582 419.471 505.615 420.744 505.615Z" fill="#3BA1FD"/>
<path d="M420.744 506.04C419.249 506.04 418.016 504.805 418.016 503.307C418.016 501.809 419.249 500.575 420.744 500.575C422.24 500.575 423.473 501.809 423.473 503.307C423.473 504.805 422.24 506.04 420.744 506.04ZM420.744 501.445C419.713 501.445 418.885 502.275 418.885 503.307C418.885 504.34 419.713 505.17 420.744 505.17C421.775 505.17 422.604 504.34 422.604 503.307C422.604 502.275 421.775 501.445 420.744 501.445Z" fill="#150035"/>
<path d="M421.774 508.53C421.552 507.194 421.168 506.667 421.168 506.667L421.835 506.121C421.835 506.121 422.36 506.809 422.623 508.388L421.774 508.53Z" fill="#3BA1FD"/>
<path d="M420.744 503.813C421.023 503.813 421.249 503.587 421.249 503.307C421.249 503.028 421.023 502.801 420.744 502.801C420.465 502.801 420.238 503.028 420.238 503.307C420.238 503.587 420.465 503.813 420.744 503.813Z" fill="white"/>
<path d="M420.744 504.238C420.239 504.238 419.814 503.813 419.814 503.307C419.814 502.801 420.239 502.376 420.744 502.376C421.249 502.376 421.674 502.801 421.674 503.307C421.674 503.813 421.249 504.238 420.744 504.238Z" fill="white"/>
<path d="M465.656 482.762C465.656 483.693 464.443 484.462 462.968 484.462C461.492 484.462 460.279 483.693 460.279 482.762C460.279 481.831 461.492 481.062 462.968 481.062C464.443 481.062 465.656 481.831 465.656 482.762Z" fill="#150035"/>
<path d="M462.967 484.887C461.208 484.887 459.834 483.956 459.834 482.762C459.834 481.568 461.208 480.637 462.967 480.637C464.725 480.637 466.1 481.568 466.1 482.762C466.1 483.956 464.725 484.887 462.967 484.887ZM462.967 481.487C461.754 481.487 460.703 482.074 460.703 482.742C460.703 483.41 461.754 483.997 462.967 483.997C464.18 483.997 465.231 483.41 465.231 482.742C465.231 482.074 464.18 481.487 462.967 481.487Z" fill="#150035"/>
<path d="M465.251 481.608C465.251 482.398 464.22 483.045 462.947 483.045C461.673 483.045 460.643 482.398 460.643 481.608C460.643 480.819 461.673 480.171 462.947 480.171C464.22 480.171 465.251 480.819 465.251 481.608Z" fill="#3BA1FD"/>
<path d="M462.967 483.491C461.431 483.491 460.238 482.661 460.238 481.608C460.238 480.556 461.431 479.726 462.967 479.726C464.503 479.726 465.696 480.556 465.696 481.608C465.696 482.661 464.503 483.491 462.967 483.491ZM462.967 480.596C461.875 480.596 461.107 481.122 461.107 481.608C461.107 482.094 461.875 482.62 462.967 482.62C464.058 482.62 464.826 482.094 464.826 481.608C464.826 481.122 464.058 480.596 462.967 480.596Z" fill="#150035"/>
<path d="M465.251 479.017C465.251 480.292 464.22 481.325 462.947 481.325C461.673 481.325 460.643 480.292 460.643 479.017C460.643 477.742 461.673 476.71 462.947 476.71C464.22 476.71 465.251 477.742 465.251 479.017Z" fill="#3BA1FD"/>
<path d="M462.967 481.75C461.471 481.75 460.238 480.515 460.238 479.017C460.238 477.519 461.471 476.285 462.967 476.285C464.463 476.285 465.696 477.519 465.696 479.017C465.696 480.515 464.463 481.75 462.967 481.75ZM462.967 477.155C461.936 477.155 461.107 477.985 461.107 479.017C461.107 480.05 461.936 480.88 462.967 480.88C463.998 480.88 464.826 480.05 464.826 479.017C464.826 477.985 463.998 477.155 462.967 477.155Z" fill="#150035"/>
<path d="M463.997 484.26C463.775 482.924 463.391 482.398 463.391 482.398L464.078 481.851C464.078 481.851 464.603 482.539 464.846 484.098L463.997 484.24V484.26Z" fill="#3BA1FD"/>
<path d="M463.472 479.017C463.472 479.301 463.249 479.523 462.966 479.523C462.683 479.523 462.461 479.301 462.461 479.017C462.461 478.734 462.683 478.511 462.966 478.511C463.249 478.511 463.472 478.734 463.472 479.017Z" fill="white"/>
<path d="M462.967 479.948C462.462 479.948 462.037 479.523 462.037 479.017C462.037 478.511 462.462 478.086 462.967 478.086C463.472 478.086 463.897 478.511 463.897 479.017C463.897 479.523 463.472 479.948 462.967 479.948Z" fill="white"/>
<path d="M505.19 459.889C506.675 459.889 507.878 459.128 507.878 458.189C507.878 457.25 506.675 456.489 505.19 456.489C503.705 456.489 502.502 457.25 502.502 458.189C502.502 459.128 503.705 459.889 505.19 459.889Z" fill="#150035"/>
<path d="M505.189 460.334C503.431 460.334 502.057 459.403 502.057 458.209C502.057 457.015 503.431 456.084 505.189 456.084C506.948 456.084 508.322 457.015 508.322 458.209C508.322 459.403 506.948 460.334 505.189 460.334ZM505.189 456.934C503.977 456.934 502.926 457.521 502.926 458.189C502.926 458.857 503.977 459.444 505.189 459.444C506.402 459.444 507.453 458.857 507.453 458.189C507.453 457.521 506.402 456.934 505.189 456.934Z" fill="#150035"/>
<path d="M505.189 458.472C506.461 458.472 507.493 457.829 507.493 457.035C507.493 456.241 506.461 455.598 505.189 455.598C503.916 455.598 502.885 456.241 502.885 457.035C502.885 457.829 503.916 458.472 505.189 458.472Z" fill="#3BA1FD"/>
<path d="M505.189 458.918C503.653 458.918 502.461 458.088 502.461 457.035C502.461 455.982 503.653 455.153 505.189 455.153C506.726 455.153 507.918 455.982 507.918 457.035C507.918 458.088 506.726 458.918 505.189 458.918ZM505.189 456.023C504.098 456.023 503.33 456.549 503.33 457.035C503.33 457.521 504.098 458.047 505.189 458.047C506.281 458.047 507.049 457.521 507.049 457.035C507.049 456.549 506.281 456.023 505.189 456.023Z" fill="#150035"/>
<path d="M505.189 456.752C506.461 456.752 507.493 455.718 507.493 454.444C507.493 453.17 506.461 452.136 505.189 452.136C503.916 452.136 502.885 453.17 502.885 454.444C502.885 455.718 503.916 456.752 505.189 456.752Z" fill="#3BA1FD"/>
<path d="M505.189 457.177C503.694 457.177 502.461 455.942 502.461 454.444C502.461 452.946 503.694 451.711 505.189 451.711C506.685 451.711 507.918 452.946 507.918 454.444C507.918 455.942 506.685 457.177 505.189 457.177ZM505.189 452.582C504.159 452.582 503.33 453.412 503.33 454.444C503.33 455.476 504.159 456.306 505.189 456.306C506.22 456.306 507.049 455.476 507.049 454.444C507.049 453.412 506.22 452.582 505.189 452.582Z" fill="#150035"/>
<path d="M506.22 459.687C505.997 458.351 505.613 457.824 505.613 457.824L506.3 457.278C506.3 457.278 506.826 457.966 507.069 459.525L506.22 459.666V459.687Z" fill="#3BA1FD"/>
<path d="M505.189 454.95C505.468 454.95 505.694 454.724 505.694 454.444C505.694 454.165 505.468 453.938 505.189 453.938C504.91 453.938 504.684 454.165 504.684 454.444C504.684 454.724 504.91 454.95 505.189 454.95Z" fill="white"/>
<path d="M505.189 455.395C504.684 455.395 504.26 454.97 504.26 454.464C504.26 453.958 504.684 453.533 505.189 453.533C505.695 453.533 506.119 453.958 506.119 454.464C506.119 454.97 505.695 455.395 505.189 455.395Z" fill="white"/>
<path d="M381.21 531.524C381.21 532.455 379.998 533.224 378.522 533.224C377.047 533.224 375.834 532.455 375.834 531.524C375.834 530.593 377.047 529.824 378.522 529.824C379.998 529.824 381.21 530.593 381.21 531.524Z" fill="#150035"/>
<path d="M378.522 533.649C376.763 533.649 375.389 532.718 375.389 531.524C375.389 530.33 376.763 529.399 378.522 529.399C380.28 529.399 381.654 530.33 381.654 531.524C381.654 532.718 380.28 533.649 378.522 533.649ZM378.522 530.249C377.309 530.249 376.258 530.836 376.258 531.504C376.258 532.172 377.309 532.759 378.522 532.759C379.734 532.759 380.785 532.172 380.785 531.504C380.785 530.836 379.734 530.249 378.522 530.249Z" fill="#150035"/>
<path d="M378.521 531.807C379.794 531.807 380.825 531.164 380.825 530.37C380.825 529.577 379.794 528.933 378.521 528.933C377.248 528.933 376.217 529.577 376.217 530.37C376.217 531.164 377.248 531.807 378.521 531.807Z" fill="#3BA1FD"/>
<path d="M378.522 532.253C376.985 532.253 375.793 531.423 375.793 530.37C375.793 529.318 376.985 528.488 378.522 528.488C380.058 528.488 381.25 529.318 381.25 530.37C381.25 531.423 380.058 532.253 378.522 532.253ZM378.522 529.358C377.43 529.358 376.662 529.884 376.662 530.37C376.662 530.856 377.43 531.382 378.522 531.382C379.613 531.382 380.381 530.856 380.381 530.37C380.381 529.884 379.613 529.358 378.522 529.358Z" fill="#150035"/>
<path d="M378.521 530.087C379.794 530.087 380.825 529.054 380.825 527.779C380.825 526.505 379.794 525.472 378.521 525.472C377.248 525.472 376.217 526.505 376.217 527.779C376.217 529.054 377.248 530.087 378.521 530.087Z" fill="#3BA1FD"/>
<path d="M378.522 530.512C377.026 530.512 375.793 529.277 375.793 527.779C375.793 526.282 377.026 525.047 378.522 525.047C380.017 525.047 381.25 526.282 381.25 527.779C381.25 529.277 380.017 530.512 378.522 530.512ZM378.522 525.917C377.491 525.917 376.662 526.747 376.662 527.779C376.662 528.812 377.491 529.642 378.522 529.642C379.552 529.642 380.381 528.812 380.381 527.779C380.381 526.747 379.552 525.917 378.522 525.917Z" fill="#150035"/>
<path d="M379.552 533.002C379.329 531.666 378.945 531.14 378.945 531.14L379.633 530.593C379.633 530.593 380.158 531.281 380.401 532.86L379.552 533.002Z" fill="#3BA1FD"/>
<path d="M378.521 528.286C378.8 528.286 379.026 528.059 379.026 527.779C379.026 527.5 378.8 527.273 378.521 527.273C378.242 527.273 378.016 527.5 378.016 527.779C378.016 528.059 378.242 528.286 378.521 528.286Z" fill="white"/>
<path d="M378.522 528.711C378.016 528.711 377.592 528.286 377.592 527.779C377.592 527.273 378.016 526.848 378.522 526.848C379.027 526.848 379.451 527.273 379.451 527.779C379.451 528.286 379.027 528.711 378.522 528.711Z" fill="white"/>
<path d="M647.178 215.796C648.663 215.796 649.867 215.034 649.867 214.095C649.867 213.156 648.663 212.395 647.178 212.395C645.694 212.395 644.49 213.156 644.49 214.095C644.49 215.034 645.694 215.796 647.178 215.796Z" fill="#150035"/>
<path d="M647.178 216.221C645.419 216.221 644.045 215.29 644.045 214.095C644.045 212.901 645.419 211.97 647.178 211.97C648.936 211.97 650.311 212.901 650.311 214.095C650.311 215.29 648.936 216.221 647.178 216.221ZM647.178 212.82C645.965 212.82 644.914 213.407 644.914 214.075C644.914 214.743 645.965 215.33 647.178 215.33C648.39 215.33 649.442 214.743 649.442 214.075C649.442 213.407 648.39 212.82 647.178 212.82Z" fill="#150035"/>
<path d="M647.177 214.379C648.45 214.379 649.481 213.735 649.481 212.942C649.481 212.148 648.45 211.504 647.177 211.504C645.905 211.504 644.873 212.148 644.873 212.942C644.873 213.735 645.905 214.379 647.177 214.379Z" fill="#3BA1FD"/>
<path d="M647.178 214.824C645.642 214.824 644.449 213.994 644.449 212.942C644.449 211.889 645.642 211.059 647.178 211.059C648.714 211.059 649.906 211.889 649.906 212.942C649.906 213.994 648.714 214.824 647.178 214.824ZM647.178 211.929C646.086 211.929 645.318 212.456 645.318 212.942C645.318 213.427 646.086 213.954 647.178 213.954C648.269 213.954 649.037 213.427 649.037 212.942C649.037 212.456 648.269 211.929 647.178 211.929Z" fill="#150035"/>
<path d="M647.177 212.658C648.45 212.658 649.481 211.625 649.481 210.351C649.481 209.076 648.45 208.043 647.177 208.043C645.905 208.043 644.873 209.076 644.873 210.351C644.873 211.625 645.905 212.658 647.177 212.658Z" fill="#3BA1FD"/>
<path d="M647.178 213.083C645.682 213.083 644.449 211.848 644.449 210.351C644.449 208.853 645.682 207.618 647.178 207.618C648.673 207.618 649.906 208.853 649.906 210.351C649.906 211.848 648.673 213.083 647.178 213.083ZM647.178 208.488C646.147 208.488 645.318 209.318 645.318 210.351C645.318 211.383 646.147 212.213 647.178 212.213C648.209 212.213 649.037 211.383 649.037 210.351C649.037 209.318 648.209 208.488 647.178 208.488Z" fill="#150035"/>
<path d="M648.229 215.593C648.007 214.257 647.623 213.731 647.623 213.731L648.31 213.184C648.31 213.184 648.836 213.873 649.078 215.431L648.229 215.573V215.593Z" fill="#3BA1FD"/>
<path d="M647.177 210.857C647.456 210.857 647.682 210.63 647.682 210.351C647.682 210.071 647.456 209.844 647.177 209.844C646.898 209.844 646.672 210.071 646.672 210.351C646.672 210.63 646.898 210.857 647.177 210.857Z" fill="white"/>
<path d="M647.178 211.302C646.652 211.302 646.248 210.877 646.248 210.371C646.248 209.865 646.672 209.44 647.178 209.44C647.683 209.44 648.108 209.865 648.108 210.371C648.108 210.877 647.683 211.302 647.178 211.302Z" fill="white"/>
<path d="M692.109 189.805C692.109 190.736 690.896 191.506 689.421 191.506C687.945 191.506 686.732 190.736 686.732 189.805C686.732 188.874 687.945 188.105 689.421 188.105C690.896 188.105 692.109 188.874 692.109 189.805Z" fill="#150035"/>
<path d="M689.4 191.951C687.642 191.951 686.268 191.02 686.268 189.826C686.268 188.631 687.642 187.7 689.4 187.7C691.159 187.7 692.533 188.631 692.533 189.826C692.533 191.02 691.159 191.951 689.4 191.951ZM689.4 188.55C688.188 188.55 687.137 189.137 687.137 189.805C687.137 190.473 688.188 191.06 689.4 191.06C690.613 191.06 691.664 190.473 691.664 189.805C691.664 189.137 690.613 188.55 689.4 188.55Z" fill="#150035"/>
<path d="M689.4 190.089C690.672 190.089 691.704 189.445 691.704 188.652C691.704 187.858 690.672 187.215 689.4 187.215C688.127 187.215 687.096 187.858 687.096 188.652C687.096 189.445 688.127 190.089 689.4 190.089Z" fill="#3BA1FD"/>
<path d="M689.4 190.534C687.864 190.534 686.672 189.704 686.672 188.652C686.672 187.599 687.864 186.769 689.4 186.769C690.937 186.769 692.129 187.599 692.129 188.652C692.129 189.704 690.937 190.534 689.4 190.534ZM689.4 187.64C688.309 187.64 687.541 188.166 687.541 188.652C687.541 189.138 688.309 189.664 689.4 189.664C690.492 189.664 691.26 189.138 691.26 188.652C691.26 188.166 690.492 187.64 689.4 187.64Z" fill="#150035"/>
<path d="M689.4 188.368C690.672 188.368 691.704 187.335 691.704 186.061C691.704 184.786 690.672 183.753 689.4 183.753C688.127 183.753 687.096 184.786 687.096 186.061C687.096 187.335 688.127 188.368 689.4 188.368Z" fill="#3BA1FD"/>
<path d="M689.4 188.793C687.905 188.793 686.672 187.559 686.672 186.061C686.672 184.563 687.905 183.328 689.4 183.328C690.896 183.328 692.129 184.563 692.129 186.061C692.129 187.559 690.896 188.793 689.4 188.793ZM689.4 184.199C688.37 184.199 687.541 185.028 687.541 186.061C687.541 187.093 688.37 187.923 689.4 187.923C690.431 187.923 691.26 187.093 691.26 186.061C691.26 185.028 690.431 184.199 689.4 184.199Z" fill="#150035"/>
<path d="M690.452 191.303C690.23 189.967 689.846 189.441 689.846 189.441L690.533 188.895C690.533 188.895 691.058 189.583 691.301 191.162L690.452 191.303Z" fill="#3BA1FD"/>
<path d="M689.905 186.061C689.905 186.344 689.683 186.567 689.4 186.567C689.117 186.567 688.895 186.344 688.895 186.061C688.895 185.777 689.117 185.555 689.4 185.555C689.683 185.555 689.905 185.777 689.905 186.061Z" fill="white"/>
<path d="M689.4 187.012C688.895 187.012 688.471 186.587 688.471 186.081C688.471 185.575 688.895 185.15 689.4 185.15C689.906 185.15 690.33 185.575 690.33 186.081C690.33 186.587 689.906 187.012 689.4 187.012Z" fill="white"/>
<path d="M734.331 165.252C734.331 166.183 733.119 166.953 731.643 166.953C730.168 166.953 728.955 166.183 728.955 165.252C728.955 164.321 730.168 163.552 731.643 163.552C733.119 163.552 734.331 164.321 734.331 165.252Z" fill="#150035"/>
<path d="M731.623 167.378C729.865 167.378 728.49 166.447 728.49 165.252C728.49 164.058 729.865 163.127 731.623 163.127C733.381 163.127 734.756 164.058 734.756 165.252C734.756 166.447 733.381 167.378 731.623 167.378ZM731.623 163.977C730.41 163.977 729.359 164.564 729.359 165.232C729.359 165.9 730.41 166.487 731.623 166.487C732.836 166.487 733.887 165.9 733.887 165.232C733.887 164.564 732.836 163.977 731.623 163.977Z" fill="#150035"/>
<path d="M731.622 165.536C732.895 165.536 733.927 164.892 733.927 164.099C733.927 163.305 732.895 162.662 731.622 162.662C730.35 162.662 729.318 163.305 729.318 164.099C729.318 164.892 730.35 165.536 731.622 165.536Z" fill="#3BA1FD"/>
<path d="M731.623 165.981C730.087 165.981 728.895 165.151 728.895 164.099C728.895 163.046 730.087 162.216 731.623 162.216C733.159 162.216 734.352 163.046 734.352 164.099C734.352 165.151 733.159 165.981 731.623 165.981ZM731.623 163.087C730.532 163.087 729.764 163.613 729.764 164.099C729.764 164.585 730.532 165.111 731.623 165.111C732.715 165.111 733.483 164.585 733.483 164.099C733.483 163.613 732.715 163.087 731.623 163.087Z" fill="#150035"/>
<path d="M731.622 163.815C732.895 163.815 733.927 162.782 733.927 161.508C733.927 160.233 732.895 159.2 731.622 159.2C730.35 159.2 729.318 160.233 729.318 161.508C729.318 162.782 730.35 163.815 731.622 163.815Z" fill="#3BA1FD"/>
<path d="M731.623 164.24C730.127 164.24 728.895 163.006 728.895 161.508C728.895 160.01 730.127 158.775 731.623 158.775C733.119 158.775 734.352 160.01 734.352 161.508C734.352 163.006 733.119 164.24 731.623 164.24ZM731.623 159.646C730.592 159.646 729.764 160.475 729.764 161.508C729.764 162.54 730.592 163.37 731.623 163.37C732.654 163.37 733.483 162.54 733.483 161.508C733.483 160.475 732.654 159.646 731.623 159.646Z" fill="#150035"/>
<path d="M732.675 166.75C732.452 165.414 732.068 164.888 732.068 164.888L732.735 164.342C732.735 164.342 733.261 165.03 733.524 166.609L732.675 166.75Z" fill="#3BA1FD"/>
<path d="M731.622 162.014C731.902 162.014 732.128 161.787 732.128 161.508C732.128 161.228 731.902 161.002 731.622 161.002C731.343 161.002 731.117 161.228 731.117 161.508C731.117 161.787 731.343 162.014 731.622 162.014Z" fill="white"/>
<path d="M731.623 162.439C731.118 162.439 730.693 162.014 730.693 161.508C730.693 161.002 731.118 160.577 731.623 160.577C732.128 160.577 732.553 161.002 732.553 161.508C732.553 162.014 732.128 162.439 731.623 162.439Z" fill="white"/>
<path d="M562.733 264.558C564.218 264.558 565.421 263.796 565.421 262.857C565.421 261.918 564.218 261.157 562.733 261.157C561.248 261.157 560.045 261.918 560.045 262.857C560.045 263.796 561.248 264.558 562.733 264.558Z" fill="#150035"/>
<path d="M562.732 264.983C560.974 264.983 559.6 264.052 559.6 262.857C559.6 261.663 560.974 260.732 562.732 260.732C564.491 260.732 565.865 261.663 565.865 262.857C565.865 264.052 564.491 264.983 562.732 264.983ZM562.732 261.582C561.52 261.582 560.469 262.169 560.469 262.837C560.469 263.505 561.52 264.092 562.732 264.092C563.945 264.092 564.996 263.505 564.996 262.837C564.996 262.169 563.945 261.582 562.732 261.582Z" fill="#150035"/>
<path d="M562.732 263.141C564.004 263.141 565.036 262.497 565.036 261.704C565.036 260.91 564.004 260.267 562.732 260.267C561.459 260.267 560.428 260.91 560.428 261.704C560.428 262.497 561.459 263.141 562.732 263.141Z" fill="#3BA1FD"/>
<path d="M562.732 263.586C561.196 263.586 560.004 262.756 560.004 261.704C560.004 260.651 561.196 259.821 562.732 259.821C564.269 259.821 565.461 260.651 565.461 261.704C565.461 262.756 564.269 263.586 562.732 263.586ZM562.732 260.692C561.641 260.692 560.873 261.218 560.873 261.704C560.873 262.19 561.641 262.716 562.732 262.716C563.824 262.716 564.592 262.19 564.592 261.704C564.592 261.218 563.824 260.692 562.732 260.692Z" fill="#150035"/>
<path d="M562.732 261.42C564.004 261.42 565.036 260.387 565.036 259.113C565.036 257.838 564.004 256.805 562.732 256.805C561.459 256.805 560.428 257.838 560.428 259.113C560.428 260.387 561.459 261.42 562.732 261.42Z" fill="#3BA1FD"/>
<path d="M562.732 261.845C561.237 261.845 560.004 260.611 560.004 259.113C560.004 257.615 561.237 256.38 562.732 256.38C564.228 256.38 565.461 257.615 565.461 259.113C565.461 260.611 564.228 261.845 562.732 261.845ZM562.732 257.251C561.702 257.251 560.873 258.08 560.873 259.113C560.873 260.145 561.702 260.975 562.732 260.975C563.763 260.975 564.592 260.145 564.592 259.113C564.592 258.08 563.763 257.251 562.732 257.251Z" fill="#150035"/>
<path d="M563.784 264.355C563.562 263.019 563.178 262.493 563.178 262.493L563.845 261.947C563.845 261.947 564.37 262.635 564.633 264.214L563.784 264.355Z" fill="#3BA1FD"/>
<path d="M562.732 259.619C563.011 259.619 563.237 259.392 563.237 259.113C563.237 258.833 563.011 258.607 562.732 258.607C562.453 258.607 562.227 258.833 562.227 259.113C562.227 259.392 562.453 259.619 562.732 259.619Z" fill="white"/>
<path d="M562.732 260.044C562.227 260.044 561.803 259.619 561.803 259.113C561.803 258.607 562.227 258.182 562.732 258.182C563.238 258.182 563.662 258.607 563.662 259.113C563.662 259.619 563.238 260.044 562.732 260.044Z" fill="white"/>
<path d="M607.663 238.567C607.663 239.498 606.451 240.268 604.975 240.268C603.5 240.268 602.287 239.498 602.287 238.567C602.287 237.636 603.5 236.867 604.975 236.867C606.451 236.867 607.663 237.636 607.663 238.567Z" fill="#150035"/>
<path d="M604.955 240.713C603.197 240.713 601.822 239.782 601.822 238.588C601.822 237.393 603.197 236.462 604.955 236.462C606.714 236.462 608.088 237.393 608.088 238.588C608.088 239.782 606.714 240.713 604.955 240.713ZM604.955 237.312C603.742 237.312 602.691 237.899 602.691 238.567C602.691 239.235 603.742 239.822 604.955 239.822C606.168 239.822 607.219 239.235 607.219 238.567C607.219 237.899 606.168 237.312 604.955 237.312Z" fill="#150035"/>
<path d="M607.259 237.414C607.259 238.203 606.228 238.851 604.955 238.851C603.681 238.851 602.65 238.203 602.65 237.414C602.65 236.624 603.681 235.977 604.955 235.977C606.228 235.977 607.259 236.624 607.259 237.414Z" fill="#3BA1FD"/>
<path d="M604.955 239.296C603.419 239.296 602.227 238.466 602.227 237.414C602.227 236.361 603.419 235.531 604.955 235.531C606.491 235.531 607.684 236.361 607.684 237.414C607.684 238.466 606.491 239.296 604.955 239.296ZM604.955 236.402C603.864 236.402 603.096 236.928 603.096 237.414C603.096 237.9 603.864 238.426 604.955 238.426C606.047 238.426 606.815 237.9 606.815 237.414C606.815 236.928 606.047 236.402 604.955 236.402Z" fill="#150035"/>
<path d="M607.259 234.823C607.259 236.098 606.228 237.13 604.955 237.13C603.681 237.13 602.65 236.098 602.65 234.823C602.65 233.547 603.681 232.515 604.955 232.515C606.228 232.515 607.259 233.547 607.259 234.823Z" fill="#3BA1FD"/>
<path d="M604.955 237.555C603.46 237.555 602.227 236.321 602.227 234.823C602.227 233.325 603.46 232.09 604.955 232.09C606.451 232.09 607.684 233.325 607.684 234.823C607.684 236.321 606.451 237.555 604.955 237.555ZM604.955 232.96C603.924 232.96 603.096 233.79 603.096 234.823C603.096 235.855 603.924 236.685 604.955 236.685C605.986 236.685 606.815 235.855 606.815 234.823C606.815 233.79 605.986 232.96 604.955 232.96Z" fill="#150035"/>
<path d="M606.007 240.065C605.784 238.729 605.4 238.203 605.4 238.203L606.067 237.656C606.067 237.656 606.593 238.345 606.856 239.924L606.007 240.065Z" fill="#3BA1FD"/>
<path d="M605.46 234.823C605.46 235.106 605.237 235.329 604.955 235.329C604.672 235.329 604.449 235.106 604.449 234.823C604.449 234.539 604.672 234.317 604.955 234.317C605.237 234.317 605.46 234.539 605.46 234.823Z" fill="white"/>
<path d="M604.955 235.774C604.45 235.774 604.025 235.349 604.025 234.843C604.025 234.337 604.45 233.912 604.955 233.912C605.46 233.912 605.885 234.337 605.885 234.843C605.885 235.349 605.46 235.774 604.955 235.774Z" fill="white"/>
<path d="M336.3 557.514C337.784 557.514 338.988 556.753 338.988 555.814C338.988 554.875 337.784 554.114 336.3 554.114C334.815 554.114 333.611 554.875 333.611 555.814C333.611 556.753 334.815 557.514 336.3 557.514Z" fill="#150035"/>
<path d="M336.299 557.939C334.54 557.939 333.166 557.008 333.166 555.814C333.166 554.62 334.54 553.688 336.299 553.688C338.057 553.688 339.432 554.62 339.432 555.814C339.432 557.008 338.057 557.939 336.299 557.939ZM336.299 554.539C335.086 554.539 334.035 555.126 334.035 555.794C334.035 556.462 335.086 557.049 336.299 557.049C337.512 557.049 338.563 556.462 338.563 555.794C338.563 555.126 337.512 554.539 336.299 554.539Z" fill="#150035"/>
<path d="M338.583 554.66C338.583 555.449 337.552 556.097 336.279 556.097C335.005 556.097 333.975 555.449 333.975 554.66C333.975 553.871 335.005 553.223 336.279 553.223C337.552 553.223 338.583 553.871 338.583 554.66Z" fill="#3BA1FD"/>
<path d="M336.299 556.522C334.763 556.522 333.57 555.692 333.57 554.64C333.57 553.587 334.763 552.757 336.299 552.757C337.835 552.757 339.028 553.587 339.028 554.64C339.028 555.692 337.835 556.522 336.299 556.522ZM336.299 553.628C335.207 553.628 334.439 554.154 334.439 554.64C334.439 555.126 335.207 555.652 336.299 555.652C337.39 555.652 338.158 555.126 338.158 554.64C338.158 554.154 337.39 553.628 336.299 553.628Z" fill="#150035"/>
<path d="M336.298 554.377C337.571 554.377 338.602 553.344 338.602 552.069C338.602 550.795 337.571 549.762 336.298 549.762C335.026 549.762 333.994 550.795 333.994 552.069C333.994 553.344 335.026 554.377 336.298 554.377Z" fill="#3BA1FD"/>
<path d="M336.299 554.802C334.803 554.802 333.57 553.567 333.57 552.069C333.57 550.571 334.803 549.337 336.299 549.337C337.795 549.337 339.028 550.571 339.028 552.069C339.028 553.567 337.795 554.802 336.299 554.802ZM336.299 550.207C335.268 550.207 334.439 551.037 334.439 552.069C334.439 553.102 335.268 553.931 336.299 553.931C337.33 553.931 338.158 553.102 338.158 552.069C338.158 551.037 337.33 550.207 336.299 550.207Z" fill="#150035"/>
<path d="M337.329 557.292C337.107 555.956 336.723 555.429 336.723 555.429L337.41 554.883C337.41 554.883 337.935 555.571 338.178 557.15L337.329 557.292Z" fill="#3BA1FD"/>
<path d="M336.804 552.069C336.804 552.353 336.581 552.575 336.298 552.575C336.015 552.575 335.793 552.353 335.793 552.069C335.793 551.786 336.015 551.563 336.298 551.563C336.581 551.563 336.804 551.786 336.804 552.069Z" fill="white"/>
<path d="M336.299 553C335.773 553 335.369 552.575 335.369 552.069C335.369 551.563 335.794 551.138 336.299 551.138C336.804 551.138 337.229 551.563 337.229 552.069C337.229 552.575 336.804 553 336.299 553Z" fill="white"/>
<path d="M254.542 604.576C254.542 605.507 253.33 606.276 251.854 606.276C250.379 606.276 249.166 605.507 249.166 604.576C249.166 603.645 250.379 602.876 251.854 602.876C253.33 602.876 254.542 603.645 254.542 604.576Z" fill="#150035"/>
<path d="M251.854 606.701C250.095 606.701 248.721 605.77 248.721 604.576C248.721 603.382 250.095 602.451 251.854 602.451C253.612 602.451 254.986 603.382 254.986 604.576C254.986 605.77 253.612 606.701 251.854 606.701ZM251.854 603.301C250.641 603.301 249.59 603.888 249.59 604.556C249.59 605.224 250.641 605.811 251.854 605.811C253.066 605.811 254.117 605.224 254.117 604.556C254.117 603.888 253.066 603.301 251.854 603.301Z" fill="#150035"/>
<path d="M251.853 604.859C253.126 604.859 254.157 604.216 254.157 603.422C254.157 602.629 253.126 601.985 251.853 601.985C250.58 601.985 249.549 602.629 249.549 603.422C249.549 604.216 250.58 604.859 251.853 604.859Z" fill="#3BA1FD"/>
<path d="M251.854 605.284C250.317 605.284 249.125 604.455 249.125 603.402C249.125 602.349 250.317 601.52 251.854 601.52C253.39 601.52 254.582 602.349 254.582 603.402C254.582 604.455 253.39 605.284 251.854 605.284ZM251.854 602.39C250.762 602.39 249.994 602.916 249.994 603.402C249.994 603.888 250.762 604.414 251.854 604.414C252.945 604.414 253.713 603.888 253.713 603.402C253.713 602.916 252.945 602.39 251.854 602.39Z" fill="#150035"/>
<path d="M254.157 600.831C254.157 602.106 253.126 603.139 251.853 603.139C250.58 603.139 249.549 602.106 249.549 600.831C249.549 599.556 250.58 598.524 251.853 598.524C253.126 598.524 254.157 599.556 254.157 600.831Z" fill="#3BA1FD"/>
<path d="M251.854 603.564C250.358 603.564 249.125 602.329 249.125 600.831C249.125 599.333 250.358 598.099 251.854 598.099C253.349 598.099 254.582 599.333 254.582 600.831C254.582 602.329 253.349 603.564 251.854 603.564ZM251.854 598.969C250.823 598.969 249.994 599.799 249.994 600.831C249.994 601.864 250.823 602.693 251.854 602.693C252.884 602.693 253.713 601.864 253.713 600.831C253.713 599.799 252.884 598.969 251.854 598.969Z" fill="#150035"/>
<path d="M252.905 606.054C252.683 604.718 252.299 604.191 252.299 604.191L252.966 603.645C252.966 603.645 253.491 604.333 253.754 605.912L252.905 606.054Z" fill="#3BA1FD"/>
<path d="M252.358 600.831C252.358 601.115 252.136 601.337 251.853 601.337C251.57 601.337 251.348 601.115 251.348 600.831C251.348 600.548 251.57 600.325 251.853 600.325C252.136 600.325 252.358 600.548 252.358 600.831Z" fill="white"/>
<path d="M251.854 601.762C251.348 601.762 250.924 601.337 250.924 600.831C250.924 600.325 251.348 599.9 251.854 599.9C252.359 599.9 252.783 600.325 252.783 600.831C252.783 601.337 252.359 601.762 251.854 601.762Z" fill="white"/>
<path d="M296.765 580.286C296.765 581.217 295.552 581.986 294.077 581.986C292.601 581.986 291.389 581.217 291.389 580.286C291.389 579.355 292.601 578.586 294.077 578.586C295.552 578.586 296.765 579.355 296.765 580.286Z" fill="#150035"/>
<path d="M294.076 582.411C292.318 582.411 290.943 581.48 290.943 580.286C290.943 579.092 292.318 578.161 294.076 578.161C295.835 578.161 297.209 579.092 297.209 580.286C297.209 581.48 295.835 582.411 294.076 582.411ZM294.076 579.011C292.863 579.011 291.812 579.598 291.812 580.266C291.812 580.934 292.863 581.521 294.076 581.521C295.289 581.521 296.34 580.934 296.34 580.266C296.34 579.598 295.289 579.011 294.076 579.011Z" fill="#150035"/>
<path d="M294.076 580.569C295.348 580.569 296.38 579.926 296.38 579.132C296.38 578.338 295.348 577.695 294.076 577.695C292.803 577.695 291.771 578.338 291.771 579.132C291.771 579.926 292.803 580.569 294.076 580.569Z" fill="#3BA1FD"/>
<path d="M294.076 580.994C292.54 580.994 291.348 580.165 291.348 579.112C291.348 578.059 292.54 577.229 294.076 577.229C295.612 577.229 296.805 578.059 296.805 579.112C296.805 580.165 295.612 580.994 294.076 580.994ZM294.076 578.1C292.985 578.1 292.217 578.626 292.217 579.112C292.217 579.598 292.985 580.124 294.076 580.124C295.168 580.124 295.936 579.598 295.936 579.112C295.936 578.626 295.168 578.1 294.076 578.1Z" fill="#150035"/>
<path d="M294.076 578.849C295.348 578.849 296.38 577.816 296.38 576.541C296.38 575.267 295.348 574.234 294.076 574.234C292.803 574.234 291.771 575.267 291.771 576.541C291.771 577.816 292.803 578.849 294.076 578.849Z" fill="#3BA1FD"/>
<path d="M294.076 579.274C292.581 579.274 291.348 578.039 291.348 576.541C291.348 575.043 292.581 573.809 294.076 573.809C295.572 573.809 296.805 575.043 296.805 576.541C296.805 578.039 295.572 579.274 294.076 579.274ZM294.076 574.679C293.045 574.679 292.217 575.509 292.217 576.541C292.217 577.573 293.045 578.403 294.076 578.403C295.107 578.403 295.936 577.573 295.936 576.541C295.936 575.509 295.107 574.679 294.076 574.679Z" fill="#150035"/>
<path d="M295.128 581.763C294.906 580.428 294.521 579.901 294.521 579.901L295.188 579.355C295.188 579.355 295.714 580.043 295.977 581.622L295.128 581.763Z" fill="#3BA1FD"/>
<path d="M294.076 577.047C294.355 577.047 294.581 576.821 294.581 576.541C294.581 576.262 294.355 576.035 294.076 576.035C293.797 576.035 293.57 576.262 293.57 576.541C293.57 576.821 293.797 577.047 294.076 577.047Z" fill="white"/>
<path d="M294.076 577.472C293.571 577.472 293.146 577.047 293.146 576.541C293.146 576.035 293.571 575.61 294.076 575.61C294.582 575.61 295.006 576.035 295.006 576.541C295.006 577.047 294.582 577.472 294.076 577.472Z" fill="white"/>
<path d="M776.554 140.881C776.554 141.813 775.341 142.582 773.866 142.582C772.39 142.582 771.178 141.813 771.178 140.881C771.178 139.95 772.39 139.181 773.866 139.181C775.341 139.181 776.554 139.95 776.554 140.881Z" fill="#150035"/>
<path d="M773.846 143.027C772.087 143.027 770.713 142.096 770.713 140.902C770.713 139.707 772.087 138.776 773.846 138.776C775.604 138.776 776.979 139.707 776.979 140.902C776.979 142.096 775.604 143.027 773.846 143.027ZM773.846 139.627C772.633 139.627 771.582 140.214 771.582 140.881C771.582 141.549 772.633 142.136 773.846 142.136C775.058 142.136 776.109 141.549 776.109 140.881C776.109 140.214 775.058 139.627 773.846 139.627Z" fill="#150035"/>
<path d="M773.845 141.165C775.118 141.165 776.149 140.522 776.149 139.728C776.149 138.934 775.118 138.291 773.845 138.291C772.573 138.291 771.541 138.934 771.541 139.728C771.541 140.522 772.573 141.165 773.845 141.165Z" fill="#3BA1FD"/>
<path d="M773.846 141.61C772.31 141.61 771.117 140.78 771.117 139.728C771.117 138.675 772.31 137.845 773.846 137.845C775.382 137.845 776.574 138.675 776.574 139.728C776.574 140.78 775.382 141.61 773.846 141.61ZM773.846 138.716C772.754 138.716 771.986 139.242 771.986 139.728C771.986 140.214 772.754 140.74 773.846 140.74C774.937 140.74 775.705 140.214 775.705 139.728C775.705 139.242 774.937 138.716 773.846 138.716Z" fill="#150035"/>
<path d="M773.845 139.444C775.118 139.444 776.149 138.411 776.149 137.137C776.149 135.862 775.118 134.829 773.845 134.829C772.573 134.829 771.541 135.862 771.541 137.137C771.541 138.411 772.573 139.444 773.845 139.444Z" fill="#3BA1FD"/>
<path d="M773.846 139.87C772.35 139.87 771.117 138.635 771.117 137.137C771.117 135.639 772.35 134.404 773.846 134.404C775.341 134.404 776.574 135.639 776.574 137.137C776.574 138.635 775.341 139.87 773.846 139.87ZM773.846 135.275C772.815 135.275 771.986 136.105 771.986 137.137C771.986 138.169 772.815 138.999 773.846 138.999C774.877 138.999 775.705 138.169 775.705 137.137C775.705 136.105 774.877 135.275 773.846 135.275Z" fill="#150035"/>
<path d="M774.897 142.379C774.675 141.043 774.291 140.517 774.291 140.517L774.978 139.971C774.978 139.971 775.504 140.659 775.746 142.238L774.897 142.379Z" fill="#3BA1FD"/>
<path d="M773.845 137.643C774.124 137.643 774.35 137.416 774.35 137.137C774.35 136.857 774.124 136.631 773.845 136.631C773.566 136.631 773.34 136.857 773.34 137.137C773.34 137.416 773.566 137.643 773.845 137.643Z" fill="white"/>
<path d="M773.846 138.088C773.34 138.088 772.916 137.663 772.916 137.157C772.916 136.651 773.34 136.226 773.846 136.226C774.351 136.226 774.775 136.651 774.775 137.157C774.775 137.663 774.351 138.088 773.846 138.088Z" fill="white"/>
<path d="M361.747 157.763C363.231 157.763 364.435 157.002 364.435 156.063C364.435 155.124 363.231 154.363 361.747 154.363C360.262 154.363 359.059 155.124 359.059 156.063C359.059 157.002 360.262 157.763 361.747 157.763Z" fill="#150035"/>
<path d="M361.746 158.188C359.988 158.188 358.613 157.257 358.613 156.063C358.613 154.869 359.988 153.938 361.746 153.938C363.505 153.938 364.879 154.869 364.879 156.063C364.879 157.257 363.505 158.188 361.746 158.188ZM361.746 154.788C360.533 154.788 359.482 155.375 359.482 156.043C359.482 156.711 360.533 157.298 361.746 157.298C362.959 157.298 364.01 156.711 364.01 156.043C364.01 155.375 362.959 154.788 361.746 154.788Z" fill="#150035"/>
<path d="M361.746 156.346C363.018 156.346 364.05 155.703 364.05 154.909C364.05 154.115 363.018 153.472 361.746 153.472C360.473 153.472 359.441 154.115 359.441 154.909C359.441 155.703 360.473 156.346 361.746 156.346Z" fill="#3BA1FD"/>
<path d="M361.746 156.792C360.21 156.792 359.018 155.962 359.018 154.909C359.018 153.857 360.21 153.027 361.746 153.027C363.282 153.027 364.475 153.857 364.475 154.909C364.475 155.962 363.282 156.792 361.746 156.792ZM361.746 153.897C360.655 153.897 359.887 154.423 359.887 154.909C359.887 155.395 360.655 155.921 361.746 155.921C362.838 155.921 363.606 155.395 363.606 154.909C363.606 154.423 362.838 153.897 361.746 153.897Z" fill="#150035"/>
<path d="M361.746 154.626C363.018 154.626 364.05 153.592 364.05 152.318C364.05 151.044 363.018 150.01 361.746 150.01C360.473 150.01 359.441 151.044 359.441 152.318C359.441 153.592 360.473 154.626 361.746 154.626Z" fill="#3BA1FD"/>
<path d="M361.746 155.051C360.251 155.051 359.018 153.816 359.018 152.318C359.018 150.82 360.251 149.585 361.746 149.585C363.242 149.585 364.475 150.82 364.475 152.318C364.475 153.816 363.242 155.051 361.746 155.051ZM361.746 150.456C360.715 150.456 359.887 151.286 359.887 152.318C359.887 153.35 360.715 154.18 361.746 154.18C362.777 154.18 363.606 153.35 363.606 152.318C363.606 151.286 362.777 150.456 361.746 150.456Z" fill="#150035"/>
<path d="M362.798 157.561C362.575 156.225 362.191 155.698 362.191 155.698L362.879 155.152C362.879 155.152 363.404 155.84 363.647 157.419L362.798 157.561Z" fill="#3BA1FD"/>
<path d="M361.746 152.824C362.025 152.824 362.251 152.598 362.251 152.318C362.251 152.039 362.025 151.812 361.746 151.812C361.466 151.812 361.24 152.039 361.24 152.318C361.24 152.598 361.466 152.824 361.746 152.824Z" fill="white"/>
<path d="M361.746 153.249C361.241 153.249 360.816 152.824 360.816 152.318C360.816 151.812 361.241 151.387 361.746 151.387C362.251 151.387 362.676 151.812 362.676 152.318C362.676 152.824 362.251 153.249 361.746 153.249Z" fill="white"/>
<path d="M406.658 131.773C406.658 132.704 405.445 133.473 403.969 133.473C402.494 133.473 401.281 132.704 401.281 131.773C401.281 130.842 402.494 130.073 403.969 130.073C405.445 130.073 406.658 130.842 406.658 131.773Z" fill="#150035"/>
<path d="M403.969 133.898C402.21 133.898 400.836 132.967 400.836 131.773C400.836 130.579 402.21 129.647 403.969 129.647C405.727 129.647 407.102 130.579 407.102 131.773C407.102 132.967 405.727 133.898 403.969 133.898ZM403.969 130.498C402.756 130.498 401.705 131.085 401.705 131.753C401.705 132.421 402.756 133.008 403.969 133.008C405.181 133.008 406.232 132.421 406.232 131.753C406.232 131.085 405.181 130.498 403.969 130.498Z" fill="#150035"/>
<path d="M403.968 132.056C405.241 132.056 406.272 131.413 406.272 130.619C406.272 129.825 405.241 129.182 403.968 129.182C402.696 129.182 401.664 129.825 401.664 130.619C401.664 131.413 402.696 132.056 403.968 132.056Z" fill="#3BA1FD"/>
<path d="M403.969 132.502C402.433 132.502 401.24 131.672 401.24 130.619C401.24 129.566 402.433 128.737 403.969 128.737C405.505 128.737 406.697 129.566 406.697 130.619C406.697 131.672 405.505 132.502 403.969 132.502ZM403.969 129.607C402.877 129.607 402.109 130.133 402.109 130.619C402.109 131.105 402.877 131.631 403.969 131.631C405.06 131.631 405.828 131.105 405.828 130.619C405.828 130.133 405.06 129.607 403.969 129.607Z" fill="#150035"/>
<path d="M403.968 130.336C405.241 130.336 406.272 129.302 406.272 128.028C406.272 126.754 405.241 125.72 403.968 125.72C402.696 125.72 401.664 126.754 401.664 128.028C401.664 129.302 402.696 130.336 403.968 130.336Z" fill="#3BA1FD"/>
<path d="M403.969 130.761C402.473 130.761 401.24 129.526 401.24 128.028C401.24 126.53 402.473 125.295 403.969 125.295C405.465 125.295 406.697 126.53 406.697 128.028C406.697 129.526 405.465 130.761 403.969 130.761ZM403.969 126.166C402.938 126.166 402.109 126.996 402.109 128.028C402.109 129.06 402.938 129.89 403.969 129.89C405 129.89 405.828 129.06 405.828 128.028C405.828 126.996 405 126.166 403.969 126.166Z" fill="#150035"/>
<path d="M405.02 133.271C404.798 131.935 404.414 131.408 404.414 131.408L405.081 130.862C405.081 130.862 405.607 131.55 405.869 133.129L405.02 133.271Z" fill="#3BA1FD"/>
<path d="M404.473 128.028C404.473 128.311 404.251 128.534 403.968 128.534C403.685 128.534 403.463 128.311 403.463 128.028C403.463 127.745 403.685 127.522 403.968 127.522C404.251 127.522 404.473 127.745 404.473 128.028Z" fill="white"/>
<path d="M403.969 128.959C403.463 128.959 403.039 128.534 403.039 128.028C403.039 127.522 403.463 127.097 403.969 127.097C404.474 127.097 404.899 127.522 404.899 128.028C404.899 128.534 404.474 128.959 403.969 128.959Z" fill="white"/>
<path d="M446.192 108.92C447.677 108.92 448.88 108.159 448.88 107.22C448.88 106.281 447.677 105.52 446.192 105.52C444.707 105.52 443.504 106.281 443.504 107.22C443.504 108.159 444.707 108.92 446.192 108.92Z" fill="#150035"/>
<path d="M446.191 109.345C444.433 109.345 443.059 108.414 443.059 107.22C443.059 106.026 444.433 105.094 446.191 105.094C447.95 105.094 449.324 106.026 449.324 107.22C449.324 108.414 447.95 109.345 446.191 109.345ZM446.191 105.945C444.979 105.945 443.928 106.532 443.928 107.2C443.928 107.868 444.979 108.455 446.191 108.455C447.404 108.455 448.455 107.868 448.455 107.2C448.455 106.532 447.404 105.945 446.191 105.945Z" fill="#150035"/>
<path d="M448.476 106.066C448.476 106.855 447.445 107.503 446.171 107.503C444.898 107.503 443.867 106.855 443.867 106.066C443.867 105.277 444.898 104.629 446.171 104.629C447.445 104.629 448.476 105.277 448.476 106.066Z" fill="#3BA1FD"/>
<path d="M446.191 107.928C444.655 107.928 443.463 107.098 443.463 106.046C443.463 104.993 444.655 104.163 446.191 104.163C447.728 104.163 448.92 104.993 448.92 106.046C448.92 107.098 447.728 107.928 446.191 107.928ZM446.191 105.034C445.1 105.034 444.332 105.56 444.332 106.046C444.332 106.532 445.1 107.058 446.191 107.058C447.283 107.058 448.051 106.532 448.051 106.046C448.051 105.56 447.283 105.034 446.191 105.034Z" fill="#150035"/>
<path d="M446.191 105.783C447.463 105.783 448.495 104.749 448.495 103.475C448.495 102.201 447.463 101.167 446.191 101.167C444.918 101.167 443.887 102.201 443.887 103.475C443.887 104.749 444.918 105.783 446.191 105.783Z" fill="#3BA1FD"/>
<path d="M446.191 106.208C444.696 106.208 443.463 104.973 443.463 103.475C443.463 101.977 444.696 100.742 446.191 100.742C447.687 100.742 448.92 101.977 448.92 103.475C448.92 104.973 447.687 106.208 446.191 106.208ZM446.191 101.613C445.161 101.613 444.332 102.443 444.332 103.475C444.332 104.507 445.161 105.337 446.191 105.337C447.222 105.337 448.051 104.507 448.051 103.475C448.051 102.443 447.222 101.613 446.191 101.613Z" fill="#150035"/>
<path d="M447.222 108.697C446.999 107.361 446.615 106.835 446.615 106.835L447.282 106.289C447.282 106.289 447.808 106.977 448.07 108.556L447.222 108.697Z" fill="#3BA1FD"/>
<path d="M446.191 103.981C446.47 103.981 446.696 103.755 446.696 103.475C446.696 103.196 446.47 102.969 446.191 102.969C445.912 102.969 445.686 103.196 445.686 103.475C445.686 103.755 445.912 103.981 446.191 103.981Z" fill="white"/>
<path d="M446.191 104.406C445.686 104.406 445.262 103.981 445.262 103.475C445.262 102.969 445.686 102.544 446.191 102.544C446.697 102.544 447.121 102.969 447.121 103.475C447.121 103.981 446.697 104.406 446.191 104.406Z" fill="white"/>
<path d="M277.301 206.525C278.786 206.525 279.99 205.764 279.99 204.825C279.99 203.886 278.786 203.125 277.301 203.125C275.817 203.125 274.613 203.886 274.613 204.825C274.613 205.764 275.817 206.525 277.301 206.525Z" fill="#150035"/>
<path d="M277.301 206.95C275.542 206.95 274.168 206.019 274.168 204.825C274.168 203.631 275.542 202.699 277.301 202.699C279.059 202.699 280.434 203.631 280.434 204.825C280.434 206.019 279.059 206.95 277.301 206.95ZM277.301 203.55C276.088 203.55 275.037 204.137 275.037 204.805C275.037 205.473 276.088 206.06 277.301 206.06C278.514 206.06 279.565 205.473 279.565 204.805C279.565 204.137 278.514 203.55 277.301 203.55Z" fill="#150035"/>
<path d="M277.3 205.108C278.573 205.108 279.604 204.465 279.604 203.671C279.604 202.877 278.573 202.234 277.3 202.234C276.028 202.234 274.996 202.877 274.996 203.671C274.996 204.465 276.028 205.108 277.3 205.108Z" fill="#3BA1FD"/>
<path d="M277.301 205.533C275.765 205.533 274.572 204.703 274.572 203.651C274.572 202.598 275.765 201.768 277.301 201.768C278.837 201.768 280.029 202.598 280.029 203.651C280.029 204.703 278.837 205.533 277.301 205.533ZM277.301 202.639C276.209 202.639 275.441 203.165 275.441 203.651C275.441 204.137 276.209 204.663 277.301 204.663C278.392 204.663 279.16 204.137 279.16 203.651C279.16 203.165 278.392 202.639 277.301 202.639Z" fill="#150035"/>
<path d="M277.3 203.388C278.573 203.388 279.604 202.354 279.604 201.08C279.604 199.806 278.573 198.772 277.3 198.772C276.028 198.772 274.996 199.806 274.996 201.08C274.996 202.354 276.028 203.388 277.3 203.388Z" fill="#3BA1FD"/>
<path d="M277.301 203.813C275.805 203.813 274.572 202.578 274.572 201.08C274.572 199.582 275.805 198.347 277.301 198.347C278.797 198.347 280.029 199.582 280.029 201.08C280.029 202.578 278.797 203.813 277.301 203.813ZM277.301 199.218C276.27 199.218 275.441 200.048 275.441 201.08C275.441 202.112 276.27 202.942 277.301 202.942C278.332 202.942 279.16 202.112 279.16 201.08C279.16 200.048 278.332 199.218 277.301 199.218Z" fill="#150035"/>
<path d="M278.352 206.302C278.13 204.966 277.746 204.44 277.746 204.44L278.413 203.894C278.413 203.894 278.939 204.582 279.201 206.14L278.352 206.282V206.302Z" fill="#3BA1FD"/>
<path d="M277.806 201.08C277.806 201.363 277.583 201.586 277.3 201.586C277.017 201.586 276.795 201.363 276.795 201.08C276.795 200.797 277.017 200.574 277.3 200.574C277.583 200.574 277.806 200.797 277.806 201.08Z" fill="white"/>
<path d="M277.301 202.011C276.796 202.011 276.371 201.586 276.371 201.08C276.371 200.574 276.796 200.149 277.301 200.149C277.806 200.149 278.231 200.574 278.231 201.08C278.231 201.586 277.806 202.011 277.301 202.011Z" fill="white"/>
<path d="M322.212 180.535C322.212 181.466 321 182.235 319.524 182.235C318.049 182.235 316.836 181.466 316.836 180.535C316.836 179.604 318.049 178.834 319.524 178.834C321 178.834 322.212 179.604 322.212 180.535Z" fill="#150035"/>
<path d="M319.523 182.66C317.765 182.66 316.391 181.729 316.391 180.535C316.391 179.341 317.765 178.409 319.523 178.409C321.282 178.409 322.656 179.341 322.656 180.535C322.656 181.729 321.282 182.66 319.523 182.66ZM319.523 179.26C318.311 179.26 317.26 179.847 317.26 180.515C317.26 181.183 318.311 181.77 319.523 181.77C320.736 181.77 321.787 181.183 321.787 180.515C321.787 179.847 320.736 179.26 319.523 179.26Z" fill="#150035"/>
<path d="M321.827 179.381C321.827 180.17 320.796 180.818 319.523 180.818C318.25 180.818 317.219 180.17 317.219 179.381C317.219 178.592 318.25 177.944 319.523 177.944C320.796 177.944 321.827 178.592 321.827 179.381Z" fill="#3BA1FD"/>
<path d="M319.524 181.263C317.987 181.263 316.795 180.434 316.795 179.381C316.795 178.328 317.987 177.499 319.524 177.499C321.06 177.499 322.252 178.328 322.252 179.381C322.252 180.434 321.06 181.263 319.524 181.263ZM319.524 178.369C318.432 178.369 317.664 178.895 317.664 179.381C317.664 179.867 318.432 180.393 319.524 180.393C320.615 180.393 321.383 179.867 321.383 179.381C321.383 178.895 320.615 178.369 319.524 178.369Z" fill="#150035"/>
<path d="M321.827 176.79C321.827 178.065 320.796 179.098 319.523 179.098C318.25 179.098 317.219 178.065 317.219 176.79C317.219 175.515 318.25 174.482 319.523 174.482C320.796 174.482 321.827 175.515 321.827 176.79Z" fill="#3BA1FD"/>
<path d="M319.524 179.523C318.028 179.523 316.795 178.288 316.795 176.79C316.795 175.292 318.028 174.057 319.524 174.057C321.019 174.057 322.252 175.292 322.252 176.79C322.252 178.288 321.019 179.523 319.524 179.523ZM319.524 174.928C318.493 174.928 317.664 175.758 317.664 176.79C317.664 177.822 318.493 178.652 319.524 178.652C320.554 178.652 321.383 177.822 321.383 176.79C321.383 175.758 320.554 174.928 319.524 174.928Z" fill="#150035"/>
<path d="M320.575 182.033C320.353 180.697 319.969 180.17 319.969 180.17L320.656 179.624C320.656 179.624 321.181 180.312 321.424 181.871L320.575 182.012V182.033Z" fill="#3BA1FD"/>
<path d="M320.028 176.79C320.028 177.073 319.806 177.296 319.523 177.296C319.24 177.296 319.018 177.073 319.018 176.79C319.018 176.507 319.24 176.284 319.523 176.284C319.806 176.284 320.028 176.507 320.028 176.79Z" fill="white"/>
<path d="M319.524 177.721C318.998 177.721 318.594 177.296 318.594 176.79C318.594 176.284 319.018 175.859 319.524 175.859C320.029 175.859 320.453 176.284 320.453 176.79C320.453 177.296 320.029 177.721 319.524 177.721Z" fill="white"/>
<path d="M533.326 58.3768C533.326 59.3079 532.113 60.0771 530.637 60.0771C529.162 60.0771 527.949 59.3079 527.949 58.3768C527.949 57.4457 529.162 56.6765 530.637 56.6765C532.113 56.6765 533.326 57.4457 533.326 58.3768Z" fill="#150035"/>
<path d="M530.637 60.5022C528.878 60.5022 527.504 59.5711 527.504 58.3768C527.504 57.1826 528.878 56.2515 530.637 56.2515C532.395 56.2515 533.77 57.1826 533.77 58.3768C533.77 59.5711 532.395 60.5022 530.637 60.5022ZM530.637 57.1016C529.424 57.1016 528.373 57.6886 528.373 58.3566C528.373 59.0246 529.424 59.6116 530.637 59.6116C531.849 59.6116 532.901 59.0246 532.901 58.3566C532.901 57.6886 531.849 57.1016 530.637 57.1016Z" fill="#150035"/>
<path d="M530.636 58.6602C531.909 58.6602 532.94 58.0168 532.94 57.223C532.94 56.4293 531.909 55.7859 530.636 55.7859C529.364 55.7859 528.332 56.4293 528.332 57.223C528.332 58.0168 529.364 58.6602 530.636 58.6602Z" fill="#3BA1FD"/>
<path d="M530.637 59.1055C529.101 59.1055 527.908 58.2756 527.908 57.223C527.908 56.1705 529.101 55.3406 530.637 55.3406C532.173 55.3406 533.365 56.1705 533.365 57.223C533.365 58.2756 532.173 59.1055 530.637 59.1055ZM530.637 56.211C529.545 56.211 528.777 56.7372 528.777 57.223C528.777 57.7088 529.545 58.2351 530.637 58.2351C531.728 58.2351 532.496 57.7088 532.496 57.223C532.496 56.7372 531.728 56.211 530.637 56.211Z" fill="#150035"/>
<path d="M530.636 56.9395C531.909 56.9395 532.94 55.9064 532.94 54.632C532.94 53.3576 531.909 52.3245 530.636 52.3245C529.364 52.3245 528.332 53.3576 528.332 54.632C528.332 55.9064 529.364 56.9395 530.636 56.9395Z" fill="#3BA1FD"/>
<path d="M530.637 57.3646C529.141 57.3646 527.908 56.1299 527.908 54.632C527.908 53.1342 529.141 51.8994 530.637 51.8994C532.132 51.8994 533.365 53.1342 533.365 54.632C533.365 56.1299 532.132 57.3646 530.637 57.3646ZM530.637 52.7698C529.606 52.7698 528.777 53.5997 528.777 54.632C528.777 55.6644 529.606 56.4943 530.637 56.4943C531.668 56.4943 532.496 55.6644 532.496 54.632C532.496 53.5997 531.668 52.7698 530.637 52.7698Z" fill="#150035"/>
<path d="M531.667 59.8746C531.445 58.5386 531.061 58.0123 531.061 58.0123L531.748 57.4658C531.748 57.4658 532.273 58.154 532.516 59.7329L531.667 59.8746Z" fill="#3BA1FD"/>
<path d="M530.636 55.1381C530.915 55.1381 531.141 54.9115 531.141 54.632C531.141 54.3525 530.915 54.126 530.636 54.126C530.357 54.126 530.131 54.3525 530.131 54.632C530.131 54.9115 530.357 55.1381 530.636 55.1381Z" fill="white"/>
<path d="M530.637 55.5632C530.131 55.5632 529.707 55.1381 529.707 54.632C529.707 54.126 530.131 53.7009 530.637 53.7009C531.142 53.7009 531.567 54.126 531.567 54.632C531.567 55.1381 531.142 55.5632 530.637 55.5632Z" fill="white"/>
<path d="M491.103 82.849C491.103 83.7801 489.89 84.5493 488.415 84.5493C486.939 84.5493 485.727 83.7801 485.727 82.849C485.727 81.9179 486.939 81.1487 488.415 81.1487C489.89 81.1487 491.103 81.9179 491.103 82.849Z" fill="#150035"/>
<path d="M488.414 84.9744C486.656 84.9744 485.281 84.0433 485.281 82.849C485.281 81.6547 486.656 80.7236 488.414 80.7236C490.173 80.7236 491.547 81.6547 491.547 82.849C491.547 84.0433 490.173 84.9744 488.414 84.9744ZM488.414 81.5738C487.201 81.5738 486.15 82.1608 486.15 82.8288C486.15 83.4967 487.201 84.0837 488.414 84.0837C489.627 84.0837 490.678 83.4967 490.678 82.8288C490.678 82.1608 489.627 81.5738 488.414 81.5738Z" fill="#150035"/>
<path d="M488.414 83.1324C489.686 83.1324 490.718 82.4889 490.718 81.6952C490.718 80.9015 489.686 80.2581 488.414 80.2581C487.141 80.2581 486.109 80.9015 486.109 81.6952C486.109 82.4889 487.141 83.1324 488.414 83.1324Z" fill="#3BA1FD"/>
<path d="M488.414 83.5777C486.878 83.5777 485.686 82.7478 485.686 81.6952C485.686 80.6427 486.878 79.8127 488.414 79.8127C489.95 79.8127 491.143 80.6427 491.143 81.6952C491.143 82.7478 489.95 83.5777 488.414 83.5777ZM488.414 80.6831C487.323 80.6831 486.555 81.2094 486.555 81.6952C486.555 82.181 487.323 82.7073 488.414 82.7073C489.506 82.7073 490.274 82.181 490.274 81.6952C490.274 81.2094 489.506 80.6831 488.414 80.6831Z" fill="#150035"/>
<path d="M488.414 81.4117C489.686 81.4117 490.718 80.3786 490.718 79.1042C490.718 77.8298 489.686 76.7966 488.414 76.7966C487.141 76.7966 486.109 77.8298 486.109 79.1042C486.109 80.3786 487.141 81.4117 488.414 81.4117Z" fill="#3BA1FD"/>
<path d="M488.414 81.8368C486.918 81.8368 485.686 80.6021 485.686 79.1042C485.686 77.6063 486.918 76.3716 488.414 76.3716C489.91 76.3716 491.143 77.6063 491.143 79.1042C491.143 80.6021 489.91 81.8368 488.414 81.8368ZM488.414 77.242C487.383 77.242 486.555 78.0719 486.555 79.1042C486.555 80.1365 487.383 80.9664 488.414 80.9664C489.445 80.9664 490.274 80.1365 490.274 79.1042C490.274 78.0719 489.445 77.242 488.414 77.242Z" fill="#150035"/>
<path d="M489.444 84.3467C489.222 83.0108 488.838 82.4845 488.838 82.4845L489.525 81.938C489.525 81.938 490.051 82.6262 490.293 84.1848L489.444 84.3265V84.3467Z" fill="#3BA1FD"/>
<path d="M488.919 79.1042C488.919 79.3876 488.696 79.6102 488.414 79.6102C488.131 79.6102 487.908 79.3876 487.908 79.1042C487.908 78.8208 488.131 78.5981 488.414 78.5981C488.696 78.5981 488.919 78.8208 488.919 79.1042Z" fill="white"/>
<path d="M488.414 80.0353C487.909 80.0353 487.484 79.6103 487.484 79.1042C487.484 78.5982 487.909 78.1731 488.414 78.1731C488.919 78.1731 489.344 78.5982 489.344 79.1042C489.344 79.6103 488.919 80.0353 488.414 80.0353Z" fill="white"/>
</svg>
