<svg width="27" height="25" viewBox="0 0 27 25" fill="none" xmlns="http://www.w3.org/2000/svg">
<g id="Group 1820547281" opacity="0.3">
<path id="Vector" d="M6.41344 14.4008L13.8304 21.8178C14.1725 22.1719 14.3618 22.6463 14.3575 23.1386C14.3532 23.6309 14.1557 24.1019 13.8076 24.45C13.4594 24.7982 12.9885 24.9957 12.4961 24.9999C12.0038 25.0042 11.5295 24.8149 11.1753 24.4729L0.553065 13.8506C0.378089 13.6767 0.239232 13.4698 0.144479 13.242C0.0497273 13.0141 0.00094879 12.7698 0.000948769 12.5231C0.000948747 12.2763 0.0497273 12.032 0.144479 11.8042C0.239232 11.5764 0.378089 11.3695 0.553065 11.1955L11.1753 0.573251C11.3486 0.393909 11.5558 0.25086 11.7848 0.15245C12.0139 0.0540402 12.2603 0.00224236 12.5096 7.55914e-05C12.759 -0.00209118 13.0062 0.045417 13.237 0.139831C13.4678 0.234245 13.6774 0.373672 13.8537 0.549976C14.03 0.726281 14.1694 0.935931 14.2639 1.1667C14.3583 1.39746 14.4058 1.64472 14.4036 1.89404C14.4015 2.14336 14.3497 2.38976 14.2512 2.61885C14.1528 2.84794 14.0098 3.05513 13.8304 3.22835L6.41344 10.6454L24.4133 10.6454C24.9113 10.6454 25.3889 10.8432 25.741 11.1953C26.0932 11.5475 26.291 12.0251 26.291 12.5231C26.291 13.0211 26.0932 13.4987 25.741 13.8508C25.3889 14.203 24.9113 14.4008 24.4133 14.4008L6.41344 14.4008Z" fill="#0076C9" fill-opacity="0.7"/>
</g>
</svg>
