<svg width="25" height="25" viewBox="0 0 25 25" fill="none" xmlns="http://www.w3.org/2000/svg">
<path d="M9.82672 5.91951C10.0167 5.91951 10.2067 5.98951 10.3567 6.13951C10.6467 6.42951 10.6467 6.90951 10.3567 7.19951L4.81672 12.7395L10.3567 18.2795C10.6467 18.5695 10.6467 19.0495 10.3567 19.3395C10.0667 19.6295 9.58672 19.6295 9.29672 19.3395L3.22672 13.2695C2.93672 12.9795 2.93672 12.4995 3.22672 12.2095L9.29672 6.13951C9.44672 5.98951 9.63672 5.91951 9.82672 5.91951Z" fill="#1C7A54"/>
<path d="M3.92781 11.9895L20.7578 11.9895C21.1678 11.9895 21.5078 12.3295 21.5078 12.7395C21.5078 13.1495 21.1678 13.4895 20.7578 13.4895L3.92781 13.4895C3.51781 13.4895 3.17781 13.1495 3.17781 12.7395C3.17781 12.3295 3.51781 11.9895 3.92781 11.9895Z" fill="#1C7A54"/>
</svg>
