<svg width="27" height="25" viewBox="0 0 27 25" fill="none" xmlns="http://www.w3.org/2000/svg">
<g id="Group 1820547282">
<path id="Vector" d="M19.8756 10.5992L12.4586 3.1822C12.1166 2.82805 11.9273 2.35374 11.9316 1.8614C11.9359 1.36907 12.1333 0.898115 12.4815 0.54997C12.8296 0.201825 13.3006 0.0043469 13.7929 6.85708e-05C14.2853 -0.00420975 14.7596 0.185054 15.1137 0.527096L25.736 11.1494C25.911 11.3233 26.0498 11.5302 26.1446 11.758C26.2393 11.9859 26.2881 12.2302 26.2881 12.4769C26.2881 12.7237 26.2393 12.968 26.1446 13.1958C26.0498 13.4236 25.911 13.6305 25.736 13.8045L15.1137 24.4267C14.9405 24.6061 14.7333 24.7491 14.5042 24.8475C14.2751 24.946 14.0287 24.9978 13.7794 24.9999C13.5301 25.0021 13.2828 24.9546 13.0521 24.8602C12.8213 24.7658 12.6117 24.6263 12.4353 24.45C12.259 24.2737 12.1196 24.0641 12.0252 23.8333C11.9308 23.6025 11.8833 23.3553 11.8854 23.106C11.8876 22.8566 11.9394 22.6102 12.0378 22.3812C12.1362 22.1521 12.2793 21.9449 12.4586 21.7717L19.8756 14.3546L1.87577 14.3546C1.37777 14.3546 0.900163 14.1568 0.548022 13.8047C0.19588 13.4525 -0.00195086 12.9749 -0.00195094 12.4769C-0.00195103 11.9789 0.19588 11.5013 0.548021 11.1492C0.900163 10.797 1.37777 10.5992 1.87577 10.5992L19.8756 10.5992Z" fill="#333333" fill-opacity="0.7"/>
</g>
</svg>
