<svg width="25" height="27" viewBox="0 0 25 27" fill="none" xmlns="http://www.w3.org/2000/svg">
<g id="Group 1820547282">
<path id="Vector" d="M10.5992 6.41344L3.1822 13.8304C2.82806 14.1725 2.35374 14.3618 1.86141 14.3575C1.36907 14.3532 0.898117 14.1557 0.549972 13.8076C0.201827 13.4594 0.00434864 12.9885 7.03798e-05 12.4961C-0.00420788 12.0038 0.185056 11.5295 0.527098 11.1753L11.1494 0.553066C11.3234 0.378089 11.5302 0.239233 11.758 0.144479C11.9859 0.0497279 12.2302 0.000949325 12.4769 0.000949314C12.7237 0.000949303 12.968 0.0497278 13.1958 0.144479C13.4236 0.239232 13.6305 0.378089 13.8045 0.553066L24.4267 11.1753C24.6061 11.3486 24.7491 11.5558 24.8476 11.7848C24.946 12.0139 24.9978 12.2603 24.9999 12.5097C25.0021 12.759 24.9546 13.0062 24.8602 13.237C24.7658 13.4678 24.6263 13.6774 24.45 13.8537C24.2737 14.03 24.0641 14.1694 23.8333 14.2639C23.6025 14.3583 23.3553 14.4058 23.106 14.4036C22.8566 14.4015 22.6102 14.3497 22.3812 14.2512C22.1521 14.1528 21.9449 14.0098 21.7717 13.8304L14.3546 6.41344L14.3546 24.4133C14.3546 24.9113 14.1568 25.3889 13.8047 25.741C13.4525 26.0932 12.9749 26.291 12.4769 26.291C11.9789 26.291 11.5013 26.0932 11.1492 25.741C10.797 25.3889 10.5992 24.9113 10.5992 24.4133L10.5992 6.41344Z" fill="white"/>
</g>
</svg>
