<svg width="409" height="302" viewBox="0 0 409 302" fill="none" xmlns="http://www.w3.org/2000/svg">
<path opacity="0.7" d="M151.588 91.9274C123.122 89.3424 95.0308 83.6108 67.8279 74.8374C67.8279 74.8374 71.9079 71.9874 76.4279 72.8374C76.4279 72.8374 85.1979 55.1474 100.108 58.4474C113.978 61.4474 119.618 74.9374 119.608 74.9874C119.598 75.0374 126.078 70.4274 132.298 73.9074C138.518 77.3874 142.038 85.2374 142.038 85.2374C142.038 85.2374 149.048 88.8574 151.588 91.9274Z" fill="#DBDBDB"/>
<path d="M271.2 118.517C306.903 110.544 341.296 97.5479 373.35 79.9168C373.35 79.8468 373.41 74.8668 359.81 80.7868C359.81 80.7168 347.45 64.5068 327.81 75.2668C315.6 81.9168 309.23 97.2668 309.24 97.2668C309.25 97.2668 299.88 89.8368 292.31 93.9868C284.74 98.1368 280.22 110.447 280.22 110.457C280.22 110.467 272.4 115.327 271.2 118.517Z" fill="#EBEBEB"/>
<path d="M0.119537 100.867C32.1755 118.493 66.5673 131.489 102.27 139.467C102.27 139.397 102.27 134.467 87.7495 129.697C87.7495 129.627 74.4695 103.697 54.7495 99.6466C42.4695 97.0566 36.3295 107.647 36.3195 107.717C36.3095 107.787 27.1695 93.3166 19.9795 91.8866C12.7895 90.4566 8.56952 99.4466 8.56952 99.4666C8.56952 99.4866 1.20953 98.5866 0.119537 100.867Z" fill="#EBEBEB"/>
<path d="M173.279 21.3175C197.729 22.1607 222.205 20.6909 246.379 16.9275C246.379 16.9275 239.519 13.0975 236.469 13.4775C233.419 13.8575 224.469 -1.34248 213.049 0.127523C201.629 1.59752 195.519 13.7675 195.519 13.7975C195.519 13.8275 181.589 10.7275 173.279 21.3175Z" fill="#EBEBEB"/>
<path d="M208.159 301.588C232.642 300.223 256.94 296.539 280.729 290.588C280.729 290.588 273.969 287.378 270.939 288.028C267.909 288.678 259.119 274.288 247.759 276.788C236.399 279.288 230.339 292.008 230.339 292.038C230.339 292.068 216.469 290.238 208.159 301.588Z" fill="#EBEBEB"/>
<path opacity="0.7" d="M281.699 207.278C302.228 202.091 322.296 195.224 341.699 186.748C339.838 185.685 337.638 185.384 335.559 185.908C335.559 185.908 329.299 173.558 318.629 177.338C308.699 180.798 304.629 191.338 304.629 191.338C303.214 190.574 301.615 190.217 300.009 190.305C298.403 190.393 296.852 190.924 295.529 191.838C291.069 195.068 288.529 201.228 288.529 201.228C288.529 201.228 283.539 204.718 281.699 207.278Z" fill="#DBDBDB"/>
<path opacity="0.7" d="M136.92 275.447C108.514 271.768 80.6029 264.949 53.6999 255.117C53.6999 255.117 57.6999 252.427 62.2199 253.417C62.2199 253.417 70.8999 236.067 85.6999 239.947C99.4799 243.467 105.09 257.187 105.08 257.237C105.07 257.287 111.51 252.927 117.7 256.647C123.89 260.367 127.4 268.347 127.4 268.347C127.4 268.347 134.41 272.267 136.92 275.447Z" fill="#DBDBDB"/>
 
  </svg>
