<svg width="420" height="398" viewBox="0 0 420 398" fill="none" xmlns="http://www.w3.org/2000/svg">
<path d="M87.6094 104.587L-0.000640869 104.447C-0.000640869 104.447 4.36937 98.7873 9.16937 98.0773C9.16937 98.0773 18.5494 70.2873 34.1694 70.0773C48.7094 69.9173 54.5094 87.2073 54.5094 87.2073C54.5094 87.2073 61.2594 79.4673 67.6894 83.0173C74.1194 86.5673 77.6894 96.7273 77.6894 96.7273C77.6894 96.7273 84.9894 100.587 87.6094 104.587Z" fill="#EBEBEB"/>
<path d="M309.05 200.278L419.84 200.448C419.84 200.448 419.84 193.368 404.59 191.958C404.59 191.958 390.7 160.958 369.42 165.128C356.16 167.698 349.36 185.878 349.36 185.878C349.36 185.878 339.36 171.548 331.36 174.308C323.36 177.068 318.57 192.308 318.57 192.308C318.57 192.308 310.31 196.278 309.05 200.278Z" fill="#EBEBEB"/>
<path d="M76.3194 397.327L187.109 397.497C187.109 397.497 187.109 390.417 171.859 389.007C171.859 389.007 157.969 358.007 136.689 362.167C123.429 364.737 116.629 382.917 116.629 382.917C116.629 382.917 106.629 368.587 98.6294 371.347C90.6294 374.107 85.8394 389.347 85.8394 389.347C85.8394 389.347 77.5794 393.327 76.3194 397.327Z" fill="#EBEBEB"/>
<path d="M77.92 27.8578L153.25 27.9678C153.25 27.9678 146.15 21.3378 142.99 21.3378C139.83 21.3378 130.65 -0.892212 118.86 0.027788C107.07 0.947788 100.81 17.4878 100.81 17.4878C100.81 17.4878 86.49 12.9778 77.92 27.8578Z" fill="#EBEBEB"/>
<path d="M314.84 368.457L390.18 368.587C390.18 368.587 383.08 361.967 379.92 361.957C376.76 361.947 367.57 339.727 355.79 340.657C344.01 341.587 337.72 358.117 337.72 358.117C337.72 358.117 323.41 353.587 314.84 368.457Z" fill="#EBEBEB"/>
<path d="M326.32 49.9481L390.74 50.0481C390.74 50.0481 387.54 45.8681 384.01 45.3381C384.01 45.3381 377.18 24.8881 365.68 24.7181C354.99 24.5681 350.68 37.2681 350.68 37.2681C350.68 37.2681 345.74 31.5681 341 34.1681C336.26 36.7681 333.58 44.1681 333.58 44.1681C333.58 44.1681 328.25 47.0781 326.32 49.9481Z" fill="#EBEBEB"/>
<path d="M4.66983 333.448L69.0898 333.548C69.0898 333.548 65.8898 329.368 62.3598 328.848C62.3598 328.848 55.5298 308.388 44.0298 308.228C33.3398 308.068 29.0298 320.778 29.0298 320.778C29.0298 320.778 24.0898 315.068 19.3498 317.668C14.6098 320.268 11.9198 327.728 11.9198 327.728C11.9198 327.728 6.59983 330.588 4.66983 333.448Z" fill="#EBEBEB"/>
</svg>
