<svg width="201" height="66" viewBox="0 0 201 66" fill="none" xmlns="http://www.w3.org/2000/svg">
<g clip-path="url(#clip0_544_14240)">
<path d="M5.36442 0H194.745C196.153 0.00155357 197.502 0.558606 198.498 1.54894C199.493 2.53927 200.053 3.88201 200.055 5.28255V59.869C200.053 61.2695 199.493 62.6122 198.498 63.6026C197.502 64.5929 196.153 65.15 194.745 65.1515H5.36442C3.95667 65.15 2.60703 64.5929 1.6116 63.6026C0.616167 62.6122 0.0562491 61.2695 0.0546875 59.869V5.28255C0.0562491 3.88201 0.616167 2.53927 1.6116 1.54894C2.60703 0.558606 3.95667 0.00155357 5.36442 0ZM194.745 63.9776C195.84 63.9764 196.89 63.5431 197.664 62.7728C198.438 62.0026 198.874 60.9583 198.875 59.869V5.28255C198.874 4.19325 198.438 3.14892 197.664 2.37867C196.89 1.60842 195.84 1.17514 194.745 1.1739H5.36442C4.26952 1.17514 3.21981 1.60842 2.4456 2.37867C1.67138 3.14892 1.23588 4.19325 1.23463 5.28255V59.869C1.23588 60.9583 1.67138 62.0026 2.4456 62.7728C3.21981 63.5431 4.26952 63.9764 5.36442 63.9776H194.745Z" fill="white"/>
<path d="M184.23 59.0801C183.468 59.0796 182.718 58.9027 182.037 58.5633C181.356 58.2238 180.764 57.7313 180.308 57.1248C179.851 56.5182 179.543 55.8142 179.408 55.0686C179.273 54.3231 179.314 53.5564 179.528 52.8294C179.742 52.1024 180.124 51.435 180.643 50.8802C181.161 50.3254 181.802 49.8983 182.516 49.6329C183.229 49.3675 183.995 49.2711 184.752 49.3512C185.509 49.4313 186.237 49.6858 186.878 50.0945C186.952 50.1425 187.004 50.2177 187.023 50.3036C187.041 50.3895 187.025 50.4792 186.977 50.5531C186.929 50.627 186.854 50.6791 186.768 50.6981C186.682 50.7171 186.591 50.7014 186.517 50.6545C185.725 50.15 184.786 49.9221 183.85 50.0069C182.913 50.0917 182.032 50.4843 181.344 51.1227C180.657 51.7612 180.202 52.6092 180.053 53.5329C179.904 54.4567 180.068 55.4036 180.519 56.2244C180.971 57.0452 181.684 57.6931 182.546 58.0658C183.409 58.4386 184.372 58.5151 185.283 58.2832C186.194 58.0514 187.002 57.5243 187.578 56.7852C188.155 56.0461 188.468 55.137 188.468 54.2014C188.468 54.0623 188.461 53.925 188.448 53.7905C188.443 53.7044 188.471 53.6195 188.527 53.5538C188.584 53.488 188.663 53.4466 188.75 53.4382C188.836 53.4299 188.922 53.4552 188.99 53.5089C189.058 53.5626 189.102 53.6404 189.114 53.726C189.129 53.8825 189.136 54.0412 189.136 54.202C189.135 55.4958 188.617 56.7361 187.697 57.6507C186.777 58.5653 185.53 59.0794 184.23 59.0801Z" fill="white"/>
<path d="M184.786 55.3101C184.742 55.3102 184.699 55.3016 184.658 55.2849C184.618 55.2682 184.581 55.2436 184.55 55.2127L182.544 53.2171C182.51 53.1871 182.482 53.1504 182.462 53.1092C182.442 53.068 182.431 53.0232 182.43 52.9776C182.428 52.932 182.436 52.8866 182.453 52.8442C182.47 52.8017 182.495 52.7632 182.528 52.7309C182.56 52.6987 182.599 52.6734 182.641 52.6567C182.684 52.6399 182.73 52.6321 182.776 52.6337C182.821 52.6352 182.866 52.6461 182.908 52.6657C182.949 52.6853 182.986 52.7131 183.016 52.7475L184.786 54.5084L189.453 49.8656C189.517 49.8101 189.599 49.7809 189.684 49.7838C189.769 49.7866 189.849 49.8214 189.909 49.881C189.969 49.9407 190.004 50.0207 190.007 50.105C190.01 50.1893 189.981 50.2716 189.925 50.3351L185.022 55.2133C184.959 55.2751 184.874 55.3099 184.786 55.3101Z" fill="white"/>
<path d="M100.755 21.3057C100.684 21.3529 100.627 21.4175 100.589 21.4932C100.551 21.5689 100.533 21.6531 100.538 21.7377V26.2178C100.542 26.3579 100.602 26.4907 100.703 26.5881C100.804 26.6856 100.939 26.74 101.08 26.74C101.221 26.74 101.356 26.6856 101.458 26.5881C101.559 26.4907 101.618 26.3579 101.623 26.2178V22.0611L106.397 18.7683C106.562 18.8606 106.752 18.8984 106.94 18.8763C107.176 18.8763 107.407 18.8066 107.603 18.6762C107.799 18.5457 107.952 18.3602 108.043 18.1433C108.133 17.9263 108.157 17.6875 108.111 17.4572C108.065 17.2269 107.951 17.0153 107.784 16.8492C107.617 16.6832 107.404 16.5701 107.173 16.5243C106.941 16.4785 106.701 16.502 106.483 16.5919C106.265 16.6817 106.079 16.8339 105.948 17.0292C105.817 17.2244 105.747 17.454 105.747 17.6889V17.8515L100.755 21.3057Z" fill="white"/>
<path d="M97.388 20.1183V24.5445C97.149 24.6657 96.9581 24.8634 96.8459 25.1057C96.7337 25.348 96.7067 25.6209 96.7694 25.8803C96.832 26.1397 96.9806 26.3706 97.1913 26.5358C97.4019 26.701 97.6622 26.7908 97.9304 26.7908C98.1986 26.7908 98.459 26.701 98.6696 26.5358C98.8802 26.3706 99.0288 26.1397 99.0915 25.8803C99.1541 25.6209 99.1272 25.348 99.015 25.1057C98.9028 24.8634 98.7118 24.6657 98.4729 24.5445V20.3883L105.53 15.4761C105.6 15.4288 105.657 15.3642 105.695 15.2885C105.733 15.2128 105.751 15.1286 105.747 15.0441V11.7519C105.749 11.6795 105.737 11.6074 105.711 11.5398C105.684 11.4723 105.645 11.4106 105.594 11.3586C105.544 11.3066 105.483 11.2652 105.416 11.2369C105.349 11.2087 105.277 11.1941 105.204 11.1941C105.131 11.1941 105.059 11.2087 104.992 11.2369C104.925 11.2652 104.865 11.3066 104.814 11.3586C104.763 11.4106 104.724 11.4723 104.698 11.5398C104.672 11.6074 104.659 11.6795 104.662 11.7519V14.7747L97.6068 19.6863C97.5403 19.7375 97.4861 19.8029 97.4482 19.8776C97.4103 19.9524 97.3897 20.0346 97.388 20.1183Z" fill="white"/>
<path d="M105.856 21.5757L104.065 22.8165C104.001 22.8531 103.946 22.9038 103.904 22.9647C103.863 23.0256 103.836 23.0951 103.825 23.1679C103.815 23.2407 103.821 23.3149 103.844 23.3849C103.866 23.4549 103.905 23.5189 103.956 23.5719C104.004 23.6421 104.069 23.6989 104.145 23.7367C104.221 23.7746 104.305 23.7922 104.39 23.7879C104.506 23.7767 104.617 23.7398 104.716 23.6799L106.505 22.4391C106.569 22.4025 106.624 22.3518 106.665 22.2909C106.707 22.23 106.734 22.1605 106.744 22.0877C106.755 22.0149 106.748 21.9407 106.726 21.8707C106.703 21.8007 106.665 21.7367 106.613 21.6837C106.521 21.5791 106.393 21.5107 106.255 21.4909C106.116 21.4711 105.974 21.5012 105.856 21.5757Z" fill="white"/>
<path d="M109.273 24.7599C109.234 24.699 109.184 24.6464 109.124 24.6051C109.065 24.5639 108.998 24.5349 108.927 24.5198C108.856 24.5047 108.783 24.5039 108.712 24.5173C108.641 24.5307 108.574 24.5581 108.513 24.5979L99.9947 30.5343L91.4767 24.5979C91.4162 24.5589 91.3485 24.5321 91.2775 24.5191C91.2066 24.5062 91.1338 24.5072 91.0632 24.5222C90.9208 24.5525 90.7963 24.6379 90.7171 24.7596C90.6379 24.8812 90.6106 25.0292 90.6411 25.1709C90.6715 25.3126 90.7574 25.4365 90.8796 25.5153L99.0726 31.1829L96.6838 32.8568C96.5189 32.7645 96.3289 32.7267 96.141 32.7489C95.9051 32.7492 95.6746 32.8191 95.4787 32.9497C95.2827 33.0802 95.13 33.2657 95.0398 33.4825C94.9497 33.6994 94.9262 33.938 94.9722 34.1681C95.0183 34.3983 95.1319 34.6097 95.2986 34.7757C95.4654 34.9416 95.6778 35.0547 95.9091 35.1007C96.1405 35.1466 96.3803 35.1233 96.5983 35.0338C96.8163 34.9442 97.0028 34.7924 97.1341 34.5975C97.2655 34.4025 97.3358 34.1733 97.3363 33.9386V33.7743L100.047 31.8843L102.76 33.7743V33.9386C102.76 34.1734 102.83 34.403 102.962 34.5983C103.093 34.7936 103.279 34.9457 103.497 35.0356C103.715 35.1255 103.955 35.149 104.187 35.1032C104.418 35.0574 104.631 34.9443 104.798 34.7782C104.965 34.6122 105.079 34.4006 105.125 34.1703C105.171 33.9399 105.147 33.7012 105.057 33.4842C104.966 33.2672 104.813 33.0818 104.617 32.9513C104.421 32.8208 104.19 32.7512 103.954 32.7512C103.768 32.7557 103.584 32.7922 103.411 32.8592L101.026 31.1835L109.109 25.5159C109.17 25.4776 109.223 25.4275 109.265 25.3684C109.306 25.3094 109.336 25.2427 109.351 25.1723C109.366 25.1018 109.367 25.029 109.354 24.9582C109.34 24.8874 109.313 24.8199 109.273 24.7599Z" fill="white"/>
<path d="M94.1359 11.9139L95.9247 10.6719C95.9888 10.6352 96.0437 10.5846 96.0851 10.5237C96.1266 10.4628 96.1536 10.3933 96.1641 10.3205C96.1745 10.2477 96.1682 10.1735 96.1455 10.1035C96.1228 10.0334 96.0844 9.9695 96.0332 9.91646C95.9857 9.84626 95.9208 9.78948 95.8447 9.75163C95.7686 9.71378 95.684 9.69616 95.599 9.70046C95.4837 9.71166 95.3724 9.74858 95.2733 9.80846L93.4845 11.0505C93.4204 11.0871 93.3656 11.1378 93.3241 11.1986C93.2826 11.2595 93.2556 11.329 93.2451 11.4018C93.2347 11.4746 93.241 11.5489 93.2637 11.6189C93.2864 11.6889 93.3248 11.7528 93.376 11.8059C93.4689 11.9111 93.5965 11.9798 93.7359 11.9996C93.8752 12.0194 94.0171 11.989 94.1359 11.9139Z" fill="white"/>
<path d="M101.513 10.1325V13.1013L94.4599 18.0146C94.3894 18.0619 94.3323 18.1265 94.2943 18.2022C94.2562 18.2779 94.2385 18.3621 94.2428 18.4466V21.7394C94.2404 21.8118 94.2527 21.8839 94.2789 21.9515C94.305 22.019 94.3446 22.0807 94.3952 22.1327C94.4458 22.1848 94.5065 22.2261 94.5735 22.2544C94.6405 22.2827 94.7125 22.2972 94.7853 22.2972C94.8581 22.2972 94.9301 22.2827 94.9971 22.2544C95.0642 22.2261 95.1248 22.1848 95.1754 22.1327C95.226 22.0807 95.2656 22.019 95.2917 21.9515C95.3179 21.8839 95.3302 21.8118 95.3278 21.7394V18.7166L102.381 13.8044C102.451 13.7572 102.509 13.6926 102.547 13.6169C102.585 13.5412 102.602 13.457 102.598 13.3724V10.1325C102.787 10.0334 102.947 9.88648 103.061 9.70645C103.175 9.52642 103.239 9.31968 103.247 9.10708C103.247 8.79216 103.121 8.49014 102.897 8.26746C102.674 8.04478 102.37 7.91968 102.053 7.91968C101.737 7.91968 101.433 8.04478 101.21 8.26746C100.986 8.49014 100.86 8.79216 100.86 9.10708C100.854 9.32324 100.913 9.53627 101.029 9.71893C101.146 9.90159 101.314 10.0456 101.513 10.1325Z" fill="white"/>
<path d="M93.049 17.0415C93.3647 17.0388 93.6666 16.9128 93.8899 16.6907C94.1131 16.4686 94.2397 16.1682 94.2425 15.8541V15.6921L99.2342 12.1833C99.3048 12.1361 99.3619 12.0714 99.3999 11.9957C99.438 11.92 99.4557 11.8358 99.4513 11.7513V8.51312C99.4537 8.44075 99.4415 8.36863 99.4153 8.30107C99.3891 8.2335 99.3495 8.17187 99.2989 8.11983C99.2483 8.06779 99.1877 8.02641 99.1207 7.99815C99.0537 7.96989 98.9816 7.95532 98.9089 7.95532C98.8361 7.95532 98.764 7.96989 98.697 7.99815C98.63 8.02641 98.5694 8.06779 98.5188 8.11983C98.4682 8.17187 98.4286 8.2335 98.4024 8.30107C98.3762 8.36863 98.364 8.44075 98.3664 8.51312V11.4819L93.5918 14.7747C93.4269 14.6824 93.2368 14.6445 93.049 14.6667C92.7324 14.6667 92.4289 14.7918 92.205 15.0145C91.9812 15.2372 91.8555 15.5392 91.8555 15.8541C91.8555 16.169 91.9812 16.471 92.205 16.6937C92.4289 16.9164 92.7324 17.0415 93.049 17.0415Z" fill="white"/>
<path d="M60.5502 47.3775H60.116C59.8673 47.4031 59.6166 47.3555 59.3948 47.2408C59.173 47.126 58.9899 46.9491 58.8682 46.7318C58.6175 46.7748 58.3632 46.7928 58.1089 46.7858C57.6349 46.8076 57.1644 46.6953 56.752 46.4618C56.5981 46.3631 56.4724 46.2266 56.3869 46.0655C56.3015 45.9044 56.2591 45.7241 56.2641 45.5421C56.261 45.0652 56.435 44.6039 56.7526 44.2467C57.0662 43.8708 57.4798 43.5904 57.9461 43.4373C58.4704 43.2602 59.0201 43.169 59.5738 43.1673V45.4881C59.5628 45.5843 59.5716 45.6818 59.5996 45.7747C59.6276 45.8675 59.6742 45.9537 59.7366 46.0281C59.9258 46.1591 60.1566 46.2167 60.3856 46.1901H60.5484L60.5502 47.3775ZM58.326 45.7581H58.7059V44.2467C58.3221 44.2975 57.9529 44.4262 57.621 44.6247C57.3496 44.8407 57.1868 45.0567 57.1868 45.2187C57.1891 45.2951 57.2171 45.3685 57.2663 45.4272C57.3155 45.4859 57.383 45.5266 57.4582 45.5426C57.7182 45.7018 58.0213 45.7771 58.326 45.7581ZM59.0853 42.6273L58.4363 42.0873L57.9478 42.6813L57.2405 42.0902L57.8375 41.4446L58.4865 41.9846L58.9779 41.3859L59.6859 41.9799L59.0853 42.6273Z" fill="white"/>
<path d="M60.551 47.3769C60.4968 47.3769 60.4425 47.3229 60.3882 47.2149C60.3159 46.9315 60.3159 46.6348 60.3882 46.3514C60.4425 46.2434 60.4968 46.1895 60.551 46.1895H62.5044V47.3769H60.551Z" fill="white"/>
<path d="M64.0228 49.2128L63.3738 48.6728L62.831 49.2668L62.123 48.6728L62.7201 48.0272L63.3691 48.5672L63.8576 47.9732L64.5655 48.5672L64.0228 49.2128ZM62.5036 47.3774C62.4493 47.3774 62.395 47.3234 62.3407 47.2154C62.2685 46.9321 62.2685 46.6353 62.3407 46.352C62.395 46.244 62.4493 46.19 62.5036 46.19H62.6121C62.9112 46.2242 63.2137 46.1677 63.48 46.028C63.5561 45.9733 63.6164 45.8996 63.6545 45.8142C63.6926 45.7288 63.7073 45.6349 63.6971 45.542V44.4086L64.6735 44.3546V45.488C64.6822 45.7046 64.664 45.9215 64.6192 46.1337C64.968 46.2525 65.3356 46.3074 65.7042 46.2957H65.7584V47.4831H65.5413C65.0413 47.5229 64.5428 47.3903 64.1295 47.1074C63.7204 47.3983 63.2195 47.5326 62.7189 47.4854H62.5018L62.5036 47.3774Z" fill="white"/>
<path d="M65.8128 47.3769C65.7585 47.3769 65.7042 47.3229 65.6499 47.2149C65.5776 46.9315 65.5776 46.6348 65.6499 46.3514C65.7042 46.2434 65.7585 46.1895 65.8128 46.1895H67.7661V47.3769H65.8128Z" fill="white"/>
<path d="M72.8664 47.3774C72.6815 47.3951 72.495 47.3755 72.3179 47.3199C72.1408 47.2642 71.9768 47.1736 71.8357 47.0534C71.4381 47.2739 70.9888 47.3857 70.5337 47.3774C69.9661 47.4064 69.4019 47.2754 68.9059 46.9994C68.7782 47.126 68.6255 47.2249 68.4575 47.2899C68.2894 47.355 68.1097 47.3848 67.9295 47.3774H67.8753C67.821 47.3774 67.7667 47.3234 67.7124 47.2154C67.6401 46.9321 67.6401 46.6353 67.7124 46.352C67.7667 46.244 67.821 46.19 67.8753 46.19H68.0381C68.1494 46.1985 68.2612 46.18 68.3638 46.136C68.4668 46.0811 68.5588 46.0079 68.6351 45.92C68.7176 45.8501 68.7748 45.7553 68.798 45.65L69.0151 45.218V45.056C69.1779 44.7006 69.42 44.3869 69.723 44.1386C69.9952 43.9134 70.3423 43.7978 70.6959 43.8146C71.4552 43.8146 71.9437 44.3546 72.2151 45.38C72.2694 45.704 72.3779 45.92 72.4865 45.974C72.5612 46.0361 72.6479 46.0825 72.7412 46.1103C72.8345 46.1382 72.9325 46.1469 73.0292 46.136H73.1921V47.3234H72.8664V47.3774ZM70.5874 46.2974C70.8439 46.2918 71.0988 46.2555 71.3466 46.1894C71.2902 45.8506 71.1803 45.5227 71.021 45.218C70.9791 45.1271 70.9091 45.0519 70.8212 45.0033C70.7333 44.9548 70.6322 44.9354 70.5325 44.948C70.4391 44.9378 70.3447 44.9524 70.2589 44.9904C70.1731 45.0283 70.0989 45.0882 70.044 45.164C69.8211 45.4235 69.6382 45.7144 69.5012 46.0274L69.4469 46.1894C69.8233 46.2574 70.2048 46.2935 70.5874 46.2974Z" fill="white"/>
<path d="M73.0842 47.3769C73.03 47.3769 72.9757 47.3229 72.9214 47.2149C72.8491 46.9315 72.8491 46.6348 72.9214 46.3514C72.9757 46.2434 73.03 46.1895 73.0842 46.1895H75.0376V47.3769H73.0842Z" fill="white"/>
<path d="M75.0374 47.3774C74.9831 47.3774 74.9288 47.3234 74.8745 47.2154C74.8022 46.9321 74.8022 46.6353 74.8745 46.352C74.9288 46.244 74.9831 46.19 75.0374 46.19H75.2002C76.1663 46.2204 77.1324 46.1297 78.0757 45.92V45.4874C77.7635 45.6025 77.4322 45.6574 77.0993 45.6494C76.1229 45.6494 75.6344 45.2174 75.6344 44.2994C75.6212 43.8044 75.7956 43.3225 76.1229 42.9494C76.2564 42.7724 76.428 42.6271 76.6251 42.5244C76.8222 42.4216 77.0398 42.3639 77.2621 42.3555C77.5137 42.3548 77.7611 42.4195 77.9799 42.543C78.1988 42.6665 78.3814 42.8446 78.5099 43.0598C78.8685 43.6619 79.0385 44.3567 78.9984 45.0554C79.0292 45.6217 78.9556 46.1889 78.7813 46.7288C78.1324 47.1068 76.9365 47.2688 75.2545 47.2688H75.0374V47.3774ZM77.9129 42.0361L77.2639 41.4962L76.7754 42.0901L76.0675 41.4962L76.6645 40.8505L77.3135 41.3905L77.802 40.7965L78.5099 41.3905L77.9129 42.0361ZM77.5329 44.7889C77.7156 44.8006 77.899 44.7824 78.0757 44.7349C78.0515 44.3889 77.9395 44.0547 77.7501 43.7635C77.5872 43.5475 77.4244 43.3855 77.2073 43.3855C77.1029 43.3907 77.0008 43.4173 76.9074 43.4638C76.8139 43.5103 76.7312 43.5756 76.6645 43.6555C76.5543 43.8139 76.4973 44.003 76.5017 44.1955C76.5023 44.57 76.8262 44.786 77.5341 44.786L77.5329 44.7889Z" fill="white"/>
<path d="M79.3771 49.0508C79.1207 49.0414 78.866 49.0052 78.6172 48.9428L78.7257 47.9714C78.8886 47.9714 78.9971 48.0254 79.16 48.0254C79.3758 48.0483 79.5939 48.0156 79.7934 47.9305C79.9929 47.8454 80.167 47.7107 80.2992 47.5395C80.5452 47.1918 80.6778 46.7772 80.6791 46.352C80.6404 45.7477 80.5311 45.1499 80.3535 44.5707L81.3311 44.3007C81.3545 44.3895 81.3726 44.4797 81.3853 44.5707C81.4247 44.6551 81.4433 44.7476 81.4396 44.8407C81.4396 44.8947 81.4939 44.9486 81.4939 45.0566C81.5316 45.1223 81.5504 45.1971 81.5482 45.2726C81.5482 45.3266 81.6024 45.3806 81.6024 45.4886C81.6567 45.5426 81.6567 45.6506 81.711 45.7046C81.8003 45.8663 81.9352 45.9985 82.099 46.0848C82.2629 46.1712 82.4485 46.2079 82.6331 46.1906H82.8502V47.378H82.5788C82.1908 47.3949 81.8084 47.2807 81.4939 47.054C81.4126 47.5889 81.1885 48.0922 80.8449 48.5114C80.6505 48.6966 80.4198 48.8401 80.1673 48.9329C79.9148 49.0257 79.6458 49.0658 79.3771 49.0508Z" fill="white"/>
<path d="M82.8499 47.3774C82.7956 47.3774 82.7413 47.3234 82.687 47.2154C82.6147 46.9321 82.6147 46.6353 82.687 46.352C82.7413 46.244 82.7956 46.19 82.8499 46.19H82.9041C83.1964 46.184 83.4873 46.1478 83.772 46.082C83.772 45.758 83.8263 45.2726 83.8263 44.7866V41.5478L84.8569 41.4398V44.5706C84.8704 45.0571 84.8522 45.5439 84.8027 46.028C84.8057 46.3413 84.7501 46.6524 84.6387 46.9454C84.3862 47.0839 84.1105 47.1754 83.8251 47.2154C83.5129 47.3304 83.1815 47.3854 82.8487 47.3774H82.8499Z" fill="white"/>
<path d="M86.9174 47.3774H85.8867V41.5478L86.9174 41.4398V47.3774Z" fill="white"/>
<path d="M94.0273 47.3774H93.5931C93.3444 47.403 93.0936 47.3555 92.8718 47.2407C92.6501 47.126 92.467 46.949 92.3453 46.7318C92.0946 46.7747 91.8402 46.7928 91.586 46.7858C91.112 46.8075 90.6415 46.6952 90.229 46.4618C90.0754 46.3633 89.9498 46.2272 89.8643 46.0666C89.7787 45.9059 89.7361 45.7261 89.7405 45.5444C89.7375 45.0675 89.9115 44.6062 90.229 44.249C90.5427 43.8731 90.9563 43.5927 91.4226 43.4396C91.9469 43.2625 92.4966 43.1713 93.0503 43.1696V45.4904C93.0393 45.5866 93.0481 45.6841 93.0761 45.777C93.1041 45.8698 93.1507 45.956 93.2131 46.0304C93.4023 46.1614 93.6331 46.219 93.8621 46.1923H93.9706V47.3798L94.0273 47.3774ZM91.8025 45.758H92.1824V44.2466C91.7986 44.2975 91.4294 44.4261 91.0975 44.6246C90.8261 44.8406 90.6633 45.0566 90.6633 45.2186C90.6656 45.295 90.6936 45.3684 90.7428 45.4271C90.792 45.4859 90.8595 45.5265 90.9346 45.5426C91.1919 45.7086 91.497 45.7845 91.8025 45.758ZM92.5105 42.6272L91.8615 42.0872L91.373 42.6812L90.665 42.0872L91.2621 41.4416L91.911 41.9816L92.3995 41.3876L93.1075 41.9816L92.5105 42.6272Z" fill="white"/>
<path d="M94.0256 47.3769C93.9714 47.3769 93.9171 47.3229 93.8628 47.2149C93.7905 46.9315 93.7905 46.6348 93.8628 46.3514C93.9171 46.2434 93.9714 46.1895 94.0256 46.1895H95.979V47.3769H94.0256Z" fill="white"/>
<path d="M98.7457 47.3774C98.1559 47.3894 97.5741 47.2399 97.0637 46.9454C96.9281 47.0768 96.7663 47.1783 96.5888 47.2434C96.4112 47.3085 96.2219 47.3358 96.0331 47.3234H95.9788C95.9245 47.3234 95.8702 47.2694 95.8159 47.1614C95.7436 46.8781 95.7436 46.5813 95.8159 46.298C95.8702 46.19 95.9245 46.136 95.9788 46.136H96.1416C96.235 46.1462 96.3294 46.1316 96.4152 46.0937C96.501 46.0557 96.5752 45.9958 96.6301 45.92C96.8016 45.6844 96.9472 45.4312 97.0643 45.1646V45.0026C97.2271 44.6473 97.4693 44.3335 97.7723 44.0852C98.0454 43.8592 98.3939 43.7435 98.7487 43.7612C98.9691 43.7474 99.1894 43.7897 99.3887 43.8842C99.5881 43.9787 99.7599 44.1222 99.8879 44.3012C100.176 44.6926 100.328 45.1663 100.322 45.6512C100.321 46.1493 100.229 46.6431 100.051 47.1086C99.6537 47.3291 99.1981 47.4229 98.7457 47.3774ZM98.9628 46.298H99.4513C99.4513 46.136 99.5056 46.028 99.5056 45.866C99.5167 45.6209 99.4604 45.3774 99.3428 45.1617C99.2915 45.0787 99.2196 45.0103 99.1341 44.963C99.0485 44.9158 98.9522 44.8912 98.8543 44.8917C98.7535 44.8864 98.6528 44.903 98.559 44.9403C98.4653 44.9776 98.3809 45.0347 98.3115 45.1077C98.0886 45.3672 97.9057 45.6581 97.7687 45.9711C97.7481 45.9924 97.7326 46.018 97.7232 46.046C97.7138 46.074 97.7108 46.1038 97.7145 46.1331C98.1187 46.2555 98.5405 46.3116 98.9628 46.298Z" fill="white"/>
<path d="M102.164 49.1042C101.854 49.091 101.546 49.0541 101.242 48.9938L101.35 48.0224C101.563 48.067 101.781 48.0851 101.999 48.0764C102.396 48.0903 102.79 47.997 103.138 47.8065C103.387 47.6818 103.58 47.4703 103.681 47.2125C103.395 47.2609 103.104 47.279 102.813 47.2665C102.586 47.2892 102.357 47.2624 102.141 47.1877C101.926 47.1131 101.729 46.9926 101.565 46.8345C101.331 46.5053 101.217 46.1065 101.242 45.704C101.237 45.1777 101.409 44.6649 101.73 44.2466C101.87 44.0636 102.051 43.9149 102.258 43.8119C102.464 43.709 102.692 43.6545 102.924 43.6526C103.176 43.6516 103.426 43.7095 103.652 43.8216C103.878 43.9338 104.074 44.097 104.226 44.2982C104.573 44.8485 104.761 45.4837 104.768 46.1336H105.257V47.321H104.66C104.525 47.865 104.199 48.3432 103.742 48.67C103.284 48.9968 102.725 49.1507 102.164 49.1042ZM103.194 46.1894H103.791C103.792 45.8469 103.698 45.5109 103.52 45.218C103.47 45.088 103.381 44.9765 103.265 44.8992C103.148 44.8218 103.011 44.7822 102.871 44.786C102.767 44.7911 102.665 44.8177 102.571 44.8642C102.478 44.9107 102.395 44.976 102.328 45.056C102.218 45.2144 102.161 45.4034 102.165 45.596C102.155 45.6889 102.17 45.7828 102.208 45.8682C102.246 45.9535 102.306 46.0273 102.383 46.082C102.646 46.1596 102.92 46.1958 103.194 46.1894Z" fill="white"/>
<path d="M105.203 47.3774C105.149 47.3774 105.095 47.3234 105.041 47.2154C104.968 46.9321 104.968 46.6353 105.041 46.352C105.095 46.244 105.149 46.19 105.203 46.19H105.366C106.081 46.2097 106.795 46.1187 107.482 45.92C107.272 45.5502 106.997 45.2211 106.669 44.9486C106.297 44.6305 105.876 44.3753 105.421 44.1932V42.8432C106.489 42.074 107.71 41.5403 109.002 41.2778V42.3572C108.06 42.5609 107.16 42.9263 106.343 43.4372C106.6 43.5674 106.838 43.7309 107.051 43.9232C107.275 44.0741 107.476 44.2559 107.648 44.4632C107.811 44.6792 107.974 44.8412 108.028 44.9492C108.124 45.1196 108.232 45.2821 108.354 45.4352C108.354 45.4892 108.408 45.5432 108.462 45.6512C108.517 45.7592 108.571 45.8132 108.571 45.8672C108.571 45.9212 108.625 45.9212 108.679 46.0292C108.734 46.0832 108.788 46.1372 108.842 46.1372C108.897 46.1372 108.951 46.1912 109.005 46.1912C109.059 46.1912 109.114 46.2452 109.222 46.2452H109.385V47.4326H109.277C109.054 47.4439 108.832 47.4063 108.625 47.3222C108.419 47.2382 108.234 47.11 108.083 46.9466C107.226 47.3086 106.299 47.4746 105.369 47.4326H105.206L105.203 47.3774Z" fill="white"/>
<path d="M109.381 47.3775C109.327 47.3775 109.273 47.3235 109.218 47.2155C109.146 46.9321 109.146 46.6354 109.218 46.352C109.273 46.244 109.327 46.1901 109.381 46.1901H109.707C110.724 46.2197 111.742 46.1473 112.745 45.9741C111.932 45.1646 111.335 44.7867 111.063 44.7867C110.948 44.7978 110.836 44.8348 110.737 44.8947C110.629 44.9487 110.575 45.0566 110.466 45.2186L109.758 44.9486C109.868 44.6066 110.054 44.2932 110.301 44.0312C110.535 43.8545 110.821 43.7596 111.114 43.7613C111.743 43.8466 112.321 44.1528 112.742 44.6247C112.851 44.7327 113.176 45.0027 113.61 45.4341C113.87 45.6629 114.142 45.8784 114.424 46.0797C114.659 46.1959 114.92 46.2516 115.183 46.2417H115.291V47.4291H115.129C114.854 47.4271 114.581 47.3908 114.315 47.3211C114.046 47.2389 113.803 47.0903 113.607 46.8891C112.247 47.2644 110.841 47.4462 109.429 47.4291H109.375L109.381 47.3775Z" fill="white"/>
<path d="M115.35 47.3774C115.296 47.3774 115.241 47.3234 115.187 47.2154C115.115 46.9321 115.115 46.6353 115.187 46.352C115.241 46.244 115.296 46.19 115.35 46.19H115.404C115.696 46.184 115.987 46.1478 116.272 46.082C116.272 45.758 116.326 45.2726 116.326 44.7866V41.5478L117.357 41.4398V44.5706C117.37 45.0571 117.352 45.5439 117.303 46.028C117.306 46.3413 117.25 46.6524 117.139 46.9454C116.886 47.0839 116.611 47.1754 116.325 47.2154C116.013 47.3304 115.682 47.3854 115.349 47.3774H115.35Z" fill="white"/>
<path d="M119.472 47.3774H118.441V41.5478L119.472 41.4398V47.3774Z" fill="white"/>
<path d="M126.525 47.3775H126.091C125.842 47.4031 125.592 47.3555 125.37 47.2408C125.148 47.126 124.965 46.9491 124.843 46.7318C124.593 46.7748 124.338 46.7928 124.084 46.7858C123.61 46.8076 123.14 46.6953 122.727 46.4618C122.573 46.3634 122.448 46.2273 122.362 46.0666C122.277 45.906 122.234 45.7262 122.239 45.5444C122.236 45.0675 122.41 44.6063 122.727 44.249C123.041 43.8732 123.454 43.5927 123.921 43.4396C124.445 43.2625 124.995 43.1714 125.548 43.1696V45.4904C125.537 45.5867 125.546 45.6842 125.574 45.777C125.602 45.8698 125.649 45.956 125.711 46.0304C125.9 46.1614 126.131 46.219 126.36 46.1924H126.469V47.3798L126.525 47.3775ZM124.301 45.7581H124.68V44.2467C124.297 44.2975 123.927 44.4262 123.596 44.6247C123.324 44.8407 123.161 45.0567 123.161 45.2187C123.164 45.2951 123.192 45.3685 123.241 45.4272C123.29 45.4859 123.358 45.5266 123.433 45.5426C123.693 45.702 123.996 45.7772 124.301 45.7581ZM125.06 42.6273L124.411 42.0873L123.922 42.6813L123.214 42.0873L123.811 41.4416L124.46 41.9816L124.953 41.3859L125.661 41.9799L125.06 42.6273Z" fill="white"/>
<path d="M126.526 47.3769C126.471 47.3769 126.417 47.3229 126.363 47.2149C126.291 46.9315 126.291 46.6348 126.363 46.3514C126.417 46.2434 126.471 46.1895 126.526 46.1895H128.479V47.3769H126.526Z" fill="white"/>
<path d="M128.479 47.3769C128.424 47.3769 128.37 47.3229 128.316 47.2149C128.244 46.9315 128.244 46.6348 128.316 46.3514C128.37 46.2435 128.424 46.1895 128.479 46.1895H128.587C128.886 46.2237 129.189 46.1672 129.455 46.0275C129.531 45.9728 129.592 45.899 129.63 45.8136C129.668 45.7282 129.683 45.6343 129.672 45.5415V44.4081L130.649 44.3541V45.488C130.657 45.7047 130.639 45.9215 130.594 46.1337C130.943 46.2525 131.311 46.3074 131.679 46.2957H131.734V47.4831H131.517C131.017 47.522 130.519 47.3885 130.106 47.1051C129.697 47.396 129.196 47.5303 128.695 47.4831H128.478L128.479 47.3769ZM130.757 43.5986C130.148 43.7101 129.549 43.8727 128.967 44.0846L128.804 43.5986C129.021 43.4907 129.238 43.4367 129.347 43.3827C129.25 43.3118 129.171 43.2205 129.115 43.1153C129.059 43.0101 129.027 42.8938 129.022 42.7748C129.017 42.6558 129.038 42.5372 129.085 42.4276C129.132 42.318 129.203 42.2201 129.292 42.1413C129.372 42.0674 129.466 42.0102 129.569 41.9731C129.671 41.936 129.78 41.9197 129.889 41.9253C130.115 41.928 130.338 41.9835 130.538 42.0873L130.376 42.5192C130.235 42.4778 130.088 42.4596 129.941 42.4652C129.841 42.4671 129.744 42.5055 129.67 42.5732C129.637 42.5989 129.61 42.6317 129.591 42.669C129.572 42.7064 129.562 42.7475 129.561 42.7892C129.563 42.8894 129.602 42.9854 129.67 43.0592C129.76 43.1358 129.877 43.1746 129.996 43.1672C130.104 43.1672 130.321 43.1132 130.704 43.0592L130.757 43.5986Z" fill="white"/>
<path d="M131.789 47.3769C131.735 47.3769 131.681 47.3229 131.626 47.2149C131.554 46.9315 131.554 46.6348 131.626 46.3514C131.681 46.2434 131.735 46.1895 131.789 46.1895H133.743V47.3769H131.789Z" fill="white"/>
<path d="M135.207 49.2128L134.558 48.6728L134.069 49.2668L133.361 48.6728L133.958 48.0272L134.607 48.5672L135.096 47.9732L135.804 48.5672L135.207 49.2128ZM133.742 47.3774C133.688 47.3774 133.633 47.3234 133.579 47.2154C133.507 46.9321 133.507 46.6353 133.579 46.352C133.633 46.244 133.688 46.19 133.742 46.19H133.85C134.149 46.2242 134.452 46.1677 134.718 46.028C134.794 45.9733 134.855 45.8996 134.893 45.8142C134.931 45.7288 134.946 45.6349 134.935 45.542V44.4086L135.912 44.3546V45.488C135.921 45.7046 135.902 45.9215 135.857 46.1337C136.206 46.2525 136.574 46.3074 136.942 46.2957H136.997V47.4831H136.78C136.28 47.522 135.782 47.3885 135.369 47.1051C134.96 47.396 134.459 47.5302 133.958 47.4831H133.741L133.742 47.3774Z" fill="white"/>
<path d="M136.998 47.3769C136.944 47.3769 136.89 47.3229 136.835 47.2149C136.763 46.9315 136.763 46.6348 136.835 46.3514C136.89 46.2434 136.944 46.1895 136.998 46.1895H138.952V47.3769H136.998Z" fill="white"/>
<path d="M143.019 47.5929C142.257 47.5807 141.51 47.3763 140.849 46.9989C140.319 47.2304 139.745 47.3411 139.167 47.3229H138.949C138.895 47.3229 138.841 47.2689 138.787 47.1609C138.714 46.8776 138.714 46.5808 138.787 46.2975C138.841 46.1895 138.895 46.1355 138.949 46.1355H139.058C139.312 46.1425 139.567 46.1245 139.818 46.0815C139.665 45.8598 139.589 45.5946 139.601 45.3261C139.672 44.4794 140.059 43.6899 140.686 43.1127C141.55 43.2479 142.358 43.6219 143.019 44.1921C143.314 44.4222 143.551 44.7178 143.711 45.0552C143.871 45.3926 143.95 45.7625 143.941 46.1355C143.996 47.1626 143.67 47.5929 143.019 47.5929ZM140.415 45.1641C140.426 45.3207 140.477 45.4719 140.562 45.604C140.648 45.736 140.765 45.8447 140.903 45.9201C141.116 45.8211 141.302 45.673 141.446 45.4881C141.536 45.3806 141.593 45.2492 141.609 45.1101C141.609 44.7321 141.338 44.4623 140.795 44.3007C140.567 44.5329 140.432 44.8398 140.415 45.1641ZM142.911 46.6215C143.073 46.6215 143.128 46.5675 143.128 46.4055C143.108 46.1314 143.03 45.8646 142.9 45.6226C142.769 45.3807 142.588 45.1692 142.368 45.0021C142.346 45.5105 142.133 45.9922 141.771 46.3521C142.136 46.495 142.52 46.5858 142.911 46.6215Z" fill="white"/>
<path d="M56.1016 56.2838V51.6416H57.675C57.985 51.6279 58.2945 51.6782 58.5839 51.7893C58.8734 51.9004 59.1366 52.07 59.357 52.2873C59.5789 52.4926 59.7522 52.7443 59.8645 53.0244C59.9767 53.3044 60.025 53.6058 60.006 53.9067C60.0247 54.2237 59.9767 54.5411 59.865 54.8386C59.7532 55.136 59.5802 55.407 59.357 55.634C59.1366 55.8513 58.8734 56.0209 58.5839 56.132C58.2945 56.2431 57.985 56.2934 57.675 56.2797L56.1016 56.2838ZM57.675 52.3976H57.078V55.4204H57.675C58.5971 55.4204 59.0319 54.9344 59.0319 53.909C59.0314 52.937 58.5429 52.3976 57.675 52.3976Z" fill="white"/>
<path d="M61.1479 52.397C61.0759 52.4047 61.0031 52.3938 60.9366 52.3654C60.8701 52.3371 60.812 52.2922 60.7679 52.235C60.6937 52.1595 60.6434 52.064 60.6232 51.9604C60.603 51.8567 60.6138 51.7495 60.6542 51.6518C60.6946 51.5542 60.763 51.4705 60.8507 51.4111C60.9384 51.3517 61.0417 51.3192 61.1479 51.3176C61.2886 51.3222 61.4221 51.3811 61.52 51.4818C61.618 51.5825 61.6727 51.7172 61.6727 51.8573C61.6727 51.9975 61.618 52.1321 61.52 52.2328C61.4221 52.3335 61.2886 52.3924 61.1479 52.397ZM61.5821 52.883V56.2838H60.6594V52.883H61.5821Z" fill="white"/>
<path d="M63.6969 57.5252C63.2882 57.5371 62.8816 57.4636 62.5034 57.3092L62.7205 56.6049C63.0151 56.7153 63.3278 56.7703 63.6426 56.7669C63.8548 56.7873 64.0672 56.7296 64.2397 56.6049C64.3102 56.5576 64.3673 56.493 64.4053 56.4173C64.4434 56.3416 64.4611 56.2574 64.4568 56.1729V56.0138C64.2456 56.0758 64.0277 56.112 63.8078 56.1218C63.3702 56.128 62.9456 55.9743 62.6143 55.6898C62.4638 55.5321 62.3474 55.3454 62.2723 55.1411C62.1972 54.9369 62.165 54.7195 62.1777 54.5024C62.1614 54.2643 62.1965 54.0255 62.2808 53.802C62.365 53.5785 62.4963 53.3755 62.666 53.2068C62.8356 53.038 63.0396 52.9073 63.2642 52.8235C63.4889 52.7398 63.7289 52.7048 63.9683 52.721C64.4334 52.7271 64.8935 52.8186 65.3252 52.991V56.0138C65.3335 56.214 65.2991 56.4137 65.2243 56.5998C65.1495 56.7858 65.0359 56.954 64.891 57.0932C64.7428 57.257 64.5563 57.3821 64.3481 57.4574C64.1399 57.5328 63.9163 57.556 63.6969 57.5252ZM63.2084 54.4484C63.1985 54.5651 63.2127 54.6825 63.25 54.7935C63.2874 54.9045 63.3471 55.0068 63.4255 55.0941C63.5027 55.1719 63.5963 55.2316 63.6996 55.269C63.8028 55.3063 63.9132 55.3204 64.0226 55.3101C64.1901 55.3 64.355 55.2636 64.511 55.2021V53.5844C64.3709 53.54 64.2237 53.5217 64.0768 53.5304C63.956 53.5297 63.8362 53.5532 63.7247 53.5996C63.6132 53.646 63.5122 53.7143 63.4279 53.8004C63.3487 53.8878 63.2884 53.9904 63.2507 54.1018C63.2129 54.2133 63.1985 54.3312 63.2084 54.4484Z" fill="white"/>
<path d="M66.7355 52.397C66.6635 52.4046 66.5908 52.3938 66.5243 52.3654C66.4577 52.337 66.3996 52.2921 66.3556 52.235C66.2723 52.148 66.2217 52.035 66.2125 51.9152C66.2032 51.7954 66.2358 51.6761 66.3048 51.5774C66.3737 51.4787 66.4748 51.4067 66.5909 51.3736C66.707 51.3405 66.831 51.3482 66.942 51.3956C67.053 51.4429 67.1442 51.5269 67.2002 51.6334C67.2562 51.7399 67.2735 51.8624 67.2492 51.9801C67.2249 52.0978 67.1606 52.2036 67.067 52.2795C66.9734 52.3555 66.8563 52.397 66.7355 52.397ZM67.1697 52.883V56.2838H66.247V52.883H67.1697Z" fill="white"/>
<path d="M69.9377 56.2837C69.7424 56.331 69.5412 56.3492 69.3406 56.3377C68.527 56.3377 68.1471 55.9057 68.1471 55.0423V53.5849H67.7129V52.8289H68.1471V52.0735L69.0698 52.0195V52.8289H69.8291V53.5843H69.0698V54.9877C69.0698 55.3657 69.2327 55.5277 69.504 55.5277C69.6329 55.5328 69.7617 55.5145 69.884 55.4737L69.9377 56.2837Z" fill="white"/>
<path d="M73.0832 56.0677C72.6261 56.2809 72.1218 56.3739 71.6183 56.3377C71.2561 56.3458 70.8989 56.2522 70.5876 56.0677C70.4742 55.9756 70.3817 55.8605 70.3162 55.7302C70.2507 55.5999 70.2137 55.4573 70.2077 55.3117C70.1958 55.1633 70.2249 55.0145 70.2919 54.8814C70.3589 54.7483 70.4611 54.6359 70.5876 54.5563C70.8788 54.3717 71.2188 54.2777 71.564 54.2863C71.7645 54.2798 71.965 54.2979 72.1611 54.3403V54.1249C72.1611 53.7469 71.9439 53.5309 71.4531 53.5309C71.1559 53.5273 70.8609 53.5824 70.5852 53.6929L70.4224 52.9886C70.7887 52.8554 71.1746 52.7832 71.5646 52.7749C71.7624 52.7529 71.9626 52.7754 72.1504 52.8408C72.3382 52.9063 72.5088 53.0129 72.6495 53.1529C72.7816 53.2878 72.8836 53.4488 72.949 53.6255C73.0145 53.8021 73.0419 53.9905 73.0295 54.1783V56.0677H73.0832ZM71.7262 55.6897C71.8946 55.6856 72.0605 55.6489 72.2147 55.5817V54.8774C72.056 54.8328 71.891 54.8146 71.7262 54.8234C71.3463 54.8234 71.1835 54.9854 71.1835 55.2554C71.1835 55.5254 71.3463 55.6897 71.7262 55.6897Z" fill="white"/>
<path d="M74.8186 51.4255V54.9883C74.8186 55.3663 74.9272 55.5283 75.1985 55.5283H75.4157L75.4699 56.2327C75.3112 56.2772 75.1461 56.2955 74.9814 56.2867C74.2735 56.2867 73.8965 55.8547 73.8965 54.9913V51.4255H74.8186Z" fill="white"/>
<path d="M81.1139 55.9598C80.6669 56.2102 80.162 56.3405 79.649 56.3378C79.3385 56.3566 79.0275 56.3087 78.7373 56.1973C78.4471 56.0859 78.1844 55.9136 77.967 55.6922C77.7514 55.4614 77.5869 55.1882 77.484 54.8903C77.3812 54.5923 77.3423 54.2762 77.37 53.9624C77.3517 53.6377 77.3998 53.3127 77.5114 53.0071C77.6229 52.7014 77.7956 52.4214 78.0189 52.184C78.2433 51.953 78.5135 51.7711 78.8125 51.6498C79.1114 51.5285 79.4325 51.4706 79.7552 51.4796C80.1818 51.4629 80.6071 51.5365 81.003 51.6956L80.7859 52.505C80.4568 52.3764 80.1085 52.3034 79.7552 52.289C79.562 52.2806 79.3693 52.315 79.191 52.3897C79.0128 52.4644 78.8534 52.5775 78.7245 52.721C78.4891 53.0711 78.3748 53.4879 78.3989 53.9084C78.3747 54.3126 78.4904 54.7128 78.7269 55.0424C78.8564 55.182 79.0174 55.289 79.1965 55.3547C79.3757 55.4204 79.568 55.4429 79.7576 55.4204C79.9402 55.4292 80.1231 55.411 80.3003 55.3664V54.3404H79.5405V53.531H81.1682V55.9598H81.1139Z" fill="white"/>
<path d="M85.0197 54.5564C85.0348 55.0259 84.8808 55.4854 84.5855 55.8518C84.4316 56.0111 84.2459 56.1367 84.0403 56.2204C83.8348 56.3041 83.6139 56.3441 83.3919 56.3378C83.1693 56.3492 82.9469 56.3115 82.7406 56.2275C82.5343 56.1435 82.3492 56.0152 82.1984 55.8518C82.041 55.6768 81.9213 55.4716 81.8467 55.2488C81.772 55.026 81.7439 54.7904 81.7642 54.5564C81.7491 54.0869 81.9031 53.6275 82.1984 53.261C82.3523 53.1017 82.538 52.9762 82.7435 52.8925C82.9491 52.8088 83.1699 52.7688 83.3919 52.775C83.6146 52.7637 83.837 52.8014 84.0433 52.8854C84.2496 52.9694 84.4347 53.0977 84.5855 53.261C84.8808 53.6275 85.0348 54.0869 85.0197 54.5564ZM82.6327 54.5564C82.6162 54.8183 82.6726 55.0797 82.7955 55.3118C82.8587 55.3956 82.9406 55.4635 83.0348 55.5103C83.1289 55.5571 83.2327 55.5814 83.338 55.5814C83.4432 55.5814 83.547 55.5571 83.6412 55.5103C83.7353 55.4635 83.8172 55.3956 83.8804 55.3118C83.9877 55.0742 84.0432 54.8167 84.0432 54.5561C84.0432 54.2956 83.9877 54.0381 83.8804 53.8004C83.8172 53.7167 83.7353 53.6488 83.6412 53.602C83.547 53.5552 83.4432 53.5308 83.338 53.5308C83.2327 53.5308 83.1289 53.5552 83.0348 53.602C82.9406 53.6488 82.8587 53.7167 82.7955 53.8004C82.6784 54.0349 82.6228 54.2948 82.6327 54.5564Z" fill="white"/>
<path d="M85.4004 52.883H86.3225C86.3579 53.806 86.5998 54.7095 87.0305 55.5278C87.2488 55.1378 87.4131 54.7202 87.519 54.2864C87.6521 53.8115 87.7251 53.3219 87.7361 52.829H88.6582C88.6174 53.4154 88.5081 53.9951 88.3325 54.5564C88.1171 55.1303 87.8634 55.6894 87.5733 56.2298H86.5396C86.2024 55.7062 85.9292 55.1444 85.7261 54.5564C85.5449 54.015 85.4354 53.4525 85.4004 52.883Z" fill="white"/>
<path d="M91.9644 56.1205C91.5892 56.2848 91.1803 56.3588 90.7709 56.3365C90.5317 56.3528 90.2917 56.3178 90.0672 56.2341C89.8426 56.1504 89.6387 56.0198 89.4691 55.8512C89.2995 55.6826 89.1681 55.4797 89.0838 55.2564C88.9995 55.0331 88.9642 54.7944 88.9804 54.5563C88.9652 54.0868 89.1192 53.6274 89.4146 53.2609C89.5685 53.1016 89.7542 52.9761 89.9597 52.8924C90.1652 52.8087 90.3861 52.7687 90.6081 52.7749C90.8013 52.7665 90.994 52.8009 91.1723 52.8756C91.3505 52.9503 91.5099 53.0635 91.6388 53.2069C91.7715 53.3524 91.8735 53.5229 91.9388 53.7083C92.0041 53.8937 92.0312 54.0903 92.0187 54.2863V54.7706H89.9025C89.9091 54.8819 89.9388 54.9908 89.9896 55.0902C90.0404 55.1897 90.1113 55.2776 90.1979 55.3486C90.2844 55.4195 90.3848 55.4719 90.4926 55.5026C90.6004 55.5332 90.7135 55.5414 90.8246 55.5266C91.1453 55.5325 91.4624 55.4582 91.7467 55.3106L91.9644 56.1205ZM90.6624 53.5298C90.5696 53.525 90.477 53.542 90.3921 53.5795C90.3072 53.6171 90.2325 53.674 90.1739 53.7457C90.0378 53.8934 89.9606 54.0854 89.9568 54.2857H91.2046V54.2317C91.209 54.0558 91.1514 53.8839 91.0417 53.7457C91.0104 53.6739 90.9565 53.6141 90.8881 53.5754C90.8197 53.5366 90.7405 53.521 90.6624 53.5309V53.5298Z" fill="white"/>
<path d="M92.7793 53.099C93.2187 52.8909 93.7043 52.7979 94.1899 52.829C94.3905 52.8175 94.5917 52.8357 94.787 52.883L94.6241 53.5873C94.5037 53.5391 94.3734 53.5206 94.2442 53.5333C94.0583 53.5378 93.8747 53.5743 93.7014 53.6413V56.2861H92.7793V53.099Z" fill="white"/>
<path d="M96.1975 56.2837H95.2754V53.0989C95.7548 52.896 96.2742 52.8037 96.7946 52.8289C97.0003 52.8122 97.2073 52.837 97.4031 52.902C97.5988 52.9669 97.7794 53.0707 97.9338 53.2069C98.0699 53.3389 98.1746 53.4995 98.2403 53.6769C98.3061 53.8543 98.3312 54.0441 98.3137 54.2323V56.2837H97.3916V54.2323C97.3916 53.8003 97.1745 53.5867 96.7946 53.5867C96.5911 53.5915 96.3897 53.6279 96.1975 53.6947V56.2837Z" fill="white"/>
<path d="M100.049 53.6383V56.2832H99.127V53.0989C99.6064 52.896 100.126 52.8037 100.646 52.8289C100.974 52.8196 101.297 52.9141 101.568 53.0989C101.907 52.9337 102.276 52.8417 102.653 52.8289C102.851 52.8119 103.049 52.8368 103.237 52.9019C103.424 52.9671 103.595 53.0711 103.738 53.2069C103.87 53.3418 103.972 53.5028 104.038 53.6795C104.103 53.8561 104.131 54.0445 104.118 54.2323V56.2837H103.198V54.2323C103.198 53.8003 102.981 53.5867 102.601 53.5867C102.39 53.5824 102.183 53.6386 102.004 53.7487C102.053 53.9601 102.072 54.1776 102.058 54.3943V56.2837H101.189V54.2323C101.196 54.1446 101.185 54.0564 101.157 53.973C101.129 53.8895 101.084 53.8125 101.026 53.7464C100.908 53.6381 100.752 53.58 100.592 53.5844C100.41 53.5485 100.221 53.5673 100.049 53.6383Z" fill="white"/>
<path d="M107.754 56.1205C107.378 56.2848 106.969 56.3588 106.56 56.3365C106.321 56.3528 106.081 56.3178 105.856 56.2341C105.632 56.1504 105.428 56.0198 105.258 55.8512C105.089 55.6826 104.957 55.4797 104.873 55.2564C104.789 55.0331 104.753 54.7944 104.769 54.5563C104.754 54.0868 104.908 53.6274 105.204 53.2609C105.358 53.1016 105.543 52.9761 105.749 52.8924C105.954 52.8087 106.175 52.7687 106.397 52.7749C106.59 52.7665 106.783 52.8009 106.961 52.8756C107.14 52.9503 107.299 53.0635 107.428 53.2069C107.561 53.3524 107.663 53.5229 107.728 53.7083C107.793 53.8937 107.82 54.0903 107.808 54.2863V54.7706H105.692C105.698 54.8819 105.728 54.9908 105.779 55.0902C105.83 55.1897 105.9 55.2776 105.987 55.3486C106.073 55.4195 106.174 55.4719 106.282 55.5026C106.39 55.5332 106.503 55.5414 106.614 55.5266C106.934 55.5325 107.251 55.4582 107.536 55.3106L107.754 56.1205ZM106.451 53.5298C106.359 53.525 106.266 53.542 106.181 53.5795C106.096 53.6171 106.022 53.674 105.963 53.7457C105.827 53.8934 105.75 54.0854 105.746 54.2857H106.994V54.2317C106.998 54.0558 106.94 53.8839 106.831 53.7457C106.799 53.6739 106.746 53.6141 106.677 53.5754C106.609 53.5366 106.53 53.521 106.451 53.5309V53.5298Z" fill="white"/>
<path d="M109.489 56.2837H108.566V53.0989C109.046 52.896 109.565 52.8037 110.086 52.8289C110.291 52.8122 110.498 52.837 110.694 52.902C110.89 52.9669 111.07 53.0707 111.225 53.2069C111.361 53.3389 111.466 53.4995 111.531 53.6769C111.597 53.8543 111.622 54.0441 111.605 54.2323V56.2837H110.683V54.2323C110.683 53.8003 110.466 53.5867 110.086 53.5867C109.882 53.5915 109.681 53.6279 109.489 53.6947V56.2837Z" fill="white"/>
<path d="M114.319 56.2837C114.123 56.331 113.922 56.3492 113.721 56.3377C112.908 56.3377 112.528 55.9057 112.528 55.0423V53.5849H112.094V52.8289H112.528V52.0735L113.451 52.0195V52.8289H114.21V53.5843H113.451V54.9877C113.451 55.3657 113.614 55.5277 113.885 55.5277C114.014 55.5328 114.143 55.5145 114.265 55.4737L114.319 56.2837Z" fill="white"/>
<path d="M119.31 56.2838L119.039 55.2584H117.302C117.194 55.5824 117.14 55.904 117.031 56.2838H116.055C116.468 54.6945 117.012 53.1418 117.682 51.6416H118.659C119.312 53.1486 119.855 54.6999 120.287 56.2838H119.31ZM118.171 52.613C117.923 53.195 117.706 53.7896 117.522 54.3944H118.769C118.496 53.531 118.279 52.937 118.171 52.613Z" fill="white"/>
<path d="M123.814 56.0678C123.333 56.266 122.815 56.3581 122.295 56.3378C122.088 56.3643 121.879 56.3441 121.681 56.2787C121.484 56.2132 121.304 56.1042 121.155 55.9598C120.92 55.6507 120.804 55.2674 120.83 54.8804V52.829H121.752V54.8804C121.752 55.3124 121.969 55.526 122.349 55.526C122.552 55.5212 122.754 55.4848 122.946 55.418V52.829H123.868V56.0678H123.814Z" fill="white"/>
<path d="M126.526 56.2837C126.33 56.331 126.129 56.3492 125.929 56.3377C125.115 56.3377 124.735 55.9057 124.735 55.0423V53.5849H124.301V52.8289H124.735V52.0735L125.658 52.0195V52.8289H126.417V53.5843H125.658V54.9877C125.658 55.3657 125.821 55.5277 126.092 55.5277C126.221 55.5328 126.35 55.5145 126.472 55.4737L126.526 56.2837Z" fill="white"/>
<path d="M127.99 56.2838H127.068V51.5336L127.99 51.4796V52.937C128.213 52.8398 128.457 52.8025 128.698 52.829C128.888 52.8141 129.078 52.8401 129.256 52.9054C129.434 52.9706 129.595 53.0735 129.729 53.2069C129.863 53.3403 129.967 53.5011 130.032 53.6782C130.098 53.8552 130.124 54.0443 130.109 54.2324V56.2838H129.187V54.2324C129.199 54.1448 129.191 54.0555 129.163 53.9716C129.134 53.8877 129.087 53.8115 129.024 53.7489C128.961 53.6864 128.884 53.6392 128.8 53.611C128.716 53.5829 128.626 53.5746 128.538 53.5868C128.353 53.5966 128.17 53.633 127.995 53.6948L127.99 56.2838Z" fill="white"/>
<path d="M134.069 54.5564C134.084 55.0259 133.93 55.4854 133.634 55.8518C133.48 56.0111 133.295 56.1367 133.089 56.2204C132.884 56.3041 132.663 56.3441 132.441 56.3378C132.218 56.3492 131.996 56.3115 131.789 56.2275C131.583 56.1435 131.398 56.0152 131.247 55.8518C131.09 55.6768 130.97 55.4716 130.895 55.2488C130.821 55.026 130.793 54.7904 130.813 54.5564C130.798 54.0869 130.952 53.6275 131.247 53.261C131.401 53.1017 131.587 52.9762 131.792 52.8925C131.998 52.8088 132.219 52.7688 132.441 52.775C132.663 52.7637 132.886 52.8014 133.092 52.8854C133.298 52.9694 133.484 53.0977 133.634 53.261C133.792 53.4361 133.911 53.6413 133.986 53.8641C134.061 54.0868 134.089 54.3225 134.069 54.5564ZM131.681 54.5564C131.665 54.8183 131.721 55.0797 131.844 55.3118C131.908 55.3956 131.989 55.4635 132.084 55.5103C132.178 55.5571 132.282 55.5814 132.387 55.5814C132.492 55.5814 132.596 55.5571 132.69 55.5103C132.784 55.4635 132.866 55.3956 132.929 55.3118C133.037 55.0742 133.092 54.8167 133.092 54.5561C133.092 54.2956 133.037 54.0381 132.929 53.8004C132.866 53.7167 132.784 53.6488 132.69 53.602C132.596 53.5552 132.492 53.5308 132.387 53.5308C132.282 53.5308 132.178 53.5552 132.084 53.602C131.989 53.6488 131.908 53.7167 131.844 53.8004C131.727 54.0349 131.671 54.2948 131.681 54.5564H131.681Z" fill="white"/>
<path d="M134.773 53.099C135.213 52.8909 135.698 52.7979 136.184 52.829C136.385 52.8175 136.586 52.8357 136.781 52.883L136.673 53.6384C136.552 53.5901 136.422 53.5716 136.293 53.5844C136.107 53.5888 135.923 53.6254 135.75 53.6924V56.2832H134.828V53.099H134.773Z" fill="white"/>
<path d="M137.703 52.397C137.631 52.4046 137.559 52.3938 137.492 52.3654C137.425 52.337 137.367 52.2921 137.323 52.235C137.246 52.1599 137.193 52.0638 137.171 51.9587C137.15 51.8536 137.16 51.7445 137.2 51.6451C137.241 51.5458 137.311 51.4607 137.4 51.4009C137.49 51.341 137.595 51.3091 137.703 51.3091C137.811 51.3091 137.916 51.341 138.006 51.4009C138.095 51.4607 138.165 51.5458 138.205 51.6451C138.246 51.7445 138.256 51.8536 138.234 51.9587C138.213 52.0638 138.16 52.1599 138.083 52.235C138.039 52.292 137.981 52.3369 137.914 52.3652C137.848 52.3936 137.775 52.4045 137.703 52.397ZM138.192 52.883V56.2838H137.27V52.883H138.192Z" fill="white"/>
<path d="M140.958 56.2837C140.763 56.331 140.562 56.3492 140.361 56.3377C139.548 56.3377 139.168 55.9057 139.168 55.0423V53.5849H138.68V52.8289H139.114V52.0735L140.037 52.0195V52.8289H140.796V53.5843H140.037V54.9877C140.037 55.3657 140.199 55.5277 140.471 55.5277C140.6 55.5328 140.728 55.5145 140.851 55.4737L140.958 56.2837Z" fill="white"/>
<path d="M143.4 55.9598C143.232 56.3475 142.971 56.6883 142.64 56.9519C142.309 57.2155 141.917 57.3938 141.5 57.4712L141.338 56.7158C141.547 56.6768 141.749 56.6038 141.935 56.4998C142.129 56.4154 142.284 56.2611 142.369 56.0678C142.019 55.6007 141.728 55.0932 141.501 54.5564C141.286 54.0221 141.158 53.4573 141.121 52.883H142.043C142.071 53.763 142.333 54.6199 142.803 55.3658C142.978 55.0057 143.106 54.6248 143.183 54.2324C143.304 53.7746 143.359 53.3021 143.346 52.829H144.268C144.249 53.9288 143.95 55.006 143.4 55.9598Z" fill="white"/>
<path d="M145.82 16.599C145.087 16.6525 144.36 16.4314 143.781 15.9791C143.545 15.7521 143.361 15.4766 143.242 15.1717C143.123 14.8669 143.072 14.54 143.092 14.2136C143.106 13.44 143.303 12.6805 143.668 11.9973L144.593 12.3729C144.394 12.8437 144.282 13.3464 144.263 13.8567C144.248 14.0552 144.279 14.2546 144.353 14.4394C144.427 14.6242 144.544 14.7895 144.692 14.9226C145.087 15.1888 145.562 15.3131 146.037 15.2748C146.476 15.283 146.911 15.2081 147.321 15.0541C147.644 14.9464 147.918 14.7285 148.095 14.439C147.897 14.2982 147.689 14.1727 147.472 14.0633C147.239 13.9459 146.952 13.809 146.609 13.6525C146.266 13.496 146.003 13.3754 145.82 13.2909C145.808 13.053 145.801 12.8871 145.801 12.7932C145.793 12.3504 145.865 11.9097 146.014 11.4925C146.129 11.1602 146.325 10.8616 146.585 10.6238C146.812 10.4245 147.074 10.27 147.359 10.1683C147.644 10.0702 147.943 10.0209 148.244 10.0228C148.492 10.0232 148.738 10.0661 148.971 10.1495C149.175 10.2148 149.366 10.314 149.537 10.443L149.046 11.6263C148.736 11.4308 148.375 11.3288 148.008 11.3328C147.745 11.3229 147.487 11.3987 147.272 11.5488C147.036 11.7654 146.883 12.0567 146.84 12.3729C147.287 12.5607 147.612 12.7016 147.817 12.7955C148.068 12.9147 148.312 13.048 148.548 13.1946C148.81 13.3506 149.054 13.5349 149.275 13.744C149.297 14.1491 149.221 14.5534 149.054 14.9234C148.887 15.2934 148.634 15.6184 148.315 15.8711C147.589 16.3848 146.71 16.6411 145.82 16.599ZM154.656 14.6738C154.437 14.6897 154.218 14.6603 154.012 14.5876C153.805 14.5148 153.616 14.4003 153.457 14.2512C152.808 14.6002 152.08 14.775 151.342 14.7583C150.942 14.764 150.541 14.742 150.144 14.6925V13.3496C150.597 13.3809 150.993 13.3966 151.333 13.3966C151.862 13.4085 152.389 13.3452 152.9 13.2087C152.837 13.0334 152.787 12.902 152.749 12.8143C152.451 12.0664 152.023 11.3766 151.484 10.7764L152.352 9.9312C152.597 10.1891 152.814 10.4707 153.001 10.7717C153.159 11.0153 153.303 11.2677 153.431 11.5277C153.522 11.7234 153.631 11.9777 153.757 12.2907C153.856 12.5909 154.001 12.8743 154.186 13.1313C154.264 13.2021 154.356 13.2559 154.456 13.2891C154.556 13.3222 154.662 13.3341 154.767 13.3238H154.842V14.6738H154.656ZM154.845 14.6738C154.763 14.6738 154.692 14.608 154.632 14.4765C154.568 14.325 154.538 14.1618 154.542 13.9976C154.538 13.8334 154.568 13.6702 154.632 13.5186C154.692 13.3872 154.763 13.3214 154.845 13.3214H154.92C155.263 13.3244 155.605 13.2897 155.94 13.2181C155.965 12.8237 155.977 12.3166 155.977 11.6968C155.977 10.8015 155.968 9.55869 155.949 7.96844L157.157 7.86514C157.164 9.51173 157.167 10.7232 157.167 11.4995C157.167 12.2133 157.152 12.7689 157.124 13.1665C157.102 13.5283 157.036 13.8861 156.928 14.2324C156.641 14.3748 156.337 14.479 156.022 14.5423C155.655 14.6279 155.279 14.672 154.901 14.6738H154.845ZM163.595 9.24564L162.84 8.61643L162.255 9.27382L161.462 8.61643L162.122 7.8534L162.878 8.49904L163.463 7.82288L164.256 8.49904L163.595 9.24564ZM165.322 14.6738H164.834C164.551 14.7086 164.264 14.6572 164.012 14.5264C163.759 14.3956 163.552 14.1916 163.418 13.9413C163.13 13.9779 162.84 13.9975 162.55 13.9999C162.015 14.0277 161.483 13.904 161.016 13.6431C160.833 13.5296 160.685 13.3695 160.586 13.1795C160.488 12.9895 160.442 12.7766 160.454 12.5631C160.448 12.0216 160.639 11.4964 160.992 11.084C161.364 10.6459 161.846 10.3137 162.389 10.1214C162.994 9.90295 163.634 9.79479 164.277 9.80207V12.5537C164.263 12.6641 164.274 12.7761 164.309 12.8817C164.344 12.9873 164.403 13.0838 164.48 13.1641C164.701 13.2921 164.957 13.3479 165.211 13.3238H165.325L165.322 14.6738ZM162.774 12.8143C162.919 12.8164 163.064 12.8101 163.208 12.7955V11.0863C162.752 11.1304 162.316 11.2887 161.938 11.5465C161.808 11.6182 161.696 11.7193 161.612 11.8415C161.527 11.9638 161.473 12.1039 161.452 12.2508C161.452 12.4136 161.565 12.5482 161.792 12.6547C162.104 12.7763 162.439 12.8307 162.774 12.8143ZM165.322 14.6738C165.241 14.6738 165.17 14.608 165.11 14.4765C165.046 14.325 165.016 14.1618 165.02 13.9976C165.016 13.8334 165.046 13.6702 165.11 13.5186C165.17 13.3872 165.241 13.3214 165.322 13.3214H165.473C165.761 13.3598 166.053 13.2839 166.285 13.1101C166.431 12.9036 166.498 12.6522 166.474 12.4011V7.96844L167.666 7.86514V12.11C167.634 12.4425 167.731 12.7746 167.935 13.0397C168.063 13.1461 168.211 13.2258 168.371 13.2742C168.531 13.3226 168.699 13.3386 168.865 13.3214H168.959V14.6738H168.685C168.402 14.6886 168.119 14.6426 167.855 14.5389C167.591 14.4352 167.353 14.2762 167.156 14.0727C166.927 14.297 166.65 14.4673 166.345 14.5713C166.041 14.6753 165.717 14.7103 165.398 14.6738H165.322ZM168.957 14.6738C168.875 14.6738 168.804 14.608 168.744 14.4765C168.681 14.325 168.65 14.1618 168.655 13.9976C168.65 13.8334 168.681 13.6702 168.744 13.5186C168.804 13.3872 168.875 13.3214 168.957 13.3214H169.315C170.491 13.3437 171.666 13.262 172.827 13.0773C171.877 12.1773 171.232 11.7273 170.892 11.7273C170.765 11.7222 170.639 11.7567 170.533 11.8259C170.407 11.9304 170.304 12.0599 170.231 12.2062L169.391 11.8869C169.518 11.4904 169.741 11.1309 170.04 10.8398C170.291 10.6239 170.614 10.5085 170.946 10.5158C171.663 10.6329 172.321 10.9839 172.815 11.5136C172.947 11.6263 173.284 11.93 173.825 12.4246C174.112 12.7099 174.434 12.9576 174.783 13.1618C175.064 13.2827 175.369 13.3389 175.675 13.3261H175.817V14.6738H175.619C175.303 14.6803 174.989 14.6343 174.689 14.5376C174.392 14.4263 174.116 14.2659 173.872 14.0633C172.312 14.4774 170.703 14.6827 169.089 14.6738H168.957ZM171.883 15.1527L172.751 15.8946L172.032 16.7023L171.165 15.9885L171.883 15.1527ZM181.417 14.7113C181.181 14.7282 180.945 14.6913 180.725 14.6034C180.506 14.5155 180.31 14.379 180.152 14.2042C179.955 14.3939 179.718 14.5383 179.459 14.6276C179.2 14.7168 178.924 14.7486 178.651 14.7207C178.126 14.7404 177.608 14.5968 177.169 14.3099C176.805 14.5621 176.369 14.6898 175.925 14.6738H175.822C175.74 14.6738 175.669 14.608 175.609 14.4765C175.545 14.325 175.515 14.1618 175.519 13.9976C175.515 13.8334 175.545 13.6702 175.609 13.5186C175.669 13.3872 175.74 13.3214 175.822 13.3214H176.076C176.293 13.3372 176.507 13.27 176.676 13.1336C176.84 12.9353 176.928 12.686 176.926 12.4293L176.973 11.7531L178.037 11.6803L177.99 12.4504C177.979 12.6714 177.951 12.8912 177.905 13.1078C178.146 13.2364 178.416 13.3011 178.689 13.2956C178.936 13.3059 179.181 13.2386 179.387 13.1031C179.479 13.0362 179.552 12.9473 179.6 12.8446C179.648 12.742 179.669 12.629 179.661 12.5161V11.6357L180.737 11.57V12.6406C180.737 13.0976 180.983 13.3261 181.473 13.3261C181.964 13.3261 182.21 13.1164 182.21 12.6969V11.4901L183.276 11.3962V12.6734C183.277 12.8366 183.268 12.9997 183.248 13.1618C183.577 13.2946 183.933 13.3493 184.286 13.3214H184.409V14.6738H184.22C183.701 14.6802 183.192 14.5331 182.757 14.2512C182.576 14.4125 182.364 14.5363 182.133 14.6153C181.903 14.6943 181.66 14.7269 181.417 14.7113ZM187.817 13.4412C188.013 13.4412 188.205 13.4318 188.393 13.413C188.417 13.2576 188.429 13.1007 188.43 12.9434C188.442 12.6613 188.37 12.382 188.223 12.1405C188.162 12.0413 188.076 11.9599 187.973 11.9046C187.87 11.8494 187.754 11.8222 187.637 11.8259C187.527 11.8238 187.418 11.844 187.316 11.8852C187.213 11.9263 187.121 11.9876 187.043 12.0654C186.789 12.3623 186.58 12.6935 186.42 13.0491C186.376 13.1367 186.351 13.19 186.344 13.2087C186.817 13.375 187.316 13.4538 187.817 13.4412ZM187.6 14.6832C186.918 14.7012 186.244 14.5392 185.646 14.2136C185.494 14.3651 185.313 14.4841 185.113 14.5632C184.913 14.6423 184.7 14.68 184.485 14.6738H184.409C184.327 14.6738 184.257 14.608 184.197 14.4765C184.133 14.325 184.102 14.1618 184.107 13.9976C184.102 13.8334 184.133 13.6702 184.197 13.5186C184.257 13.3872 184.327 13.3214 184.409 13.3214H184.57C184.68 13.3248 184.79 13.3028 184.891 13.2572C184.991 13.2116 185.08 13.1436 185.15 13.0585C185.353 12.7936 185.526 12.5069 185.665 12.2039L185.693 12.1452L185.717 12.0982C185.726 12.0793 185.734 12.0596 185.74 12.0395C185.936 11.6402 186.203 11.2798 186.528 10.976C186.852 10.717 187.261 10.5865 187.675 10.6097C187.927 10.6037 188.176 10.6574 188.403 10.7665C188.629 10.8755 188.826 11.0366 188.978 11.2366C189.319 11.6801 189.496 12.2276 189.478 12.7861C189.488 13.3655 189.379 13.9408 189.157 14.4765C188.653 14.6296 188.127 14.6994 187.6 14.6832Z" fill="white"/>
<path d="M11.8585 9.24569H11.3394V11.1051H11.8585C12.7144 11.1051 13.1423 10.7921 13.1423 10.166C13.1567 10.0291 13.1346 9.89091 13.0782 9.76522C13.0219 9.63952 12.9333 9.53079 12.8214 9.44995C12.5258 9.29384 12.1923 9.22309 11.8585 9.24569ZM11.7453 12.2321H11.3394V14.6738H9.98242V8.09996H11.9293C12.6062 8.06054 13.2779 8.2383 13.8455 8.60708C14.0715 8.77283 14.2527 8.99164 14.3729 9.244C14.4931 9.49636 14.5487 9.77441 14.5346 10.0533C14.5747 10.4567 14.4618 10.8604 14.2182 11.1852C13.9746 11.5101 13.6178 11.7327 13.2178 11.8095C13.5715 12.0032 13.8479 12.3114 14.0013 12.6829L14.9641 14.6738H13.5104L12.6137 12.8143C12.5323 12.6389 12.4092 12.4858 12.255 12.3683C12.1031 12.272 11.9252 12.2244 11.7453 12.2321ZM17.7205 10.7952C17.5965 10.7912 17.4731 10.8134 17.3584 10.8604C17.2436 10.9073 17.1402 10.9779 17.055 11.0676C16.8692 11.2774 16.7552 11.5405 16.7293 11.8189H18.5228V11.7062C18.5334 11.4688 18.458 11.2356 18.3104 11.0488C18.2383 10.9643 18.1475 10.8975 18.0452 10.8536C17.9429 10.8096 17.8318 10.7896 17.7205 10.7952ZM19.5895 14.4672C19.0681 14.6899 18.5048 14.7988 17.9376 14.7865C17.5984 14.8018 17.2596 14.7494 16.941 14.6325C16.6225 14.5156 16.3306 14.3364 16.0827 14.1056C15.8439 13.8644 15.6581 13.5764 15.537 13.26C15.4159 12.9435 15.3623 12.6055 15.3795 12.2673C15.3497 11.602 15.5826 10.9515 16.0284 10.4548C16.2437 10.2255 16.506 10.0447 16.7975 9.92486C17.0889 9.80497 17.4029 9.7487 17.7181 9.75986C17.9939 9.74797 18.2691 9.79457 18.5254 9.89658C18.7818 9.99858 19.0134 10.1537 19.2048 10.3515C19.5889 10.7711 19.7907 11.3247 19.7665 11.8917C19.7665 12.1171 19.7539 12.355 19.7287 12.6054H16.7506C16.7626 12.7643 16.8068 12.9192 16.8804 13.0607C16.9539 13.2023 17.0554 13.3276 17.1788 13.4293C17.3021 13.531 17.4448 13.6069 17.5983 13.6525C17.7518 13.6981 17.9129 13.7125 18.0721 13.6948C18.5234 13.6925 18.9696 13.5999 19.3842 13.4224L19.5895 14.4672ZM21.8172 12.11C21.7971 12.4455 21.9021 12.7766 22.1122 13.0397C22.2175 13.1542 22.3471 13.244 22.4916 13.3024C22.6361 13.3609 22.7919 13.3867 22.9476 13.3778C23.1841 13.3761 23.4172 13.3215 23.6296 13.2182V10.9361C23.4378 10.872 23.2373 10.8372 23.0349 10.8328C22.8691 10.8233 22.7032 10.8494 22.5485 10.9094C22.3938 10.9693 22.2538 11.0617 22.1382 11.1803C21.9149 11.4376 21.8 11.7706 21.8172 12.11ZM22.5323 16.4581C21.9677 16.468 21.4066 16.3683 20.8804 16.1647L21.1565 15.1434C21.5714 15.3045 22.0137 15.3842 22.4591 15.3781C22.7638 15.3965 23.0664 15.3176 23.3228 15.1528C23.4235 15.0786 23.5041 14.9808 23.5576 14.8682C23.6111 14.7556 23.6359 14.6315 23.6296 14.5071V14.2888C23.3476 14.3987 23.0476 14.456 22.7447 14.4578C22.4431 14.4751 22.1411 14.4321 21.8566 14.3313C21.5721 14.2304 21.3107 14.0739 21.088 13.8709C20.8803 13.6514 20.72 13.3919 20.6169 13.1085C20.5138 12.825 20.4702 12.5236 20.4886 12.2227C20.4725 11.8917 20.5264 11.5611 20.6467 11.2521C20.767 10.9432 20.9511 10.6628 21.1871 10.429C21.4361 10.2019 21.7277 10.0261 22.0453 9.91171C22.3628 9.79727 22.6999 9.74646 23.0373 9.7622C23.6862 9.75346 24.3296 9.88148 24.9252 10.1379V14.3733C24.9404 14.6601 24.8909 14.9467 24.7802 15.212C24.6696 15.4773 24.5006 15.7146 24.2857 15.9064C23.789 16.298 23.165 16.4943 22.5323 16.4581ZM26.8273 9.23864C26.7261 9.24423 26.6248 9.22943 26.5295 9.19514C26.4342 9.16085 26.3469 9.10777 26.2727 9.03908C26.2052 8.96914 26.1528 8.88619 26.1187 8.79535C26.0846 8.7045 26.0695 8.60767 26.0745 8.51082C26.0695 8.41398 26.0846 8.31715 26.1187 8.2263C26.1528 8.13546 26.2052 8.05251 26.2727 7.98257C26.3473 7.91401 26.4352 7.86119 26.5309 7.8273C26.6266 7.7934 26.7282 7.77914 26.8296 7.78535C26.9295 7.77967 27.0296 7.79422 27.1237 7.82812C27.2178 7.86202 27.304 7.91456 27.3771 7.98257C27.4446 8.05251 27.497 8.13546 27.5311 8.2263C27.5652 8.31715 27.5803 8.41398 27.5753 8.51082C27.5803 8.60767 27.5652 8.7045 27.5311 8.79535C27.497 8.88619 27.4446 8.96914 27.3771 9.03908C27.304 9.10709 27.2178 9.15963 27.1237 9.19353C27.0296 9.22743 26.9295 9.24198 26.8296 9.2363L26.8273 9.23864ZM27.4762 9.87725V14.6738H26.1783V9.8749L27.4762 9.87725ZM31.8184 10.0369L31.6768 11.0887C31.2532 10.9446 30.8117 10.8593 30.3647 10.8352C29.9242 10.8352 29.704 10.9635 29.704 11.2202C29.7015 11.279 29.7152 11.3373 29.7434 11.389C29.7717 11.4407 29.8135 11.4838 29.8644 11.5137C30.0623 11.6143 30.2714 11.6916 30.4874 11.7437C30.9352 11.8403 31.3559 12.0343 31.7193 12.3119C31.8479 12.4358 31.9479 12.5861 32.0123 12.7524C32.0767 12.9186 32.104 13.0968 32.0922 13.2745C32.1034 13.4918 32.0595 13.7085 31.9647 13.9045C31.8699 14.1006 31.7271 14.2699 31.5494 14.3968C31.1231 14.675 30.6191 14.8115 30.1099 14.7865C29.5242 14.801 28.9418 14.6956 28.3989 14.4766L28.5759 13.4154C29.0533 13.6069 29.5622 13.7088 30.0768 13.7159C30.26 13.7233 30.4422 13.6862 30.6078 13.6079C30.6678 13.5822 30.719 13.5396 30.755 13.4854C30.7911 13.4312 30.8104 13.3677 30.8107 13.3027C30.8127 13.236 30.7955 13.1701 30.7612 13.1128C30.727 13.0554 30.677 13.0089 30.6172 12.9787C30.3546 12.8581 30.0813 12.7622 29.8007 12.6923C29.4158 12.6115 29.0583 12.4336 28.7624 12.1757C28.6428 12.0532 28.55 11.9073 28.4899 11.7472C28.4298 11.5872 28.4037 11.4166 28.4131 11.246C28.4013 11.0377 28.4392 10.8296 28.5237 10.6386C28.6082 10.4477 28.7369 10.2793 28.8992 10.1472C29.2942 9.8688 29.773 9.73295 30.2562 9.7622C30.7913 9.75333 31.3232 9.84657 31.8231 10.0369H31.8184ZM35.5612 14.702C35.2919 14.7629 35.0161 14.7913 34.7399 14.7865C33.6072 14.7865 33.0408 14.1698 33.0408 12.9364V10.9079H32.3989V9.8749H33.0408V8.83247L34.3435 8.76674V9.8749H35.3936V10.9079H34.3435V12.9177C34.3435 13.4498 34.5598 13.7159 34.9925 13.7159C35.1609 13.7153 35.3288 13.6956 35.4927 13.6572L35.5612 14.702ZM38.3742 10.7952C38.2502 10.7912 38.1268 10.8134 38.012 10.8604C37.8973 10.9073 37.7939 10.9779 37.7087 11.0676C37.5229 11.2774 37.4089 11.5405 37.383 11.8189H39.1765V11.7062C39.1871 11.4688 39.1117 11.2356 38.9641 11.0488C38.8919 10.9643 38.8012 10.8975 38.6989 10.8536C38.5966 10.8096 38.4855 10.7896 38.3742 10.7952ZM40.2432 14.4672C39.7218 14.6899 39.1585 14.7988 38.5913 14.7865C38.2521 14.8018 37.9133 14.7494 37.5947 14.6325C37.2762 14.5156 36.9843 14.3364 36.7364 14.1056C36.4976 13.8644 36.3118 13.5764 36.1907 13.26C36.0696 12.9435 36.016 12.6055 36.0332 12.2673C36.0034 11.602 36.2363 10.9515 36.6821 10.4548C36.8974 10.2255 37.1597 10.0447 37.4511 9.92486C37.7426 9.80497 38.0566 9.7487 38.3718 9.75986C38.6476 9.74797 38.9228 9.79457 39.1791 9.89658C39.4355 9.99858 39.667 10.1537 39.8585 10.3515C40.2426 10.7711 40.4444 11.3247 40.4202 11.8917C40.4202 12.1171 40.4076 12.355 40.3824 12.6054H37.3995C37.4116 12.7643 37.4558 12.9192 37.5293 13.0607C37.6029 13.2023 37.7044 13.3276 37.8277 13.4293C37.9511 13.531 38.0938 13.6069 38.2472 13.6525C38.4007 13.6981 38.5619 13.7125 38.7211 13.6948C39.1724 13.6925 39.6186 13.5999 40.0332 13.4224L40.2432 14.4672ZM41.4113 10.1754C42.0309 9.88657 42.7097 9.74587 43.3936 9.76455C43.6792 9.75885 43.9644 9.78723 44.2432 9.84907L44.0544 10.9103C43.8741 10.8551 43.686 10.8297 43.4975 10.8352C43.2276 10.8298 42.96 10.8843 42.714 10.9948V14.6738H41.4113V10.1754ZM46.9335 10.7952C46.8095 10.7912 46.6861 10.8134 46.5713 10.8604C46.4566 10.9073 46.3532 10.9779 46.268 11.0676C46.0822 11.2774 45.9682 11.5405 45.9423 11.8189H47.7358V11.7062C47.7464 11.4688 47.671 11.2356 47.5234 11.0488C47.4515 10.9647 47.3611 10.898 47.2592 10.8541C47.1574 10.8101 47.0467 10.79 46.9358 10.7952H46.9335ZM48.8025 14.4672C48.2811 14.6899 47.7178 14.7988 47.1506 14.7865C46.8114 14.8018 46.4725 14.7494 46.154 14.6325C45.8355 14.5156 45.5436 14.3364 45.2957 14.1056C45.0577 13.864 44.8728 13.5758 44.7525 13.2594C44.6323 12.943 44.5794 12.6051 44.5972 12.2673C44.5674 11.602 44.8003 10.9515 45.2461 10.4548C45.4614 10.2255 45.7237 10.0447 46.0152 9.92486C46.3066 9.80497 46.6206 9.7487 46.9358 9.75986C47.2116 9.74797 47.4868 9.79457 47.7431 9.89658C47.9995 9.99858 48.2311 10.1537 48.4225 10.3515C48.8066 10.7711 49.0084 11.3247 48.9842 11.8917C48.9842 12.1171 48.9716 12.355 48.9464 12.6054H45.9635C45.9756 12.7643 46.0198 12.9192 46.0933 13.0607C46.1669 13.2023 46.2684 13.3276 46.3918 13.4293C46.5151 13.531 46.6578 13.6069 46.8113 13.6525C46.9647 13.6981 47.1259 13.7125 47.2851 13.6948C47.7364 13.6925 48.1826 13.5999 48.5972 13.4224L48.8025 14.4672ZM54.1453 14.4015C53.5556 14.667 52.9139 14.7986 52.2668 14.7865C51.5778 14.825 50.9015 14.5903 50.386 14.1338C50.1532 13.9012 49.972 13.6227 49.8542 13.3162C49.7363 13.0096 49.6843 12.6819 49.7016 12.3542C49.6854 12.0094 49.7394 11.6649 49.8602 11.3414C49.981 11.0178 50.1663 10.7219 50.4048 10.4712C50.6498 10.2324 50.9414 10.0462 51.2617 9.9242C51.5821 9.80223 51.9242 9.74709 52.2668 9.7622C52.4636 9.76379 52.6598 9.78582 52.852 9.82794V7.94031L54.1453 7.87457V14.4015ZM51.0302 12.2978C51.0047 12.6764 51.1207 13.051 51.3559 13.3496C51.4697 13.4731 51.6095 13.5699 51.7654 13.6333C51.9212 13.6966 52.0892 13.7248 52.2574 13.7159C52.4642 13.7254 52.6702 13.6834 52.8568 13.5938V10.9267C52.693 10.8686 52.5209 10.8369 52.347 10.8328C52.1669 10.8205 51.9862 10.8473 51.8175 10.9114C51.6488 10.9754 51.4961 11.0752 51.37 11.2038C51.1248 11.5141 51.0045 11.9041 51.0326 12.2978H51.0302ZM62.0485 12.2673C62.0823 12.9359 61.8558 13.5918 61.4161 14.0986C61.1967 14.3294 60.9299 14.5103 60.6338 14.6291C60.3377 14.7478 60.0193 14.8015 59.7004 14.7865C59.3802 14.8017 59.0605 14.748 58.7632 14.6288C58.4658 14.5097 58.1979 14.328 57.9777 14.0962C57.5361 13.5912 57.3078 12.9359 57.3405 12.2673C57.3085 11.6016 57.5368 10.9495 57.9777 10.4478C58.1986 10.2173 58.4668 10.0367 58.7641 9.91844C59.0613 9.80015 59.3806 9.74687 59.7004 9.7622C60.0191 9.74692 60.3374 9.80026 60.6335 9.91858C60.9296 10.0369 61.1965 10.2174 61.4161 10.4478C61.8541 10.9508 62.0806 11.6025 62.0485 12.2673ZM58.6692 12.2673C58.6483 12.64 58.7421 13.0102 58.9382 13.3285C59.0211 13.4521 59.1345 13.5524 59.2675 13.6198C59.4006 13.6873 59.5489 13.7195 59.6981 13.7136C59.8467 13.7198 59.9943 13.6876 60.1267 13.6201C60.259 13.5526 60.3715 13.4522 60.4532 13.3285C60.6462 13.0091 60.7382 12.6394 60.7175 12.2673C60.7388 11.8967 60.6466 11.5283 60.4532 11.2108C60.3708 11.0882 60.258 10.9888 60.1257 10.9222C59.9935 10.8556 59.8462 10.824 59.6981 10.8305C59.5489 10.8245 59.4006 10.8568 59.2675 10.9242C59.1345 10.9916 59.0211 11.0919 58.9382 11.2155C58.743 11.5307 58.6492 11.8976 58.6692 12.2673ZM64.3234 14.6738H63.0302V10.1754C63.7058 9.89539 64.4317 9.75557 65.1636 9.76455C65.7419 9.72755 66.3135 9.90485 66.7683 10.2623C66.9621 10.4439 67.1133 10.6657 67.2111 10.912C67.309 11.1583 67.3512 11.4231 67.3346 11.6874V14.6738H66.032V11.7813C66.032 11.149 65.7394 10.8328 65.1541 10.8328C64.8681 10.8282 64.5846 10.8859 64.3234 11.0018V14.6738Z" fill="white"/>
</g>
<defs>
<clipPath id="clip0_544_14240">
<rect width="200" height="65.1515" fill="white" transform="translate(0.0546875)"/>
</clipPath>
</defs>
</svg>
