<svg width="360" height="359" viewBox="0 0 360 359" fill="none" xmlns="http://www.w3.org/2000/svg">
<path d="M0.859802 179.587C0.799561 217.414 12.7774 254.28 35.0598 284.847C53.0685 309.636 77.1365 329.389 104.961 342.217C132.786 355.045 163.438 360.519 193.983 358.115C224.528 355.712 253.945 345.51 279.421 328.488C304.897 311.465 325.579 288.19 339.488 260.89C353.398 233.589 360.07 203.176 358.866 172.56C357.662 141.944 348.622 112.15 332.611 86.0258C316.601 59.902 294.155 38.3233 267.421 23.3538C240.687 8.38436 210.559 0.524933 179.92 0.527344C175.006 0.527344 170.143 0.724007 165.33 1.11734C137.589 3.33325 110.756 12.0298 86.9898 26.5073C60.6879 42.47 38.9444 64.9426 23.8576 91.7566C8.77078 118.571 0.850067 148.82 0.859802 179.587Z" fill="#0795F6"/>
<g opacity="0.2">
<path d="M141.249 264.097C143.509 270.097 139.749 270.367 139.499 272.877C139.249 275.387 139.499 280.147 146.769 287.427C154.039 294.707 166.079 293.187 168.589 296.197C171.099 299.207 175.359 311.997 181.379 316.267C187.399 320.537 188.379 318.017 196.929 319.777C205.479 321.537 211.919 332.587 214.479 337.827C217.039 343.067 213.979 351.877 219.999 352.127C226.019 352.377 228.779 339.337 234.289 332.317C239.799 325.297 241.569 319.017 243.289 310.747C245.009 302.477 242.289 285.167 243.289 278.397C244.289 271.627 262.379 259.587 268.919 251.307C275.459 243.027 284.449 226.487 283.919 220.967C283.159 215.614 280.488 210.716 276.399 207.177C273.399 204.917 274.639 203.667 274.139 201.657C273.639 199.647 271.139 199.147 270.629 196.657C270.119 194.167 272.129 186.657 274.629 185.377C277.129 184.097 278.889 188.377 280.399 187.627C281.909 186.877 286.399 181.627 288.169 181.107C289.939 180.587 289.429 184.367 291.929 179.607C294.429 174.847 295.699 162.807 297.699 160.797C299.699 158.787 301.209 164.307 305.979 160.797C310.749 157.287 312.749 150.517 314.759 149.517C316.769 148.517 319.519 149.767 321.579 145.747C323.639 141.727 319.769 134.467 321.579 135.217C323.389 135.967 327.289 141.737 328.299 136.217C329.309 130.697 323.299 112.147 324.299 102.117C325.299 92.0875 321.799 81.5475 314.779 73.0275C314.779 73.0275 313.779 67.5075 312.779 64.0275C311.779 60.5475 290.209 46.4775 287.699 42.4575C286.699 40.7875 286.309 38.1574 285.929 35.3274C255.227 12.6825 218.069 0.484786 179.919 0.527455C175.006 0.527455 170.143 0.724118 165.329 1.11745L164.829 1.78745C162.659 4.53745 160.309 6.29746 153.959 8.63746C147.609 10.9775 146.099 13.9875 147.439 16.4975C148.779 19.0075 150.949 19.4974 153.439 19.6774C155.929 19.8574 158.289 18.4974 160.959 20.1774C163.629 21.8574 166.309 30.8775 169.819 31.3775C173.329 31.8775 179.519 23.3775 180.819 20.8475C182.119 18.3175 177.819 12.9875 179.819 10.4775C181.819 7.96745 185.459 8.47745 191.149 7.96745C196.839 7.45745 210.029 9.64746 209.529 11.8175C209.029 13.9875 190.139 11.4775 189.639 15.8175C189.139 20.1575 203.509 27.5175 206.019 26.8175C208.529 26.1175 211.869 21.8175 215.549 21.3075C219.229 20.7975 222.239 23.8074 224.549 24.1474C226.859 24.4874 229.549 21.6375 233.109 22.3075C236.669 22.9775 237.449 25.9875 239.299 27.1575C241.149 28.3275 245.479 28.3275 245.979 30.9975C246.479 33.6675 240.459 35.1875 238.979 36.8574C237.499 38.5274 240.819 44.2075 239.319 45.3775C237.819 46.5475 228.449 38.3775 226.099 36.3775C223.749 34.3775 221.759 25.6875 216.739 25.8475C211.719 26.0075 210.049 34.5375 208.379 35.3775C206.709 36.2175 203.029 33.3774 197.519 34.5374C192.009 35.6974 188.159 47.7474 187.149 51.4274C186.139 55.1074 183.809 58.7874 185.809 60.2874C187.809 61.7874 196.809 59.2875 198.019 56.9475C199.229 54.6075 192.019 51.0875 192.499 50.2575C192.979 49.4274 197.179 48.2575 199.359 49.5575C201.539 50.8575 202.529 53.5575 204.869 54.2675C207.209 54.9775 213.399 47.9174 215.069 49.9274C216.739 51.9374 213.399 58.2874 211.729 59.7874C210.059 61.2874 203.869 62.1274 203.369 63.7874C202.869 65.4474 207.549 69.1375 213.229 68.7875C218.909 68.4375 223.599 64.1075 225.769 65.9475C227.939 67.7875 226.769 72.6275 228.279 74.3075C229.789 75.9875 237.979 74.8074 241.989 79.1475C245.999 83.4875 247.919 90.0574 251.919 93.7374C255.919 97.4174 257.769 92.7375 263.119 97.9175C268.469 103.097 269.309 114.637 269.479 118.647C269.649 122.657 269.479 125.837 270.809 125.337C272.139 124.837 273.989 121.337 274.489 119.147C274.989 116.957 273.319 113.297 273.319 111.957C273.319 110.617 281.009 103.767 285.529 103.097C290.049 102.427 294.059 106.097 297.399 108.777C300.739 111.457 306.759 110.957 308.929 113.127C311.099 115.297 312.779 134.527 311.109 139.047C309.439 143.567 307.259 143.557 301.909 141.217C296.559 138.877 299.569 134.357 296.389 135.367C293.209 136.377 291.549 139.717 291.549 142.367C291.549 145.017 297.899 151.367 297.059 153.237C296.219 155.107 290.709 152.897 288.059 153.737C285.409 154.577 284.059 156.247 284.879 163.097C285.699 169.947 285.209 175.307 281.199 177.557C277.189 179.807 274.929 174.297 273.199 175.057C271.469 175.817 268.929 179.817 266.419 179.567C263.909 179.317 265.169 177.057 260.419 175.567C255.669 174.077 257.419 173.057 256.419 170.047C255.419 167.037 252.419 164.527 249.149 166.047C245.879 167.567 248.149 169.807 247.899 172.317C247.649 174.827 241.899 175.077 237.359 176.577C232.819 178.077 230.359 176.577 221.359 179.577C212.359 182.577 211.829 191.577 208.069 193.117C204.309 194.657 191.769 192.117 182.739 198.637C173.709 205.157 176.219 217.197 171.739 220.707C167.259 224.217 150.419 228.977 143.899 230.237C137.379 231.497 136.379 226.977 131.109 228.237C125.839 229.497 122.839 230.997 121.109 238.237C119.399 244.667 138.999 258.077 141.249 264.097Z" fill="black"/>
<path d="M276.009 135.868C275.839 137.288 271.659 137.868 266.649 140.718C261.639 143.568 259.789 151.918 257.119 151.718C254.449 151.518 255.279 147.718 254.269 146.718C253.259 145.718 251.599 143.538 254.269 141.368C256.939 139.198 259.549 134.508 264.439 133.838C269.329 133.168 270.159 131.168 272.329 131.338C272.887 131.342 273.437 131.469 273.94 131.711C274.443 131.952 274.886 132.302 275.238 132.735C275.59 133.168 275.841 133.673 275.975 134.215C276.108 134.757 276.12 135.322 276.009 135.868Z" fill="black"/>
<path d="M248.419 149.907C249.169 151.957 248.419 153.427 243.069 154.757C237.719 156.087 232.709 153.427 234.379 152.337C236.049 151.247 238.559 151.747 237.549 149.907C236.539 148.067 236.889 145.397 241.239 145.907C245.589 146.417 247.749 148.077 248.419 149.907Z" fill="black"/>
<path d="M229.7 150.477C231.52 150.747 232.54 153.927 230.7 155.927C228.86 157.927 228.86 157.597 226.7 155.927C224.54 154.257 221.18 153.427 222.02 151.757C222.86 150.087 227.86 150.217 229.7 150.477Z" fill="black"/>
<path d="M215.149 157.318C214.329 154.808 210.149 157.318 208.299 159.948C206.449 162.578 207.299 166.468 208.299 169.308C209.299 172.148 209.969 175.488 212.299 174.158C214.629 172.828 212.129 168.808 212.469 166.468C212.809 164.128 215.819 159.368 215.149 157.318Z" fill="black"/>
<path d="M143.09 17.8372C143.97 19.9372 139.92 20.6772 137.58 22.0172C135.24 23.3572 133.4 24.1872 132.06 22.0172C130.72 19.8472 132.56 17.3272 134.4 16.8272C136.24 16.3272 142.26 15.8272 143.09 17.8372Z" fill="black"/>
<path d="M111.5 37.3968C109.95 39.0168 107.32 38.7268 105.5 41.0768C103.68 43.4268 104.33 47.4268 101.99 48.5968C99.6496 49.7668 97.9896 48.5968 97.8096 46.9268C97.6296 45.2568 101.15 41.0768 100.81 40.2368C100.47 39.3968 95.9596 41.4068 94.9496 43.9168C93.9396 46.4268 95.9496 49.9168 93.6196 50.5968C91.2896 51.2768 91.7796 48.2568 90.7696 47.5968C89.7596 46.9368 87.5996 47.2568 87.7696 45.2468C87.9396 43.2368 90.6196 38.8968 92.7696 37.3968C94.9196 35.8968 96.6196 34.2168 100.29 33.3968C103.96 32.5768 107.48 33.2368 109.29 34.7368C111.1 36.2368 112.45 36.3868 111.5 37.3968Z" fill="black"/>
<path d="M39.159 68.9073C39.2623 69.5841 39.594 70.2051 40.099 70.6673C43.619 73.1673 47.799 64.4773 52.639 62.8073C57.479 61.1373 59.639 54.9473 60.639 56.2873C61.639 57.6273 61.309 59.4673 62.809 61.6373C64.309 63.8073 66.489 63.3073 67.489 67.4873C68.489 71.6673 62.809 79.3573 64.149 81.8673C65.489 84.3773 67.149 83.5373 69.839 83.3773C72.529 83.2173 72.009 85.5473 75.509 84.5373C79.009 83.5273 76.019 79.1873 81.509 74.0073C86.999 68.8273 88.869 67.8273 87.689 65.4773C86.509 63.1273 88.189 59.7973 85.689 59.4773C83.189 59.1573 81.169 62.8173 79.499 63.8173C77.829 64.8173 75.659 61.8173 75.499 59.1373C75.339 56.4573 81.349 52.7873 83.499 50.7073C85.649 48.6273 85.919 41.0673 85.079 39.5873C84.239 38.1073 81.729 38.5873 81.079 34.9073C80.689 32.7473 84.079 29.1373 86.999 26.5273C68.6505 37.6853 52.4482 52.0384 39.159 68.9073Z" fill="black"/>
<path d="M14.1882 218.798C13.6882 213.448 16.3682 213.108 13.6882 203.248C11.0082 193.388 16.5283 182.848 18.5383 180.678C20.5483 178.508 24.8883 179.168 28.3983 181.348C31.9083 183.528 29.3982 185.188 31.7482 186.028C34.0982 186.868 36.4283 185.518 38.5983 185.688C40.7682 185.858 42.7783 191.378 47.4583 191.208C52.1383 191.038 55.1483 184.348 58.6583 179.588C62.1683 174.828 69.3683 171.818 71.6583 165.958C73.9483 160.098 69.4883 151.088 70.4883 144.228C71.4883 137.368 76.0083 138.878 76.8483 135.038C77.6883 131.198 76.1783 133.038 75.0083 129.348C73.8383 125.658 76.3483 123.668 74.0083 117.348C71.6683 111.028 67.4882 107.818 68.4982 104.978C69.5082 102.138 72.6783 97.4577 72.8483 94.1177C73.0183 90.7777 69.6683 90.9377 63.3183 86.2477C56.9683 81.5577 55.3182 81.9077 50.4382 83.5777C46.9577 84.8628 43.3795 85.866 39.7383 86.5777C36.8983 87.0777 33.0482 94.4377 31.8783 94.0977C30.7083 93.7577 30.5383 91.5977 30.0383 88.4177C29.7191 87.0373 28.9948 85.7837 27.9583 84.8177C9.08875 115.08 -0.318573 150.286 0.940964 185.927C2.2005 221.569 14.0695 256.023 35.0282 284.878C18.0082 258.818 14.6982 224.138 14.1882 218.798Z" fill="black"/>
</g>
<path opacity="0.1" d="M41.1989 292.807C60.3008 316.217 85.0157 334.414 113.042 345.701C141.069 356.989 171.497 361.002 201.491 357.366C231.486 353.73 260.074 342.563 284.591 324.906C309.109 307.248 328.761 283.674 341.716 256.378C354.671 229.081 360.509 198.951 358.685 168.791C356.862 138.632 347.437 109.424 331.288 83.8876C315.139 58.3509 292.791 37.3156 266.324 22.7403C239.858 8.16497 210.133 0.523501 179.919 0.527345C175.006 0.527345 170.139 0.724008 165.319 1.11734C163.989 1.21734 162.659 1.33734 161.319 1.48734C186.631 4.23582 210.956 12.8371 232.369 26.6106C253.783 40.384 271.697 58.9518 284.695 80.8448C297.692 102.738 305.417 127.355 307.257 152.749C309.098 178.143 305.003 203.617 295.297 227.155C285.592 250.693 270.542 271.65 251.338 288.367C232.134 305.084 209.303 317.102 184.652 323.472C160.001 329.841 134.206 330.386 109.308 325.064C84.4098 319.741 61.0918 308.698 41.1989 292.807Z" fill="black"/>
<path opacity="0.3" d="M0.859848 179.587C0.796127 217.415 12.7743 254.281 35.0599 284.847C51.8552 307.941 73.9063 326.704 99.3898 339.587C77.2045 326.885 57.9593 309.63 42.9198 288.957C21.8374 259.936 9.89825 225.282 8.63158 189.433C7.3649 153.585 16.8284 118.174 35.8099 87.7373C39.2578 82.2003 43.0103 76.8588 47.0499 71.7373C60.3995 54.7659 76.6797 40.3214 95.1199 29.0873C119.03 14.5401 146.02 5.80606 173.92 3.58734C178.75 3.19734 183.66 2.99735 188.59 2.99735C203.164 2.98779 217.686 4.7405 231.84 8.21734C215.005 3.11682 197.51 0.525639 179.92 0.527345C175.007 0.527345 170.14 0.724008 165.32 1.11734C120.501 4.77 78.6989 25.1577 48.2266 58.2259C17.7543 91.294 0.844391 134.62 0.859848 179.587Z" fill="white"/>
</svg>
