<svg width="124" height="43" viewBox="0 0 124 43" fill="none" xmlns="http://www.w3.org/2000/svg">
<path d="M121.675 4.68372C122.785 4.68372 123.694 3.7955 123.694 2.67756C123.694 1.52899 122.785 0.671387 121.675 0.671387C120.566 0.671387 119.656 1.5443 119.656 2.67756C119.656 3.78018 120.566 4.68372 121.675 4.68372ZM121.675 1.05424C122.569 1.05424 123.278 1.74339 123.278 2.66224C123.278 3.56578 122.569 4.28555 121.675 4.28555C120.766 4.28555 120.057 3.56578 120.057 2.66224C120.057 1.7587 120.766 1.05424 121.675 1.05424Z" fill="white"/>
<path d="M121.274 3.7209V2.89393H121.783L122.199 3.7209H122.63L122.168 2.81736C122.384 2.71016 122.538 2.52639 122.538 2.2201C122.538 1.7913 122.23 1.5769 121.875 1.5769H121.212C120.997 1.5769 120.889 1.6841 120.889 1.86788V3.70559H121.274V3.7209ZM121.289 1.91382H121.844C122.014 1.91382 122.137 2.02102 122.137 2.2201C122.137 2.41919 121.998 2.5417 121.813 2.5417H121.274L121.289 1.91382Z" fill="white"/>
<path d="M45.6111 4.6398C49.8496 4.6398 50.3736 8.97374 50.3736 8.97374L55.4136 7.79454C55.3828 7.67203 54.5042 0.18335 45.6111 0.18335C40.1088 0.18335 34.9609 3.52186 34.9609 12.0519C34.9609 20.5207 40.3708 23.7673 45.981 23.7673C49.8034 23.7673 52.4852 22.4962 53.4254 21.9756C54.643 21.2711 55.3211 20.582 55.3211 19.1271V13.9049C55.3211 12.542 54.4118 11.715 52.9322 11.715H46.0273V15.5742H50.3582V18.5758C50.3582 18.5758 48.8324 19.6018 46.1506 19.6018C43.3146 19.6018 40.3554 17.902 40.3554 12.0519C40.3554 6.33968 42.9293 4.6398 45.6111 4.6398Z" fill="white"/>
<path d="M68.0244 0.151489C65.9128 0.151489 64.6336 1.05503 64.0171 2.90806L57.1738 23.4751H62.5837C62.969 23.4751 63.416 23.2454 63.678 22.9851L70.1976 16.5837C70.3363 16.4459 70.29 16.3846 70.1359 16.3846H69.2574C68.8875 16.3846 68.5484 16.4765 68.2247 16.6603L63.8475 19.1565L68.009 5.18988C68.009 5.18988 72.9564 22.0968 73.3572 23.4598H78.9212L72.1704 2.86211C71.6001 1.14692 70.1667 0.151489 68.0244 0.151489Z" fill="white"/>
<path d="M90.4021 4.57854C94.6406 4.57854 95.1955 9.21877 95.1955 9.21877L100.235 8.16208C100.235 8.16208 99.4802 0.18335 90.4021 0.18335C84.8998 0.18335 79.752 3.42997 79.752 11.96C79.752 20.4288 84.8536 23.7979 90.3713 23.7979C99.2644 23.7979 100.235 16.003 100.235 16.003L95.1955 14.9157C95.1955 14.9157 94.7948 19.4028 90.4638 19.4028C87.782 19.4028 85.1772 17.7029 85.1772 11.9447C85.1618 6.2478 87.7203 4.57854 90.4021 4.57854Z" fill="white"/>
<path d="M112.368 0.151489C110.256 0.151489 108.977 1.05503 108.345 2.90806L101.502 23.4751H106.912C107.297 23.4751 107.744 23.2454 108.006 22.9851L114.526 16.5837C114.664 16.4459 114.618 16.3846 114.464 16.3846H113.586C113.216 16.3846 112.861 16.4765 112.553 16.6603L108.176 19.1565L112.337 5.18988C112.337 5.18988 117.285 22.0968 117.685 23.4598H123.265L116.514 2.86211C115.944 1.14692 114.526 0.151489 112.368 0.151489Z" fill="white"/>
<path d="M33.27 23.5366C33.3471 23.5366 33.4087 23.46 33.4087 23.3681C33.4087 23.2916 33.3779 23.2303 33.3317 23.1997C30.6036 22.3114 28.4767 20.0143 27.9989 16.6299L26.7196 7.57913C26.1185 3.36771 23.0051 0.503939 19.3677 0.427368H0.687542C0.610479 0.427368 0.548828 0.488625 0.548828 0.565197C0.548828 0.641768 0.579654 0.718339 0.625892 0.718339C3.35394 1.60657 5.48089 3.91902 5.95869 7.31879L7.23794 16.3695C7.83904 20.5656 10.9524 23.4447 14.5898 23.5366H33.27Z" fill="white"/>
<path d="M21.9888 15.6793H21.1411C21.0486 15.6793 20.879 15.6946 20.7866 15.7406L10.5833 19.5998C10.5063 19.6304 10.5063 19.661 10.5988 19.661H13.9279C14.3286 19.661 14.5907 19.661 15.0068 19.4466L22.0042 15.7559C22.0812 15.7099 22.0812 15.6793 21.9888 15.6793Z" fill="#1C7A54"/>
<path d="M15.0214 15.6816L17.0559 16.4779L15.9924 16.8761L13.7884 15.7122C13.7114 15.6663 13.7114 15.6356 13.8038 15.6356H14.6515C14.7748 15.6203 14.929 15.6356 15.0214 15.6816Z" fill="#1C7A54"/>
<path d="M25.3024 19.6626H21.9733C21.5725 19.6626 21.3105 19.6626 20.8944 19.4482L18.6133 18.2537L19.9234 17.5646L25.3024 19.6014C25.3949 19.632 25.3949 19.6626 25.3024 19.6626Z" fill="#1C7A54"/>
<path d="M17.9466 15.1609C17.5767 15.1609 17.2222 12.2512 17.1451 8.51449C16.9602 8.56043 16.7598 8.62169 16.6057 8.66763C15.5268 9.01986 14.1397 9.61712 13.292 10.1225C13.2765 10.1378 13.2457 10.1378 13.2303 10.1072C13.2303 10.0919 13.2149 10.0919 13.2149 10.0765C13.1687 9.67837 13.2303 9.29552 13.5386 8.98923C13.8468 8.68295 14.2475 8.4226 14.6174 8.17758C15.0798 7.88661 15.5576 7.61095 16.0662 7.38123C16.205 7.31998 16.3591 7.24341 16.4978 7.18215C15.6501 6.69209 14.6174 6.29392 13.8776 6.04889C13.8622 6.04889 13.8468 6.01827 13.8468 6.00295C13.8468 5.98764 13.8468 5.98764 13.8622 5.98764C14.0934 5.75792 14.3708 5.60478 14.7099 5.63541C15.0028 5.66604 15.2956 5.74261 15.5884 5.80387C15.9121 5.88044 16.2204 5.97232 16.544 6.07952C16.729 6.14078 16.8985 6.20204 17.0835 6.26329C17.1143 6.27861 17.1451 6.27861 17.176 6.29392C17.2838 5.28318 17.5921 4.5481 17.962 4.5481C18.3319 4.5481 18.6402 5.28318 18.7481 6.29392C18.7789 6.27861 18.8097 6.26329 18.8405 6.26329C19.0101 6.20204 19.195 6.12546 19.38 6.07952C19.6882 5.97232 20.0119 5.89575 20.3356 5.80387C20.6284 5.72729 20.9212 5.65072 21.2141 5.63541C21.5532 5.60478 21.8306 5.75792 22.0618 5.98764L22.0772 6.00295C22.0772 6.01827 22.0772 6.04889 22.0464 6.04889C21.3066 6.29392 20.2739 6.69209 19.4262 7.18215C19.5649 7.24341 19.7191 7.30466 19.8578 7.38123C20.3664 7.61095 20.8442 7.88661 21.3066 8.17758C21.6765 8.40729 22.0618 8.68295 22.3855 8.98923C22.6937 9.2802 22.7554 9.66306 22.7091 10.0765C22.7091 10.0919 22.7091 10.0919 22.6937 10.1072C22.6783 10.1225 22.6475 10.1378 22.6321 10.1225C21.7844 9.61712 20.3972 9.01986 19.3183 8.66763C19.1796 8.62169 18.9792 8.56043 18.7789 8.51449C18.671 12.2512 18.3165 15.1609 17.9466 15.1609Z" fill="#1C7A54"/>
<path d="M35.707 39.3265C35.707 38.0094 36.4006 37.1212 37.4795 37.1212C38.1885 37.1212 38.6046 37.5347 38.8512 38.0248L38.2655 38.2851C38.1114 37.9788 37.8494 37.7338 37.4795 37.7338C36.863 37.7338 36.4468 38.3464 36.4468 39.3112C36.4468 40.276 36.863 40.8885 37.4795 40.8885C37.8032 40.8885 38.0652 40.7354 38.2039 40.5822V39.8165H37.2945V39.204H38.882V40.8885C38.543 41.2867 38.0806 41.547 37.4795 41.547C36.416 41.547 35.707 40.6435 35.707 39.3265Z" fill="white"/>
<path d="M39.543 39.9082C39.543 39.02 40.0516 38.2849 40.8839 38.2849C41.7316 38.2849 42.194 38.9894 42.194 39.9235V40.1073H40.2057C40.2365 40.6127 40.514 40.9955 41.0226 40.9955C41.2692 40.9955 41.5466 40.873 41.7316 40.6586L42.0398 41.0415C41.7778 41.3478 41.3771 41.5162 40.9609 41.5162C40.0978 41.5315 39.543 40.873 39.543 39.9082ZM40.8839 38.8056C40.3907 38.8056 40.2211 39.2957 40.1903 39.6632H41.562C41.562 39.2803 41.3925 38.8056 40.8839 38.8056Z" fill="white"/>
<path d="M44.6442 41.4527V39.3546C44.6442 38.9871 44.4747 38.8645 44.1972 38.8645C43.9198 38.8645 43.6732 39.0789 43.5653 39.2933V41.468H42.918V38.3898H43.5653V38.8033C43.7348 38.5583 44.0893 38.3132 44.4747 38.3132C45.0449 38.3132 45.2915 38.6195 45.2915 39.1555V41.4833H44.6442V41.4527Z" fill="white"/>
<path d="M46.0312 39.9082C46.0312 39.02 46.5399 38.2849 47.3722 38.2849C48.2199 38.2849 48.6822 38.9894 48.6822 39.9235V40.1073H46.694C46.7248 40.6127 47.0023 40.9955 47.5109 40.9955C47.7575 40.9955 48.0349 40.873 48.2199 40.6586L48.5281 41.0415C48.2661 41.3478 47.8654 41.5162 47.4492 41.5162C46.5707 41.5315 46.0312 40.873 46.0312 39.9082ZM47.3722 38.8056C46.8789 38.8056 46.7094 39.2957 46.6786 39.6632H48.0503C48.0503 39.2803 47.8654 38.8056 47.3722 38.8056Z" fill="white"/>
<path d="M49.3926 41.4527V38.3745H50.0399V38.8339C50.2249 38.5429 50.5485 38.3132 50.903 38.3132V38.9411C50.8568 38.9258 50.7951 38.9258 50.7335 38.9258C50.4715 38.9258 50.1632 39.1249 50.0399 39.3546V41.468L49.3926 41.4527Z" fill="white"/>
<path d="M53.1531 41.4527V41.1464C52.9682 41.4067 52.6445 41.5292 52.3208 41.5292C51.8122 41.5292 51.3652 41.1617 51.3652 40.5032C51.3652 39.8447 51.8122 39.5077 52.3208 39.5077C52.6445 39.5077 52.9682 39.6303 53.1531 39.8753V39.4312C53.1531 39.0636 52.9373 38.8492 52.5366 38.8492C52.2592 38.8492 51.9972 38.9564 51.7506 39.2015L51.5039 38.7573C51.8276 38.4511 52.2438 38.3132 52.6445 38.3132C53.3072 38.3132 53.785 38.6195 53.785 39.3699V41.4833H53.1531V41.4527ZM53.1531 40.7482V40.2888C53.0298 40.0744 52.7986 39.9519 52.5674 39.9519C52.2283 39.9519 52.028 40.1969 52.028 40.5185C52.028 40.8554 52.2283 41.1004 52.5674 41.1004C52.7832 41.0851 53.0298 40.9626 53.1531 40.7482Z" fill="white"/>
<path d="M55.327 37.1956H54.6797V41.4529H55.327V37.1956Z" fill="white"/>
<path d="M60.0277 41.4529L59.7965 40.6106H58.3786L58.1474 41.4529H57.3613L58.656 37.1956H59.5191L60.8138 41.4529H60.0277ZM59.0875 37.946L58.5173 39.9828H59.6424L59.0875 37.946Z" fill="white"/>
<path d="M63.029 41.455V41.0415C62.8594 41.3019 62.5203 41.5316 62.1196 41.5316C61.5647 41.5316 61.3027 41.2406 61.3027 40.7046V38.3768H61.9501V40.4902C61.9501 40.8424 62.1196 40.9803 62.397 40.9803C62.6745 40.9803 62.9057 40.7812 63.029 40.5668V38.3921H63.6763V41.4703L63.029 41.455Z" fill="white"/>
<path d="M64.6954 40.7663V38.9286H64.2793V38.3773H64.6954V37.535H65.3428V38.3773H65.8668V38.9286H65.3428V40.6285C65.3428 40.8429 65.4198 40.9654 65.5894 40.9654C65.6973 40.9654 65.7897 40.9195 65.836 40.8582L65.9901 41.333C65.8668 41.4402 65.6973 41.5167 65.4198 41.5167C64.9266 41.5321 64.6954 41.2717 64.6954 40.7663Z" fill="white"/>
<path d="M68.2885 41.4529V39.3396C68.2885 38.9873 68.119 38.8495 67.8261 38.8495C67.5487 38.8495 67.3175 39.0639 67.1942 39.2783V41.4529H66.5469V37.1956H67.1942V38.7882C67.3637 38.5432 67.7182 38.2982 68.1036 38.2982C68.6584 38.2982 68.9204 38.5892 68.9204 39.1252V41.4529H68.2885Z" fill="white"/>
<path d="M69.6602 39.9082C69.6602 39.0353 70.1225 38.2849 71.0165 38.2849C71.9104 38.2849 72.3728 39.0353 72.3728 39.9082C72.3728 40.7811 71.9104 41.5315 71.0165 41.5315C70.138 41.5315 69.6602 40.7811 69.6602 39.9082ZM71.71 39.9082C71.71 39.3569 71.4943 38.8515 71.0165 38.8515C70.5387 38.8515 70.3229 39.3416 70.3229 39.9082C70.3229 40.4595 70.5387 40.9649 71.0165 40.9649C71.4943 40.9649 71.71 40.4749 71.71 39.9082Z" fill="white"/>
<path d="M73.1133 41.4527V38.3745H73.7606V38.8339C73.9456 38.5429 74.2692 38.3132 74.6237 38.3132V38.9411C74.5775 38.9258 74.5158 38.9258 74.4542 38.9258C74.1922 38.9258 73.8839 39.1249 73.7606 39.3546V41.468L73.1133 41.4527Z" fill="white"/>
<path d="M75.1602 37.5796C75.1602 37.3499 75.3451 37.1814 75.5763 37.1814C75.7921 37.1814 75.977 37.3652 75.977 37.5796C75.977 37.794 75.7921 37.9777 75.5763 37.9777C75.3451 37.9777 75.1602 37.8093 75.1602 37.5796ZM75.2372 38.3759H75.8846V41.4541H75.2372V38.3759Z" fill="white"/>
<path d="M76.9027 40.7663V38.9286H76.502V38.3773H76.9181V37.535H77.5654V38.3773H78.0895V38.9286H77.5654V40.6285C77.5654 40.8429 77.6425 40.9654 77.812 40.9654C77.9199 40.9654 78.0124 40.9195 78.0586 40.8582L78.2128 41.333C78.0895 41.4402 77.9199 41.5167 77.6425 41.5167C77.1339 41.5321 76.9027 41.2717 76.9027 40.7663Z" fill="white"/>
<path d="M78.7371 42.0982C78.7987 42.1288 78.8912 42.1441 78.9375 42.1441C79.107 42.1441 79.2303 42.0829 79.2919 41.8838L79.4153 41.5163L78.3672 38.3768H79.0608L79.7543 40.6893L80.4633 38.3768H81.1569L79.9239 42.0369C79.7543 42.5576 79.4461 42.7108 78.9991 42.7108C78.9066 42.7108 78.7371 42.6955 78.6446 42.6648L78.7371 42.0982Z" fill="white"/>
<path d="M83.0234 39.9082C83.0234 39.0353 83.4858 38.2849 84.3798 38.2849C85.2737 38.2849 85.7361 39.0353 85.7361 39.9082C85.7361 40.7811 85.2737 41.5315 84.3798 41.5315C83.5012 41.5315 83.0234 40.7811 83.0234 39.9082ZM85.0733 39.9082C85.0733 39.3569 84.8576 38.8515 84.3798 38.8515C83.902 38.8515 83.6862 39.3416 83.6862 39.9082C83.6862 40.4595 83.902 40.9649 84.3798 40.9649C84.8576 40.9649 85.0733 40.4749 85.0733 39.9082Z" fill="white"/>
<path d="M86.6136 41.454V38.9271H86.2129V38.3758H86.6136V38.0849C86.6136 37.4876 86.9527 37.1354 87.4921 37.1354C87.7233 37.1354 87.9545 37.1966 88.1241 37.3498L87.9083 37.7939C87.8158 37.7173 87.7388 37.6714 87.6155 37.6714C87.3843 37.6714 87.261 37.8245 87.261 38.0849V38.3758H87.785V38.9271H87.261V41.454H86.6136Z" fill="white"/>
<path d="M89.7715 39.3265C89.7715 38.0401 90.4496 37.1212 91.5439 37.1212C92.2992 37.1212 92.6845 37.5806 92.9157 38.0554L92.3146 38.3157C92.1605 37.9788 91.8984 37.7491 91.5439 37.7491C90.912 37.7491 90.5113 38.4076 90.5113 39.3265C90.5113 40.23 90.912 40.9038 91.5439 40.9038C91.9139 40.9038 92.1913 40.6282 92.3146 40.276L92.9157 40.5363C92.6999 41.0264 92.2992 41.5317 91.5439 41.5317C90.4496 41.5317 89.7715 40.6129 89.7715 39.3265Z" fill="white"/>
<path d="M93.4863 37.5796C93.4863 37.3499 93.6713 37.1814 93.9025 37.1814C94.1183 37.1814 94.3032 37.3652 94.3032 37.5796C94.3032 37.794 94.1183 37.9777 93.9025 37.9777C93.6713 37.9777 93.4863 37.8093 93.4863 37.5796ZM93.5788 38.3759H94.2261V41.4541H93.5788V38.3759Z" fill="white"/>
<path d="M95.7866 41.455L94.7539 38.3768H95.4475L96.141 40.7046L96.8346 38.3768H97.5282L96.4801 41.455H95.7866Z" fill="white"/>
<path d="M97.9609 37.5796C97.9609 37.3499 98.1459 37.1814 98.3771 37.1814C98.5929 37.1814 98.7778 37.3652 98.7778 37.5796C98.7778 37.794 98.5929 37.9777 98.3771 37.9777C98.1459 37.9777 97.9609 37.8093 97.9609 37.5796ZM98.038 38.3759H98.6853V41.4541H98.038V38.3759Z" fill="white"/>
<path d="M100.237 37.1956H99.5898V41.4529H100.237V37.1956Z" fill="white"/>
<path d="M104.944 41.4529L104.713 40.6106H103.295L103.064 41.4529H102.293L103.588 37.1956H104.451L105.745 41.4529H104.944ZM103.988 37.946L103.418 39.9828H104.543L103.988 37.946Z" fill="white"/>
<path d="M106.802 41.455L105.77 38.3768H106.463L107.157 40.7046L107.85 38.3768H108.544L107.511 41.455H106.802Z" fill="white"/>
<path d="M108.977 37.5796C108.977 37.3499 109.162 37.1814 109.393 37.1814C109.608 37.1814 109.793 37.3652 109.793 37.5796C109.793 37.794 109.608 37.9777 109.393 37.9777C109.177 37.9777 108.977 37.8093 108.977 37.5796ZM109.069 38.3759H109.716V41.4541H109.069V38.3759Z" fill="white"/>
<path d="M112.231 41.4527V41.1464C112.046 41.4067 111.723 41.5292 111.399 41.5292C110.89 41.5292 110.443 41.1617 110.443 40.5032C110.443 39.8447 110.906 39.5077 111.399 39.5077C111.723 39.5077 112.046 39.6303 112.231 39.8753V39.4312C112.231 39.0636 112.015 38.8492 111.615 38.8492C111.337 38.8492 111.075 38.9564 110.829 39.2015L110.582 38.7573C110.906 38.4511 111.322 38.3132 111.738 38.3132C112.401 38.3132 112.879 38.6195 112.879 39.3699V41.4833H112.231V41.4527ZM112.231 40.7482V40.2888C112.108 40.0744 111.877 39.9519 111.646 39.9519C111.306 39.9519 111.106 40.1969 111.106 40.5185C111.106 40.8554 111.306 41.1004 111.646 41.1004C111.877 41.0851 112.108 40.9626 112.231 40.7482Z" fill="white"/>
<path d="M113.893 40.7663V38.9286H113.492V38.3773H113.893V37.535H114.54V38.3773H115.064V38.9286H114.54V40.6285C114.54 40.8429 114.617 40.9654 114.787 40.9654C114.895 40.9654 114.987 40.9195 115.033 40.8582L115.188 41.333C115.064 41.4402 114.895 41.5167 114.617 41.5167C114.124 41.5321 113.893 41.2717 113.893 40.7663Z" fill="white"/>
<path d="M115.646 37.5796C115.646 37.3499 115.831 37.1814 116.047 37.1814C116.263 37.1814 116.448 37.3652 116.448 37.5796C116.448 37.794 116.263 37.9777 116.047 37.9777C115.847 37.9777 115.646 37.8093 115.646 37.5796ZM115.739 38.3759H116.386V41.4541H115.739V38.3759Z" fill="white"/>
<path d="M117.133 39.9082C117.133 39.0353 117.595 38.2849 118.489 38.2849C119.383 38.2849 119.845 39.0353 119.845 39.9082C119.845 40.7811 119.383 41.5315 118.489 41.5315C117.595 41.5315 117.133 40.7811 117.133 39.9082ZM119.167 39.9082C119.167 39.3569 118.952 38.8515 118.474 38.8515C117.996 38.8515 117.78 39.3416 117.78 39.9082C117.78 40.4595 117.996 40.9649 118.474 40.9649C118.967 40.9649 119.167 40.4749 119.167 39.9082Z" fill="white"/>
<path d="M122.308 41.4527V39.3546C122.308 38.9871 122.139 38.8645 121.861 38.8645C121.584 38.8645 121.337 39.0789 121.229 39.2933V41.468H120.582V38.3898H121.229V38.8033C121.399 38.5583 121.753 38.3132 122.139 38.3132C122.709 38.3132 122.956 38.6195 122.956 39.1555V41.4833H122.308V41.4527Z" fill="white"/>
<path d="M81.7896 29.6313C82.0054 29.6313 82.1749 29.4629 82.1749 29.2485C82.1749 29.0341 82.0054 28.8656 81.7896 28.8656C81.5738 28.8656 81.4043 29.0341 81.4043 29.2485C81.4043 29.4629 81.5738 29.6313 81.7896 29.6313Z" fill="white"/>
<path d="M83.0201 29.6313C83.2359 29.6313 83.4054 29.4629 83.4054 29.2485C83.4054 29.0341 83.2359 28.8656 83.0201 28.8656C82.8043 28.8656 82.6348 29.0341 82.6348 29.2485C82.6348 29.4629 82.8043 29.6313 83.0201 29.6313Z" fill="white"/>
<path d="M103.848 29.6313C104.064 29.6313 104.234 29.4629 104.234 29.2485C104.234 29.0341 104.064 28.8656 103.848 28.8656C103.632 28.8656 103.463 29.0341 103.463 29.2485C103.463 29.4629 103.632 29.6313 103.848 29.6313Z" fill="white"/>
<path d="M105.077 29.6313C105.293 29.6313 105.462 29.4629 105.462 29.2485C105.462 29.0341 105.293 28.8656 105.077 28.8656C104.861 28.8656 104.691 29.0341 104.691 29.2485C104.691 29.4629 104.876 29.6313 105.077 29.6313Z" fill="white"/>
<path d="M112.66 30.5491L112.598 30.059C112.321 30.105 111.704 30.2887 111.643 29.8752C111.612 29.6608 111.766 29.4464 111.982 29.4005C112.151 29.3699 112.336 29.4311 112.49 29.4924L112.644 29.0176C112.29 28.9104 111.905 28.8645 111.596 29.0942C111.257 29.3239 111.134 29.814 111.35 30.1662C111.042 30.1815 110.795 30.1815 110.795 30.1815V30.5491C111.165 30.5644 111.519 30.5797 111.889 30.5797C111.951 30.5797 112.398 30.5644 112.66 30.5491Z" fill="white"/>
<path d="M66.3912 34.5002C66.1754 34.5002 66.0059 34.6687 66.0059 34.8831C66.0059 35.0975 66.1754 35.266 66.3912 35.266C66.607 35.266 66.7765 35.0975 66.7765 34.8831C66.7765 34.684 66.607 34.5002 66.3912 34.5002Z" fill="white"/>
<path d="M67.6256 34.5002C67.4098 34.5002 67.2402 34.6687 67.2402 34.8831C67.2402 35.0975 67.4098 35.266 67.6256 35.266C67.8413 35.266 68.0109 35.0975 68.0109 34.8831C68.0109 34.684 67.8413 34.5002 67.6256 34.5002Z" fill="white"/>
<path d="M113.307 34.5002C113.091 34.5002 112.922 34.6687 112.922 34.8831C112.922 35.0975 113.091 35.266 113.307 35.266C113.523 35.266 113.693 35.0975 113.693 34.8831C113.693 34.684 113.523 34.5002 113.307 34.5002Z" fill="white"/>
<path d="M114.542 34.5002C114.326 34.5002 114.156 34.6687 114.156 34.8831C114.156 35.0975 114.326 35.266 114.542 35.266C114.757 35.266 114.927 35.0975 114.927 34.8831C114.927 34.684 114.757 34.5002 114.542 34.5002Z" fill="white"/>
<path d="M37.3345 35.4199C37.1188 35.4199 36.9492 35.5884 36.9492 35.8028C36.9492 36.0172 37.1188 36.1856 37.3345 36.1856C37.5503 36.1856 37.7199 36.0172 37.7199 35.8028C37.7199 35.5884 37.5503 35.4199 37.3345 35.4199Z" fill="white"/>
<path d="M38.5709 35.4199C38.3551 35.4199 38.1855 35.5884 38.1855 35.8028C38.1855 36.0172 38.3551 36.1856 38.5709 36.1856C38.7866 36.1856 38.9562 36.0172 38.9562 35.8028C38.9562 35.5884 38.7866 35.4199 38.5709 35.4199Z" fill="white"/>
<path d="M59.0513 31.1311C59.2671 31.1311 59.4367 30.9626 59.4367 30.7482C59.4367 30.5338 59.2671 30.3654 59.0513 30.3654C58.8356 30.3654 58.666 30.5338 58.666 30.7482C58.666 30.9626 58.8356 31.1311 59.0513 31.1311Z" fill="white"/>
<path d="M41.5338 30.3989C41.7495 30.3989 41.9191 30.2304 41.9191 30.016C41.9191 29.8016 41.7495 29.6332 41.5338 29.6332C41.318 29.6332 41.1484 29.8016 41.1484 30.016C41.1484 30.2304 41.318 30.3989 41.5338 30.3989Z" fill="white"/>
<path d="M122.909 29.0354H122.246V33.7216H122.909V29.0354Z" fill="white"/>
<path d="M100.573 29.0354H99.9102V33.7216H100.573V29.0354Z" fill="white"/>
<path d="M62.5084 29.0354H61.8457V33.7216H62.5084V29.0354Z" fill="white"/>
<path d="M120.51 32.7555C120.51 33.0006 120.31 33.1996 120.063 33.1996H118.214C118.229 33.1843 118.245 33.169 118.245 33.1537C118.383 32.9699 118.538 32.633 118.399 32.1583C118.322 31.8673 118.06 30.9638 117.412 30.9485H117.397C116.642 30.9485 116.164 32.2195 116.087 32.4646C116.041 32.6177 115.964 32.878 115.902 33.1843C115.609 33.1843 114.268 33.1843 114.268 33.1843C114.33 33.0465 114.361 32.8934 114.361 32.7402V31.1322H113.698V32.7402C113.698 32.9852 113.498 33.1843 113.251 33.1843H112.85C112.604 33.1843 112.403 32.9852 112.403 32.7402V31.1322H111.741V32.7402C111.741 32.9852 111.54 33.1843 111.294 33.1843H105.653C105.406 33.1843 105.206 32.9852 105.206 32.7402V30.3053H104.543V30.6115C104.358 30.6728 104.003 30.78 103.633 30.9485C102.847 31.3007 102.416 31.7295 102.308 32.2042C102.262 32.4493 102.323 32.6636 102.478 32.8321C102.57 32.9393 102.924 33.215 103.865 33.215C104.08 33.215 104.327 33.1996 104.62 33.169C104.789 33.5672 105.19 33.8428 105.637 33.8428H111.278C111.586 33.8428 111.864 33.7203 112.064 33.5212C112.265 33.7203 112.542 33.8428 112.85 33.8428H113.251C113.544 33.8428 113.821 33.7203 114.022 33.5366V33.8428C114.022 33.8428 115.609 33.8428 115.856 33.8428C115.871 34.4554 116.072 35.068 116.765 35.359C116.95 35.4355 117.15 35.4662 117.351 35.4662C117.875 35.4662 118.383 35.2211 118.584 34.8076C118.676 34.6392 118.769 34.2563 118.445 33.8275H120.063C120.68 33.8275 121.173 33.3375 121.173 32.7249V29.0035H120.51V32.7555ZM102.971 32.4186C102.971 32.4033 102.955 32.4033 102.971 32.3727C103.048 31.9745 103.865 31.561 104.543 31.3466V32.5565C103.895 32.6177 103.125 32.5871 102.971 32.4186ZM116.719 32.6943C116.95 32.0205 117.289 31.6223 117.397 31.6223C117.397 31.6223 117.567 31.6835 117.767 32.342C117.829 32.5718 117.767 32.6943 117.721 32.7555C117.536 32.9852 117.073 33.1078 116.58 33.1537C116.626 33.0159 116.673 32.8627 116.719 32.6943ZM117.998 34.5473C117.906 34.7464 117.428 34.9302 117.012 34.7617C116.673 34.6239 116.503 34.3023 116.503 33.8275C116.858 33.7969 117.227 33.7356 117.536 33.6284L117.412 33.8582C117.844 34.1185 118.075 34.3788 117.998 34.5473Z" fill="white"/>
<path d="M54.6764 29.0354H54.0137V33.7216H54.6764V29.0354Z" fill="white"/>
<path d="M52.2915 32.7544C52.2915 32.9994 52.0911 33.1985 51.8445 33.1985H50.5344C50.5498 33.1679 50.5499 33.1526 50.5653 33.1219C50.7656 32.6166 50.6423 32.004 50.4728 31.6518C50.2416 31.1617 49.8255 30.8707 49.3785 30.8707C48.9315 30.8707 48.5154 31.1617 48.2688 31.6671C48.1455 31.9121 48.0684 32.1418 47.9913 32.3562C47.791 32.9535 47.6985 33.1985 47.0358 33.1985H46.4038C46.2497 31.6058 44.7701 30.8248 44.7084 30.7788L44.4002 31.3608C44.4156 31.3608 45.587 31.9887 45.7411 33.1832H43.6758V33.8417H47.0512C47.529 33.8417 47.8526 33.7192 48.0684 33.5354C48.3921 33.7498 48.8853 33.8417 49.3168 33.8417C49.5634 33.8417 49.7792 33.8111 49.9333 33.7498C49.9642 33.7345 50.0104 33.7192 50.0412 33.7039V33.8417H51.8445C52.461 33.8417 52.9542 33.3516 52.9542 32.7391V29.0177H52.2915V32.7544ZM49.9488 32.8922C49.9025 33.03 49.81 33.1066 49.6867 33.1526C49.4093 33.2598 48.7003 33.1679 48.4383 33.0147C48.5 32.8616 48.5616 32.7084 48.6078 32.5553C48.6695 32.3562 48.7466 32.1571 48.839 31.958C48.9778 31.6977 49.1627 31.5292 49.3631 31.5292C49.548 31.5292 49.733 31.6824 49.8563 31.9427C49.9796 32.2031 50.0566 32.6012 49.9488 32.8922Z" fill="white"/>
<path d="M88.7726 30.886C88.3102 30.886 87.894 31.1769 87.6474 31.6823C87.5241 31.9273 87.4471 32.157 87.3854 32.3561C87.1851 32.9534 87.0926 33.1984 86.4298 33.1984H83.7326C83.486 33.1984 83.2857 32.9993 83.2857 32.7543V30.3193H82.6229V30.6256C82.438 30.6869 82.0835 30.7941 81.7136 30.9625C80.9275 31.3148 80.496 31.7436 80.3881 32.2183C80.3418 32.4633 80.4035 32.6777 80.5576 32.8462C80.6501 32.9534 81.0046 33.229 81.9447 33.229C82.1605 33.229 82.4071 33.2137 82.7 33.1831C82.8695 33.5813 83.2702 33.8569 83.7172 33.8569H86.4144C86.8922 33.8569 87.2159 33.7344 87.4317 33.5506C87.9249 33.8722 88.8805 33.9335 89.2966 33.765C89.5894 33.6578 89.8206 33.4281 89.9285 33.1218C90.1289 32.6165 90.0056 32.0039 89.8361 31.6517C89.6357 31.1769 89.2196 30.886 88.7726 30.886ZM81.0508 32.4174C81.0508 32.4174 81.0354 32.4021 81.0508 32.3714C81.1279 31.9733 81.9447 31.5598 82.6229 31.3454V32.5552C81.9756 32.6165 81.2203 32.5858 81.0508 32.4174ZM89.3428 32.8921C89.2966 33.03 89.2041 33.1065 89.0808 33.1525C88.8034 33.2597 88.0944 33.1678 87.8324 33.0146C87.8941 32.8615 87.9557 32.7084 88.0019 32.5552C88.0636 32.3561 88.1407 32.157 88.2331 31.958C88.3719 31.6976 88.5568 31.5292 88.7572 31.5292C88.9421 31.5292 89.1271 31.6823 89.2504 31.9426C89.3891 32.203 89.4661 32.6012 89.3428 32.8921Z" fill="white"/>
<path d="M77.7624 32.7544C77.7624 32.9994 77.562 33.1985 77.3154 33.1985H76.9147C76.6681 33.1985 76.4677 32.9994 76.4677 32.7544V29.033H75.805V32.7544C75.805 32.9994 75.6046 33.1985 75.358 33.1985H74.4024C74.387 32.54 74.2637 31.7283 73.7243 31.2689C73.0924 30.7482 72.2292 31.0698 71.6281 31.4527C71.2737 31.6671 70.95 31.9427 70.6417 32.2337V29.0177H69.979V33.1832H67.2663C67.328 33.0454 67.3588 32.8922 67.3588 32.7391V31.1311H66.6961V32.7391C66.6961 32.9841 66.4957 33.1832 66.2491 33.1832H64.8466C64.6 33.1832 64.3996 32.9841 64.3996 32.7391V31.1311H63.706V33.6886C63.706 34.1939 63.2899 34.6074 62.7812 34.6074V35.2659C63.6289 35.2659 64.3379 34.5921 64.3688 33.7498C64.5075 33.8111 64.6616 33.8417 64.8157 33.8417H66.2183C66.4495 33.8417 66.6498 33.7804 66.8194 33.6579V33.8417H75.3272C75.6355 33.8417 75.9129 33.7192 76.1132 33.5201C76.3136 33.7192 76.591 33.8417 76.8993 33.8417H77.3C77.9165 33.8417 78.4097 33.3516 78.4097 32.7391V29.0177H77.747V32.7544H77.7624ZM70.6263 32.9688C70.9037 32.7084 71.1966 32.4634 71.5203 32.249C71.8747 32.004 72.2755 31.759 72.707 31.6977C72.892 31.6671 73.0924 31.6671 73.2311 31.7896C73.3698 31.8815 73.4468 32.0346 73.5085 32.1724C73.6472 32.494 73.6934 32.8616 73.7089 33.2138H70.6109L70.6263 32.9688Z" fill="white"/>
<path d="M42.2106 32.7539C42.2106 32.999 42.0102 33.1981 41.7636 33.1981H41.4708C41.2087 33.1981 40.993 32.999 40.993 32.7539V31.881C40.993 31.6054 40.8851 31.3757 40.6847 31.2225C40.4535 31.0387 40.1453 30.9928 39.8062 31.0694C39.1897 31.2072 38.7427 31.7279 38.7427 32.2945V33.7953C38.7427 33.9791 38.5732 34.0863 38.4345 34.1475C38.0029 34.3313 37.2477 34.2701 36.8007 33.8259C36.3692 33.4125 36.3075 32.7539 36.6312 31.9117L36.0147 31.6819C35.4444 33.1521 35.9838 33.9485 36.3383 34.3007C36.7699 34.7142 37.371 34.8979 37.895 34.8979C38.1879 34.8979 38.4653 34.8367 38.6965 34.7448C39.1434 34.561 39.4055 34.2088 39.4055 33.7953V32.2945C39.4055 32.0342 39.6366 31.7891 39.9603 31.7126C40.1144 31.6819 40.2377 31.7126 40.284 31.7432C40.2994 31.7585 40.3456 31.7891 40.3456 31.8963V32.7693C40.3456 33.3665 40.8697 33.8719 41.4862 33.8719H41.779C42.3955 33.8719 42.8887 33.3818 42.8887 32.7693V31.1613H42.226V32.7539H42.2106Z" fill="white"/>
<path d="M60.1839 33.7953C60.1839 33.9791 60.0144 34.0863 59.8756 34.1475C59.4441 34.3313 58.6889 34.27 58.2265 33.8259C57.7949 33.4125 57.7333 32.7539 58.057 31.9117L57.4404 31.6819C56.8702 33.1521 57.4096 33.9485 57.7641 34.3007C58.1957 34.7142 58.7968 34.8979 59.3208 34.8979C59.6136 34.8979 59.8911 34.8367 60.1223 34.7448C60.5692 34.561 60.8312 34.2088 60.8312 33.7953V31.1613H60.1685L60.1839 33.7953Z" fill="white"/>
<path d="M98.1717 32.7544C98.1717 32.9994 97.9713 33.1985 97.7247 33.1985H97.4781C96.8308 33.2138 96.2759 33.1526 95.8289 33.0454C95.8443 33.03 95.8598 33.0147 95.8752 32.9994C96.0139 32.8769 96.7229 32.249 96.615 31.6058C96.5842 31.3914 96.43 31.1158 95.9831 30.9473L95.9522 30.932H95.9214C95.3357 30.8554 94.7192 30.8554 94.1335 30.9167H94.1027L94.0719 30.932C93.702 31.0698 93.5633 31.2995 93.5324 31.4833C93.4091 32.0499 93.9948 32.6931 94.2568 32.9535C94.3031 32.9994 94.3339 33.03 94.3801 33.0607C94.0102 33.1526 93.6095 33.1832 93.1471 33.1832H92.1761C91.9295 33.1832 91.7292 32.9841 91.7292 32.7391V29.0177H91.0664V32.7391C91.0664 33.3516 91.5596 33.8417 92.1761 33.8417H93.1471C93.9178 33.8417 94.5343 33.7804 95.1354 33.4895C95.7519 33.7345 96.5379 33.8417 97.5089 33.8417H97.7401C98.3566 33.8417 98.8498 33.3516 98.8498 32.7391V29.0177H98.1871V32.7544H98.1717ZM95.459 32.5094C95.3357 32.6166 95.2124 32.7084 95.0891 32.7697C94.935 32.6931 94.8117 32.6012 94.7038 32.494C94.3339 32.1265 94.1335 31.7743 94.1644 31.6364C94.1644 31.6211 94.2106 31.5905 94.2414 31.5752C94.7655 31.5292 95.2741 31.5292 95.7981 31.5905C95.8752 31.6211 95.9522 31.6671 95.9676 31.7283C95.9985 31.9121 95.7673 32.249 95.459 32.5094Z" fill="white"/>
</svg>
