<svg width="140" height="139" viewBox="0 0 140 139" fill="none" xmlns="http://www.w3.org/2000/svg">
<rect x="0.5" y="0.5" width="139" height="139" rx="69.5" fill="white" stroke="#CDCDCD"/>
<path d="M52.7375 60.8796C52.7375 60.6885 52.5825 60.5284 52.3914 60.5335L49.4835 60.5697C49.2097 60.5749 49.0754 60.4406 49.0806 60.1668L49.0909 57.6153C49.0909 57.3828 49.2097 57.264 49.4473 57.2589C51.157 57.2434 52.9441 57.2537 54.8035 57.2847C56.2652 57.3105 56.9832 58.0646 56.9677 59.547C56.947 61.3909 56.9057 62.8113 56.8385 63.8082C56.6319 66.8504 50.4907 67.5477 48.3523 67.4083C40.3568 66.8917 38.1255 58.7309 40.7493 52.3469C42.4228 48.2768 47.185 46.8513 51.4617 47.8688C54.3541 48.5557 56.1671 50.5443 56.9057 53.8293C56.9263 53.9222 56.8644 54.0152 56.7714 54.0359L52.8769 54.8984C52.7788 54.9191 52.722 54.8829 52.6962 54.7848C51.9885 51.8872 50.2479 50.7716 47.4794 51.443C43.5023 52.4089 43.5798 60.2753 45.8473 62.6409C47.4898 64.3557 50.4442 64.2007 52.4534 63.2297C52.629 63.1419 52.7375 62.9663 52.7375 62.7752V60.8796Z" fill="#284476"/>
<path d="M67.2619 52.4383L64.1164 63.0371C63.9976 63.4451 64.1164 63.5381 64.478 63.316C65.511 62.6858 67.7578 61.1415 68.9871 61.1621C69.1524 61.1621 69.235 61.3636 69.1214 61.4824C67.4995 63.161 65.857 64.8294 64.1887 66.4822C63.0163 67.6495 60.3459 67.2208 58.8067 67.2466C58.595 67.2466 58.4452 67.0452 58.5123 66.8489C60.3717 61.2655 62.1847 55.6975 63.946 50.1399C65.0306 46.7309 69.8703 46.4572 71.0376 50.0159C72.9074 55.682 74.741 61.3326 76.5384 66.9574C76.5849 67.102 76.4764 67.2518 76.3267 67.2518L72.2669 67.2776C72.1119 67.2776 71.9777 67.1743 71.9363 67.0297L67.67 52.4383C67.5357 51.9786 67.4014 51.9786 67.2619 52.4383Z" fill="#284476"/>
<path d="M90.718 60.0748L94.0598 60.7566C94.3955 60.8238 94.5195 61.0201 94.442 61.3558C93.0113 67.2491 87.1386 68.7418 82.1904 66.6087C78.3115 64.9352 77.0512 60.4261 77.4489 56.5781C77.8827 52.4409 79.2463 49.0474 83.6005 47.9214C88.3885 46.6818 93.4296 48.6135 94.4316 53.7941C94.4885 54.0782 94.3748 54.2486 94.0959 54.3158L90.7335 55.1164C90.4752 55.1784 90.3151 55.0802 90.2479 54.8271C89.7108 52.7456 88.6106 51.5783 86.9526 51.3355C81.7204 50.5659 81.3382 57.1101 82.2834 60.4622C83.5075 64.7751 89.4835 64.9713 90.1705 60.4571C90.2169 60.142 90.4029 60.0129 90.718 60.0748Z" fill="#284476"/>
<path d="M104.45 52.5848L101.433 62.7703C101.273 63.3178 101.439 63.4469 101.929 63.1577C102.875 62.5998 104.946 61.1536 106.134 61.2311C106.294 61.2414 106.366 61.4274 106.258 61.541L101.056 66.8249C100.741 67.1399 100.313 67.3156 99.8684 67.3104L96.1186 67.2381C95.8397 67.2329 95.6486 66.9643 95.7364 66.7009C97.6526 60.9728 99.543 55.2706 101.408 49.5942C102.41 46.5468 107.249 46.8205 108.277 49.9816C109.383 53.375 110.514 56.7685 111.676 60.1516C112.378 62.197 112.967 64.4903 113.664 66.6441C113.788 67.0315 113.649 67.2226 113.246 67.2278L109.677 67.2536C109.3 67.2587 109.057 67.078 108.954 66.7112L104.894 52.5848C104.749 52.0734 104.6 52.0734 104.45 52.5848Z" fill="#284476"/>
<path d="M23.1684 67.2266C12.0945 67.2576 19.4857 51.0702 11.5057 48.2604C11.3662 48.2139 11.2836 48.0693 11.3094 47.9247C11.3352 47.7801 11.4643 47.6768 11.609 47.6768C16.0458 47.7026 20.6737 47.6974 25.4978 47.6509C33.3333 47.5786 32.9356 54.7271 33.8033 60.3725C34.356 63.9312 35.1101 65.4291 38.1833 67.0303C38.4828 67.1904 38.4622 67.2679 38.1213 67.2627C33.2506 67.2266 28.2663 67.2111 23.1684 67.2266ZM23.8502 53.6218C23.0341 54.1848 21.8823 54.6135 21.5362 55.4709C21.4639 55.6465 21.6447 55.8221 21.8203 55.7498L24.5733 54.6341C24.7334 54.567 24.909 54.6858 24.909 54.8614C24.8935 56.4471 25.033 58.0482 25.3171 59.6701C25.3429 59.7992 25.3894 59.8922 25.4617 59.9438C25.5908 60.0316 25.7664 59.949 25.7819 59.794L26.2365 54.9337C26.2623 54.6703 26.4017 54.5876 26.6445 54.6909L29.0927 55.7085C29.2735 55.7859 29.4698 55.6413 29.4491 55.445C29.4285 55.2591 29.32 55.0783 29.1186 54.9027C28.5556 54.4172 27.9358 54.0763 27.2488 53.8748C27.0061 53.8077 26.9492 53.4875 27.1558 53.3428C27.6052 53.0226 28.0959 52.7953 28.6279 52.6611C28.7157 52.6404 28.7622 52.5474 28.726 52.4699L28.6589 52.315C28.5917 52.1704 28.4316 52.0877 28.2767 52.1291L26.4276 52.5991C26.2674 52.6404 26.1073 52.5268 26.0918 52.3615C26.0557 52.0258 25.9575 51.721 25.7974 51.4473C25.6425 51.1838 25.2448 51.2303 25.1621 51.5247L24.9194 52.3718C24.8729 52.5423 24.6921 52.6404 24.5217 52.5887L22.8637 52.1136C22.688 52.0671 22.5383 52.1032 22.4091 52.2324L22.3007 52.346C22.2129 52.4338 22.2439 52.5784 22.3575 52.6301L23.8089 53.2395C24.0568 53.3428 24.0723 53.472 23.8502 53.6218ZM24.5286 61.5238C24.5836 61.3745 24.1446 61.0698 23.5449 60.8407C22.9463 60.6153 22.4143 60.5481 22.3557 60.6984C22.3007 60.8477 22.7397 61.1524 23.3394 61.3815C23.938 61.607 24.47 61.6741 24.5286 61.5238ZM23.2407 62.4644C22.1044 62.8208 21.0249 63.2443 19.997 63.7298C19.6097 63.9158 19.6303 64.0139 20.059 64.0191C21.4329 64.0346 22.6364 64.0552 23.9225 63.3424C25.4462 62.5057 26.9751 61.6844 28.5143 60.8735C28.5607 60.8477 28.5762 60.8012 28.5607 60.7289C28.5452 60.6204 28.4884 60.5791 28.38 60.6049C26.5774 61.0181 24.8729 61.9479 23.2407 62.4644ZM31.0296 63.766C29.9656 63.1771 28.38 62.5987 27.2023 62.3456C27.0319 62.3094 26.8873 62.3094 26.7788 62.3559C26.6548 62.4076 26.5515 62.4799 26.4689 62.578C26.3501 62.7278 26.3604 62.8569 26.5102 62.9757C28.0546 64.205 29.3097 63.9261 30.9522 64.0191C31.3499 64.0449 31.3757 63.9571 31.0296 63.766Z" fill="#0175C7"/>
<path d="M30.6919 85.7668C30.6919 85.6548 30.7013 85.5358 30.7199 85.4098C30.7433 85.2791 30.7759 85.1414 30.8179 84.9968C30.8646 84.8474 30.9206 84.6911 30.9859 84.5278L31.4899 84.7238C31.4433 84.8544 31.4013 84.9781 31.3639 85.0948C31.3313 85.2114 31.3056 85.3211 31.2869 85.4238C31.2729 85.5264 31.2659 85.6244 31.2659 85.7178C31.2659 85.9138 31.3079 86.0794 31.3919 86.2148C31.4806 86.3548 31.6019 86.4691 31.7559 86.5578C31.9099 86.6464 32.0849 86.7118 32.2809 86.7538C32.4816 86.7958 32.6939 86.8168 32.9179 86.8168C33.1886 86.8168 33.4406 86.7934 33.6739 86.7468C33.9119 86.7001 34.1196 86.6324 34.2969 86.5438C34.4789 86.4598 34.6213 86.3618 34.7239 86.2498C34.8266 86.1424 34.8779 86.0258 34.8779 85.8998C34.8779 85.8391 34.8546 85.7831 34.8079 85.7318C34.7613 85.6804 34.6913 85.6314 34.5979 85.5848C34.5046 85.5381 34.3926 85.4938 34.2619 85.4518C34.1313 85.4051 33.9819 85.3584 33.8139 85.3118L33.9469 84.7308C34.1896 84.8241 34.4043 84.9034 34.5909 84.9688C34.7776 85.0294 34.9409 85.0784 35.0809 85.1158C35.2209 85.1531 35.3423 85.1811 35.4449 85.1998C35.5476 85.2138 35.6339 85.2208 35.7039 85.2208C35.8019 85.2208 35.8719 85.2488 35.9139 85.3048C35.9606 85.3561 35.9839 85.4191 35.9839 85.4938C35.9839 85.5684 35.9513 85.6384 35.8859 85.7038C35.8206 85.7644 35.7366 85.7948 35.6339 85.7948C35.6059 85.7948 35.5779 85.7948 35.5499 85.7948C35.5219 85.7948 35.4916 85.7948 35.4589 85.7948C35.4309 85.7948 35.4029 85.7948 35.3749 85.7948C35.3843 85.8368 35.3913 85.8694 35.3959 85.8928C35.4006 85.9208 35.4029 85.9558 35.4029 85.9978C35.4029 86.1704 35.3423 86.3384 35.2209 86.5018C35.1043 86.6651 34.9316 86.8121 34.7029 86.9428C34.4743 87.0781 34.1966 87.1854 33.8699 87.2648C33.5479 87.3441 33.1793 87.3838 32.7639 87.3838C32.3953 87.3838 32.0523 87.3231 31.7349 87.2018C31.4223 87.0851 31.1703 86.9078 30.9789 86.6698C30.7876 86.4318 30.6919 86.1308 30.6919 85.7668ZM35.6362 85.7948L35.7062 85.2208C35.9349 85.2208 36.1169 85.2068 36.2522 85.1788C36.3876 85.1508 36.4856 85.0948 36.5462 85.0108C36.6069 84.9221 36.6372 84.7914 36.6372 84.6188C36.6372 84.5021 36.6186 84.3644 36.5812 84.2058C36.5439 84.0424 36.4949 83.8698 36.4342 83.6878C36.3736 83.5058 36.3082 83.3261 36.2382 83.1488L36.8052 82.9388C36.8659 83.0881 36.9219 83.2584 36.9732 83.4498C37.0292 83.6411 37.0759 83.8301 37.1132 84.0168C37.1506 84.2034 37.1692 84.3668 37.1692 84.5068C37.1692 84.6934 37.1482 84.8591 37.1062 85.0038C37.0689 85.1438 37.0106 85.2651 36.9312 85.3678C36.8519 85.4658 36.7492 85.5474 36.6232 85.6128C36.5019 85.6734 36.3596 85.7201 36.1962 85.7528C36.0329 85.7808 35.8462 85.7948 35.6362 85.7948ZM36.5322 82.2108C36.4342 82.2108 36.3502 82.1781 36.2802 82.1128C36.2149 82.0428 36.1822 81.9611 36.1822 81.8678C36.1822 81.7744 36.2149 81.6928 36.2802 81.6228C36.3502 81.5528 36.4342 81.5178 36.5322 81.5178C36.6256 81.5178 36.7049 81.5528 36.7702 81.6228C36.8402 81.6928 36.8752 81.7744 36.8752 81.8678C36.8752 81.9611 36.8402 82.0428 36.7702 82.1128C36.7049 82.1781 36.6256 82.2108 36.5322 82.2108ZM39.0211 85.2208C39.2544 85.2208 39.4388 85.1974 39.5741 85.1508C39.7141 85.1041 39.8144 85.0364 39.8751 84.9478C39.9404 84.8544 39.9731 84.7471 39.9731 84.6258C39.9731 84.5324 39.9474 84.4204 39.8961 84.2898C39.8494 84.1591 39.7841 84.0144 39.7001 83.8558C39.6161 83.6924 39.5181 83.5221 39.4061 83.3448C39.2988 83.1628 39.1821 82.9784 39.0561 82.7918L39.5391 82.4768C39.7211 82.7521 39.8798 83.0134 40.0151 83.2608C40.1504 83.5034 40.2648 83.7321 40.3581 83.9468C40.4514 84.1568 40.5261 84.3551 40.5821 84.5418C40.6474 84.7471 40.7198 84.8988 40.7991 84.9968C40.8831 85.0948 40.9694 85.1578 41.0581 85.1858C41.1468 85.2091 41.2284 85.2208 41.3031 85.2208C41.4011 85.2208 41.4734 85.2488 41.5201 85.3048C41.5668 85.3561 41.5901 85.4191 41.5901 85.4938C41.5901 85.5684 41.5574 85.6384 41.4921 85.7038C41.4268 85.7644 41.3428 85.7948 41.2401 85.7948C41.0861 85.7948 40.9344 85.7668 40.7851 85.7108C40.6404 85.6501 40.5144 85.5544 40.4071 85.4238C40.2998 85.2884 40.2251 85.1088 40.1831 84.8848L40.4631 84.6608C40.4631 84.8474 40.4234 85.0294 40.3441 85.2068C40.2648 85.3794 40.1201 85.5218 39.9101 85.6338C39.7048 85.7458 39.4084 85.8018 39.0211 85.8018C38.8531 85.8018 38.6898 85.7878 38.5311 85.7598C38.3771 85.7318 38.2348 85.6921 38.1041 85.6408C37.9734 85.5848 37.8591 85.5194 37.7611 85.4448L38.0411 84.9618C38.1344 85.0224 38.2651 85.0808 38.4331 85.1368C38.6011 85.1928 38.7971 85.2208 39.0211 85.2208ZM41.2417 85.7948L41.3117 85.2208C41.4424 85.2208 41.545 85.1928 41.6197 85.1368C41.699 85.0808 41.7737 84.9874 41.8437 84.8568C41.9184 84.7261 42.0117 84.5511 42.1237 84.3318C42.2357 84.1078 42.3477 83.9258 42.4597 83.7858C42.5764 83.6411 42.6884 83.5291 42.7957 83.4498C42.9077 83.3658 43.0127 83.3074 43.1107 83.2748C43.2087 83.2421 43.2997 83.2258 43.3837 83.2258C43.5377 83.2258 43.6754 83.2608 43.7967 83.3308C43.918 83.3961 44.0324 83.5104 44.1397 83.6738C44.247 83.8324 44.3567 84.0518 44.4687 84.3318C44.576 84.5884 44.6717 84.7821 44.7557 84.9128C44.8444 85.0388 44.9354 85.1228 45.0287 85.1648C45.1267 85.2021 45.2364 85.2208 45.3577 85.2208C45.4557 85.2208 45.5257 85.2488 45.5677 85.3048C45.6144 85.3561 45.6377 85.4191 45.6377 85.4938C45.6377 85.5684 45.605 85.6384 45.5397 85.7038C45.4744 85.7644 45.3904 85.7948 45.2877 85.7948C45.1057 85.7948 44.9377 85.7644 44.7837 85.7038C44.6344 85.6431 44.5084 85.5474 44.4057 85.4168L44.5037 85.2698C44.4524 85.4144 44.3824 85.5334 44.2937 85.6268C44.2097 85.7154 44.114 85.7808 44.0067 85.8228C43.8994 85.8694 43.785 85.8928 43.6637 85.8928C43.5097 85.8928 43.351 85.8601 43.1877 85.7948C43.029 85.7294 42.875 85.6361 42.7257 85.5148C42.5764 85.3934 42.4457 85.2511 42.3337 85.0878C42.2124 85.3024 42.0957 85.4611 41.9837 85.5638C41.8764 85.6618 41.7644 85.7248 41.6477 85.7528C41.531 85.7808 41.3957 85.7948 41.2417 85.7948ZM42.5997 84.5558C42.679 84.6864 42.763 84.8008 42.8517 84.8988C42.945 84.9968 43.0384 85.0784 43.1317 85.1438C43.225 85.2044 43.316 85.2511 43.4047 85.2838C43.498 85.3118 43.582 85.3258 43.6567 85.3258C43.82 85.3258 43.939 85.2674 44.0137 85.1508C44.093 85.0341 44.0907 84.8708 44.0067 84.6608C43.9647 84.5534 43.9204 84.4484 43.8737 84.3458C43.8317 84.2431 43.785 84.1498 43.7337 84.0658C43.6824 83.9771 43.624 83.9094 43.5587 83.8628C43.4934 83.8114 43.421 83.7858 43.3417 83.7858C43.2717 83.7858 43.197 83.8091 43.1177 83.8558C43.043 83.9024 42.9614 83.9818 42.8727 84.0938C42.7887 84.2058 42.6977 84.3598 42.5997 84.5558ZM45.2886 85.7948L45.3516 85.2208C45.6176 85.2208 45.8042 85.1951 45.9116 85.1438C46.0189 85.0924 46.0796 85.0014 46.0936 84.8708C46.1122 84.7401 46.1169 84.5581 46.1076 84.3248L45.9746 80.7618H46.5416L46.6816 84.2618C46.6909 84.5091 46.6816 84.7284 46.6536 84.9198C46.6302 85.1111 46.5696 85.2721 46.4716 85.4028C46.3782 85.5334 46.2359 85.6314 46.0446 85.6968C45.8579 85.7621 45.6059 85.7948 45.2886 85.7948ZM47.7509 85.7598L47.6109 80.7618H48.1779L48.3179 85.7598H47.7509ZM50.6392 85.7668C50.6392 85.6548 50.6485 85.5358 50.6672 85.4098C50.6905 85.2791 50.7232 85.1414 50.7652 84.9968C50.8119 84.8474 50.8679 84.6911 50.9332 84.5278L51.4372 84.7238C51.3905 84.8544 51.3485 84.9781 51.3112 85.0948C51.2785 85.2114 51.2529 85.3211 51.2342 85.4238C51.2202 85.5264 51.2132 85.6244 51.2132 85.7178C51.2132 85.9604 51.2762 86.1611 51.4022 86.3198C51.5282 86.4784 51.7009 86.5974 51.9202 86.6768C52.1395 86.7561 52.3869 86.7958 52.6622 86.7958C52.9749 86.7958 53.2362 86.7538 53.4462 86.6698C53.6609 86.5858 53.8312 86.4738 53.9572 86.3338C54.0832 86.1984 54.1719 86.0468 54.2232 85.8788C54.2792 85.7108 54.3072 85.5451 54.3072 85.3818C54.3072 85.2044 54.2722 84.9898 54.2022 84.7378C54.1369 84.4858 54.0132 84.1731 53.8312 83.7998L54.3562 83.5338C54.4495 83.7111 54.5335 83.8978 54.6082 84.0938C54.6875 84.2851 54.7505 84.4834 54.7972 84.6888C54.8485 84.8894 54.8742 85.0948 54.8742 85.3048C54.8742 85.4868 54.8509 85.6734 54.8042 85.8648C54.7622 86.0561 54.6899 86.2404 54.5872 86.4178C54.4845 86.5998 54.3469 86.7608 54.1742 86.9008C54.0062 87.0454 53.7962 87.1598 53.5442 87.2438C53.2969 87.3278 53.0005 87.3698 52.6552 87.3698C52.3845 87.3698 52.1255 87.3371 51.8782 87.2718C51.6355 87.2111 51.4209 87.1154 51.2342 86.9848C51.0522 86.8541 50.9075 86.6884 50.8002 86.4878C50.6929 86.2871 50.6392 86.0468 50.6392 85.7668ZM52.7532 82.9738C52.6552 82.9738 52.5712 82.9411 52.5012 82.8758C52.4359 82.8058 52.4032 82.7241 52.4032 82.6308C52.4032 82.5374 52.4359 82.4558 52.5012 82.3858C52.5712 82.3158 52.6552 82.2808 52.7532 82.2808C52.8465 82.2808 52.9259 82.3158 52.9912 82.3858C53.0612 82.4558 53.0962 82.5374 53.0962 82.6308C53.0962 82.7241 53.0612 82.8058 52.9912 82.8758C52.9259 82.9411 52.8465 82.9738 52.7532 82.9738ZM55.8652 85.7598L55.7252 80.7618H56.2922L56.4322 85.7598H55.8652ZM56.7394 87.3838L56.5364 86.8518C56.8771 86.7398 57.1594 86.6114 57.3834 86.4668C57.6121 86.3221 57.7918 86.1681 57.9224 86.0048C58.0578 85.8414 58.1534 85.6758 58.2094 85.5078C58.2654 85.3351 58.2934 85.1694 58.2934 85.0108C58.2934 84.7821 58.2421 84.5511 58.1394 84.3178C58.0414 84.0798 57.9318 83.8558 57.8104 83.6458L58.3214 83.3868C58.4101 83.5501 58.4871 83.7111 58.5524 83.8698C58.6224 84.0284 58.6831 84.1778 58.7344 84.3178C58.7904 84.4578 58.8348 84.5861 58.8674 84.7028C58.9328 84.9034 59.0168 85.0411 59.1194 85.1158C59.2268 85.1858 59.3714 85.2208 59.5534 85.2208C59.6514 85.2208 59.7214 85.2488 59.7634 85.3048C59.8101 85.3561 59.8334 85.4191 59.8334 85.4938C59.8334 85.5684 59.8008 85.6384 59.7354 85.7038C59.6701 85.7644 59.5861 85.7948 59.4834 85.7948C59.2781 85.7948 59.1101 85.7598 58.9794 85.6898C58.8534 85.6151 58.7578 85.5194 58.6924 85.4028C58.6271 85.2814 58.5828 85.1554 58.5594 85.0248L58.7834 85.1508C58.7834 85.4588 58.7134 85.7388 58.5734 85.9908C58.4381 86.2474 58.2631 86.4691 58.0484 86.6558C57.8338 86.8471 57.6098 87.0034 57.3764 87.1248C57.1431 87.2461 56.9308 87.3324 56.7394 87.3838ZM59.4868 85.7948L59.5568 85.2208C59.7901 85.2208 59.9721 85.2044 60.1028 85.1718C60.2335 85.1344 60.3315 85.0668 60.3968 84.9688C60.4668 84.8661 60.5228 84.7191 60.5648 84.5278C60.6068 84.3364 60.6581 84.0868 60.7188 83.7788L61.2648 83.8838C61.2461 83.9678 61.2251 84.0611 61.2018 84.1638C61.1785 84.2664 61.1575 84.3691 61.1388 84.4718C61.1248 84.5698 61.1178 84.6561 61.1178 84.7308C61.1178 84.8008 61.1225 84.8661 61.1318 84.9268C61.1411 84.9874 61.1761 85.0388 61.2368 85.0808C61.2975 85.1228 61.4001 85.1578 61.5448 85.1858C61.6895 85.2091 61.8971 85.2208 62.1678 85.2208C62.2658 85.2208 62.3358 85.2488 62.3778 85.3048C62.4245 85.3561 62.4478 85.4191 62.4478 85.4938C62.4478 85.5684 62.4151 85.6384 62.3498 85.7038C62.2845 85.7644 62.2005 85.7948 62.0978 85.7948C61.8131 85.7948 61.5868 85.7808 61.4188 85.7528C61.2508 85.7201 61.1225 85.6734 61.0338 85.6128C60.9498 85.5521 60.8891 85.4774 60.8518 85.3888C60.8191 85.2954 60.7935 85.1881 60.7748 85.0668L60.9848 85.0808C60.9101 85.2301 60.8285 85.3514 60.7398 85.4448C60.6558 85.5381 60.5578 85.6104 60.4458 85.6618C60.3338 85.7131 60.1985 85.7481 60.0398 85.7668C59.8858 85.7854 59.7015 85.7948 59.4868 85.7948ZM61.2508 87.1178C61.1528 87.1178 61.0688 87.0828 60.9988 87.0128C60.9335 86.9474 60.9008 86.8681 60.9008 86.7748C60.9008 86.6814 60.9335 86.5998 60.9988 86.5298C61.0688 86.4598 61.1528 86.4248 61.2508 86.4248C61.3441 86.4248 61.4235 86.4598 61.4888 86.5298C61.5588 86.5998 61.5938 86.6814 61.5938 86.7748C61.5938 86.8681 61.5588 86.9474 61.4888 87.0128C61.4235 87.0828 61.3441 87.1178 61.2508 87.1178ZM60.2918 87.1178C60.1938 87.1178 60.1098 87.0828 60.0398 87.0128C59.9745 86.9474 59.9418 86.8681 59.9418 86.7748C59.9418 86.6814 59.9745 86.5998 60.0398 86.5298C60.1098 86.4598 60.1938 86.4248 60.2918 86.4248C60.3851 86.4248 60.4645 86.4598 60.5298 86.5298C60.5998 86.5998 60.6348 86.6814 60.6348 86.7748C60.6348 86.8681 60.5998 86.9474 60.5298 87.0128C60.4645 87.0828 60.3851 87.1178 60.2918 87.1178ZM67.0681 85.7948C66.9468 85.7948 66.7928 85.7831 66.6061 85.7598C66.4241 85.7318 66.2375 85.6851 66.0461 85.6198C65.8595 85.5544 65.7008 85.4634 65.5701 85.3468L66.1441 85.0598C66.3075 85.1251 66.4755 85.1694 66.6481 85.1928C66.8255 85.2114 66.9888 85.2208 67.1381 85.2208C67.2361 85.2208 67.3061 85.2488 67.3481 85.3048C67.3948 85.3561 67.4181 85.4191 67.4181 85.4938C67.4181 85.5684 67.3855 85.6384 67.3201 85.7038C67.2548 85.7644 67.1708 85.7948 67.0681 85.7948ZM62.0981 85.7948L62.1681 85.2208H63.6311C64.0371 85.2208 64.3871 85.2044 64.6811 85.1718C64.9798 85.1344 65.2248 85.0808 65.4161 85.0108C65.6075 84.9408 65.7498 84.8521 65.8431 84.7448C65.9365 84.6328 65.9831 84.5021 65.9831 84.3528C65.9831 84.2734 65.9575 84.1871 65.9061 84.0938C65.8548 84.0004 65.7755 83.9211 65.6681 83.8558C65.5608 83.7858 65.4185 83.7508 65.2411 83.7508C65.0171 83.7508 64.7931 83.8091 64.5691 83.9258C64.3498 84.0424 64.1398 84.1894 63.9391 84.3668C63.7431 84.5394 63.5681 84.7168 63.4141 84.8988C63.2601 85.0808 63.1365 85.2394 63.0431 85.3748L62.4341 85.3538C62.5835 85.1111 62.7608 84.8638 62.9661 84.6118C63.1761 84.3551 63.4048 84.1194 63.6521 83.9048C63.9041 83.6854 64.1678 83.5104 64.4431 83.3798C64.7185 83.2444 64.9985 83.1768 65.2831 83.1768C65.5398 83.1768 65.7591 83.2304 65.9411 83.3378C66.1278 83.4404 66.2701 83.5804 66.3681 83.7578C66.4708 83.9351 66.5221 84.1358 66.5221 84.3598C66.5221 84.5791 66.4428 84.8008 66.2841 85.0248C66.1255 85.2441 65.8525 85.4168 65.4651 85.5428C65.2691 85.6081 65.0451 85.6594 64.7931 85.6968C64.5411 85.7341 64.2541 85.7598 63.9321 85.7738C63.6101 85.7878 63.2438 85.7948 62.8331 85.7948H62.0981ZM62.7631 85.1018L62.6231 80.7618H63.1901L63.3301 84.6118L62.7631 85.1018ZM67.0679 85.7948L67.1309 85.2208C67.3969 85.2208 67.5835 85.1951 67.6909 85.1438C67.7982 85.0924 67.8589 85.0014 67.8729 84.8708C67.8915 84.7401 67.8962 84.5581 67.8869 84.3248L67.7679 80.7618H68.3489L68.4609 84.3108C68.4702 84.5488 68.5075 84.7354 68.5729 84.8708C68.6429 85.0014 68.7362 85.0924 68.8529 85.1438C68.9695 85.1951 69.0979 85.2208 69.2379 85.2208C69.3359 85.2208 69.4059 85.2488 69.4479 85.3048C69.4945 85.3561 69.5179 85.4191 69.5179 85.4938C69.5179 85.5684 69.4852 85.6384 69.4199 85.7038C69.3545 85.7644 69.2705 85.7948 69.1679 85.7948C68.9719 85.7948 68.8085 85.7644 68.6779 85.7038C68.5519 85.6384 68.4515 85.5568 68.3769 85.4588C68.3069 85.3561 68.2602 85.2488 68.2369 85.1368L68.3839 85.1508C68.3372 85.2908 68.2602 85.4098 68.1529 85.5078C68.0502 85.6011 67.9102 85.6734 67.7329 85.7248C67.5555 85.7714 67.3339 85.7948 67.0679 85.7948ZM69.1665 85.7948L69.2295 85.2208C69.4955 85.2208 69.6822 85.1951 69.7895 85.1438C69.8968 85.0924 69.9575 85.0014 69.9715 84.8708C69.9902 84.7401 69.9948 84.5581 69.9855 84.3248L69.8525 80.7618H70.4195L70.5595 84.2618C70.5688 84.5091 70.5595 84.7284 70.5315 84.9198C70.5082 85.1111 70.4475 85.2721 70.3495 85.4028C70.2562 85.5334 70.1138 85.6314 69.9225 85.6968C69.7358 85.7621 69.4838 85.7948 69.1665 85.7948ZM76.0412 85.7948C75.7892 85.7948 75.5652 85.7598 75.3692 85.6898C75.1778 85.6151 75.0238 85.4914 74.9072 85.3188C74.7952 85.1414 74.7322 84.8964 74.7182 84.5838L74.6062 82.1478H75.1732L75.2852 84.4578C75.2992 84.6771 75.3388 84.8428 75.4042 84.9548C75.4695 85.0621 75.5605 85.1344 75.6772 85.1718C75.7985 85.2044 75.9432 85.2208 76.1112 85.2208C76.2092 85.2208 76.2792 85.2488 76.3212 85.3048C76.3678 85.3561 76.3912 85.4191 76.3912 85.4938C76.3912 85.5684 76.3585 85.6384 76.2932 85.7038C76.2278 85.7644 76.1438 85.7948 76.0412 85.7948ZM74.9842 85.0248C74.7182 85.1088 74.4592 85.1508 74.2072 85.1508C73.9552 85.1508 73.7265 85.1134 73.5212 85.0388C73.3158 84.9641 73.1525 84.8568 73.0312 84.7168C72.9098 84.5721 72.8492 84.3994 72.8492 84.1988C72.8492 84.0028 72.8982 83.8184 72.9962 83.6458C73.0988 83.4731 73.2365 83.3191 73.4092 83.1838C73.5865 83.0484 73.7895 82.9364 74.0182 82.8478C74.2515 82.7544 74.4988 82.6914 74.7602 82.6588L74.8582 83.2468C74.6248 83.2561 74.4172 83.2888 74.2352 83.3448C74.0578 83.3961 73.9062 83.4638 73.7802 83.5478C73.6588 83.6318 73.5655 83.7228 73.5002 83.8208C73.4348 83.9188 73.4022 84.0144 73.4022 84.1078C73.4022 84.2104 73.4395 84.2944 73.5142 84.3598C73.5888 84.4251 73.6845 84.4764 73.8012 84.5138C73.9178 84.5464 74.0462 84.5674 74.1862 84.5768C74.3262 84.5814 74.4615 84.5768 74.5922 84.5628C74.7228 84.5441 74.8348 84.5184 74.9282 84.4858L74.9842 85.0248ZM74.8372 81.3428C74.7392 81.3428 74.6552 81.3101 74.5852 81.2448C74.5198 81.1748 74.4872 81.0931 74.4872 80.9998C74.4872 80.9064 74.5198 80.8248 74.5852 80.7548C74.6552 80.6848 74.7392 80.6498 74.8372 80.6498C74.9305 80.6498 75.0098 80.6848 75.0752 80.7548C75.1452 80.8248 75.1802 80.9064 75.1802 80.9998C75.1802 81.0931 75.1452 81.1748 75.0752 81.2448C75.0098 81.3101 74.9305 81.3428 74.8372 81.3428ZM73.8782 81.3428C73.7802 81.3428 73.6962 81.3101 73.6262 81.2448C73.5608 81.1748 73.5282 81.0931 73.5282 80.9998C73.5282 80.9064 73.5608 80.8248 73.6262 80.7548C73.6962 80.6848 73.7802 80.6498 73.8782 80.6498C73.9715 80.6498 74.0508 80.6848 74.1162 80.7548C74.1862 80.8248 74.2212 80.9064 74.2212 80.9998C74.2212 81.0931 74.1862 81.1748 74.1162 81.2448C74.0508 81.3101 73.9715 81.3428 73.8782 81.3428ZM76.0435 85.7948L76.1135 85.2208C76.2441 85.2208 76.3538 85.1928 76.4425 85.1368C76.5311 85.0808 76.6175 84.9874 76.7015 84.8568C76.7855 84.7261 76.8765 84.5511 76.9745 84.3318C77.1098 84.0331 77.2428 83.8068 77.3735 83.6528C77.5088 83.4988 77.6418 83.3938 77.7725 83.3378C77.9078 83.2818 78.0408 83.2538 78.1715 83.2538C78.3301 83.2538 78.4771 83.2958 78.6125 83.3798C78.7478 83.4591 78.8668 83.5664 78.9695 83.7018C79.0721 83.8371 79.1515 83.9864 79.2075 84.1498C79.2681 84.3084 79.2985 84.4671 79.2985 84.6258C79.2985 84.9058 79.2495 85.1298 79.1515 85.2978C79.0535 85.4611 78.9275 85.5801 78.7735 85.6548C78.6241 85.7248 78.4678 85.7598 78.3045 85.7598C78.1598 85.7598 77.9731 85.7318 77.7445 85.6758C77.5205 85.6198 77.2358 85.4774 76.8905 85.2488L77.1635 84.8078C77.3921 84.9524 77.5975 85.0528 77.7795 85.1088C77.9661 85.1601 78.1201 85.1858 78.2415 85.1858C78.3768 85.1858 78.4841 85.1671 78.5635 85.1298C78.6428 85.0878 78.7011 85.0294 78.7385 84.9548C78.7758 84.8801 78.7945 84.7961 78.7945 84.7028C78.7945 84.5674 78.7618 84.4321 78.6965 84.2968C78.6311 84.1614 78.5471 84.0494 78.4445 83.9608C78.3465 83.8721 78.2415 83.8278 78.1295 83.8278C78.0455 83.8278 77.9638 83.8511 77.8845 83.8978C77.8051 83.9444 77.7235 84.0308 77.6395 84.1568C77.5555 84.2828 77.4598 84.4648 77.3525 84.7028C77.2405 84.9548 77.1331 85.1554 77.0305 85.3048C76.9325 85.4494 76.8321 85.5568 76.7295 85.6268C76.6268 85.6968 76.5195 85.7411 76.4075 85.7598C76.3001 85.7831 76.1788 85.7948 76.0435 85.7948ZM81.7582 85.7948C81.3849 85.7948 81.0979 85.7528 80.8972 85.6688C80.7012 85.5848 80.5659 85.4541 80.4912 85.2768C80.4165 85.0994 80.3745 84.8708 80.3652 84.5908L80.2252 80.7618H80.7992L80.9392 84.3668C80.9485 84.5954 80.9695 84.7728 81.0022 84.8988C81.0395 85.0201 81.1189 85.1041 81.2402 85.1508C81.3662 85.1974 81.5622 85.2208 81.8282 85.2208C81.9262 85.2208 81.9962 85.2488 82.0382 85.3048C82.0849 85.3561 82.1082 85.4191 82.1082 85.4938C82.1082 85.5684 82.0755 85.6384 82.0102 85.7038C81.9449 85.7644 81.8609 85.7948 81.7582 85.7948ZM81.7583 85.7948L81.8283 85.2208C82.1083 85.2208 82.372 85.1951 82.6193 85.1438C82.8666 85.0878 83.093 85.0154 83.2983 84.9268C83.5083 84.8334 83.688 84.7284 83.8373 84.6118C83.9866 84.4904 84.101 84.3668 84.1803 84.2408C84.2643 84.1101 84.3063 83.9818 84.3063 83.8558C84.3063 83.7951 84.2853 83.7344 84.2433 83.6738C84.2013 83.6084 84.129 83.5548 84.0263 83.5128C83.9283 83.4708 83.7953 83.4498 83.6273 83.4498C83.5246 83.4498 83.4103 83.4638 83.2843 83.4918C83.1583 83.5198 83.037 83.5594 82.9203 83.6108C82.8083 83.6574 82.715 83.7111 82.6403 83.7718C82.7663 83.8744 82.883 83.9748 82.9903 84.0728C83.1023 84.1708 83.2166 84.2781 83.3333 84.3948C83.45 84.5068 83.576 84.6351 83.7113 84.7798C83.8186 84.8591 83.9376 84.9268 84.0683 84.9828C84.2036 85.0388 84.3483 85.0854 84.5023 85.1228C84.661 85.1554 84.822 85.1811 84.9853 85.1998C85.1486 85.2138 85.312 85.2208 85.4753 85.2208C85.5733 85.2208 85.6433 85.2488 85.6853 85.3048C85.732 85.3561 85.7553 85.4191 85.7553 85.4938C85.7553 85.5684 85.7226 85.6384 85.6573 85.7038C85.592 85.7644 85.508 85.7948 85.4053 85.7948C85.1486 85.7948 84.885 85.7714 84.6143 85.7248C84.3483 85.6734 84.0986 85.5988 83.8653 85.5008C83.632 85.3981 83.4336 85.2698 83.2703 85.1158C83.191 85.0131 83.1023 84.9104 83.0043 84.8078C82.9063 84.7051 82.799 84.6024 82.6823 84.4998C82.5703 84.3924 82.449 84.2921 82.3183 84.1988C82.2903 84.1754 82.2623 84.1334 82.2343 84.0728C82.2063 84.0121 82.183 83.9491 82.1643 83.8838C82.1456 83.8184 82.1363 83.7694 82.1363 83.7368C82.1363 83.6668 82.1806 83.5828 82.2693 83.4848C82.358 83.3868 82.477 83.2934 82.6263 83.2048C82.7756 83.1114 82.946 83.0344 83.1373 82.9738C83.3286 82.9131 83.527 82.8828 83.7323 82.8828C83.9983 82.8828 84.213 82.9224 84.3763 83.0018C84.5443 83.0811 84.6656 83.1838 84.7403 83.3098C84.8196 83.4311 84.8593 83.5618 84.8593 83.7018C84.8593 83.9071 84.808 84.1124 84.7053 84.3178C84.6026 84.5184 84.4556 84.7074 84.2643 84.8848C84.073 85.0621 83.849 85.2208 83.5923 85.3608C83.3356 85.4961 83.051 85.6034 82.7383 85.6828C82.4303 85.7574 82.1036 85.7948 81.7583 85.7948ZM85.4087 85.7948L85.4717 85.2208C85.7377 85.2208 85.9244 85.1951 86.0317 85.1438C86.139 85.0924 86.1997 85.0014 86.2137 84.8708C86.2324 84.7401 86.237 84.5581 86.2277 84.3248L86.0947 80.7618H86.6617L86.8017 84.2618C86.811 84.5091 86.8017 84.7284 86.7737 84.9198C86.7504 85.1111 86.6897 85.2721 86.5917 85.4028C86.4984 85.5334 86.356 85.6314 86.1647 85.6968C85.978 85.7621 85.726 85.7948 85.4087 85.7948ZM87.8711 85.7598L87.7311 80.7618H88.2981L88.4381 85.7598H87.8711ZM93.9513 85.7948C93.6993 85.7948 93.4753 85.7598 93.2793 85.6898C93.088 85.6151 92.934 85.4914 92.8173 85.3188C92.7053 85.1414 92.6423 84.8964 92.6283 84.5838L92.5163 82.1478H93.0833L93.1953 84.4578C93.2093 84.6771 93.249 84.8428 93.3143 84.9548C93.3796 85.0621 93.4706 85.1344 93.5873 85.1718C93.7086 85.2044 93.8533 85.2208 94.0213 85.2208C94.1193 85.2208 94.1893 85.2488 94.2313 85.3048C94.278 85.3561 94.3013 85.4191 94.3013 85.4938C94.3013 85.5684 94.2686 85.6384 94.2033 85.7038C94.138 85.7644 94.054 85.7948 93.9513 85.7948ZM92.8943 85.0248C92.6283 85.1088 92.3693 85.1508 92.1173 85.1508C91.8653 85.1508 91.6366 85.1134 91.4313 85.0388C91.226 84.9641 91.0626 84.8568 90.9413 84.7168C90.82 84.5721 90.7593 84.3994 90.7593 84.1988C90.7593 84.0028 90.8083 83.8184 90.9063 83.6458C91.009 83.4731 91.1466 83.3191 91.3193 83.1838C91.4966 83.0484 91.6996 82.9364 91.9283 82.8478C92.1616 82.7544 92.409 82.6914 92.6703 82.6588L92.7683 83.2468C92.535 83.2561 92.3273 83.2888 92.1453 83.3448C91.968 83.3961 91.8163 83.4638 91.6903 83.5478C91.569 83.6318 91.4756 83.7228 91.4103 83.8208C91.345 83.9188 91.3123 84.0144 91.3123 84.1078C91.3123 84.2104 91.3496 84.2944 91.4243 84.3598C91.499 84.4251 91.5946 84.4764 91.7113 84.5138C91.828 84.5464 91.9563 84.5674 92.0963 84.5768C92.2363 84.5814 92.3716 84.5768 92.5023 84.5628C92.633 84.5441 92.745 84.5184 92.8383 84.4858L92.8943 85.0248ZM92.7473 81.3428C92.6493 81.3428 92.5653 81.3101 92.4953 81.2448C92.43 81.1748 92.3973 81.0931 92.3973 80.9998C92.3973 80.9064 92.43 80.8248 92.4953 80.7548C92.5653 80.6848 92.6493 80.6498 92.7473 80.6498C92.8406 80.6498 92.92 80.6848 92.9853 80.7548C93.0553 80.8248 93.0903 80.9064 93.0903 80.9998C93.0903 81.0931 93.0553 81.1748 92.9853 81.2448C92.92 81.3101 92.8406 81.3428 92.7473 81.3428ZM91.7883 81.3428C91.6903 81.3428 91.6063 81.3101 91.5363 81.2448C91.471 81.1748 91.4383 81.0931 91.4383 80.9998C91.4383 80.9064 91.471 80.8248 91.5363 80.7548C91.6063 80.6848 91.6903 80.6498 91.7883 80.6498C91.8816 80.6498 91.961 80.6848 92.0263 80.7548C92.0963 80.8248 92.1313 80.9064 92.1313 80.9998C92.1313 81.0931 92.0963 81.1748 92.0263 81.2448C91.961 81.3101 91.8816 81.3428 91.7883 81.3428ZM93.9536 85.7948L94.0236 85.2208H95.9136C96.0116 85.2208 96.0816 85.2488 96.1236 85.3048C96.1703 85.3561 96.1936 85.4191 96.1936 85.4938C96.1936 85.5684 96.1609 85.6384 96.0956 85.7038C96.0303 85.7644 95.9463 85.7948 95.8436 85.7948H93.9536ZM95.8403 85.7948L95.9103 85.2208H97.8003C97.8983 85.2208 97.9683 85.2488 98.0103 85.3048C98.057 85.3561 98.0803 85.4191 98.0803 85.4938C98.0803 85.5684 98.0477 85.6384 97.9823 85.7038C97.917 85.7644 97.833 85.7948 97.7303 85.7948H95.8403ZM97.7271 85.7948L97.7971 85.2208H99.6871C99.7851 85.2208 99.8551 85.2488 99.8971 85.3048C99.9437 85.3561 99.9671 85.4191 99.9671 85.4938C99.9671 85.5684 99.9344 85.6384 99.8691 85.7038C99.8037 85.7644 99.7197 85.7948 99.6171 85.7948H97.7271ZM99.6138 85.7948L99.6838 85.2208C99.8798 85.2208 100.034 85.2044 100.146 85.1718C100.258 85.1344 100.342 85.0668 100.398 84.9688C100.458 84.8661 100.51 84.7191 100.552 84.5278C100.594 84.3364 100.645 84.0868 100.706 83.7788L101.252 83.8838C101.233 83.9678 101.212 84.0611 101.189 84.1638C101.165 84.2664 101.144 84.3691 101.126 84.4718C101.112 84.5698 101.105 84.6561 101.105 84.7308C101.105 84.8241 101.126 84.9081 101.168 84.9828C101.21 85.0574 101.301 85.1158 101.441 85.1578C101.581 85.1998 101.795 85.2208 102.085 85.2208C102.183 85.2208 102.253 85.2488 102.295 85.3048C102.341 85.3561 102.365 85.4191 102.365 85.4938C102.365 85.5684 102.332 85.6384 102.267 85.7038C102.201 85.7644 102.117 85.7948 102.015 85.7948C101.711 85.7948 101.473 85.7691 101.301 85.7178C101.128 85.6618 101.002 85.5801 100.923 85.4728C100.843 85.3608 100.79 85.2254 100.762 85.0668L100.972 85.0808C100.897 85.2301 100.815 85.3514 100.727 85.4448C100.643 85.5381 100.549 85.6104 100.447 85.6618C100.344 85.7131 100.225 85.7481 100.09 85.7668C99.9544 85.7854 99.7958 85.7948 99.6138 85.7948ZM100.069 83.0088L99.9848 82.6308C100.106 82.6028 100.204 82.5794 100.279 82.5608C100.353 82.5421 100.437 82.5211 100.531 82.4978L100.496 82.6448C100.374 82.6074 100.258 82.5281 100.146 82.4068C100.038 82.2854 99.9848 82.1478 99.9848 81.9938C99.9848 81.8538 100.017 81.7371 100.083 81.6438C100.153 81.5458 100.241 81.4734 100.349 81.4268C100.461 81.3801 100.58 81.3568 100.706 81.3568C100.757 81.3568 100.811 81.3614 100.867 81.3708C100.927 81.3801 100.983 81.3941 101.035 81.4128L100.979 81.7628C100.932 81.7534 100.888 81.7441 100.846 81.7348C100.804 81.7254 100.757 81.7208 100.706 81.7208C100.598 81.7208 100.514 81.7441 100.454 81.7908C100.393 81.8328 100.363 81.8934 100.363 81.9728C100.363 82.0708 100.393 82.1548 100.454 82.2248C100.519 82.2948 100.591 82.3508 100.671 82.3928C100.755 82.4301 100.822 82.4488 100.874 82.4488L100.587 82.4768C100.713 82.4441 100.829 82.4114 100.937 82.3788C101.049 82.3414 101.149 82.3064 101.238 82.2738L101.35 82.6308C101.238 82.6728 101.105 82.7171 100.951 82.7638C100.801 82.8104 100.65 82.8548 100.496 82.8968C100.342 82.9388 100.199 82.9761 100.069 83.0088ZM102.013 85.7948L102.083 85.2208C102.317 85.2208 102.499 85.2044 102.629 85.1718C102.76 85.1344 102.858 85.0668 102.923 84.9688C102.993 84.8661 103.049 84.7191 103.091 84.5278C103.133 84.3364 103.185 84.0868 103.245 83.7788L103.791 83.8838C103.773 83.9678 103.752 84.0611 103.728 84.1638C103.705 84.2664 103.684 84.3691 103.665 84.4718C103.651 84.5698 103.644 84.6561 103.644 84.7308C103.644 84.8008 103.649 84.8661 103.658 84.9268C103.668 84.9874 103.703 85.0388 103.763 85.0808C103.824 85.1228 103.927 85.1578 104.071 85.1858C104.216 85.2091 104.424 85.2208 104.694 85.2208C104.792 85.2208 104.862 85.2488 104.904 85.3048C104.951 85.3561 104.974 85.4191 104.974 85.4938C104.974 85.5684 104.942 85.6384 104.876 85.7038C104.811 85.7644 104.727 85.7948 104.624 85.7948C104.34 85.7948 104.113 85.7808 103.945 85.7528C103.777 85.7201 103.649 85.6734 103.56 85.6128C103.476 85.5521 103.416 85.4774 103.378 85.3888C103.346 85.2954 103.32 85.1881 103.301 85.0668L103.511 85.0808C103.437 85.2301 103.355 85.3514 103.266 85.4448C103.182 85.5381 103.084 85.6104 102.972 85.6618C102.86 85.7131 102.725 85.7481 102.566 85.7668C102.412 85.7854 102.228 85.7948 102.013 85.7948ZM103.777 87.1178C103.679 87.1178 103.595 87.0828 103.525 87.0128C103.46 86.9474 103.427 86.8681 103.427 86.7748C103.427 86.6814 103.46 86.5998 103.525 86.5298C103.595 86.4598 103.679 86.4248 103.777 86.4248C103.871 86.4248 103.95 86.4598 104.015 86.5298C104.085 86.5998 104.12 86.6814 104.12 86.7748C104.12 86.8681 104.085 86.9474 104.015 87.0128C103.95 87.0828 103.871 87.1178 103.777 87.1178ZM102.818 87.1178C102.72 87.1178 102.636 87.0828 102.566 87.0128C102.501 86.9474 102.468 86.8681 102.468 86.7748C102.468 86.6814 102.501 86.5998 102.566 86.5298C102.636 86.4598 102.72 86.4248 102.818 86.4248C102.912 86.4248 102.991 86.4598 103.056 86.5298C103.126 86.5998 103.161 86.6814 103.161 86.7748C103.161 86.8681 103.126 86.9474 103.056 87.0128C102.991 87.0828 102.912 87.1178 102.818 87.1178ZM106.774 87.2788C106.48 87.2788 106.214 87.2111 105.976 87.0758C105.738 86.9404 105.549 86.7351 105.409 86.4598C105.269 86.1891 105.199 85.8484 105.199 85.4378C105.199 85.0598 105.243 84.7121 105.332 84.3948C105.42 84.0774 105.537 83.8044 105.682 83.5758C105.831 83.3424 105.994 83.1628 106.172 83.0368C106.349 82.9108 106.524 82.8478 106.697 82.8478C106.851 82.8478 106.988 82.8921 107.11 82.9808C107.231 83.0694 107.327 83.1931 107.397 83.3518C107.467 83.5104 107.502 83.6994 107.502 83.9188C107.502 84.1148 107.471 84.3108 107.411 84.5068C107.35 84.7028 107.236 84.8801 107.068 85.0388C106.904 85.1974 106.669 85.3188 106.361 85.4028L106.816 85.0178C106.965 85.0551 107.114 85.0901 107.264 85.1228C107.418 85.1508 107.574 85.1741 107.733 85.1928C107.896 85.2114 108.066 85.2208 108.244 85.2208C108.342 85.2208 108.412 85.2488 108.454 85.3048C108.5 85.3561 108.524 85.4191 108.524 85.4938C108.524 85.5684 108.491 85.6384 108.426 85.7038C108.36 85.7644 108.276 85.7948 108.174 85.7948C108.048 85.7948 107.912 85.7878 107.768 85.7738C107.623 85.7598 107.478 85.7434 107.334 85.7248C107.189 85.7014 107.051 85.6758 106.921 85.6478L107.53 85.6268C107.646 85.7528 107.726 85.8881 107.768 86.0328C107.814 86.1821 107.826 86.3291 107.803 86.4738C107.784 86.6231 107.73 86.7584 107.642 86.8798C107.558 87.0011 107.443 87.0968 107.299 87.1668C107.154 87.2414 106.979 87.2788 106.774 87.2788ZM104.625 85.7948L104.695 85.2208C104.793 85.2208 104.891 85.2208 104.989 85.2208C105.087 85.2208 105.18 85.2184 105.269 85.2138L105.297 85.7318C105.189 85.7504 105.077 85.7644 104.961 85.7738C104.849 85.7878 104.737 85.7948 104.625 85.7948ZM106.788 86.7048C106.872 86.7048 106.953 86.6884 107.033 86.6558C107.117 86.6278 107.184 86.5764 107.236 86.5018C107.292 86.4318 107.32 86.3361 107.32 86.2148C107.32 86.0981 107.289 85.9908 107.229 85.8928C107.173 85.7994 107.072 85.7224 106.928 85.6618C106.783 85.6011 106.578 85.5708 106.312 85.5708C106.256 85.5708 106.193 85.5754 106.123 85.5848C106.057 85.5894 105.99 85.5988 105.92 85.6128C105.85 85.6221 105.777 85.6361 105.703 85.6548V85.1788C105.88 85.1554 106.041 85.1204 106.186 85.0738C106.335 85.0224 106.466 84.9524 106.578 84.8638C106.69 84.7751 106.776 84.6584 106.837 84.5138C106.897 84.3691 106.928 84.1918 106.928 83.9818C106.928 83.9118 106.918 83.8324 106.9 83.7438C106.886 83.6551 106.858 83.5804 106.816 83.5198C106.774 83.4544 106.718 83.4218 106.648 83.4218C106.578 83.4218 106.491 83.4684 106.389 83.5618C106.291 83.6551 106.193 83.7858 106.095 83.9538C106.001 84.1218 105.922 84.3224 105.857 84.5558C105.796 84.7844 105.766 85.0364 105.766 85.3118C105.766 85.6151 105.798 85.8578 105.864 86.0398C105.934 86.2264 106.022 86.3664 106.13 86.4598C106.237 86.5578 106.349 86.6231 106.466 86.6558C106.582 86.6884 106.69 86.7048 106.788 86.7048ZM108.172 85.7948L108.235 85.2208C108.501 85.2208 108.688 85.1951 108.795 85.1438C108.903 85.0924 108.963 85.0014 108.977 84.8708C108.996 84.7401 109.001 84.5581 108.991 84.3248L108.858 80.7618H109.425L109.565 84.2618C109.575 84.5091 109.565 84.7284 109.537 84.9198C109.514 85.1111 109.453 85.2721 109.355 85.4028C109.262 85.5334 109.12 85.6314 108.928 85.6968C108.742 85.7621 108.49 85.7948 108.172 85.7948ZM110.635 85.7598L110.495 80.7618H111.062L111.202 85.7598H110.635Z" fill="black"/>
<path d="M19.0352 98.6346H19.0072C18.9652 98.8726 18.8322 99.0733 18.6082 99.2366C18.3889 99.3953 18.0949 99.4746 17.7262 99.4746C17.4369 99.4746 17.1685 99.421 16.9212 99.3136C16.6785 99.2063 16.4662 99.0476 16.2842 98.8376C16.1069 98.623 15.9669 98.3593 15.8642 98.0466C15.7615 97.734 15.7102 97.3723 15.7102 96.9616C15.7102 96.551 15.7615 96.1893 15.8642 95.8766C15.9715 95.5593 16.1209 95.2933 16.3122 95.0786C16.5035 94.864 16.7322 94.7006 16.9982 94.5886C17.2642 94.4766 17.5605 94.4206 17.8872 94.4206C18.3259 94.4206 18.6992 94.5163 19.0072 94.7076C19.3152 94.899 19.5579 95.1743 19.7352 95.5336L18.9862 95.9746C18.8975 95.7646 18.7645 95.5896 18.5872 95.4496C18.4145 95.3096 18.1812 95.2396 17.8872 95.2396C17.5232 95.2396 17.2315 95.3516 17.0122 95.5756C16.7975 95.795 16.6902 96.1216 16.6902 96.5556V97.3396C16.6902 97.769 16.7999 98.0956 17.0192 98.3196C17.2385 98.5436 17.5325 98.6556 17.9012 98.6556C18.0459 98.6556 18.1812 98.6393 18.3072 98.6066C18.4332 98.5693 18.5429 98.5156 18.6362 98.4456C18.7295 98.3756 18.8042 98.2893 18.8602 98.1866C18.9162 98.084 18.9442 97.9626 18.9442 97.8226V97.5076H17.9852V96.7306H19.8332V99.3906H19.0352V98.6346ZM22.3246 99.4746C22.0539 99.4746 21.8113 99.4303 21.5966 99.3416C21.3866 99.2483 21.2069 99.12 21.0576 98.9566C20.9129 98.7886 20.8009 98.588 20.7216 98.3546C20.6423 98.1166 20.6026 97.8506 20.6026 97.5566C20.6026 97.2673 20.6399 97.006 20.7146 96.7726C20.7939 96.5393 20.9059 96.341 21.0506 96.1776C21.1953 96.0096 21.3726 95.8813 21.5826 95.7926C21.7926 95.6993 22.0306 95.6526 22.2966 95.6526C22.5813 95.6526 22.8286 95.7016 23.0386 95.7996C23.2486 95.8976 23.4213 96.0306 23.5566 96.1986C23.6919 96.3666 23.7923 96.5626 23.8576 96.7866C23.9276 97.006 23.9626 97.2416 23.9626 97.4936V97.7876H21.5336V97.8786C21.5336 98.1446 21.6083 98.3593 21.7576 98.5226C21.9069 98.6813 22.1286 98.7606 22.4226 98.7606C22.6466 98.7606 22.8286 98.714 22.9686 98.6206C23.1133 98.5273 23.2416 98.4083 23.3536 98.2636L23.8366 98.8026C23.6873 99.0126 23.4819 99.1783 23.2206 99.2996C22.9639 99.4163 22.6653 99.4746 22.3246 99.4746ZM22.3106 96.3246C22.0726 96.3246 21.8836 96.404 21.7436 96.5626C21.6036 96.7213 21.5336 96.9266 21.5336 97.1786V97.2346H23.0316V97.1716C23.0316 96.9196 22.9686 96.7166 22.8426 96.5626C22.7213 96.404 22.5439 96.3246 22.3106 96.3246ZM24.7509 99.3906V95.7366H25.6469V96.3456H25.6819C25.7566 96.1496 25.8732 95.9863 26.0319 95.8556C26.1952 95.7203 26.4192 95.6526 26.7039 95.6526C27.0819 95.6526 27.3712 95.7763 27.5719 96.0236C27.7726 96.271 27.8729 96.6233 27.8729 97.0806V99.3906H26.9769V97.1716C26.9769 96.9103 26.9302 96.7143 26.8369 96.5836C26.7436 96.453 26.5896 96.3876 26.3749 96.3876C26.2816 96.3876 26.1906 96.4016 26.1019 96.4296C26.0179 96.453 25.9409 96.4903 25.8709 96.5416C25.8056 96.5883 25.7519 96.649 25.7099 96.7236C25.6679 96.7936 25.6469 96.8776 25.6469 96.9756V99.3906H24.7509ZM30.3431 99.4746C30.0725 99.4746 29.8298 99.4303 29.6151 99.3416C29.4051 99.2483 29.2255 99.12 29.0761 98.9566C28.9315 98.7886 28.8195 98.588 28.7401 98.3546C28.6608 98.1166 28.6211 97.8506 28.6211 97.5566C28.6211 97.2673 28.6585 97.006 28.7331 96.7726C28.8125 96.5393 28.9245 96.341 29.0691 96.1776C29.2138 96.0096 29.3911 95.8813 29.6011 95.7926C29.8111 95.6993 30.0491 95.6526 30.3151 95.6526C30.5998 95.6526 30.8471 95.7016 31.0571 95.7996C31.2671 95.8976 31.4398 96.0306 31.5751 96.1986C31.7105 96.3666 31.8108 96.5626 31.8761 96.7866C31.9461 97.006 31.9811 97.2416 31.9811 97.4936V97.7876H29.5521V97.8786C29.5521 98.1446 29.6268 98.3593 29.7761 98.5226C29.9255 98.6813 30.1471 98.7606 30.4411 98.7606C30.6651 98.7606 30.8471 98.714 30.9871 98.6206C31.1318 98.5273 31.2601 98.4083 31.3721 98.2636L31.8551 98.8026C31.7058 99.0126 31.5005 99.1783 31.2391 99.2996C30.9825 99.4163 30.6838 99.4746 30.3431 99.4746ZM30.3291 96.3246C30.0911 96.3246 29.9021 96.404 29.7621 96.5626C29.6221 96.7213 29.5521 96.9266 29.5521 97.1786V97.2346H31.0501V97.1716C31.0501 96.9196 30.9871 96.7166 30.8611 96.5626C30.7398 96.404 30.5625 96.3246 30.3291 96.3246ZM32.7695 99.3906V95.7366H33.6655V96.4926H33.7005C33.7238 96.3946 33.7588 96.3013 33.8055 96.2126C33.8568 96.1193 33.9221 96.0376 34.0015 95.9676C34.0808 95.8976 34.1741 95.8416 34.2815 95.7996C34.3935 95.7576 34.5218 95.7366 34.6665 95.7366H34.8625V96.5836H34.5825C34.2791 96.5836 34.0505 96.628 33.8965 96.7166C33.7425 96.8053 33.6655 96.95 33.6655 97.1506V99.3906H32.7695ZM38.1303 99.3906C37.9343 99.3906 37.778 99.3346 37.6613 99.2226C37.5493 99.106 37.4793 98.952 37.4513 98.7606H37.4093C37.3486 98.9986 37.225 99.1783 37.0383 99.2996C36.8516 99.4163 36.6206 99.4746 36.3453 99.4746C35.972 99.4746 35.685 99.3766 35.4843 99.1806C35.2836 98.9846 35.1833 98.7233 35.1833 98.3966C35.1833 98.0186 35.3186 97.7386 35.5893 97.5566C35.86 97.37 36.245 97.2766 36.7443 97.2766H37.3673V97.0106C37.3673 96.8053 37.3136 96.6466 37.2063 96.5346C37.099 96.4226 36.9263 96.3666 36.6883 96.3666C36.4783 96.3666 36.308 96.4133 36.1773 96.5066C36.0513 96.5953 35.944 96.7026 35.8553 96.8286L35.3233 96.3526C35.4586 96.1426 35.6383 95.9746 35.8623 95.8486C36.0863 95.718 36.3826 95.6526 36.7513 95.6526C37.246 95.6526 37.6216 95.7646 37.8783 95.9886C38.135 96.2126 38.2633 96.5346 38.2633 96.9546V98.6766H38.6273V99.3906H38.1303ZM36.6463 98.8236C36.847 98.8236 37.0173 98.7793 37.1573 98.6906C37.2973 98.602 37.3673 98.4713 37.3673 98.2986V97.8156H36.7933C36.3266 97.8156 36.0933 97.965 36.0933 98.2636V98.3826C36.0933 98.532 36.14 98.644 36.2333 98.7186C36.3313 98.7886 36.469 98.8236 36.6463 98.8236ZM40.2485 99.3906C39.9405 99.3906 39.7141 99.3136 39.5695 99.1596C39.4248 99.0056 39.3525 98.7886 39.3525 98.5086V94.2106H40.2485V98.6766H40.7315V99.3906H40.2485ZM46.1444 99.3906L45.7524 98.1446H44.0164L43.6314 99.3906H42.6934L44.3314 94.5046H45.4794L47.1034 99.3906H46.1444ZM44.8984 95.3446H44.8634L44.2404 97.3536H45.5284L44.8984 95.3446ZM49.9515 98.7816H49.9165C49.8838 98.875 49.8395 98.9636 49.7835 99.0476C49.7322 99.127 49.6645 99.1993 49.5805 99.2646C49.5012 99.33 49.4032 99.3813 49.2865 99.4186C49.1745 99.456 49.0438 99.4746 48.8945 99.4746C48.5165 99.4746 48.2272 99.351 48.0265 99.1036C47.8258 98.8563 47.7255 98.504 47.7255 98.0466V95.7366H48.6215V97.9556C48.6215 98.2076 48.6705 98.4013 48.7685 98.5366C48.8665 98.6673 49.0228 98.7326 49.2375 98.7326C49.3262 98.7326 49.4125 98.721 49.4965 98.6976C49.5852 98.6743 49.6622 98.6393 49.7275 98.5926C49.7928 98.5413 49.8465 98.4806 49.8885 98.4106C49.9305 98.336 49.9515 98.2496 49.9515 98.1516V95.7366H50.8475V99.3906H49.9515V98.7816ZM53.0237 99.3906C52.7157 99.3906 52.4801 99.3113 52.3167 99.1526C52.1581 98.9893 52.0787 98.7583 52.0787 98.4596V96.4506H51.5397V95.7366H51.8197C51.9551 95.7366 52.0461 95.7063 52.0927 95.6456C52.1441 95.5803 52.1697 95.4846 52.1697 95.3586V94.7356H52.9747V95.7366H53.7237V96.4506H52.9747V98.6766H53.6677V99.3906H53.0237ZM54.5009 94.2106H55.3969V96.3456H55.4319C55.5066 96.1496 55.6232 95.9863 55.7819 95.8556C55.9452 95.7203 56.1692 95.6526 56.4539 95.6526C56.8319 95.6526 57.1212 95.7763 57.3219 96.0236C57.5226 96.271 57.6229 96.6233 57.6229 97.0806V99.3906H56.7269V97.1716C56.7269 96.9103 56.6802 96.7143 56.5869 96.5836C56.4936 96.453 56.3396 96.3876 56.1249 96.3876C56.0316 96.3876 55.9406 96.4016 55.8519 96.4296C55.7679 96.453 55.6909 96.4903 55.6209 96.5416C55.5556 96.5883 55.5019 96.649 55.4599 96.7236C55.4179 96.7936 55.3969 96.8776 55.3969 96.9756V99.3906H54.5009V94.2106ZM60.0651 99.4746C59.8038 99.4746 59.5681 99.4303 59.3581 99.3416C59.1528 99.253 58.9755 99.1246 58.8261 98.9566C58.6815 98.7886 58.5695 98.588 58.4901 98.3546C58.4108 98.1166 58.3711 97.8506 58.3711 97.5566C58.3711 97.2626 58.4108 96.999 58.4901 96.7656C58.5695 96.5323 58.6815 96.334 58.8261 96.1706C58.9755 96.0026 59.1528 95.8743 59.3581 95.7856C59.5681 95.697 59.8038 95.6526 60.0651 95.6526C60.3265 95.6526 60.5621 95.697 60.7721 95.7856C60.9821 95.8743 61.1595 96.0026 61.3041 96.1706C61.4535 96.334 61.5678 96.5323 61.6471 96.7656C61.7265 96.999 61.7661 97.2626 61.7661 97.5566C61.7661 97.8506 61.7265 98.1166 61.6471 98.3546C61.5678 98.588 61.4535 98.7886 61.3041 98.9566C61.1595 99.1246 60.9821 99.253 60.7721 99.3416C60.5621 99.4303 60.3265 99.4746 60.0651 99.4746ZM60.0651 98.7536C60.3031 98.7536 60.4898 98.6813 60.6251 98.5366C60.7605 98.392 60.8281 98.1796 60.8281 97.8996V97.2206C60.8281 96.9453 60.7605 96.7353 60.6251 96.5906C60.4898 96.446 60.3031 96.3736 60.0651 96.3736C59.8318 96.3736 59.6475 96.446 59.5121 96.5906C59.3768 96.7353 59.3091 96.9453 59.3091 97.2206V97.8996C59.3091 98.1796 59.3768 98.392 59.5121 98.5366C59.6475 98.6813 59.8318 98.7536 60.0651 98.7536ZM62.5605 99.3906V95.7366H63.4565V96.4926H63.4915C63.5148 96.3946 63.5498 96.3013 63.5965 96.2126C63.6478 96.1193 63.7131 96.0376 63.7925 95.9676C63.8718 95.8976 63.9651 95.8416 64.0725 95.7996C64.1845 95.7576 64.3128 95.7366 64.4575 95.7366H64.6535V96.5836H64.3735C64.0701 96.5836 63.8415 96.628 63.6875 96.7166C63.5335 96.8053 63.4565 96.95 63.4565 97.1506V99.3906H62.5605ZM65.7565 95.2046C65.5699 95.2046 65.4345 95.1626 65.3505 95.0786C65.2712 94.9946 65.2315 94.8873 65.2315 94.7566V94.6166C65.2315 94.486 65.2712 94.3786 65.3505 94.2946C65.4345 94.2106 65.5699 94.1686 65.7565 94.1686C65.9385 94.1686 66.0715 94.2106 66.1555 94.2946C66.2395 94.3786 66.2815 94.486 66.2815 94.6166V94.7566C66.2815 94.8873 66.2395 94.9946 66.1555 95.0786C66.0715 95.1626 65.9385 95.2046 65.7565 95.2046ZM65.3085 95.7366H66.2045V99.3906H65.3085V95.7366ZM68.3841 99.3906C68.0761 99.3906 67.8404 99.3113 67.6771 99.1526C67.5184 98.9893 67.4391 98.7583 67.4391 98.4596V96.4506H66.9001V95.7366H67.1801C67.3154 95.7366 67.4064 95.7063 67.4531 95.6456C67.5044 95.5803 67.5301 95.4846 67.5301 95.3586V94.7356H68.3351V95.7366H69.0841V96.4506H68.3351V98.6766H69.0281V99.3906H68.3841ZM72.1013 95.7366H72.9413L71.4713 100.042C71.4246 100.172 71.3709 100.284 71.3103 100.378C71.2543 100.476 71.1866 100.555 71.1073 100.616C71.0279 100.676 70.9323 100.721 70.8203 100.749C70.7083 100.777 70.5776 100.791 70.4283 100.791H69.8893V100.077H70.5473L70.7153 99.5656L69.4063 95.7366H70.2953L70.9323 97.6686L71.1703 98.5926H71.2123L71.4643 97.6686L72.1013 95.7366ZM76.6355 99.4746C76.3741 99.4746 76.1385 99.4303 75.9285 99.3416C75.7231 99.253 75.5458 99.1246 75.3965 98.9566C75.2518 98.7886 75.1398 98.588 75.0605 98.3546C74.9811 98.1166 74.9415 97.8506 74.9415 97.5566C74.9415 97.2626 74.9811 96.999 75.0605 96.7656C75.1398 96.5323 75.2518 96.334 75.3965 96.1706C75.5458 96.0026 75.7231 95.8743 75.9285 95.7856C76.1385 95.697 76.3741 95.6526 76.6355 95.6526C76.8968 95.6526 77.1325 95.697 77.3425 95.7856C77.5525 95.8743 77.7298 96.0026 77.8745 96.1706C78.0238 96.334 78.1381 96.5323 78.2175 96.7656C78.2968 96.999 78.3365 97.2626 78.3365 97.5566C78.3365 97.8506 78.2968 98.1166 78.2175 98.3546C78.1381 98.588 78.0238 98.7886 77.8745 98.9566C77.7298 99.1246 77.5525 99.253 77.3425 99.3416C77.1325 99.4303 76.8968 99.4746 76.6355 99.4746ZM76.6355 98.7536C76.8735 98.7536 77.0601 98.6813 77.1955 98.5366C77.3308 98.392 77.3985 98.1796 77.3985 97.8996V97.2206C77.3985 96.9453 77.3308 96.7353 77.1955 96.5906C77.0601 96.446 76.8735 96.3736 76.6355 96.3736C76.4021 96.3736 76.2178 96.446 76.0825 96.5906C75.9471 96.7353 75.8795 96.9453 75.8795 97.2206V97.8996C75.8795 98.1796 75.9471 98.392 76.0825 98.5366C76.2178 98.6813 76.4021 98.7536 76.6355 98.7536ZM79.2718 96.4436H78.7328V95.7366H79.2718V95.2116C79.2718 94.8896 79.3558 94.6423 79.5238 94.4696C79.6964 94.297 79.9484 94.2106 80.2798 94.2106H80.9168V94.9246H80.1678V95.7366H80.9168V96.4436H80.1678V99.3906H79.2718V96.4436ZM85.1443 99.4746C84.8223 99.4746 84.5307 99.4233 84.2693 99.3206C84.0127 99.2133 83.791 99.0546 83.6043 98.8446C83.4223 98.6346 83.2823 98.3756 83.1843 98.0676C83.0863 97.755 83.0373 97.3933 83.0373 96.9826C83.0373 96.572 83.0863 96.208 83.1843 95.8906C83.2823 95.5686 83.4223 95.3003 83.6043 95.0856C83.791 94.8663 84.0127 94.7006 84.2693 94.5886C84.5307 94.4766 84.8223 94.4206 85.1443 94.4206C85.583 94.4206 85.947 94.514 86.2363 94.7006C86.5257 94.8873 86.7567 95.1696 86.9293 95.5476L86.1383 95.9676C86.0683 95.7483 85.954 95.5733 85.7953 95.4426C85.6367 95.3073 85.4197 95.2396 85.1443 95.2396C84.799 95.2396 84.5237 95.3563 84.3183 95.5896C84.1177 95.823 84.0173 96.1496 84.0173 96.5696V97.3396C84.0173 97.7643 84.1177 98.091 84.3183 98.3196C84.5237 98.5436 84.799 98.6556 85.1443 98.6556C85.4197 98.6556 85.6437 98.581 85.8163 98.4316C85.9937 98.2823 86.122 98.098 86.2013 97.8786L86.9503 98.3196C86.773 98.6836 86.5373 98.9683 86.2433 99.1736C85.9493 99.3743 85.583 99.4746 85.1443 99.4746ZM88.1306 95.2046C87.9439 95.2046 87.8086 95.1626 87.7246 95.0786C87.6452 94.9946 87.6056 94.8873 87.6056 94.7566V94.6166C87.6056 94.486 87.6452 94.3786 87.7246 94.2946C87.8086 94.2106 87.9439 94.1686 88.1306 94.1686C88.3126 94.1686 88.4456 94.2106 88.5296 94.2946C88.6136 94.3786 88.6556 94.486 88.6556 94.6166V94.7566C88.6556 94.8873 88.6136 94.9946 88.5296 95.0786C88.4456 95.1626 88.3126 95.2046 88.1306 95.2046ZM87.6826 95.7366H88.5786V99.3906H87.6826V95.7366ZM90.4011 99.3906L89.1831 95.7366H90.0651L90.5761 97.3116L90.9331 98.6136H90.9821L91.3391 97.3116L91.8361 95.7366H92.6901L91.4651 99.3906H90.4011ZM93.736 95.2046C93.5494 95.2046 93.414 95.1626 93.33 95.0786C93.2507 94.9946 93.211 94.8873 93.211 94.7566V94.6166C93.211 94.486 93.2507 94.3786 93.33 94.2946C93.414 94.2106 93.5494 94.1686 93.736 94.1686C93.918 94.1686 94.051 94.2106 94.135 94.2946C94.219 94.3786 94.261 94.486 94.261 94.6166V94.7566C94.261 94.8873 94.219 94.9946 94.135 95.0786C94.051 95.1626 93.918 95.2046 93.736 95.2046ZM93.288 95.7366H94.184V99.3906H93.288V95.7366ZM96.1186 99.3906C95.8106 99.3906 95.5843 99.3136 95.4396 99.1596C95.2949 99.0056 95.2226 98.7886 95.2226 98.5086V94.2106H96.1186V98.6766H96.6016V99.3906H96.1186ZM102.015 99.3906L101.623 98.1446H99.8865L99.5015 99.3906H98.5635L100.202 94.5046H101.35L102.974 99.3906H102.015ZM100.769 95.3446H100.734L100.111 97.3536H101.399L100.769 95.3446ZM104.23 99.3906L103.012 95.7366H103.894L104.405 97.3116L104.762 98.6136H104.811L105.168 97.3116L105.665 95.7366H106.519L105.294 99.3906H104.23ZM107.565 95.2046C107.378 95.2046 107.243 95.1626 107.159 95.0786C107.08 94.9946 107.04 94.8873 107.04 94.7566V94.6166C107.04 94.486 107.08 94.3786 107.159 94.2946C107.243 94.2106 107.378 94.1686 107.565 94.1686C107.747 94.1686 107.88 94.2106 107.964 94.2946C108.048 94.3786 108.09 94.486 108.09 94.6166V94.7566C108.09 94.8873 108.048 94.9946 107.964 95.0786C107.88 95.1626 107.747 95.2046 107.565 95.2046ZM107.117 95.7366H108.013V99.3906H107.117V95.7366ZM111.74 99.3906C111.544 99.3906 111.387 99.3346 111.271 99.2226C111.159 99.106 111.089 98.952 111.061 98.7606H111.019C110.958 98.9986 110.834 99.1783 110.648 99.2996C110.461 99.4163 110.23 99.4746 109.955 99.4746C109.581 99.4746 109.294 99.3766 109.094 99.1806C108.893 98.9846 108.793 98.7233 108.793 98.3966C108.793 98.0186 108.928 97.7386 109.199 97.5566C109.469 97.37 109.854 97.2766 110.354 97.2766H110.977V97.0106C110.977 96.8053 110.923 96.6466 110.816 96.5346C110.708 96.4226 110.536 96.3666 110.298 96.3666C110.088 96.3666 109.917 96.4133 109.787 96.5066C109.661 96.5953 109.553 96.7026 109.465 96.8286L108.933 96.3526C109.068 96.1426 109.248 95.9746 109.472 95.8486C109.696 95.718 109.992 95.6526 110.361 95.6526C110.855 95.6526 111.231 95.7646 111.488 95.9886C111.744 96.2126 111.873 96.5346 111.873 96.9546V98.6766H112.237V99.3906H111.74ZM110.256 98.8236C110.456 98.8236 110.627 98.7793 110.767 98.6906C110.907 98.602 110.977 98.4713 110.977 98.2986V97.8156H110.403C109.936 97.8156 109.703 97.965 109.703 98.2636V98.3826C109.703 98.532 109.749 98.644 109.843 98.7186C109.941 98.7886 110.078 98.8236 110.256 98.8236ZM114.076 99.3906C113.768 99.3906 113.532 99.3113 113.369 99.1526C113.21 98.9893 113.131 98.7583 113.131 98.4596V96.4506H112.592V95.7366H112.872C113.007 95.7366 113.098 95.7063 113.145 95.6456C113.196 95.5803 113.222 95.4846 113.222 95.3586V94.7356H114.027V95.7366H114.776V96.4506H114.027V98.6766H114.72V99.3906H114.076ZM116.001 95.2046C115.814 95.2046 115.679 95.1626 115.595 95.0786C115.515 94.9946 115.476 94.8873 115.476 94.7566V94.6166C115.476 94.486 115.515 94.3786 115.595 94.2946C115.679 94.2106 115.814 94.1686 116.001 94.1686C116.183 94.1686 116.316 94.2106 116.4 94.2946C116.484 94.3786 116.526 94.486 116.526 94.6166V94.7566C116.526 94.8873 116.484 94.9946 116.4 95.0786C116.316 95.1626 116.183 95.2046 116.001 95.2046ZM115.553 95.7366H116.449V99.3906H115.553V95.7366ZM118.936 99.4746C118.675 99.4746 118.439 99.4303 118.229 99.3416C118.024 99.253 117.847 99.1246 117.697 98.9566C117.553 98.7886 117.441 98.588 117.361 98.3546C117.282 98.1166 117.242 97.8506 117.242 97.5566C117.242 97.2626 117.282 96.999 117.361 96.7656C117.441 96.5323 117.553 96.334 117.697 96.1706C117.847 96.0026 118.024 95.8743 118.229 95.7856C118.439 95.697 118.675 95.6526 118.936 95.6526C119.198 95.6526 119.433 95.697 119.643 95.7856C119.853 95.8743 120.031 96.0026 120.175 96.1706C120.325 96.334 120.439 96.5323 120.518 96.7656C120.598 96.999 120.637 97.2626 120.637 97.5566C120.637 97.8506 120.598 98.1166 120.518 98.3546C120.439 98.588 120.325 98.7886 120.175 98.9566C120.031 99.1246 119.853 99.253 119.643 99.3416C119.433 99.4303 119.198 99.4746 118.936 99.4746ZM118.936 98.7536C119.174 98.7536 119.361 98.6813 119.496 98.5366C119.632 98.392 119.699 98.1796 119.699 97.8996V97.2206C119.699 96.9453 119.632 96.7353 119.496 96.5906C119.361 96.446 119.174 96.3736 118.936 96.3736C118.703 96.3736 118.519 96.446 118.383 96.5906C118.248 96.7353 118.18 96.9453 118.18 97.2206V97.8996C118.18 98.1796 118.248 98.392 118.383 98.5366C118.519 98.6813 118.703 98.7536 118.936 98.7536ZM121.432 99.3906V95.7366H122.328V96.3456H122.363C122.437 96.1496 122.554 95.9863 122.713 95.8556C122.876 95.7203 123.1 95.6526 123.385 95.6526C123.763 95.6526 124.052 95.7763 124.253 96.0236C124.453 96.271 124.554 96.6233 124.554 97.0806V99.3906H123.658V97.1716C123.658 96.9103 123.611 96.7143 123.518 96.5836C123.424 96.453 123.27 96.3876 123.056 96.3876C122.962 96.3876 122.871 96.4016 122.783 96.4296C122.699 96.453 122.622 96.4903 122.552 96.5416C122.486 96.5883 122.433 96.649 122.391 96.7236C122.349 96.7936 122.328 96.8776 122.328 96.9756V99.3906H121.432Z" fill="black"/>
<path d="M107.893 45.9037C108.749 45.9037 109.443 45.21 109.443 44.3542C109.443 43.4984 108.749 42.8047 107.893 42.8047C107.037 42.8047 106.344 43.4984 106.344 44.3542C106.344 45.21 107.037 45.9037 107.893 45.9037Z" stroke="#284476" stroke-width="0.25" stroke-linecap="round" stroke-linejoin="round"/>
<path d="M107.39 45.6934H107.138V43.5994H107.972C108.156 43.5994 108.299 43.6504 108.401 43.7524C108.505 43.8544 108.557 44.0014 108.557 44.1934C108.557 44.3474 108.521 44.4744 108.449 44.5744C108.379 44.6724 108.275 44.7374 108.137 44.7694L108.617 45.6934H108.332L107.879 44.7934H107.39V45.6934ZM107.972 44.5774C108.072 44.5774 108.149 44.5514 108.203 44.4994C108.259 44.4474 108.287 44.3734 108.287 44.2774V44.1214C108.287 44.0254 108.259 43.9514 108.203 43.8994C108.149 43.8474 108.072 43.8214 107.972 43.8214H107.39V44.5774H107.972Z" fill="#284476"/>
</svg>
