<svg width="13" height="12" viewBox="0 0 13 12" fill="none" xmlns="http://www.w3.org/2000/svg">
<path d="M3.15128 5.193C4.11769 7.08251 5.65477 8.61959 7.54428 9.586L9.01128 8.119C9.0985 8.03168 9.20836 7.97044 9.3285 7.94218C9.44864 7.91391 9.57428 7.91974 9.69128 7.959C10.4594 8.21145 11.2628 8.33973 12.0713 8.339C12.248 8.33953 12.4174 8.40997 12.5423 8.53494C12.6673 8.65991 12.7378 8.82926 12.7383 9.006V11.333C12.7378 11.5097 12.6673 11.6791 12.5423 11.8041C12.4174 11.929 12.248 11.9995 12.0713 12C10.583 12.0001 9.10922 11.7071 7.73417 11.1376C6.35913 10.5681 5.10974 9.73333 4.05735 8.68093C3.00495 7.62854 2.17018 6.37915 1.60069 5.00411C1.0312 3.62906 0.73815 2.15531 0.738281 0.667C0.738809 0.490263 0.809251 0.320915 0.934224 0.195943C1.0592 0.0709701 1.22854 0.000527577 1.40528 0H3.73828C3.91502 0.000527577 4.08437 0.0709701 4.20934 0.195943C4.33431 0.320915 4.40475 0.490263 4.40528 0.667C4.4041 1.47553 4.53239 2.27903 4.78528 3.047C4.82298 3.16471 4.82733 3.29056 4.79785 3.41059C4.76837 3.53062 4.70622 3.64014 4.61828 3.727L3.15128 5.193Z" fill="white"/>
</svg>
