<svg width="13" height="10" viewBox="0 0 13 10" fill="none" xmlns="http://www.w3.org/2000/svg">
<path d="M11.5383 0H1.93828C1.62106 0.00158611 1.31738 0.128714 1.09363 0.353586C0.869882 0.578458 0.744277 0.882777 0.744281 1.2L0.738281 8.4C0.738281 8.71826 0.864709 9.02349 1.08975 9.24853C1.3148 9.47357 1.62002 9.6 1.93828 9.6H11.5383C11.8565 9.6 12.1618 9.47357 12.3868 9.24853C12.6119 9.02349 12.7383 8.71826 12.7383 8.4V1.2C12.7383 0.88174 12.6119 0.576516 12.3868 0.351472C12.1618 0.126428 11.8565 0 11.5383 0ZM11.5383 2.4L6.73828 5.4L1.93828 2.4V1.2L6.73828 4.2L11.5383 1.2V2.4Z" fill="white"/>
</svg>
