<svg width="25" height="24" viewBox="0 0 25 24" fill="none" xmlns="http://www.w3.org/2000/svg">
<path d="M17.0954 20.768L4.02845 3.968C3.95958 3.87931 3.91698 3.77307 3.90549 3.66137C3.89401 3.54967 3.9141 3.43698 3.96348 3.33613C4.01286 3.23528 4.08955 3.15032 4.18483 3.09089C4.28011 3.03147 4.39016 2.99998 4.50245 3H6.98245C7.07375 3.00014 7.16381 3.0211 7.24577 3.06131C7.32774 3.10151 7.39945 3.15989 7.45545 3.232L20.5224 20.032C20.5913 20.1207 20.6339 20.2269 20.6454 20.3386C20.6569 20.4503 20.6368 20.563 20.5874 20.6639C20.538 20.7647 20.4613 20.8497 20.3661 20.9091C20.2708 20.9685 20.1607 21 20.0485 21H17.5684C17.4772 20.9999 17.3871 20.9789 17.3051 20.9387C17.2232 20.8985 17.1514 20.8401 17.0954 20.768Z" stroke="white" stroke-width="1.5"/>
<path d="M20.2773 3L4.27734 21" stroke="white" stroke-width="1.5" stroke-linecap="round"/>
</svg>
