<svg width="25" height="24" viewBox="0 0 25 24" fill="none" xmlns="http://www.w3.org/2000/svg">
<path d="M10.2773 15L15.4673 12L10.2773 9V15ZM21.8373 7.17C21.9673 7.64 22.0573 8.27 22.1173 9.07C22.1873 9.87 22.2173 10.56 22.2173 11.16L22.2773 12C22.2773 14.19 22.1173 15.8 21.8373 16.83C21.5873 17.73 21.0073 18.31 20.1073 18.56C19.6373 18.69 18.7773 18.78 17.4573 18.84C16.1573 18.91 14.9673 18.94 13.8673 18.94L12.2773 19C8.08734 19 5.47734 18.84 4.44734 18.56C3.54734 18.31 2.96734 17.73 2.71734 16.83C2.58734 16.36 2.49734 15.73 2.43734 14.93C2.36734 14.13 2.33734 13.44 2.33734 12.84L2.27734 12C2.27734 9.81 2.43734 8.2 2.71734 7.17C2.96734 6.27 3.54734 5.69 4.44734 5.44C4.91734 5.31 5.77734 5.22 7.09734 5.16C8.39734 5.09 9.58734 5.06 10.6873 5.06L12.2773 5C16.4673 5 19.0773 5.16 20.1073 5.44C21.0073 5.69 21.5873 6.27 21.8373 7.17Z" fill="white"/>
</svg>
