<svg width="25" height="24" viewBox="0 0 25 24" fill="none" xmlns="http://www.w3.org/2000/svg">
<path d="M15.5158 12C15.5158 10.2 14.0758 8.76003 12.2758 8.76003C10.4758 8.76003 9.03578 10.2 9.03578 12C9.03578 13.8 10.4758 15.24 12.2758 15.24C14.0758 15.24 15.5158 13.8 15.5158 12ZM17.1958 12C17.1958 14.76 15.0358 16.92 12.2758 16.92C9.51578 16.92 7.35578 14.76 7.35578 12C7.35578 9.24002 9.51578 7.08002 12.2758 7.08002C15.0358 7.08002 17.1958 9.24002 17.1958 12ZM18.5158 6.84002C18.5158 7.56002 18.0358 8.04002 17.3158 8.04002C16.5958 8.04002 16.1158 7.56002 16.1158 6.84002C16.1158 6.12002 16.5958 5.64002 17.3158 5.64002C18.0358 5.64002 18.5158 6.24002 18.5158 6.84002ZM12.2758 4.08002C10.8358 4.08002 7.83578 3.96002 6.63578 4.44002C5.79578 4.80002 5.07578 5.52002 4.83578 6.36002C4.35578 7.56002 4.47578 10.56 4.47578 12C4.47578 13.44 4.35578 16.44 4.83578 17.64C5.07578 18.48 5.79578 19.2 6.63578 19.44C7.83578 19.92 10.9558 19.8 12.2758 19.8C13.5958 19.8 16.7158 19.92 17.9158 19.44C18.7558 19.08 19.3558 18.48 19.7158 17.64C20.1958 16.32 20.0758 13.32 20.0758 12C20.0758 10.68 20.1958 7.56002 19.7158 6.36002C19.4758 5.52002 18.7558 4.80002 17.9158 4.56002C16.7158 3.96002 13.7158 4.08002 12.2758 4.08002ZM21.8758 12V15.96C21.8758 17.4 21.3958 18.84 20.3158 20.04C19.2358 21.12 17.7958 21.6 16.2358 21.6H8.31578C6.87578 21.6 5.43578 21.12 4.23578 20.04C3.27578 18.96 2.67578 17.52 2.67578 15.96V8.04002C2.67578 6.48002 3.27578 5.04002 4.23578 3.96002C5.43578 3.00002 6.87578 2.40002 8.31578 2.40002H16.2358C17.6758 2.40002 19.1158 2.88002 20.3158 3.96002C21.2758 5.04002 21.8758 6.48002 21.8758 8.04002V12Z" fill="white"/>
</svg>
