<svg width="25" height="25" viewBox="0 0 25 25" fill="none" xmlns="http://www.w3.org/2000/svg">
<g filter="url(#filter0_d_978_10468)">
<path d="M12.492 3.76505e-06C10.8112 0.00158569 9.1686 0.501446 7.77184 1.4364C6.37507 2.37135 5.28685 3.69942 4.64473 5.25273C4.00262 6.80604 3.83543 8.51486 4.16431 10.1632C4.49318 11.8115 5.30336 13.3253 6.49242 14.5132C7.68149 15.7012 9.19606 16.5099 10.8447 16.8373C12.4933 17.1646 14.202 16.9958 15.7547 16.3522C17.3074 15.7086 18.6344 14.6192 19.568 13.2215C20.5017 11.8239 21 10.1808 21 8.5C21 7.38309 20.7799 6.27714 20.3522 5.24535C19.9246 4.21356 19.2977 3.27617 18.5076 2.48677C17.7174 1.69736 16.7795 1.07142 15.7473 0.64473C14.7151 0.218036 13.6089 -0.00104744 12.492 3.76505e-06ZM18.383 5.1H15.875C15.6084 4.04714 15.2138 3.03091 14.7 2.074C16.2511 2.60745 17.5582 3.68166 18.382 5.1H18.383ZM12.5 1.734C13.2142 2.76409 13.7622 3.89992 14.124 5.1H10.877C11.2385 3.89998 11.7862 2.76415 12.5 1.734ZM5.921 10.2C5.62634 9.08582 5.62634 7.91418 5.921 6.8H8.794C8.71995 7.36374 8.68021 7.93145 8.675 8.5C8.68021 9.06856 8.71995 9.63627 8.794 10.2H5.921ZM6.621 11.9H9.126C9.39233 12.9528 9.7866 13.9691 10.3 14.926C8.74732 14.3954 7.43933 13.3205 6.618 11.9H6.621ZM9.126 5.1H6.618C7.43933 3.67953 8.74732 2.60458 10.3 2.074C9.7866 3.03096 9.39233 4.04719 9.126 5.1ZM12.5 15.266C11.7862 14.2359 11.2385 13.1 10.877 11.9H14.124C13.7622 13.1001 13.2142 14.2359 12.5 15.266ZM14.489 10.2H10.511C10.427 9.63709 10.3816 9.06911 10.375 8.5C10.3813 7.93089 10.4267 7.36288 10.511 6.8H14.489C14.5733 7.36288 14.6187 7.93089 14.625 8.5C14.6184 9.06911 14.573 9.63709 14.489 10.2ZM14.701 14.926C15.2144 13.9691 15.6087 12.9528 15.875 11.9H18.383C17.5589 13.3185 16.2515 14.3928 14.7 14.926H14.701ZM16.201 10.2C16.2751 9.63627 16.3148 9.06856 16.32 8.5C16.3148 7.93145 16.2751 7.36374 16.201 6.8H19.074C19.3687 7.91418 19.3687 9.08582 19.074 10.2H16.201Z" fill="white"/>
</g>
<defs>
<filter id="filter0_d_978_10468" x="0" y="0" width="25" height="25" filterUnits="userSpaceOnUse" color-interpolation-filters="sRGB">
<feFlood flood-opacity="0" result="BackgroundImageFix"/>
<feColorMatrix in="SourceAlpha" type="matrix" values="0 0 0 0 0 0 0 0 0 0 0 0 0 0 0 0 0 0 127 0" result="hardAlpha"/>
<feOffset dy="4"/>
<feGaussianBlur stdDeviation="2"/>
<feComposite in2="hardAlpha" operator="out"/>
<feColorMatrix type="matrix" values="0 0 0 0 0 0 0 0 0 0 0 0 0 0 0 0 0 0 0.25 0"/>
<feBlend mode="normal" in2="BackgroundImageFix" result="effect1_dropShadow_978_10468"/>
<feBlend mode="normal" in="SourceGraphic" in2="effect1_dropShadow_978_10468" result="shape"/>
</filter>
</defs>
</svg>
