<svg width="414" height="110" viewBox="0 0 414 110" fill="none" xmlns="http://www.w3.org/2000/svg">
<path d="M45.553 9.47264C31.2395 33.7895 16.7876 58.2908 2.54325 82.4002C-4.60199 94.4779 4.11059 109.736 18.1475 109.736H395.624C409.499 109.736 418.212 94.8006 411.412 82.7229L370.316 9.77228C367.112 4.07913 361.073 0.552612 354.527 0.552612H61.1803C54.7496 0.552612 48.826 3.94084 45.576 9.47264H45.553Z" fill="url(#paint0_linear_688_9476)"/>
<path d="M204.024 79.3948C200.909 79.3948 197.816 78.9895 194.744 78.1788C191.672 77.3255 189.069 76.1308 186.936 74.5948L190.968 66.6588C192.675 67.8962 194.659 68.8775 196.92 69.6028C199.181 70.3282 201.464 70.6908 203.768 70.6908C206.371 70.6908 208.419 70.1788 209.912 69.1548C211.405 68.1308 212.152 66.7228 212.152 64.9308C212.152 63.2242 211.491 61.8802 210.168 60.8988C208.845 59.9175 206.712 59.4268 203.768 59.4268H199.032V52.5788L211.512 38.4348L212.664 42.1468H189.176V33.8268H220.536V40.5468L208.12 54.6908L202.872 51.6828H205.88C211.384 51.6828 215.544 52.9202 218.36 55.3948C221.176 57.8695 222.584 61.0482 222.584 64.9308C222.584 67.4482 221.923 69.8162 220.6 72.0348C219.277 74.2108 217.251 75.9815 214.52 77.3468C211.789 78.7122 208.291 79.3948 204.024 79.3948Z" fill="white"/>
<defs>
<linearGradient id="paint0_linear_688_9476" x1="-117.693" y1="-15.3807" x2="-14.267" y2="262.977" gradientUnits="userSpaceOnUse">
<stop stop-color="#1C7A54"/>
<stop offset="1" stop-color="#63C69A"/>
</linearGradient>
</defs>
</svg>
