<svg width="279" height="109" viewBox="0 0 279 109" fill="none" xmlns="http://www.w3.org/2000/svg">
<path d="M45.468 9.07499C32.1225 32.032 17.9473 56.2797 3.35719 81.1036C-3.74195 93.1814 4.97063 108.417 18.9845 108.417H260.125C274 108.417 282.713 93.481 275.914 81.4033L235.301 9.30548C232.074 3.61234 226.058 0.0858154 219.512 0.0858154H61.1184C54.6646 0.0858154 48.6949 3.52014 45.468 9.07499Z" fill="url(#paint0_linear_688_9479)"/>
<path d="M123.112 77.6268V70.9068L140.392 54.5868C141.757 53.3495 142.76 52.2402 143.4 51.2588C144.04 50.2775 144.467 49.3815 144.68 48.5708C144.936 47.7602 145.064 47.0135 145.064 46.3308C145.064 44.5388 144.445 43.1735 143.208 42.2348C142.013 41.2535 140.243 40.7628 137.896 40.7628C136.019 40.7628 134.269 41.1255 132.648 41.8508C131.069 42.5762 129.725 43.7068 128.616 45.2428L121.064 40.3788C122.771 37.8188 125.16 35.7922 128.232 34.2988C131.304 32.8055 134.845 32.0588 138.856 32.0588C142.184 32.0588 145.085 32.6135 147.56 33.7228C150.077 34.7895 152.019 36.3042 153.384 38.2668C154.792 40.2295 155.496 42.5762 155.496 45.3068C155.496 46.7575 155.304 48.2082 154.92 49.6588C154.579 51.0668 153.853 52.5602 152.744 54.1388C151.677 55.7175 150.099 57.4882 148.008 59.4508L133.672 72.9548L131.688 69.1788H156.968V77.6268H123.112Z" fill="white"/>
<defs>
<linearGradient id="paint0_linear_688_9479" x1="-78.0761" y1="-15.7231" x2="54.6233" y2="225.628" gradientUnits="userSpaceOnUse">
<stop stop-color="#1C7A54"/>
<stop offset="1" stop-color="#63C69A"/>
</linearGradient>
</defs>
</svg>
