<svg width="550" height="110" viewBox="0 0 550 110" fill="none" xmlns="http://www.w3.org/2000/svg">
<path d="M546.657 82.1877L505.56 9.23712C502.356 3.54398 496.317 0.0174561 489.771 0.0174561H62.2787C55.871 0.0174561 49.9474 3.40568 46.6744 8.91443C31.5772 34.4068 16.9871 58.9542 3.41112 81.842C-3.75717 93.9197 4.93236 109.224 18.9923 109.224H530.868C544.744 109.224 553.456 94.2885 546.657 82.2108V82.1877Z" fill="url(#paint0_linear_688_9473)"/>
<path d="M253.984 68.2188V61.2428L275.104 32.8268H285.984L265.312 61.2428L260.256 59.7708H295.52V68.2188H253.984ZM278.112 77.6268V68.2188L278.432 59.7708V51.3868H288.224V77.6268H278.112Z" fill="white"/>
<defs>
<linearGradient id="paint0_linear_688_9473" x1="-155.065" y1="-15.9193" x2="-72.6643" y2="277.819" gradientUnits="userSpaceOnUse">
<stop stop-color="#1C7A54"/>
<stop offset="1" stop-color="#63C69A"/>
</linearGradient>
</defs>
</svg>
