<svg width="684" height="111" viewBox="0 0 684 111" fill="none" xmlns="http://www.w3.org/2000/svg">
<path d="M46.6372 9.33318C28.4283 39.8964 13.2159 65.4348 2.59023 83.2057C-4.62416 95.2835 4.08842 110.611 18.1484 110.611H665.853C679.729 110.611 688.441 95.6753 681.642 83.5976L640.015 9.70196C636.811 4.00882 630.772 0.4823 624.226 0.4823H62.2184C55.8338 0.4823 49.9102 3.87053 46.6372 9.35623V9.33318Z" fill="url(#paint0_linear_688_9470)"/>
<path d="M339.728 86.3948C336.613 86.3948 333.52 85.9895 330.448 85.1788C327.419 84.3255 324.816 83.1308 322.64 81.5948L326.736 73.6588C328.443 74.8962 330.405 75.8775 332.624 76.6028C334.885 77.3282 337.168 77.6908 339.472 77.6908C342.075 77.6908 344.123 77.1788 345.616 76.1548C347.109 75.1308 347.856 73.7015 347.856 71.8668C347.856 70.7148 347.557 69.6908 346.96 68.7948C346.363 67.8988 345.296 67.2162 343.76 66.7468C342.267 66.2775 340.155 66.0428 337.424 66.0428H325.968L328.272 40.8268H355.6V49.1468H331.984L337.36 44.4108L335.76 62.3948L330.384 57.6588H339.856C344.293 57.6588 347.856 58.2775 350.544 59.5148C353.275 60.7095 355.259 62.3522 356.496 64.4428C357.733 66.5335 358.352 68.9015 358.352 71.5468C358.352 74.1922 357.691 76.6455 356.368 78.9068C355.045 81.1255 352.997 82.9388 350.224 84.3468C347.493 85.7122 343.995 86.3948 339.728 86.3948Z" fill="white"/>
<defs>
<linearGradient id="paint0_linear_688_9470" x1="-194.54" y1="-15.589" x2="-125.64" y2="288.318" gradientUnits="userSpaceOnUse">
<stop stop-color="#1C7A54"/>
<stop offset="1" stop-color="#63C69A"/>
</linearGradient>
</defs>
</svg>
