<svg width="136" height="47" viewBox="0 0 136 47" fill="none" xmlns="http://www.w3.org/2000/svg">
  <path d="M133.769 5.00531C134.994 5.00531 135.999 4.02438 135.999 2.78976C135.999 1.52132 134.994 0.574219 133.769 0.574219C132.543 0.574219 131.539 1.53823 131.539 2.78976C131.539 4.00747 132.543 5.00531 133.769 5.00531ZM133.769 0.997033C134.756 0.997033 135.539 1.7581 135.539 2.77285C135.539 3.77069 134.756 4.56558 133.769 4.56558C132.765 4.56558 131.982 3.77069 131.982 2.77285C131.982 1.77501 132.765 0.997033 133.769 0.997033Z" fill="white"/>
  <path d="M133.328 3.94198V3.0287H133.89L134.349 3.94198H134.826L134.315 2.94414C134.553 2.82575 134.724 2.6228 134.724 2.28455C134.724 1.81099 134.383 1.57422 133.992 1.57422H133.26C133.021 1.57422 132.902 1.69261 132.902 1.89556V3.92506H133.328V3.94198ZM133.345 1.9463H133.958C134.145 1.9463 134.281 2.06468 134.281 2.28455C134.281 2.50441 134.128 2.63971 133.924 2.63971H133.328L133.345 1.9463Z" fill="white"/>
  <path d="M49.7695 4.95671C54.4504 4.95671 55.0291 9.74296 55.0291 9.74296L60.595 8.4407C60.561 8.3054 59.5908 0.0351562 49.7695 0.0351562C43.6929 0.0351562 38.0078 3.72209 38.0078 13.1424C38.0078 22.495 43.9823 26.0805 50.178 26.0805C54.3993 26.0805 57.361 24.6768 58.3993 24.1017C59.744 23.3237 60.4929 22.5627 60.4929 20.956V15.1888C60.4929 13.6836 59.4887 12.7703 57.8546 12.7703H50.2291V17.0323H55.0121V20.3471C55.0121 20.3471 53.327 21.4803 50.3653 21.4803C47.2333 21.4803 43.9653 19.603 43.9653 13.1424C43.9653 6.834 46.8078 4.95671 49.7695 4.95671Z" fill="white"/>
  <path d="M74.5181 0C72.1862 0 70.7735 0.997841 70.0926 3.04426L62.5352 25.7578H68.5096C68.9352 25.7578 69.4288 25.5041 69.7181 25.2166L76.9181 18.1472C77.0713 17.995 77.0203 17.9273 76.8501 17.9273H75.8798C75.4713 17.9273 75.0969 18.0288 74.7394 18.2317L69.9054 20.9885L74.5011 5.56423C74.5011 5.56423 79.9649 24.2357 80.4075 25.7409H86.5522L79.0969 2.99352C78.4671 1.09932 76.8841 0 74.5181 0Z" fill="white"/>
  <path d="M99.2344 4.88906C103.915 4.88906 104.528 10.0136 104.528 10.0136L110.094 8.8466C110.094 8.8466 109.26 0.0351562 99.2344 0.0351562C93.1578 0.0351562 87.4727 3.62062 87.4727 13.0409C87.4727 22.3936 93.1067 26.1143 99.2003 26.1143C109.022 26.1143 110.094 17.5058 110.094 17.5058L104.528 16.305C104.528 16.305 104.085 21.2604 99.3024 21.2604C96.3407 21.2604 93.4641 19.3831 93.4641 13.024C93.4471 6.73253 96.2727 4.88906 99.2344 4.88906Z" fill="white"/>
  <path d="M123.488 0C121.156 0 119.744 0.997841 119.046 3.04426L111.488 25.7578H117.463C117.888 25.7578 118.382 25.5041 118.671 25.2166L125.871 18.1472C126.024 17.995 125.973 17.9273 125.803 17.9273H124.833C124.424 17.9273 124.033 18.0288 123.693 18.2317L118.858 20.9885L123.454 5.56423C123.454 5.56423 128.918 24.2357 129.361 25.7409H135.522L128.067 2.99352C127.437 1.09932 125.871 0 123.488 0Z" fill="white"/>
  <path d="M36.1362 25.8257C36.2213 25.8257 36.2894 25.7412 36.2894 25.6397C36.2894 25.5551 36.2553 25.4875 36.2043 25.4537C33.1915 24.4727 30.8426 21.9359 30.3149 18.1982L28.9021 8.20285C28.2383 3.5519 24.8 0.38925 20.783 0.304688H0.153191C0.0680851 0.304688 0 0.372338 0 0.456901C0 0.541463 0.0340425 0.626026 0.0851064 0.626026C3.09787 1.60695 5.44681 4.16075 5.97447 7.91534L7.38723 17.9107C8.05106 22.5447 11.4894 25.7243 15.5064 25.8257H36.1362Z" fill="#005149"/>
  <path d="M23.6771 17.1484H22.741C22.6388 17.1484 22.4516 17.1654 22.3495 17.2161L11.0814 21.4781C10.9963 21.5119 10.9963 21.5457 11.0984 21.5457H14.775C15.2175 21.5457 15.5069 21.5457 15.9665 21.3089L23.6941 17.233C23.7793 17.1823 23.7793 17.1484 23.6771 17.1484Z" fill="white"/>
  <path d="M15.9821 17.1508L18.229 18.0303L17.0545 18.47L14.6204 17.1847C14.5353 17.1339 14.5353 17.1001 14.6375 17.1001H15.5736C15.7098 17.0832 15.88 17.1001 15.9821 17.1508Z" fill="white"/>
  <path d="M27.3365 21.5475H23.6599C23.2173 21.5475 22.9279 21.5475 22.4684 21.3107L19.9492 19.9915L21.396 19.2305L27.3365 21.4798C27.4386 21.5137 27.4386 21.5475 27.3365 21.5475Z" fill="white"/>
  <path d="M19.2172 16.5759C18.8087 16.5759 18.4172 13.3625 18.3321 9.23582C18.1279 9.28656 17.9066 9.35421 17.7364 9.40495C16.5449 9.79394 15.013 10.4535 14.0768 11.0116C14.0598 11.0286 14.0258 11.0286 14.0087 10.9947C14.0087 10.9778 13.9917 10.9778 13.9917 10.9609C13.9407 10.5212 14.0087 10.0984 14.3492 9.76011C14.6896 9.42186 15.1321 9.13435 15.5407 8.86375C16.0513 8.54241 16.5789 8.23798 17.1407 7.98429C17.2938 7.91664 17.4641 7.83208 17.6172 7.76443C16.6811 7.22323 15.5407 6.7835 14.7236 6.5129C14.7066 6.5129 14.6896 6.47907 14.6896 6.46216C14.6896 6.44525 14.6896 6.44525 14.7066 6.44525C14.9619 6.19156 15.2683 6.02244 15.6428 6.05626C15.9662 6.09009 16.2896 6.17465 16.613 6.2423C16.9704 6.32686 17.3109 6.42834 17.6683 6.54672C17.8726 6.61437 18.0598 6.68203 18.2641 6.74968C18.2981 6.76659 18.3321 6.76659 18.3662 6.7835C18.4853 5.66727 18.8258 4.85547 19.2343 4.85547C19.6428 4.85547 19.9832 5.66727 20.1024 6.7835C20.1364 6.76659 20.1704 6.74968 20.2045 6.74968C20.3917 6.68203 20.596 6.59746 20.8002 6.54672C21.1407 6.42834 21.4981 6.34377 21.8555 6.2423C22.1789 6.15774 22.5024 6.07317 22.8258 6.05626C23.2002 6.02244 23.5066 6.19156 23.7619 6.44525L23.7789 6.46216C23.7789 6.47907 23.7789 6.5129 23.7449 6.5129C22.9279 6.7835 21.7875 7.22323 20.8513 7.76443C21.0045 7.83208 21.1747 7.89973 21.3279 7.98429C21.8896 8.23798 22.4172 8.54241 22.9279 8.86375C23.3364 9.11743 23.7619 9.42186 24.1194 9.76011C24.4598 10.0814 24.5279 10.5043 24.4768 10.9609C24.4768 10.9778 24.4768 10.9778 24.4598 10.9947C24.4428 11.0116 24.4087 11.0286 24.3917 11.0116C23.4555 10.4535 21.9236 9.79394 20.7321 9.40495C20.5789 9.35421 20.3577 9.28656 20.1364 9.23582C20.0172 13.3625 19.6258 16.5759 19.2172 16.5759Z" fill="white"/>
  <path d="M38.8242 43.2635C38.8242 41.8091 39.5902 40.8281 40.7817 40.8281C41.5646 40.8281 42.0242 41.2848 42.2966 41.826L41.6497 42.1135C41.4795 41.7752 41.1902 41.5046 40.7817 41.5046C40.1008 41.5046 39.6412 42.1811 39.6412 43.2466C39.6412 44.3121 40.1008 44.9886 40.7817 44.9886C41.1391 44.9886 41.4285 44.8195 41.5817 44.6504V43.8047H40.5774V43.1282H42.3306V44.9886C41.9561 45.4283 41.4455 45.7159 40.7817 45.7159C39.6072 45.7159 38.8242 44.718 38.8242 43.2635Z" fill="white"/>
  <path d="M43.0625 43.906C43.0625 42.9251 43.6242 42.1133 44.5434 42.1133C45.4795 42.1133 45.9902 42.8913 45.9902 43.9229V44.1259H43.7944C43.8285 44.684 44.1348 45.1068 44.6965 45.1068C44.9689 45.1068 45.2753 44.9715 45.4795 44.7347L45.8199 45.1575C45.5306 45.4958 45.088 45.6818 44.6285 45.6818C43.6753 45.6987 43.0625 44.9715 43.0625 43.906ZM44.5434 42.6883C43.9987 42.6883 43.8114 43.2295 43.7774 43.6354H45.2923C45.2923 43.2126 45.1051 42.6883 44.5434 42.6883Z" fill="white"/>
  <path d="M48.6994 45.6116V43.2946C48.6994 42.8887 48.5121 42.7534 48.2057 42.7534C47.8994 42.7534 47.627 42.9902 47.5079 43.2269V45.6285H46.793V42.2291H47.5079V42.6857C47.6951 42.4151 48.0866 42.1445 48.5121 42.1445C49.1419 42.1445 49.4142 42.4828 49.4142 43.0747V45.6454H48.6994V45.6116Z" fill="white"/>
  <path d="M50.2305 43.906C50.2305 42.9251 50.7922 42.1133 51.7113 42.1133C52.6475 42.1133 53.1581 42.8913 53.1581 43.9229V44.1259H50.9624C50.9964 44.684 51.3028 45.1068 51.8645 45.1068C52.1369 45.1068 52.4432 44.9715 52.6475 44.7347L52.9879 45.1575C52.6986 45.4958 52.256 45.6818 51.7964 45.6818C50.8262 45.6987 50.2305 44.9715 50.2305 43.906ZM51.7113 42.6883C51.1666 42.6883 50.9794 43.2295 50.9454 43.6354H52.4603C52.4603 43.2126 52.256 42.6883 51.7113 42.6883Z" fill="white"/>
  <path d="M53.9414 45.6116V42.2122H54.6563V42.7196C54.8606 42.3982 55.218 42.1445 55.6095 42.1445V42.8379C55.5584 42.821 55.4903 42.821 55.4223 42.821C55.1329 42.821 54.7925 43.0409 54.6563 43.2946V45.6285L53.9414 45.6116Z" fill="white"/>
  <path d="M58.0956 45.6116V45.2734C57.8913 45.5609 57.5339 45.6962 57.1764 45.6962C56.6147 45.6962 56.1211 45.2903 56.1211 44.563C56.1211 43.8358 56.6147 43.4637 57.1764 43.4637C57.5339 43.4637 57.8913 43.599 58.0956 43.8696V43.3791C58.0956 42.9732 57.8573 42.7365 57.4147 42.7365C57.1083 42.7365 56.819 42.8549 56.5466 43.1255L56.2743 42.635C56.6317 42.2967 57.0913 42.1445 57.5339 42.1445C58.2658 42.1445 58.7934 42.4828 58.7934 43.3115V45.6454H58.0956V45.6116ZM58.0956 44.8336V44.3263C57.9594 44.0895 57.7041 43.9542 57.4488 43.9542C57.0743 43.9542 56.853 44.2248 56.853 44.5799C56.853 44.952 57.0743 45.2226 57.4488 45.2226C57.687 45.2057 57.9594 45.0704 58.0956 44.8336Z" fill="white"/>
  <path d="M60.4922 40.9102H59.7773V45.6119H60.4922V40.9102Z" fill="white"/>
  <path d="M65.6869 45.6119L65.4315 44.6817H63.8656L63.6103 45.6119H62.7422L64.172 40.9102H65.1252L66.555 45.6119H65.6869ZM64.6486 41.7389L64.0188 43.9882H65.2613L64.6486 41.7389Z" fill="white"/>
  <path d="M69.004 45.6143V45.1576C68.8168 45.4451 68.4423 45.6988 67.9998 45.6988C67.387 45.6988 67.0977 45.3775 67.0977 44.7855V42.2148H67.8125V44.5488C67.8125 44.9378 67.9998 45.09 68.3062 45.09C68.6125 45.09 68.8679 44.8701 69.004 44.6333V42.2318H69.7189V45.6312L69.004 45.6143Z" fill="white"/>
  <path d="M70.8424 44.8537V42.8242H70.3828V42.2153H70.8424V41.2852H71.5573V42.2153H72.136V42.8242H71.5573V44.7015C71.5573 44.9383 71.6424 45.0736 71.8296 45.0736C71.9488 45.0736 72.0509 45.0228 72.102 44.9552L72.2722 45.4795C72.136 45.5979 71.9488 45.6824 71.6424 45.6824C71.0977 45.6993 70.8424 45.4118 70.8424 44.8537Z" fill="white"/>
  <path d="M74.8101 45.6119V43.2779C74.8101 42.8889 74.6229 42.7367 74.2995 42.7367C73.9931 42.7367 73.7378 42.9735 73.6016 43.2103V45.6119H72.8867V40.9102H73.6016V42.6691C73.7888 42.3985 74.1803 42.1279 74.6059 42.1279C75.2186 42.1279 75.508 42.4492 75.508 43.0411V45.6119H74.8101Z" fill="white"/>
  <path d="M76.3242 43.906C76.3242 42.942 76.8349 42.1133 77.8221 42.1133C78.8093 42.1133 79.32 42.942 79.32 43.906C79.32 44.87 78.8093 45.6987 77.8221 45.6987C76.8519 45.6987 76.3242 44.87 76.3242 43.906ZM78.5881 43.906C78.5881 43.2972 78.3498 42.739 77.8221 42.739C77.2944 42.739 77.0561 43.2802 77.0561 43.906C77.0561 44.5149 77.2944 45.073 77.8221 45.073C78.3498 45.073 78.5881 44.5318 78.5881 43.906Z" fill="white"/>
  <path d="M80.1367 45.6116V42.2122H80.8516V42.7196C81.0559 42.3982 81.4133 42.1445 81.8048 42.1445V42.8379C81.7537 42.821 81.6857 42.821 81.6176 42.821C81.3282 42.821 80.9878 43.0409 80.8516 43.2946V45.6285L80.1367 45.6116Z" fill="white"/>
  <path d="M82.3984 41.3343C82.3984 41.0806 82.6027 40.8945 82.858 40.8945C83.0963 40.8945 83.3006 41.0975 83.3006 41.3343C83.3006 41.571 83.0963 41.774 82.858 41.774C82.6027 41.774 82.3984 41.5879 82.3984 41.3343ZM82.4835 42.2137H83.1984V45.6131H82.4835V42.2137Z" fill="white"/>
  <path d="M84.3215 44.8537V42.8242H83.8789V42.2153H84.3385V41.2852H85.0534V42.2153H85.6321V42.8242H85.0534V44.7015C85.0534 44.9383 85.1385 45.0736 85.3257 45.0736C85.4449 45.0736 85.547 45.0228 85.5981 44.9552L85.7683 45.4795C85.6321 45.5979 85.4449 45.6824 85.1385 45.6824C84.5768 45.6993 84.3215 45.4118 84.3215 44.8537Z" fill="white"/>
  <path d="M86.3499 46.3246C86.418 46.3584 86.5201 46.3753 86.5712 46.3753C86.7584 46.3753 86.8946 46.3077 86.9627 46.0878L87.0989 45.6819L85.9414 42.2148H86.7074L87.4733 44.7686L88.2563 42.2148H89.0223L87.6606 46.2569C87.4733 46.832 87.1329 47.0011 86.6393 47.0011C86.5372 47.0011 86.3499 46.9842 86.2478 46.9504L86.3499 46.3246Z" fill="white"/>
  <path d="M91.082 43.906C91.082 42.942 91.5927 42.1133 92.5799 42.1133C93.5671 42.1133 94.0778 42.942 94.0778 43.906C94.0778 44.87 93.5671 45.6987 92.5799 45.6987C91.6097 45.6987 91.082 44.87 91.082 43.906ZM93.3459 43.906C93.3459 43.2972 93.1076 42.739 92.5799 42.739C92.0523 42.739 91.814 43.2802 91.814 43.906C91.814 44.5149 92.0523 45.073 92.5799 45.073C93.1076 45.073 93.3459 44.5318 93.3459 43.906Z" fill="white"/>
  <path d="M95.048 45.6131V42.8225H94.6055V42.2137H95.048V41.8923C95.048 41.2327 95.4225 40.8438 96.0182 40.8438C96.2736 40.8438 96.5289 40.9114 96.7161 41.0805L96.4778 41.571C96.3757 41.4864 96.2906 41.4357 96.1544 41.4357C95.8991 41.4357 95.7629 41.6048 95.7629 41.8923V42.2137H96.3416V42.8225H95.7629V45.6131H95.048Z" fill="white"/>
  <path d="M98.5352 43.2635C98.5352 41.8429 99.2841 40.8281 100.493 40.8281C101.327 40.8281 101.752 41.3355 102.007 41.8598L101.344 42.1473C101.173 41.7752 100.884 41.5215 100.493 41.5215C99.7947 41.5215 99.3522 42.2488 99.3522 43.2635C99.3522 44.2614 99.7947 45.0055 100.493 45.0055C100.901 45.0055 101.207 44.7011 101.344 44.3121L102.007 44.5996C101.769 45.1408 101.327 45.6989 100.493 45.6989C99.2841 45.6989 98.5352 44.6842 98.5352 43.2635Z" fill="white"/>
  <path d="M102.637 41.3343C102.637 41.0806 102.841 40.8945 103.096 40.8945C103.335 40.8945 103.539 41.0975 103.539 41.3343C103.539 41.571 103.335 41.774 103.096 41.774C102.841 41.774 102.637 41.5879 102.637 41.3343ZM102.739 42.2137H103.454V45.6131H102.739V42.2137Z" fill="white"/>
  <path d="M105.176 45.6143L104.035 42.2148H104.801L105.567 44.7855L106.333 42.2148H107.099L105.942 45.6143H105.176Z" fill="white"/>
  <path d="M107.574 41.3343C107.574 41.0806 107.778 40.8945 108.034 40.8945C108.272 40.8945 108.476 41.0975 108.476 41.3343C108.476 41.571 108.272 41.774 108.034 41.774C107.778 41.774 107.574 41.5879 107.574 41.3343ZM107.659 42.2137H108.374V45.6131H107.659V42.2137Z" fill="white"/>
  <path d="M110.094 40.9102H109.379V45.6119H110.094V40.9102Z" fill="white"/>
  <path d="M115.287 45.6119L115.032 44.6817H113.466L113.21 45.6119H112.359L113.789 40.9102H114.742L116.172 45.6119H115.287ZM114.232 41.7389L113.602 43.9882H114.844L114.232 41.7389Z" fill="white"/>
  <path d="M117.344 45.6143L116.203 42.2148H116.969L117.735 44.7855L118.501 42.2148H119.267L118.127 45.6143H117.344Z" fill="white"/>
  <path d="M119.746 41.3343C119.746 41.0806 119.95 40.8945 120.206 40.8945C120.444 40.8945 120.648 41.0975 120.648 41.3343C120.648 41.571 120.444 41.774 120.206 41.774C119.967 41.774 119.746 41.5879 119.746 41.3343ZM119.848 42.2137H120.563V45.6131H119.848V42.2137Z" fill="white"/>
  <path d="M123.338 45.6116V45.2734C123.133 45.5609 122.776 45.6962 122.419 45.6962C121.857 45.6962 121.363 45.2903 121.363 44.563C121.363 43.8358 121.874 43.4637 122.419 43.4637C122.776 43.4637 123.133 43.599 123.338 43.8696V43.3791C123.338 42.9732 123.099 42.7365 122.657 42.7365C122.351 42.7365 122.061 42.8549 121.789 43.1255L121.516 42.635C121.874 42.2967 122.333 42.1445 122.793 42.1445C123.525 42.1445 124.053 42.4828 124.053 43.3115V45.6454H123.338V45.6116ZM123.338 44.8336V44.3263C123.202 44.0895 122.946 43.9542 122.691 43.9542C122.316 43.9542 122.095 44.2248 122.095 44.5799C122.095 44.952 122.316 45.2226 122.691 45.2226C122.946 45.2057 123.202 45.0704 123.338 44.8336Z" fill="white"/>
  <path d="M125.173 44.8537V42.8242H124.73V42.2153H125.173V41.2852H125.888V42.2153H126.467V42.8242H125.888V44.7015C125.888 44.9383 125.973 45.0736 126.16 45.0736C126.279 45.0736 126.382 45.0228 126.433 44.9552L126.603 45.4795C126.467 45.5979 126.279 45.6824 125.973 45.6824C125.428 45.6993 125.173 45.4118 125.173 44.8537Z" fill="white"/>
  <path d="M127.113 41.3343C127.113 41.0806 127.318 40.8945 127.556 40.8945C127.794 40.8945 127.998 41.0975 127.998 41.3343C127.998 41.571 127.794 41.774 127.556 41.774C127.335 41.774 127.113 41.5879 127.113 41.3343ZM127.215 42.2137H127.93V45.6131H127.215V42.2137Z" fill="white"/>
  <path d="M128.75 43.906C128.75 42.942 129.261 42.1133 130.248 42.1133C131.235 42.1133 131.746 42.942 131.746 43.906C131.746 44.87 131.235 45.6987 130.248 45.6987C129.261 45.6987 128.75 44.87 128.75 43.906ZM130.997 43.906C130.997 43.2972 130.759 42.739 130.231 42.739C129.703 42.739 129.465 43.2802 129.465 43.906C129.465 44.5149 129.703 45.073 130.231 45.073C130.776 45.073 130.997 44.5318 130.997 43.906Z" fill="white"/>
  <path d="M134.469 45.6116V43.2946C134.469 42.8887 134.282 42.7534 133.975 42.7534C133.669 42.7534 133.397 42.9902 133.277 43.2269V45.6285H132.562V42.2291H133.277V42.6857C133.465 42.4151 133.856 42.1445 134.282 42.1445C134.911 42.1445 135.184 42.4828 135.184 43.0747V45.6454H134.469V45.6116Z" fill="white"/>
  <path d="M89.7185 32.5566C89.9568 32.5566 90.144 32.3705 90.144 32.1338C90.144 31.897 89.9568 31.7109 89.7185 31.7109C89.4802 31.7109 89.293 31.897 89.293 32.1338C89.293 32.3705 89.4802 32.5566 89.7185 32.5566Z" fill="white"/>
  <path d="M91.0818 32.5566C91.3201 32.5566 91.5073 32.3705 91.5073 32.1338C91.5073 31.897 91.3201 31.7109 91.0818 31.7109C90.8435 31.7109 90.6562 31.897 90.6562 32.1338C90.6562 32.3705 90.8435 32.5566 91.0818 32.5566Z" fill="white"/>
  <path d="M114.078 32.5566C114.316 32.5566 114.503 32.3705 114.503 32.1338C114.503 31.897 114.316 31.7109 114.078 31.7109C113.84 31.7109 113.652 31.897 113.652 32.1338C113.652 32.3705 113.84 32.5566 114.078 32.5566Z" fill="white"/>
  <path d="M115.437 32.5566C115.676 32.5566 115.863 32.3705 115.863 32.1338C115.863 31.897 115.676 31.7109 115.437 31.7109C115.199 31.7109 115.012 31.897 115.012 32.1338C115.012 32.3705 115.216 32.5566 115.437 32.5566Z" fill="white"/>
  <path d="M123.813 33.57L123.745 33.0288C123.439 33.0796 122.758 33.2825 122.69 32.8259C122.656 32.5891 122.826 32.3523 123.065 32.3016C123.252 32.2678 123.456 32.3354 123.626 32.4031L123.796 31.8788C123.405 31.7604 122.979 31.7097 122.639 31.9634C122.265 32.217 122.128 32.7582 122.367 33.1472C122.026 33.1641 121.754 33.1641 121.754 33.1641V33.57C122.162 33.587 122.554 33.6039 122.962 33.6039C123.031 33.6039 123.524 33.587 123.813 33.57Z" fill="white"/>
  <path d="M72.7146 37.9336C72.4763 37.9336 72.2891 38.1196 72.2891 38.3564C72.2891 38.5932 72.4763 38.7792 72.7146 38.7792C72.9529 38.7792 73.1401 38.5932 73.1401 38.3564C73.1401 38.1365 72.9529 37.9336 72.7146 37.9336Z" fill="white"/>
  <path d="M74.0779 37.9336C73.8396 37.9336 73.6523 38.1196 73.6523 38.3564C73.6523 38.5932 73.8396 38.7792 74.0779 38.7792C74.3162 38.7792 74.5034 38.5932 74.5034 38.3564C74.5034 38.1365 74.3162 37.9336 74.0779 37.9336Z" fill="white"/>
  <path d="M124.527 37.9336C124.289 37.9336 124.102 38.1196 124.102 38.3564C124.102 38.5932 124.289 38.7792 124.527 38.7792C124.765 38.7792 124.953 38.5932 124.953 38.3564C124.953 38.1365 124.765 37.9336 124.527 37.9336Z" fill="white"/>
  <path d="M125.89 37.9336C125.652 37.9336 125.465 38.1196 125.465 38.3564C125.465 38.5932 125.652 38.7792 125.89 38.7792C126.129 38.7792 126.316 38.5932 126.316 38.3564C126.316 38.1365 126.129 37.9336 125.89 37.9336Z" fill="white"/>
  <path d="M40.6287 38.9492C40.3904 38.9492 40.2031 39.1353 40.2031 39.372C40.2031 39.6088 40.3904 39.7948 40.6287 39.7948C40.867 39.7948 41.0542 39.6088 41.0542 39.372C41.0542 39.1353 40.867 38.9492 40.6287 38.9492Z" fill="white"/>
  <path d="M41.9919 38.9492C41.7536 38.9492 41.5664 39.1353 41.5664 39.372C41.5664 39.6088 41.7536 39.7948 41.9919 39.7948C42.2302 39.7948 42.4175 39.6088 42.4175 39.372C42.4175 39.1353 42.2302 38.9492 41.9919 38.9492Z" fill="white"/>
  <path d="M64.613 34.2128C64.8513 34.2128 65.0386 34.0268 65.0386 33.79C65.0386 33.5532 64.8513 33.3672 64.613 33.3672C64.3747 33.3672 64.1875 33.5532 64.1875 33.79C64.1875 34.0268 64.3747 34.2128 64.613 34.2128Z" fill="white"/>
  <path d="M45.2615 33.4042C45.4998 33.4042 45.687 33.2182 45.687 32.9814C45.687 32.7446 45.4998 32.5586 45.2615 32.5586C45.0232 32.5586 44.8359 32.7446 44.8359 32.9814C44.8359 33.2182 45.0232 33.4042 45.2615 33.4042Z" fill="white"/>
  <path d="M135.13 31.8984H134.398V37.0737H135.13V31.8984Z" fill="white"/>
  <path d="M110.466 31.8984H109.734V37.0737H110.466V31.8984Z" fill="white"/>
  <path d="M68.4272 31.8984H67.6953V37.0737H68.4272V31.8984Z" fill="white"/>
  <path d="M132.478 36.0069C132.478 36.2775 132.257 36.4973 131.984 36.4973H129.942C129.959 36.4804 129.976 36.4635 129.976 36.4466C130.129 36.2436 130.299 35.8716 130.146 35.3473C130.061 35.0259 129.772 34.0281 129.057 34.0112H129.04C128.206 34.0112 127.678 35.4149 127.593 35.6855C127.542 35.8546 127.457 36.1422 127.389 36.4804C127.065 36.4804 125.584 36.4804 125.584 36.4804C125.653 36.3282 125.687 36.1591 125.687 35.9899V34.2141H124.955V35.9899C124.955 36.2605 124.733 36.4804 124.461 36.4804H124.019C123.746 36.4804 123.525 36.2605 123.525 35.9899V34.2141H122.793V35.9899C122.793 36.2605 122.572 36.4804 122.299 36.4804H116.07C115.797 36.4804 115.576 36.2605 115.576 35.9899V33.3008H114.844V33.6391C114.64 33.7068 114.248 33.8251 113.84 34.0112C112.972 34.4002 112.495 34.8737 112.376 35.398C112.325 35.6686 112.393 35.9054 112.563 36.0914C112.665 36.2098 113.057 36.5142 114.095 36.5142C114.333 36.5142 114.606 36.4973 114.929 36.4635C115.116 36.9032 115.559 37.2077 116.053 37.2077H122.282C122.623 37.2077 122.929 37.0723 123.15 36.8525C123.372 37.0723 123.678 37.2077 124.019 37.2077H124.461C124.784 37.2077 125.091 37.0724 125.312 36.8694V37.2077C125.312 37.2077 127.065 37.2077 127.338 37.2077C127.355 37.8842 127.576 38.5607 128.342 38.882C128.546 38.9666 128.767 39.0004 128.989 39.0004C129.567 39.0004 130.129 38.7298 130.35 38.2731C130.453 38.0871 130.555 37.6643 130.197 37.1907H131.984C132.665 37.1907 133.21 36.6495 133.21 35.973V31.8633H132.478V36.0069ZM113.108 35.6348C113.108 35.6179 113.091 35.6179 113.108 35.584C113.193 35.1443 114.095 34.6877 114.844 34.4509V35.787C114.129 35.8546 113.278 35.8208 113.108 35.6348ZM128.291 35.9392C128.546 35.1951 128.921 34.7553 129.04 34.7553C129.04 34.7553 129.227 34.823 129.448 35.5502C129.516 35.8039 129.448 35.9392 129.397 36.0069C129.193 36.2605 128.682 36.3958 128.138 36.4466C128.189 36.2944 128.24 36.1252 128.291 35.9392ZM129.704 37.9856C129.601 38.2055 129.074 38.4084 128.614 38.2224C128.24 38.0702 128.053 37.715 128.053 37.1907C128.444 37.1569 128.853 37.0893 129.193 36.9709L129.057 37.2246C129.533 37.5121 129.789 37.7996 129.704 37.9856Z" fill="white"/>
  <path d="M59.7788 31.8984H59.0469V37.0737H59.7788V31.8984Z" fill="white"/>
  <path d="M57.1399 36.0056C57.1399 36.2762 56.9186 36.496 56.6463 36.496H55.1995C55.2165 36.4622 55.2165 36.4453 55.2335 36.4115C55.4548 35.8534 55.3186 35.1769 55.1314 34.7879C54.8761 34.2467 54.4165 33.9253 53.9229 33.9253C53.4293 33.9253 52.9697 34.2467 52.6973 34.8048C52.5612 35.0754 52.4761 35.3291 52.391 35.5658C52.1697 36.2254 52.0676 36.496 51.3356 36.496H50.6378C50.4676 34.7371 48.8335 33.8746 48.7654 33.8239L48.425 34.4665C48.442 34.4665 49.7356 35.1599 49.9059 36.4791H47.625V37.2064H51.3527C51.8803 37.2064 52.2378 37.0711 52.4761 36.8681C52.8335 37.1049 53.3782 37.2064 53.8548 37.2064C54.1271 37.2064 54.3654 37.1725 54.5356 37.1049C54.5697 37.088 54.6207 37.0711 54.6548 37.0542V37.2064H56.6463C57.3271 37.2064 57.8718 36.6652 57.8718 35.9887V31.8789H57.1399V36.0056ZM54.5527 36.1578C54.5016 36.31 54.3995 36.3946 54.2633 36.4453C53.9569 36.5637 53.1739 36.4622 52.8846 36.2931C52.9527 36.124 53.0207 35.9548 53.0718 35.7857C53.1399 35.5658 53.225 35.346 53.3271 35.1261C53.4803 34.8386 53.6846 34.6526 53.9059 34.6526C54.1101 34.6526 54.3144 34.8217 54.4505 35.1092C54.5867 35.3967 54.6718 35.8364 54.5527 36.1578Z" fill="white"/>
  <path d="M97.4285 33.9422C96.9179 33.9422 96.4583 34.2635 96.1859 34.8216C96.0498 35.0922 95.9647 35.3459 95.8966 35.5658C95.6753 36.2254 95.5732 36.496 94.8413 36.496H91.8625C91.5902 36.496 91.3689 36.2761 91.3689 36.0055V33.3164H90.637V33.6547C90.4328 33.7223 90.0413 33.8407 89.6328 34.0267C88.7647 34.4157 88.2881 34.8893 88.1689 35.4136C88.1179 35.6842 88.1859 35.9209 88.3562 36.107C88.4583 36.2254 88.8498 36.5298 89.8881 36.5298C90.1264 36.5298 90.3987 36.5129 90.7221 36.4791C90.9094 36.9188 91.3519 37.2232 91.8455 37.2232H94.8242C95.3519 37.2232 95.7094 37.0879 95.9477 36.885C96.4923 37.2401 97.5477 37.3078 98.0072 37.1217C98.3306 37.0033 98.586 36.7497 98.7051 36.4114C98.9264 35.8533 98.7902 35.1768 98.603 34.7878C98.3817 34.2635 97.9221 33.9422 97.4285 33.9422ZM88.9008 35.6334C88.9008 35.6334 88.8838 35.6165 88.9008 35.5827C88.9859 35.143 89.8881 34.6863 90.637 34.4495V35.7856C89.9221 35.8533 89.0881 35.8195 88.9008 35.6334ZM98.0583 36.1577C98.0072 36.3099 97.9051 36.3945 97.7689 36.4452C97.4626 36.5636 96.6796 36.4621 96.3902 36.293C96.4583 36.1239 96.5264 35.9548 96.5774 35.7856C96.6455 35.5658 96.7306 35.3459 96.8328 35.126C96.986 34.8385 97.1902 34.6525 97.4115 34.6525C97.6157 34.6525 97.82 34.8216 97.9562 35.1091C98.1094 35.3967 98.1945 35.8364 98.0583 36.1577Z" fill="white"/>
  <path d="M85.2752 36.0056C85.2752 36.2762 85.0539 36.496 84.7815 36.496H84.339C84.0666 36.496 83.8454 36.2762 83.8454 36.0056V31.8958H83.1134V36.0056C83.1134 36.2762 82.8922 36.496 82.6198 36.496H81.5645C81.5475 35.7688 81.4113 34.8724 80.8156 34.3651C80.1177 33.79 79.1645 34.1452 78.5007 34.568C78.1092 34.8048 77.7517 35.1092 77.4113 35.4305V31.8789H76.6794V36.4791H73.6837C73.7517 36.3269 73.7858 36.1578 73.7858 35.9887V34.2128H73.0539V35.9887C73.0539 36.2593 72.8326 36.4791 72.5603 36.4791H71.0113C70.739 36.4791 70.5177 36.2593 70.5177 35.9887V34.2128H69.7517V37.0372C69.7517 37.5954 69.2922 38.052 68.7305 38.052V38.7792C69.6666 38.7792 70.4496 38.0351 70.4837 37.1049C70.6369 37.1725 70.8071 37.2064 70.9773 37.2064H72.5262C72.7815 37.2064 73.0028 37.1387 73.19 37.0034V37.2064H82.5858C82.9262 37.2064 83.2326 37.0711 83.4539 36.8512C83.6751 37.0711 83.9815 37.2064 84.322 37.2064H84.7645C85.4454 37.2064 85.99 36.6652 85.99 35.9887V31.8789H85.2581V36.0056H85.2752ZM77.3943 36.2423C77.7007 35.9548 78.0241 35.6842 78.3815 35.4475C78.773 35.1769 79.2156 34.9063 79.6922 34.8386C79.8964 34.8048 80.1177 34.8048 80.2709 34.9401C80.4241 35.0416 80.5092 35.2107 80.5773 35.3629C80.7305 35.7181 80.7815 36.124 80.7986 36.5129H77.3773L77.3943 36.2423Z" fill="white"/>
  <path d="M46.0082 36.005C46.0082 36.2756 45.7869 36.4955 45.5146 36.4955H45.1912C44.9018 36.4955 44.6635 36.2756 44.6635 36.005V35.041C44.6635 34.7365 44.5444 34.4829 44.3231 34.3137C44.0678 34.1108 43.7274 34.06 43.3529 34.1446C42.672 34.2968 42.1784 34.8718 42.1784 35.4976V37.155C42.1784 37.358 41.9912 37.4764 41.838 37.544C41.3614 37.747 40.5274 37.6793 40.0337 37.1889C39.5571 36.7322 39.4891 36.005 39.8465 35.0748L39.1657 34.8211C38.5359 36.4447 39.1316 37.3242 39.5231 37.7132C39.9997 38.1698 40.6635 38.3727 41.2422 38.3727C41.5657 38.3727 41.872 38.3051 42.1274 38.2036C42.621 38.0007 42.9103 37.6117 42.9103 37.155V35.4976C42.9103 35.2101 43.1657 34.9395 43.5231 34.8549C43.6933 34.8211 43.8295 34.8549 43.8805 34.8888C43.8976 34.9057 43.9486 34.9395 43.9486 35.0579V36.0219C43.9486 36.6815 44.5274 37.2396 45.2082 37.2396H45.5316C46.2125 37.2396 46.7571 36.6984 46.7571 36.0219V34.2461H46.0252V36.005H46.0082Z" fill="white"/>
  <path d="M65.8556 37.1551C65.8556 37.358 65.6684 37.4764 65.5152 37.544C65.0386 37.747 64.2045 37.6793 63.6939 37.1889C63.2173 36.7322 63.1492 36.005 63.5067 35.0748L62.8258 34.8211C62.196 36.4447 62.7918 37.3242 63.1833 37.7132C63.6599 38.1698 64.3237 38.3728 64.9024 38.3728C65.2258 38.3728 65.5322 38.3051 65.7875 38.2036C66.2811 38.0007 66.5705 37.6117 66.5705 37.1551V34.2461H65.8386L65.8556 37.1551Z" fill="white"/>
  <path d="M107.812 36.0056C107.812 36.2762 107.59 36.496 107.318 36.496H107.046C106.331 36.5129 105.718 36.4453 105.224 36.3269C105.241 36.31 105.258 36.2931 105.275 36.2762C105.429 36.1409 106.212 35.4475 106.093 34.7371C106.058 34.5004 105.888 34.1959 105.395 34.0099L105.361 33.993H105.327C104.68 33.9084 103.999 33.9084 103.352 33.9761H103.318L103.284 33.993C102.875 34.1452 102.722 34.3989 102.688 34.6018C102.552 35.2276 103.199 35.9379 103.488 36.2254C103.539 36.2762 103.573 36.31 103.624 36.3438C103.216 36.4453 102.773 36.4791 102.263 36.4791H101.19C100.918 36.4791 100.697 36.2593 100.697 35.9887V31.8789H99.9648V35.9887C99.9648 36.6652 100.51 37.2064 101.19 37.2064H102.263C103.114 37.2064 103.795 37.1387 104.458 36.8174C105.139 37.088 106.007 37.2064 107.08 37.2064H107.335C108.016 37.2064 108.561 36.6652 108.561 35.9887V31.8789H107.829V36.0056H107.812ZM104.816 35.735C104.68 35.8534 104.544 35.9548 104.407 36.0225C104.237 35.9379 104.101 35.8364 103.982 35.7181C103.573 35.3122 103.352 34.9232 103.386 34.771C103.386 34.754 103.437 34.7202 103.471 34.7033C104.05 34.6526 104.612 34.6526 105.19 34.7202C105.275 34.754 105.361 34.8048 105.378 34.8724C105.412 35.0754 105.156 35.4475 104.816 35.735Z" fill="white"/>
</svg>