<svg width="135" height="70" viewBox="0 0 135 70" fill="none" xmlns="http://www.w3.org/2000/svg">
<path d="M46.5791 21.32C46.5791 21.1052 46.4049 20.9252 46.19 20.931L42.9209 20.9716C42.6132 20.9774 42.4622 20.8265 42.468 20.5187L42.4796 17.6503C42.4796 17.389 42.6132 17.2554 42.8803 17.2496C44.8022 17.2322 46.8113 17.2438 48.9017 17.2786C50.545 17.3077 51.3521 18.1554 51.3347 19.8219C51.3114 21.8949 51.265 23.4917 51.1895 24.6124C50.9572 28.0325 44.0532 28.8163 41.6493 28.6596C32.6606 28.0789 30.1522 18.9045 33.1019 11.7275C34.9833 7.15191 40.337 5.54929 45.1448 6.69319C48.3965 7.46547 50.4346 9.70101 51.265 13.394C51.2882 13.4985 51.2185 13.603 51.114 13.6263L46.7358 14.596C46.6255 14.6192 46.5616 14.5786 46.5326 14.4682C45.7371 11.2107 43.7803 9.9565 40.6679 10.7114C36.1969 11.7972 36.284 20.6407 38.8331 23.3001C40.6796 25.2279 44.0009 25.0537 46.2597 23.962C46.4571 23.8633 46.5791 23.6659 46.5791 23.451V21.32Z" fill="#015f56"/>
<path d="M62.9093 11.8317L59.3731 23.7469C59.2395 24.2056 59.3731 24.3101 59.7795 24.0604C60.9409 23.352 63.4667 21.6158 64.8487 21.6391C65.0345 21.6391 65.1274 21.8655 64.9997 21.9991C63.1764 23.8862 61.3299 25.7617 59.4544 27.6199C58.1363 28.9322 55.1343 28.4502 53.4039 28.4792C53.1658 28.4792 52.9974 28.2528 53.0729 28.0321C55.1633 21.7552 57.2014 15.4957 59.1815 9.24777C60.4008 5.41541 65.8416 5.10766 67.1539 9.10841C69.2559 15.4783 71.3173 21.8307 73.338 28.1541C73.3902 28.3167 73.2683 28.485 73.0999 28.485L68.5359 28.5141C68.3617 28.5141 68.2107 28.3979 68.1643 28.2354L63.368 11.8317C63.2171 11.3149 63.0661 11.3149 62.9093 11.8317Z" fill="#015f56"/>
<path d="M89.2751 20.4146L93.032 21.1811C93.4094 21.2565 93.5488 21.4772 93.4617 21.8546C91.8533 28.48 85.2512 30.1581 79.6884 27.7599C75.3277 25.8786 73.9109 20.8094 74.358 16.4835C74.8457 11.8324 76.3787 8.01748 81.2736 6.75164C86.6564 5.35806 92.3236 7.52973 93.4501 13.3538C93.514 13.6731 93.3862 13.8647 93.0727 13.9402L89.2925 14.8402C89.0022 14.9099 88.8222 14.7996 88.7467 14.5151C88.1428 12.175 86.906 10.8627 85.0421 10.5898C79.16 9.72463 78.7303 17.0816 79.7929 20.8501C81.1691 25.6986 87.8874 25.9192 88.6596 20.8443C88.7119 20.4901 88.9209 20.3449 89.2751 20.4146Z" fill="#015f56"/>
<path d="M104.714 11.9956L101.323 23.4462C101.143 24.0617 101.329 24.2069 101.881 23.8817C102.943 23.2546 105.272 21.6287 106.607 21.7158C106.787 21.7274 106.869 21.9365 106.747 22.0642L100.9 28.0044C100.545 28.3586 100.063 28.556 99.564 28.5502L95.3484 28.4689C95.0349 28.4631 94.82 28.1612 94.9188 27.865C97.073 21.4255 99.1982 15.015 101.294 8.63355C102.421 5.20766 107.862 5.51541 109.017 9.06905C110.26 12.884 111.531 16.6989 112.838 20.5023C113.628 22.8017 114.29 25.3798 115.073 27.8012C115.213 28.2366 115.056 28.4515 114.603 28.4573L110.591 28.4863C110.167 28.4921 109.894 28.2889 109.778 27.8766L105.214 11.9956C105.051 11.4207 104.883 11.4207 104.714 11.9956Z" fill="#015f56"/>
<path d="M13.3372 28.4567C0.88789 28.4916 9.19714 10.2937 0.225938 7.13489C0.0691595 7.08263 -0.0237462 6.92004 0.00528686 6.75746C0.0343199 6.59487 0.179485 6.47874 0.34207 6.47874C5.32994 6.50777 10.5327 6.50197 15.956 6.44971C24.7646 6.36842 24.3175 14.4048 25.293 20.7514C25.9144 24.7521 26.7621 26.436 30.217 28.2361C30.5538 28.4161 30.5306 28.5032 30.1474 28.4974C24.6717 28.4567 19.0684 28.4393 13.3372 28.4567ZM14.1037 13.1621C13.1863 13.7951 11.8914 14.277 11.5024 15.2409C11.4211 15.4383 11.6243 15.6358 11.8217 15.5545L14.9166 14.3002C15.0967 14.2248 15.2941 14.3583 15.2941 14.5557C15.2767 16.3384 15.4334 18.1384 15.7528 19.9617C15.7818 20.1068 15.8341 20.2114 15.9154 20.2694C16.0605 20.3681 16.258 20.2752 16.2754 20.101L16.7864 14.637C16.8154 14.3409 16.9722 14.248 17.2451 14.3641L19.9974 15.508C20.2007 15.5951 20.4213 15.4325 20.3981 15.2119C20.3749 15.0028 20.2529 14.7996 20.0265 14.6022C19.3935 14.0564 18.6967 13.6731 17.9245 13.4467C17.6516 13.3712 17.5877 13.0112 17.8199 12.8486C18.3251 12.4886 18.8767 12.2331 19.4748 12.0821C19.5735 12.0589 19.6258 11.9544 19.5852 11.8673L19.5097 11.6931C19.4342 11.5305 19.2542 11.4376 19.08 11.484L17.0012 12.0124C16.8212 12.0589 16.6412 11.9311 16.6238 11.7453C16.5831 11.3679 16.4728 11.0253 16.2928 10.7176C16.1186 10.4214 15.6715 10.4737 15.5786 10.8047L15.3057 11.7569C15.2534 11.9486 15.0502 12.0589 14.8586 12.0008L12.9947 11.4666C12.7972 11.4144 12.6288 11.455 12.4837 11.6002L12.3617 11.7279C12.263 11.8266 12.2979 11.9892 12.4256 12.0473L14.0573 12.7325C14.336 12.8486 14.3534 12.9938 14.1037 13.1621ZM14.8664 22.0457C14.9283 21.8779 14.4347 21.5353 13.7605 21.2777C13.0876 21.0243 12.4895 20.9488 12.4236 21.1178C12.3617 21.2856 12.8553 21.6282 13.5295 21.8857C14.2024 22.1392 14.8005 22.2146 14.8664 22.0457ZM13.4185 23.103C12.1411 23.5037 10.9275 23.9798 9.772 24.5257C9.3365 24.7347 9.35973 24.845 9.84167 24.8508C11.3862 24.8683 12.7392 24.8915 14.185 24.0902C15.898 23.1495 17.6167 22.2262 19.3471 21.3146C19.3993 21.2856 19.4168 21.2333 19.3993 21.152C19.3819 21.0301 19.3181 20.9836 19.1961 21.0127C17.1696 21.4772 15.2534 22.5224 13.4185 23.103ZM22.1749 24.5663C20.9787 23.9044 19.1961 23.254 17.8722 22.9695C17.6806 22.9288 17.518 22.9289 17.3961 22.9811C17.2567 23.0392 17.1406 23.1205 17.0477 23.2308C16.9141 23.3992 16.9257 23.5443 17.0941 23.6779C18.8303 25.0599 20.2413 24.7463 22.0878 24.8508C22.5349 24.8799 22.5639 24.7812 22.1749 24.5663Z" fill="#015f56"/>
<path d="M22.3017 47.6867C22.3017 47.5427 22.3137 47.3897 22.3377 47.2277C22.3677 47.0597 22.4097 46.8827 22.4637 46.6967C22.5237 46.5047 22.5957 46.3037 22.6797 46.0937L23.3277 46.3457C23.2677 46.5137 23.2137 46.6727 23.1657 46.8227C23.1237 46.9727 23.0907 47.1137 23.0667 47.2457C23.0487 47.3777 23.0397 47.5037 23.0397 47.6237C23.0397 47.8757 23.0937 48.0887 23.2017 48.2627C23.3157 48.4427 23.4717 48.5897 23.6697 48.7037C23.8677 48.8177 24.0927 48.9017 24.3447 48.9557C24.6027 49.0097 24.8757 49.0367 25.1637 49.0367C25.5117 49.0367 25.8357 49.0067 26.1357 48.9467C26.4417 48.8867 26.7087 48.7997 26.9367 48.6857C27.1707 48.5777 27.3537 48.4517 27.4857 48.3077C27.6177 48.1697 27.6837 48.0197 27.6837 47.8577C27.6837 47.7797 27.6537 47.7077 27.5937 47.6417C27.5337 47.5757 27.4437 47.5127 27.3237 47.4527C27.2037 47.3927 27.0597 47.3357 26.8917 47.2817C26.7237 47.2217 26.5317 47.1617 26.3157 47.1017L26.4867 46.3547C26.7987 46.4747 27.0747 46.5767 27.3147 46.6607C27.5547 46.7387 27.7647 46.8017 27.9447 46.8497C28.1247 46.8977 28.2807 46.9337 28.4127 46.9577C28.5447 46.9757 28.6557 46.9847 28.7457 46.9847C28.8717 46.9847 28.9617 47.0207 29.0157 47.0927C29.0757 47.1587 29.1057 47.2397 29.1057 47.3357C29.1057 47.4317 29.0637 47.5217 28.9797 47.6057C28.8957 47.6837 28.7877 47.7227 28.6557 47.7227C28.6197 47.7227 28.5837 47.7227 28.5477 47.7227C28.5117 47.7227 28.4727 47.7227 28.4307 47.7227C28.3947 47.7227 28.3587 47.7227 28.3227 47.7227C28.3347 47.7767 28.3437 47.8187 28.3497 47.8487C28.3557 47.8847 28.3587 47.9297 28.3587 47.9837C28.3587 48.2057 28.2807 48.4217 28.1247 48.6317C27.9747 48.8417 27.7527 49.0307 27.4587 49.1987C27.1647 49.3727 26.8077 49.5107 26.3877 49.6127C25.9737 49.7147 25.4997 49.7657 24.9657 49.7657C24.4917 49.7657 24.0507 49.6877 23.6427 49.5317C23.2407 49.3817 22.9167 49.1537 22.6707 48.8477C22.4247 48.5417 22.3017 48.1547 22.3017 47.6867ZM28.6587 47.7227L28.7487 46.9847C29.0427 46.9847 29.2767 46.9667 29.4507 46.9307C29.6247 46.8947 29.7507 46.8227 29.8287 46.7147C29.9067 46.6007 29.9457 46.4327 29.9457 46.2107C29.9457 46.0607 29.9217 45.8837 29.8737 45.6797C29.8257 45.4697 29.7627 45.2477 29.6847 45.0137C29.6067 44.7797 29.5227 44.5487 29.4327 44.3207L30.1617 44.0507C30.2397 44.2427 30.3117 44.4617 30.3777 44.7077C30.4497 44.9537 30.5097 45.1967 30.5577 45.4367C30.6057 45.6767 30.6297 45.8867 30.6297 46.0667C30.6297 46.3067 30.6027 46.5197 30.5487 46.7057C30.5007 46.8857 30.4257 47.0417 30.3237 47.1737C30.2217 47.2997 30.0897 47.4047 29.9277 47.4887C29.7717 47.5667 29.5887 47.6267 29.3787 47.6687C29.1687 47.7047 28.9287 47.7227 28.6587 47.7227ZM29.8107 43.1147C29.6847 43.1147 29.5767 43.0727 29.4867 42.9887C29.4027 42.8987 29.3607 42.7937 29.3607 42.6737C29.3607 42.5537 29.4027 42.4487 29.4867 42.3587C29.5767 42.2687 29.6847 42.2237 29.8107 42.2237C29.9307 42.2237 30.0327 42.2687 30.1167 42.3587C30.2067 42.4487 30.2517 42.5537 30.2517 42.6737C30.2517 42.7937 30.2067 42.8987 30.1167 42.9887C30.0327 43.0727 29.9307 43.1147 29.8107 43.1147ZM33.0107 46.9847C33.3107 46.9847 33.5477 46.9547 33.7217 46.8947C33.9017 46.8347 34.0307 46.7477 34.1087 46.6337C34.1927 46.5137 34.2347 46.3757 34.2347 46.2197C34.2347 46.0997 34.2017 45.9557 34.1357 45.7877C34.0757 45.6197 33.9917 45.4337 33.8837 45.2297C33.7757 45.0197 33.6497 44.8007 33.5057 44.5727C33.3677 44.3387 33.2177 44.1017 33.0557 43.8617L33.6767 43.4567C33.9107 43.8107 34.1147 44.1467 34.2887 44.4647C34.4627 44.7767 34.6097 45.0707 34.7297 45.3467C34.8497 45.6167 34.9457 45.8717 35.0177 46.1117C35.1017 46.3757 35.1947 46.5707 35.2967 46.6967C35.4047 46.8227 35.5157 46.9037 35.6297 46.9397C35.7437 46.9697 35.8487 46.9847 35.9447 46.9847C36.0707 46.9847 36.1637 47.0207 36.2237 47.0927C36.2837 47.1587 36.3137 47.2397 36.3137 47.3357C36.3137 47.4317 36.2717 47.5217 36.1877 47.6057C36.1037 47.6837 35.9957 47.7227 35.8637 47.7227C35.6657 47.7227 35.4707 47.6867 35.2787 47.6147C35.0927 47.5367 34.9307 47.4137 34.7927 47.2457C34.6547 47.0717 34.5587 46.8407 34.5047 46.5527L34.8647 46.2647C34.8647 46.5047 34.8137 46.7387 34.7117 46.9667C34.6097 47.1887 34.4237 47.3717 34.1537 47.5157C33.8897 47.6597 33.5087 47.7317 33.0107 47.7317C32.7947 47.7317 32.5847 47.7137 32.3807 47.6777C32.1827 47.6417 31.9997 47.5907 31.8317 47.5247C31.6637 47.4527 31.5167 47.3687 31.3907 47.2727L31.7507 46.6517C31.8707 46.7297 32.0387 46.8047 32.2547 46.8767C32.4707 46.9487 32.7227 46.9847 33.0107 46.9847ZM35.8657 47.7227L35.9557 46.9847C36.1237 46.9847 36.2557 46.9487 36.3517 46.8767C36.4537 46.8047 36.5497 46.6847 36.6397 46.5167C36.7357 46.3487 36.8557 46.1237 36.9997 45.8417C37.1437 45.5537 37.2877 45.3197 37.4317 45.1397C37.5817 44.9537 37.7257 44.8097 37.8637 44.7077C38.0077 44.5997 38.1427 44.5247 38.2687 44.4827C38.3947 44.4407 38.5117 44.4197 38.6197 44.4197C38.8177 44.4197 38.9947 44.4647 39.1507 44.5547C39.3067 44.6387 39.4537 44.7857 39.5917 44.9957C39.7297 45.1997 39.8707 45.4817 40.0147 45.8417C40.1527 46.1717 40.2757 46.4207 40.3837 46.5887C40.4977 46.7507 40.6147 46.8587 40.7347 46.9127C40.8607 46.9607 41.0017 46.9847 41.1577 46.9847C41.2837 46.9847 41.3737 47.0207 41.4277 47.0927C41.4877 47.1587 41.5177 47.2397 41.5177 47.3357C41.5177 47.4317 41.4757 47.5217 41.3917 47.6057C41.3077 47.6837 41.1997 47.7227 41.0677 47.7227C40.8337 47.7227 40.6177 47.6837 40.4197 47.6057C40.2277 47.5277 40.0657 47.4047 39.9337 47.2367L40.0597 47.0477C39.9937 47.2337 39.9037 47.3867 39.7897 47.5067C39.6817 47.6207 39.5587 47.7047 39.4207 47.7587C39.2827 47.8187 39.1357 47.8487 38.9797 47.8487C38.7817 47.8487 38.5777 47.8067 38.3677 47.7227C38.1637 47.6387 37.9657 47.5187 37.7737 47.3627C37.5817 47.2067 37.4137 47.0237 37.2697 46.8137C37.1137 47.0897 36.9637 47.2937 36.8197 47.4257C36.6817 47.5517 36.5377 47.6327 36.3877 47.6687C36.2377 47.7047 36.0637 47.7227 35.8657 47.7227ZM37.6117 46.1297C37.7137 46.2977 37.8217 46.4447 37.9357 46.5707C38.0557 46.6967 38.1757 46.8017 38.2957 46.8857C38.4157 46.9637 38.5327 47.0237 38.6467 47.0657C38.7667 47.1017 38.8747 47.1197 38.9707 47.1197C39.1807 47.1197 39.3337 47.0447 39.4297 46.8947C39.5317 46.7447 39.5287 46.5347 39.4207 46.2647C39.3667 46.1267 39.3097 45.9917 39.2497 45.8597C39.1957 45.7277 39.1357 45.6077 39.0697 45.4997C39.0037 45.3857 38.9287 45.2987 38.8447 45.2387C38.7607 45.1727 38.6677 45.1397 38.5657 45.1397C38.4757 45.1397 38.3797 45.1697 38.2777 45.2297C38.1817 45.2897 38.0767 45.3917 37.9627 45.5357C37.8547 45.6797 37.7377 45.8777 37.6117 46.1297ZM41.0688 47.7227L41.1498 46.9847C41.4918 46.9847 41.7318 46.9517 41.8698 46.8857C42.0078 46.8197 42.0858 46.7027 42.1038 46.5347C42.1278 46.3667 42.1338 46.1327 42.1218 45.8327L41.9508 41.2517H42.6798L42.8598 45.7517C42.8718 46.0697 42.8598 46.3517 42.8238 46.5977C42.7938 46.8437 42.7158 47.0507 42.5898 47.2187C42.4698 47.3867 42.2868 47.5127 42.0408 47.5967C41.8008 47.6807 41.4768 47.7227 41.0688 47.7227ZM44.2347 47.6777L44.0547 41.2517H44.7837L44.9637 47.6777H44.2347ZM47.9482 47.6867C47.9482 47.5427 47.9602 47.3897 47.9842 47.2277C48.0142 47.0597 48.0562 46.8827 48.1102 46.6967C48.1702 46.5047 48.2422 46.3037 48.3262 46.0937L48.9742 46.3457C48.9142 46.5137 48.8602 46.6727 48.8122 46.8227C48.7702 46.9727 48.7372 47.1137 48.7132 47.2457C48.6952 47.3777 48.6862 47.5037 48.6862 47.6237C48.6862 47.9357 48.7672 48.1937 48.9292 48.3977C49.0912 48.6017 49.3132 48.7547 49.5952 48.8567C49.8772 48.9587 50.1952 49.0097 50.5492 49.0097C50.9512 49.0097 51.2872 48.9557 51.5572 48.8477C51.8332 48.7397 52.0522 48.5957 52.2142 48.4157C52.3762 48.2417 52.4902 48.0467 52.5562 47.8307C52.6282 47.6147 52.6642 47.4017 52.6642 47.1917C52.6642 46.9637 52.6192 46.6877 52.5292 46.3637C52.4452 46.0397 52.2862 45.6377 52.0522 45.1577L52.7272 44.8157C52.8472 45.0437 52.9552 45.2837 53.0512 45.5357C53.1532 45.7817 53.2342 46.0367 53.2942 46.3007C53.3602 46.5587 53.3932 46.8227 53.3932 47.0927C53.3932 47.3267 53.3632 47.5667 53.3032 47.8127C53.2492 48.0587 53.1562 48.2957 53.0242 48.5237C52.8922 48.7577 52.7152 48.9647 52.4932 49.1447C52.2772 49.3307 52.0072 49.4777 51.6832 49.5857C51.3652 49.6937 50.9842 49.7477 50.5402 49.7477C50.1922 49.7477 49.8592 49.7057 49.5412 49.6217C49.2292 49.5437 48.9532 49.4207 48.7132 49.2527C48.4792 49.0847 48.2932 48.8717 48.1552 48.6137C48.0172 48.3557 47.9482 48.0467 47.9482 47.6867ZM50.6662 44.0957C50.5402 44.0957 50.4322 44.0537 50.3422 43.9697C50.2582 43.8797 50.2162 43.7747 50.2162 43.6547C50.2162 43.5347 50.2582 43.4297 50.3422 43.3397C50.4322 43.2497 50.5402 43.2047 50.6662 43.2047C50.7862 43.2047 50.8882 43.2497 50.9722 43.3397C51.0622 43.4297 51.1072 43.5347 51.1072 43.6547C51.1072 43.7747 51.0622 43.8797 50.9722 43.9697C50.8882 44.0537 50.7862 44.0957 50.6662 44.0957ZM54.6674 47.6777L54.4874 41.2517H55.2164L55.3964 47.6777H54.6674ZM55.7914 49.7657L55.5304 49.0817C55.9684 48.9377 56.3314 48.7727 56.6194 48.5867C56.9134 48.4007 57.1444 48.2027 57.3124 47.9927C57.4864 47.7827 57.6094 47.5697 57.6814 47.3537C57.7534 47.1317 57.7894 46.9187 57.7894 46.7147C57.7894 46.4207 57.7234 46.1237 57.5914 45.8237C57.4654 45.5177 57.3244 45.2297 57.1684 44.9597L57.8254 44.6267C57.9394 44.8367 58.0384 45.0437 58.1224 45.2477C58.2124 45.4517 58.2904 45.6437 58.3564 45.8237C58.4284 46.0037 58.4854 46.1687 58.5274 46.3187C58.6114 46.5767 58.7194 46.7537 58.8514 46.8497C58.9894 46.9397 59.1754 46.9847 59.4094 46.9847C59.5354 46.9847 59.6254 47.0207 59.6794 47.0927C59.7394 47.1587 59.7694 47.2397 59.7694 47.3357C59.7694 47.4317 59.7274 47.5217 59.6434 47.6057C59.5594 47.6837 59.4514 47.7227 59.3194 47.7227C59.0554 47.7227 58.8394 47.6777 58.6714 47.5877C58.5094 47.4917 58.3864 47.3687 58.3024 47.2187C58.2184 47.0627 58.1614 46.9007 58.1314 46.7327L58.4194 46.8947C58.4194 47.2907 58.3294 47.6507 58.1494 47.9747C57.9754 48.3047 57.7504 48.5897 57.4744 48.8297C57.1984 49.0757 56.9104 49.2767 56.6104 49.4327C56.3104 49.5887 56.0374 49.6997 55.7914 49.7657ZM59.3237 47.7227L59.4137 46.9847C59.7137 46.9847 59.9477 46.9637 60.1157 46.9217C60.2837 46.8737 60.4097 46.7867 60.4937 46.6607C60.5837 46.5287 60.6557 46.3397 60.7097 46.0937C60.7637 45.8477 60.8297 45.5267 60.9077 45.1307L61.6097 45.2657C61.5857 45.3737 61.5587 45.4937 61.5287 45.6257C61.4987 45.7577 61.4717 45.8897 61.4477 46.0217C61.4297 46.1477 61.4207 46.2587 61.4207 46.3547C61.4207 46.4447 61.4267 46.5287 61.4387 46.6067C61.4507 46.6847 61.4957 46.7507 61.5737 46.8047C61.6517 46.8587 61.7837 46.9037 61.9697 46.9397C62.1557 46.9697 62.4227 46.9847 62.7707 46.9847C62.8967 46.9847 62.9867 47.0207 63.0407 47.0927C63.1007 47.1587 63.1307 47.2397 63.1307 47.3357C63.1307 47.4317 63.0887 47.5217 63.0047 47.6057C62.9207 47.6837 62.8127 47.7227 62.6807 47.7227C62.3147 47.7227 62.0237 47.7047 61.8077 47.6687C61.5917 47.6267 61.4267 47.5667 61.3127 47.4887C61.2047 47.4107 61.1267 47.3147 61.0787 47.2007C61.0367 47.0807 61.0037 46.9427 60.9797 46.7867L61.2497 46.8047C61.1537 46.9967 61.0487 47.1527 60.9347 47.2727C60.8267 47.3927 60.7007 47.4857 60.5567 47.5517C60.4127 47.6177 60.2387 47.6627 60.0347 47.6867C59.8367 47.7107 59.5997 47.7227 59.3237 47.7227ZM61.5917 49.4237C61.4657 49.4237 61.3577 49.3787 61.2677 49.2887C61.1837 49.2047 61.1417 49.1027 61.1417 48.9827C61.1417 48.8627 61.1837 48.7577 61.2677 48.6677C61.3577 48.5777 61.4657 48.5327 61.5917 48.5327C61.7117 48.5327 61.8137 48.5777 61.8977 48.6677C61.9877 48.7577 62.0327 48.8627 62.0327 48.9827C62.0327 49.1027 61.9877 49.2047 61.8977 49.2887C61.8137 49.3787 61.7117 49.4237 61.5917 49.4237ZM60.3587 49.4237C60.2327 49.4237 60.1247 49.3787 60.0347 49.2887C59.9507 49.2047 59.9087 49.1027 59.9087 48.9827C59.9087 48.8627 59.9507 48.7577 60.0347 48.6677C60.1247 48.5777 60.2327 48.5327 60.3587 48.5327C60.4787 48.5327 60.5807 48.5777 60.6647 48.6677C60.7547 48.7577 60.7997 48.8627 60.7997 48.9827C60.7997 49.1027 60.7547 49.2047 60.6647 49.2887C60.5807 49.3787 60.4787 49.4237 60.3587 49.4237ZM69.0712 47.7227C68.9152 47.7227 68.7172 47.7077 68.4772 47.6777C68.2432 47.6417 68.0032 47.5817 67.7572 47.4977C67.5172 47.4137 67.3132 47.2967 67.1452 47.1467L67.8832 46.7777C68.0932 46.8617 68.3092 46.9187 68.5312 46.9487C68.7592 46.9727 68.9692 46.9847 69.1612 46.9847C69.2872 46.9847 69.3772 47.0207 69.4312 47.0927C69.4912 47.1587 69.5212 47.2397 69.5212 47.3357C69.5212 47.4317 69.4792 47.5217 69.3952 47.6057C69.3112 47.6837 69.2032 47.7227 69.0712 47.7227ZM62.6812 47.7227L62.7712 46.9847H64.6522C65.1742 46.9847 65.6242 46.9637 66.0022 46.9217C66.3862 46.8737 66.7012 46.8047 66.9472 46.7147C67.1932 46.6247 67.3762 46.5107 67.4962 46.3727C67.6162 46.2287 67.6762 46.0607 67.6762 45.8687C67.6762 45.7667 67.6432 45.6557 67.5772 45.5357C67.5112 45.4157 67.4092 45.3137 67.2712 45.2297C67.1332 45.1397 66.9502 45.0947 66.7222 45.0947C66.4342 45.0947 66.1462 45.1697 65.8582 45.3197C65.5762 45.4697 65.3062 45.6587 65.0482 45.8867C64.7962 46.1087 64.5712 46.3367 64.3732 46.5707C64.1752 46.8047 64.0162 47.0087 63.8962 47.1827L63.1132 47.1557C63.3052 46.8437 63.5332 46.5257 63.7972 46.2017C64.0672 45.8717 64.3612 45.5687 64.6792 45.2927C65.0032 45.0107 65.3422 44.7857 65.6962 44.6177C66.0502 44.4437 66.4102 44.3567 66.7762 44.3567C67.1062 44.3567 67.3882 44.4257 67.6222 44.5637C67.8622 44.6957 68.0452 44.8757 68.1712 45.1037C68.3032 45.3317 68.3692 45.5897 68.3692 45.8777C68.3692 46.1597 68.2672 46.4447 68.0632 46.7327C67.8592 47.0147 67.5082 47.2367 67.0102 47.3987C66.7582 47.4827 66.4702 47.5487 66.1462 47.5967C65.8222 47.6447 65.4532 47.6777 65.0392 47.6957C64.6252 47.7137 64.1542 47.7227 63.6262 47.7227H62.6812ZM63.5362 46.8317L63.3562 41.2517H64.0852L64.2652 46.2017L63.5362 46.8317ZM69.0708 47.7227L69.1518 46.9847C69.4938 46.9847 69.7338 46.9517 69.8718 46.8857C70.0098 46.8197 70.0878 46.7027 70.1058 46.5347C70.1298 46.3667 70.1358 46.1327 70.1238 45.8327L69.9708 41.2517H70.7178L70.8618 45.8147C70.8738 46.1207 70.9218 46.3607 71.0058 46.5347C71.0958 46.7027 71.2158 46.8197 71.3658 46.8857C71.5158 46.9517 71.6808 46.9847 71.8608 46.9847C71.9868 46.9847 72.0768 47.0207 72.1308 47.0927C72.1908 47.1587 72.2208 47.2397 72.2208 47.3357C72.2208 47.4317 72.1788 47.5217 72.0948 47.6057C72.0108 47.6837 71.9028 47.7227 71.7708 47.7227C71.5188 47.7227 71.3088 47.6837 71.1408 47.6057C70.9788 47.5217 70.8498 47.4167 70.7538 47.2907C70.6638 47.1587 70.6038 47.0207 70.5738 46.8767L70.7628 46.8947C70.7028 47.0747 70.6038 47.2277 70.4658 47.3537C70.3338 47.4737 70.1538 47.5667 69.9258 47.6327C69.6978 47.6927 69.4128 47.7227 69.0708 47.7227ZM71.769 47.7227L71.85 46.9847C72.192 46.9847 72.432 46.9517 72.57 46.8857C72.708 46.8197 72.786 46.7027 72.804 46.5347C72.828 46.3667 72.834 46.1327 72.822 45.8327L72.651 41.2517H73.38L73.56 45.7517C73.572 46.0697 73.56 46.3517 73.524 46.5977C73.494 46.8437 73.416 47.0507 73.29 47.2187C73.17 47.3867 72.987 47.5127 72.741 47.5967C72.501 47.6807 72.177 47.7227 71.769 47.7227ZM80.6079 47.7227C80.2839 47.7227 79.9959 47.6777 79.7439 47.5877C79.4979 47.4917 79.2999 47.3327 79.1499 47.1107C79.0059 46.8827 78.9249 46.5677 78.9069 46.1657L78.7629 43.0337H79.4919L79.6359 46.0037C79.6539 46.2857 79.7049 46.4987 79.7889 46.6427C79.8729 46.7807 79.9899 46.8737 80.1399 46.9217C80.2959 46.9637 80.4819 46.9847 80.6979 46.9847C80.8239 46.9847 80.9139 47.0207 80.9679 47.0927C81.0279 47.1587 81.0579 47.2397 81.0579 47.3357C81.0579 47.4317 81.0159 47.5217 80.9319 47.6057C80.8479 47.6837 80.7399 47.7227 80.6079 47.7227ZM79.2489 46.7327C78.9069 46.8407 78.5739 46.8947 78.2499 46.8947C77.9259 46.8947 77.6319 46.8467 77.3679 46.7507C77.1039 46.6547 76.8939 46.5167 76.7379 46.3367C76.5819 46.1507 76.5039 45.9287 76.5039 45.6707C76.5039 45.4187 76.5669 45.1817 76.6929 44.9597C76.8249 44.7377 77.0019 44.5397 77.2239 44.3657C77.4519 44.1917 77.7129 44.0477 78.0069 43.9337C78.3069 43.8137 78.6249 43.7327 78.9609 43.6907L79.0869 44.4467C78.7869 44.4587 78.5199 44.5007 78.2859 44.5727C78.0579 44.6387 77.8629 44.7257 77.7009 44.8337C77.5449 44.9417 77.4249 45.0587 77.3409 45.1847C77.2569 45.3107 77.2149 45.4337 77.2149 45.5537C77.2149 45.6857 77.2629 45.7937 77.3589 45.8777C77.4549 45.9617 77.5779 46.0277 77.7279 46.0757C77.8779 46.1177 78.0429 46.1447 78.2229 46.1567C78.4029 46.1627 78.5769 46.1567 78.7449 46.1387C78.9129 46.1147 79.0569 46.0817 79.1769 46.0397L79.2489 46.7327ZM79.0599 41.9987C78.9339 41.9987 78.8259 41.9567 78.7359 41.8727C78.6519 41.7827 78.6099 41.6777 78.6099 41.5577C78.6099 41.4377 78.6519 41.3327 78.7359 41.2427C78.8259 41.1527 78.9339 41.1077 79.0599 41.1077C79.1799 41.1077 79.2819 41.1527 79.3659 41.2427C79.4559 41.3327 79.5009 41.4377 79.5009 41.5577C79.5009 41.6777 79.4559 41.7827 79.3659 41.8727C79.2819 41.9567 79.1799 41.9987 79.0599 41.9987ZM77.8269 41.9987C77.7009 41.9987 77.5929 41.9567 77.5029 41.8727C77.4189 41.7827 77.3769 41.6777 77.3769 41.5577C77.3769 41.4377 77.4189 41.3327 77.5029 41.2427C77.5929 41.1527 77.7009 41.1077 77.8269 41.1077C77.9469 41.1077 78.0489 41.1527 78.1329 41.2427C78.2229 41.3327 78.2679 41.4377 78.2679 41.5577C78.2679 41.6777 78.2229 41.7827 78.1329 41.8727C78.0489 41.9567 77.9469 41.9987 77.8269 41.9987ZM80.6108 47.7227L80.7008 46.9847C80.8688 46.9847 81.0098 46.9487 81.1238 46.8767C81.2378 46.8047 81.3488 46.6847 81.4568 46.5167C81.5648 46.3487 81.6818 46.1237 81.8078 45.8417C81.9818 45.4577 82.1528 45.1667 82.3208 44.9687C82.4948 44.7707 82.6658 44.6357 82.8338 44.5637C83.0078 44.4917 83.1788 44.4557 83.3468 44.4557C83.5508 44.4557 83.7398 44.5097 83.9138 44.6177C84.0878 44.7197 84.2408 44.8577 84.3728 45.0317C84.5048 45.2057 84.6068 45.3977 84.6788 45.6077C84.7568 45.8117 84.7958 46.0157 84.7958 46.2197C84.7958 46.5797 84.7328 46.8677 84.6068 47.0837C84.4808 47.2937 84.3188 47.4467 84.1208 47.5427C83.9288 47.6327 83.7278 47.6777 83.5178 47.6777C83.3318 47.6777 83.0918 47.6417 82.7978 47.5697C82.5098 47.4977 82.1438 47.3147 81.6998 47.0207L82.0508 46.4537C82.3448 46.6397 82.6088 46.7687 82.8428 46.8407C83.0828 46.9067 83.2808 46.9397 83.4368 46.9397C83.6108 46.9397 83.7488 46.9157 83.8508 46.8677C83.9528 46.8137 84.0278 46.7387 84.0758 46.6427C84.1238 46.5467 84.1478 46.4387 84.1478 46.3187C84.1478 46.1447 84.1058 45.9707 84.0218 45.7967C83.9378 45.6227 83.8298 45.4787 83.6978 45.3647C83.5718 45.2507 83.4368 45.1937 83.2928 45.1937C83.1848 45.1937 83.0798 45.2237 82.9778 45.2837C82.8758 45.3437 82.7708 45.4547 82.6628 45.6167C82.5548 45.7787 82.4318 46.0127 82.2938 46.3187C82.1498 46.6427 82.0118 46.9007 81.8798 47.0927C81.7538 47.2787 81.6248 47.4167 81.4928 47.5067C81.3608 47.5967 81.2228 47.6537 81.0788 47.6777C80.9408 47.7077 80.7848 47.7227 80.6108 47.7227ZM87.9584 47.7227C87.4784 47.7227 87.1094 47.6687 86.8514 47.5607C86.5994 47.4527 86.4254 47.2847 86.3294 47.0567C86.2334 46.8287 86.1794 46.5347 86.1674 46.1747L85.9874 41.2517H86.7254L86.9054 45.8867C86.9174 46.1807 86.9444 46.4087 86.9864 46.5707C87.0344 46.7267 87.1364 46.8347 87.2924 46.8947C87.4544 46.9547 87.7064 46.9847 88.0484 46.9847C88.1744 46.9847 88.2644 47.0207 88.3184 47.0927C88.3784 47.1587 88.4084 47.2397 88.4084 47.3357C88.4084 47.4317 88.3664 47.5217 88.2824 47.6057C88.1984 47.6837 88.0904 47.7227 87.9584 47.7227ZM87.9585 47.7227L88.0485 46.9847C88.4085 46.9847 88.7475 46.9517 89.0655 46.8857C89.3835 46.8137 89.6745 46.7207 89.9385 46.6067C90.2085 46.4867 90.4395 46.3517 90.6315 46.2017C90.8235 46.0457 90.9705 45.8867 91.0725 45.7247C91.1805 45.5567 91.2345 45.3917 91.2345 45.2297C91.2345 45.1517 91.2075 45.0737 91.1535 44.9957C91.0995 44.9117 91.0065 44.8427 90.8745 44.7887C90.7485 44.7347 90.5775 44.7077 90.3615 44.7077C90.2295 44.7077 90.0825 44.7257 89.9205 44.7617C89.7585 44.7977 89.6025 44.8487 89.4525 44.9147C89.3085 44.9747 89.1885 45.0437 89.0925 45.1217C89.2545 45.2537 89.4045 45.3827 89.5425 45.5087C89.6865 45.6347 89.8335 45.7727 89.9835 45.9227C90.1335 46.0667 90.2955 46.2317 90.4695 46.4177C90.6075 46.5197 90.7605 46.6067 90.9285 46.6787C91.1025 46.7507 91.2885 46.8107 91.4865 46.8587C91.6905 46.9007 91.8975 46.9337 92.1075 46.9577C92.3175 46.9757 92.5275 46.9847 92.7375 46.9847C92.8635 46.9847 92.9535 47.0207 93.0075 47.0927C93.0675 47.1587 93.0975 47.2397 93.0975 47.3357C93.0975 47.4317 93.0555 47.5217 92.9715 47.6057C92.8875 47.6837 92.7795 47.7227 92.6475 47.7227C92.3175 47.7227 91.9785 47.6927 91.6305 47.6327C91.2885 47.5667 90.9675 47.4707 90.6675 47.3447C90.3675 47.2127 90.1125 47.0477 89.9025 46.8497C89.8005 46.7177 89.6865 46.5857 89.5605 46.4537C89.4345 46.3217 89.2965 46.1897 89.1465 46.0577C89.0025 45.9197 88.8465 45.7907 88.6785 45.6707C88.6425 45.6407 88.6065 45.5867 88.5705 45.5087C88.5345 45.4307 88.5045 45.3497 88.4805 45.2657C88.4565 45.1817 88.4445 45.1187 88.4445 45.0767C88.4445 44.9867 88.5015 44.8787 88.6155 44.7527C88.7295 44.6267 88.8825 44.5067 89.0745 44.3927C89.2665 44.2727 89.4855 44.1737 89.7315 44.0957C89.9775 44.0177 90.2325 43.9787 90.4965 43.9787C90.8385 43.9787 91.1145 44.0297 91.3245 44.1317C91.5405 44.2337 91.6965 44.3657 91.7925 44.5277C91.8945 44.6837 91.9455 44.8517 91.9455 45.0317C91.9455 45.2957 91.8795 45.5597 91.7475 45.8237C91.6155 46.0817 91.4265 46.3247 91.1805 46.5527C90.9345 46.7807 90.6465 46.9847 90.3165 47.1647C89.9865 47.3387 89.6205 47.4767 89.2185 47.5787C88.8225 47.6747 88.4025 47.7227 87.9585 47.7227ZM92.6519 47.7227L92.7329 46.9847C93.0749 46.9847 93.3149 46.9517 93.4529 46.8857C93.5909 46.8197 93.6689 46.7027 93.6869 46.5347C93.7109 46.3667 93.7169 46.1327 93.7049 45.8327L93.5339 41.2517H94.2629L94.4429 45.7517C94.4549 46.0697 94.4429 46.3517 94.4069 46.5977C94.3769 46.8437 94.2989 47.0507 94.1729 47.2187C94.0529 47.3867 93.8699 47.5127 93.6239 47.5967C93.3839 47.6807 93.0599 47.7227 92.6519 47.7227ZM95.8177 47.6777L95.6377 41.2517H96.3667L96.5467 47.6777H95.8177ZM103.635 47.7227C103.311 47.7227 103.023 47.6777 102.771 47.5877C102.525 47.4917 102.327 47.3327 102.177 47.1107C102.033 46.8827 101.952 46.5677 101.934 46.1657L101.79 43.0337H102.519L102.663 46.0037C102.681 46.2857 102.732 46.4987 102.816 46.6427C102.9 46.7807 103.017 46.8737 103.167 46.9217C103.323 46.9637 103.509 46.9847 103.725 46.9847C103.851 46.9847 103.941 47.0207 103.995 47.0927C104.055 47.1587 104.085 47.2397 104.085 47.3357C104.085 47.4317 104.043 47.5217 103.959 47.6057C103.875 47.6837 103.767 47.7227 103.635 47.7227ZM102.276 46.7327C101.934 46.8407 101.601 46.8947 101.277 46.8947C100.953 46.8947 100.659 46.8467 100.395 46.7507C100.131 46.6547 99.9212 46.5167 99.7652 46.3367C99.6092 46.1507 99.5312 45.9287 99.5312 45.6707C99.5312 45.4187 99.5942 45.1817 99.7202 44.9597C99.8522 44.7377 100.029 44.5397 100.251 44.3657C100.479 44.1917 100.74 44.0477 101.034 43.9337C101.334 43.8137 101.652 43.7327 101.988 43.6907L102.114 44.4467C101.814 44.4587 101.547 44.5007 101.313 44.5727C101.085 44.6387 100.89 44.7257 100.728 44.8337C100.572 44.9417 100.452 45.0587 100.368 45.1847C100.284 45.3107 100.242 45.4337 100.242 45.5537C100.242 45.6857 100.29 45.7937 100.386 45.8777C100.482 45.9617 100.605 46.0277 100.755 46.0757C100.905 46.1177 101.07 46.1447 101.25 46.1567C101.43 46.1627 101.604 46.1567 101.772 46.1387C101.94 46.1147 102.084 46.0817 102.204 46.0397L102.276 46.7327ZM102.087 41.9987C101.961 41.9987 101.853 41.9567 101.763 41.8727C101.679 41.7827 101.637 41.6777 101.637 41.5577C101.637 41.4377 101.679 41.3327 101.763 41.2427C101.853 41.1527 101.961 41.1077 102.087 41.1077C102.207 41.1077 102.309 41.1527 102.393 41.2427C102.483 41.3327 102.528 41.4377 102.528 41.5577C102.528 41.6777 102.483 41.7827 102.393 41.8727C102.309 41.9567 102.207 41.9987 102.087 41.9987ZM100.854 41.9987C100.728 41.9987 100.62 41.9567 100.53 41.8727C100.446 41.7827 100.404 41.6777 100.404 41.5577C100.404 41.4377 100.446 41.3327 100.53 41.2427C100.62 41.1527 100.728 41.1077 100.854 41.1077C100.974 41.1077 101.076 41.1527 101.16 41.2427C101.25 41.3327 101.295 41.4377 101.295 41.5577C101.295 41.6777 101.25 41.7827 101.16 41.8727C101.076 41.9567 100.974 41.9987 100.854 41.9987ZM103.638 47.7227L103.728 46.9847H106.158C106.284 46.9847 106.374 47.0207 106.428 47.0927C106.488 47.1587 106.518 47.2397 106.518 47.3357C106.518 47.4317 106.476 47.5217 106.392 47.6057C106.308 47.6837 106.2 47.7227 106.068 47.7227H103.638ZM106.064 47.7227L106.154 46.9847H108.584C108.71 46.9847 108.8 47.0207 108.854 47.0927C108.914 47.1587 108.944 47.2397 108.944 47.3357C108.944 47.4317 108.902 47.5217 108.818 47.6057C108.734 47.6837 108.626 47.7227 108.494 47.7227H106.064ZM108.49 47.7227L108.58 46.9847H111.01C111.136 46.9847 111.226 47.0207 111.28 47.0927C111.34 47.1587 111.37 47.2397 111.37 47.3357C111.37 47.4317 111.328 47.5217 111.244 47.6057C111.16 47.6837 111.052 47.7227 110.92 47.7227H108.49ZM110.916 47.7227L111.006 46.9847C111.258 46.9847 111.456 46.9637 111.6 46.9217C111.744 46.8737 111.852 46.7867 111.924 46.6607C112.002 46.5287 112.068 46.3397 112.122 46.0937C112.176 45.8477 112.242 45.5267 112.32 45.1307L113.022 45.2657C112.998 45.3737 112.971 45.4937 112.941 45.6257C112.911 45.7577 112.884 45.8897 112.86 46.0217C112.842 46.1477 112.833 46.2587 112.833 46.3547C112.833 46.4747 112.86 46.5827 112.914 46.6787C112.968 46.7747 113.085 46.8497 113.265 46.9037C113.445 46.9577 113.721 46.9847 114.093 46.9847C114.219 46.9847 114.309 47.0207 114.363 47.0927C114.423 47.1587 114.453 47.2397 114.453 47.3357C114.453 47.4317 114.411 47.5217 114.327 47.6057C114.243 47.6837 114.135 47.7227 114.003 47.7227C113.613 47.7227 113.307 47.6897 113.085 47.6237C112.863 47.5517 112.701 47.4467 112.599 47.3087C112.497 47.1647 112.428 46.9907 112.392 46.7867L112.662 46.8047C112.566 46.9967 112.461 47.1527 112.347 47.2727C112.239 47.3927 112.119 47.4857 111.987 47.5517C111.855 47.6177 111.702 47.6627 111.528 47.6867C111.354 47.7107 111.15 47.7227 110.916 47.7227ZM111.501 44.1407L111.393 43.6547C111.549 43.6187 111.675 43.5887 111.771 43.5647C111.867 43.5407 111.975 43.5137 112.095 43.4837L112.05 43.6727C111.894 43.6247 111.744 43.5227 111.6 43.3667C111.462 43.2107 111.393 43.0337 111.393 42.8357C111.393 42.6557 111.435 42.5057 111.519 42.3857C111.609 42.2597 111.723 42.1667 111.861 42.1067C112.005 42.0467 112.158 42.0167 112.32 42.0167C112.386 42.0167 112.455 42.0227 112.527 42.0347C112.605 42.0467 112.677 42.0647 112.743 42.0887L112.671 42.5387C112.611 42.5267 112.554 42.5147 112.5 42.5027C112.446 42.4907 112.386 42.4847 112.32 42.4847C112.182 42.4847 112.074 42.5147 111.996 42.5747C111.918 42.6287 111.879 42.7067 111.879 42.8087C111.879 42.9347 111.918 43.0427 111.996 43.1327C112.08 43.2227 112.173 43.2947 112.275 43.3487C112.383 43.3967 112.47 43.4207 112.536 43.4207L112.167 43.4567C112.329 43.4147 112.479 43.3727 112.617 43.3307C112.761 43.2827 112.89 43.2377 113.004 43.1957L113.148 43.6547C113.004 43.7087 112.833 43.7657 112.635 43.8257C112.443 43.8857 112.248 43.9427 112.05 43.9967C111.852 44.0507 111.669 44.0987 111.501 44.1407ZM114 47.7227L114.09 46.9847C114.39 46.9847 114.624 46.9637 114.792 46.9217C114.96 46.8737 115.086 46.7867 115.17 46.6607C115.26 46.5287 115.332 46.3397 115.386 46.0937C115.44 45.8477 115.506 45.5267 115.584 45.1307L116.286 45.2657C116.262 45.3737 116.235 45.4937 116.205 45.6257C116.175 45.7577 116.148 45.8897 116.124 46.0217C116.106 46.1477 116.097 46.2587 116.097 46.3547C116.097 46.4447 116.103 46.5287 116.115 46.6067C116.127 46.6847 116.172 46.7507 116.25 46.8047C116.328 46.8587 116.46 46.9037 116.646 46.9397C116.832 46.9697 117.099 46.9847 117.447 46.9847C117.573 46.9847 117.663 47.0207 117.717 47.0927C117.777 47.1587 117.807 47.2397 117.807 47.3357C117.807 47.4317 117.765 47.5217 117.681 47.6057C117.597 47.6837 117.489 47.7227 117.357 47.7227C116.991 47.7227 116.7 47.7047 116.484 47.6687C116.268 47.6267 116.103 47.5667 115.989 47.4887C115.881 47.4107 115.803 47.3147 115.755 47.2007C115.713 47.0807 115.68 46.9427 115.656 46.7867L115.926 46.8047C115.83 46.9967 115.725 47.1527 115.611 47.2727C115.503 47.3927 115.377 47.4857 115.233 47.5517C115.089 47.6177 114.915 47.6627 114.711 47.6867C114.513 47.7107 114.276 47.7227 114 47.7227ZM116.268 49.4237C116.142 49.4237 116.034 49.3787 115.944 49.2887C115.86 49.2047 115.818 49.1027 115.818 48.9827C115.818 48.8627 115.86 48.7577 115.944 48.6677C116.034 48.5777 116.142 48.5327 116.268 48.5327C116.388 48.5327 116.49 48.5777 116.574 48.6677C116.664 48.7577 116.709 48.8627 116.709 48.9827C116.709 49.1027 116.664 49.2047 116.574 49.2887C116.49 49.3787 116.388 49.4237 116.268 49.4237ZM115.035 49.4237C114.909 49.4237 114.801 49.3787 114.711 49.2887C114.627 49.2047 114.585 49.1027 114.585 48.9827C114.585 48.8627 114.627 48.7577 114.711 48.6677C114.801 48.5777 114.909 48.5327 115.035 48.5327C115.155 48.5327 115.257 48.5777 115.341 48.6677C115.431 48.7577 115.476 48.8627 115.476 48.9827C115.476 49.1027 115.431 49.2047 115.341 49.2887C115.257 49.3787 115.155 49.4237 115.035 49.4237ZM120.121 49.6307C119.743 49.6307 119.401 49.5437 119.095 49.3697C118.789 49.1957 118.546 48.9317 118.366 48.5777C118.186 48.2297 118.096 47.7917 118.096 47.2637C118.096 46.7777 118.153 46.3307 118.267 45.9227C118.381 45.5147 118.531 45.1637 118.717 44.8697C118.909 44.5697 119.119 44.3387 119.347 44.1767C119.575 44.0147 119.8 43.9337 120.022 43.9337C120.22 43.9337 120.397 43.9907 120.553 44.1047C120.709 44.2187 120.832 44.3777 120.922 44.5817C121.012 44.7857 121.057 45.0287 121.057 45.3107C121.057 45.5627 121.018 45.8147 120.94 46.0667C120.862 46.3187 120.715 46.5467 120.499 46.7507C120.289 46.9547 119.986 47.1107 119.59 47.2187L120.175 46.7237C120.367 46.7717 120.559 46.8167 120.751 46.8587C120.949 46.8947 121.15 46.9247 121.354 46.9487C121.564 46.9727 121.783 46.9847 122.011 46.9847C122.137 46.9847 122.227 47.0207 122.281 47.0927C122.341 47.1587 122.371 47.2397 122.371 47.3357C122.371 47.4317 122.329 47.5217 122.245 47.6057C122.161 47.6837 122.053 47.7227 121.921 47.7227C121.759 47.7227 121.585 47.7137 121.399 47.6957C121.213 47.6777 121.027 47.6567 120.841 47.6327C120.655 47.6027 120.478 47.5697 120.31 47.5337L121.093 47.5067C121.243 47.6687 121.345 47.8427 121.399 48.0287C121.459 48.2207 121.474 48.4097 121.444 48.5957C121.42 48.7877 121.351 48.9617 121.237 49.1177C121.129 49.2737 120.982 49.3967 120.796 49.4867C120.61 49.5827 120.385 49.6307 120.121 49.6307ZM117.358 47.7227L117.448 46.9847C117.574 46.9847 117.7 46.9847 117.826 46.9847C117.952 46.9847 118.072 46.9817 118.186 46.9757L118.222 47.6417C118.084 47.6657 117.94 47.6837 117.79 47.6957C117.646 47.7137 117.502 47.7227 117.358 47.7227ZM120.139 48.8927C120.247 48.8927 120.352 48.8717 120.454 48.8297C120.562 48.7937 120.649 48.7277 120.715 48.6317C120.787 48.5417 120.823 48.4187 120.823 48.2627C120.823 48.1127 120.784 47.9747 120.706 47.8487C120.634 47.7287 120.505 47.6297 120.319 47.5517C120.133 47.4737 119.869 47.4347 119.527 47.4347C119.455 47.4347 119.374 47.4407 119.284 47.4527C119.2 47.4587 119.113 47.4707 119.023 47.4887C118.933 47.5007 118.84 47.5187 118.744 47.5427V46.9307C118.972 46.9007 119.179 46.8557 119.365 46.7957C119.557 46.7297 119.725 46.6397 119.869 46.5257C120.013 46.4117 120.124 46.2617 120.202 46.0757C120.28 45.8897 120.319 45.6617 120.319 45.3917C120.319 45.3017 120.307 45.1997 120.283 45.0857C120.265 44.9717 120.229 44.8757 120.175 44.7977C120.121 44.7137 120.049 44.6717 119.959 44.6717C119.869 44.6717 119.758 44.7317 119.626 44.8517C119.5 44.9717 119.374 45.1397 119.248 45.3557C119.128 45.5717 119.026 45.8297 118.942 46.1297C118.864 46.4237 118.825 46.7477 118.825 47.1017C118.825 47.4917 118.867 47.8037 118.951 48.0377C119.041 48.2777 119.155 48.4577 119.293 48.5777C119.431 48.7037 119.575 48.7877 119.725 48.8297C119.875 48.8717 120.013 48.8927 120.139 48.8927ZM121.919 47.7227L122 46.9847C122.342 46.9847 122.582 46.9517 122.72 46.8857C122.858 46.8197 122.936 46.7027 122.954 46.5347C122.978 46.3667 122.984 46.1327 122.972 45.8327L122.801 41.2517H123.53L123.71 45.7517C123.722 46.0697 123.71 46.3517 123.674 46.5977C123.644 46.8437 123.566 47.0507 123.44 47.2187C123.32 47.3867 123.137 47.5127 122.891 47.5967C122.651 47.6807 122.327 47.7227 121.919 47.7227ZM125.085 47.6777L124.905 41.2517H125.634L125.814 47.6777H125.085Z" fill="black"/>
<path d="M15.5691 62.152H15.5371C15.4784 62.424 15.3184 62.6507 15.0571 62.832C14.8011 63.008 14.4597 63.096 14.0331 63.096C13.7024 63.096 13.3957 63.0347 13.1131 62.912C12.8304 62.784 12.5851 62.6 12.3771 62.36C12.1744 62.1147 12.0144 61.8133 11.8971 61.456C11.7851 61.0933 11.7291 60.6773 11.7291 60.208C11.7291 59.744 11.7877 59.3333 11.9051 58.976C12.0224 58.6133 12.1877 58.3093 12.4011 58.064C12.6144 57.8187 12.8704 57.6347 13.1691 57.512C13.4677 57.384 13.8011 57.32 14.1691 57.32C14.6704 57.32 15.0944 57.432 15.4411 57.656C15.7877 57.8747 16.0571 58.1813 16.2491 58.576L15.5131 59.008C15.4064 58.7467 15.2411 58.536 15.0171 58.376C14.7931 58.2107 14.5104 58.128 14.1691 58.128C13.7264 58.128 13.3691 58.2693 13.0971 58.552C12.8304 58.8347 12.6971 59.2347 12.6971 59.752V60.664C12.6971 61.1813 12.8304 61.5813 13.0971 61.864C13.3691 62.1467 13.7264 62.288 14.1691 62.288C14.3451 62.288 14.5131 62.2667 14.6731 62.224C14.8331 62.176 14.9717 62.1093 15.0891 62.024C15.2117 61.9333 15.3077 61.824 15.3771 61.696C15.4517 61.5627 15.4891 61.408 15.4891 61.232V60.8H14.3371V60.024H16.3611V63H15.5691V62.152ZM19.1857 63.096C18.887 63.096 18.6204 63.0453 18.3857 62.944C18.151 62.8427 17.951 62.6987 17.7857 62.512C17.6204 62.32 17.4924 62.0907 17.4017 61.824C17.3164 61.552 17.2737 61.2507 17.2737 60.92C17.2737 60.5893 17.3164 60.2907 17.4017 60.024C17.4924 59.752 17.6204 59.5227 17.7857 59.336C17.951 59.144 18.151 58.9973 18.3857 58.896C18.6204 58.7947 18.887 58.744 19.1857 58.744C19.4897 58.744 19.7564 58.7973 19.9857 58.904C20.2204 59.0107 20.415 59.16 20.5697 59.352C20.7244 59.5387 20.839 59.7573 20.9137 60.008C20.9937 60.2587 21.0337 60.528 21.0337 60.816V61.144H18.1777V61.28C18.1777 61.6 18.271 61.864 18.4577 62.072C18.6497 62.2747 18.9217 62.376 19.2737 62.376C19.5297 62.376 19.7457 62.32 19.9217 62.208C20.0977 62.096 20.247 61.944 20.3697 61.752L20.8817 62.256C20.727 62.512 20.503 62.7173 20.2097 62.872C19.9164 63.0213 19.575 63.096 19.1857 63.096ZM19.1857 59.424C19.0364 59.424 18.8977 59.4507 18.7697 59.504C18.647 59.5573 18.5404 59.632 18.4497 59.728C18.3644 59.824 18.2977 59.9387 18.2497 60.072C18.2017 60.2053 18.1777 60.352 18.1777 60.512V60.568H20.1137V60.488C20.1137 60.168 20.031 59.912 19.8657 59.72C19.7004 59.5227 19.4737 59.424 19.1857 59.424ZM21.999 63V58.84H22.871V59.528H22.911C23.0017 59.304 23.1377 59.1173 23.319 58.968C23.5057 58.8187 23.759 58.744 24.079 58.744C24.5057 58.744 24.8363 58.8853 25.071 59.168C25.311 59.4453 25.431 59.8427 25.431 60.36V63H24.559V60.472C24.559 59.8213 24.2977 59.496 23.775 59.496C23.663 59.496 23.551 59.512 23.439 59.544C23.3323 59.5707 23.2363 59.6133 23.151 59.672C23.0657 59.7307 22.9963 59.8053 22.943 59.896C22.895 59.9867 22.871 60.0933 22.871 60.216V63H21.999ZM28.2716 63.096C27.973 63.096 27.7063 63.0453 27.4716 62.944C27.237 62.8427 27.037 62.6987 26.8716 62.512C26.7063 62.32 26.5783 62.0907 26.4876 61.824C26.4023 61.552 26.3596 61.2507 26.3596 60.92C26.3596 60.5893 26.4023 60.2907 26.4876 60.024C26.5783 59.752 26.7063 59.5227 26.8716 59.336C27.037 59.144 27.237 58.9973 27.4716 58.896C27.7063 58.7947 27.973 58.744 28.2716 58.744C28.5756 58.744 28.8423 58.7973 29.0716 58.904C29.3063 59.0107 29.501 59.16 29.6556 59.352C29.8103 59.5387 29.925 59.7573 29.9996 60.008C30.0796 60.2587 30.1196 60.528 30.1196 60.816V61.144H27.2636V61.28C27.2636 61.6 27.357 61.864 27.5436 62.072C27.7356 62.2747 28.0076 62.376 28.3596 62.376C28.6156 62.376 28.8316 62.32 29.0076 62.208C29.1836 62.096 29.333 61.944 29.4556 61.752L29.9676 62.256C29.813 62.512 29.589 62.7173 29.2956 62.872C29.0023 63.0213 28.661 63.096 28.2716 63.096ZM28.2716 59.424C28.1223 59.424 27.9836 59.4507 27.8556 59.504C27.733 59.5573 27.6263 59.632 27.5356 59.728C27.4503 59.824 27.3836 59.9387 27.3356 60.072C27.2876 60.2053 27.2636 60.352 27.2636 60.512V60.568H29.1996V60.488C29.1996 60.168 29.117 59.912 28.9516 59.72C28.7863 59.5227 28.5596 59.424 28.2716 59.424ZM31.0849 63V58.84H31.9569V59.64H31.9969C32.0556 59.4267 32.1783 59.24 32.3649 59.08C32.5516 58.92 32.8103 58.84 33.1409 58.84H33.3729V59.68H33.0289C32.6823 59.68 32.4156 59.736 32.2289 59.848C32.0476 59.96 31.9569 60.1253 31.9569 60.344V63H31.0849ZM37.1329 63C36.9036 63 36.7276 62.936 36.6049 62.808C36.4823 62.6747 36.4076 62.5067 36.3809 62.304H36.3409C36.2609 62.5653 36.1143 62.7627 35.9009 62.896C35.6876 63.0293 35.4289 63.096 35.1249 63.096C34.6929 63.096 34.3596 62.984 34.1249 62.76C33.8956 62.536 33.7809 62.2347 33.7809 61.856C33.7809 61.44 33.9303 61.128 34.2289 60.92C34.5329 60.712 34.9756 60.608 35.5569 60.608H36.3089V60.256C36.3089 60 36.2396 59.8027 36.1009 59.664C35.9623 59.5253 35.7463 59.456 35.4529 59.456C35.2076 59.456 35.0076 59.5093 34.8529 59.616C34.6983 59.7227 34.5676 59.8587 34.4609 60.024L33.9409 59.552C34.0796 59.3173 34.2743 59.1253 34.5249 58.976C34.7756 58.8213 35.1036 58.744 35.5089 58.744C36.0476 58.744 36.4609 58.8693 36.7489 59.12C37.0369 59.3707 37.1809 59.7307 37.1809 60.2V62.288H37.6209V63H37.1329ZM35.3729 62.432C35.6449 62.432 35.8689 62.3733 36.0449 62.256C36.2209 62.1333 36.3089 61.9707 36.3089 61.768V61.168H35.5729C34.9703 61.168 34.6689 61.3547 34.6689 61.728V61.872C34.6689 62.0587 34.7303 62.2 34.8529 62.296C34.9809 62.3867 35.1543 62.432 35.3729 62.432ZM39.3636 63C39.0649 63 38.8409 62.9253 38.6916 62.776C38.5476 62.6213 38.4756 62.408 38.4756 62.136V57.08H39.3476V62.288H39.9236V63H39.3636ZM46.1994 63L45.6954 61.488H43.6074L43.1194 63H42.1994L44.1034 57.416H45.2394L47.1434 63H46.1994ZM44.6714 58.248H44.6314L43.8234 60.712H45.4714L44.6714 58.248ZM50.4643 62.312H50.4323C50.395 62.4133 50.3443 62.512 50.2803 62.608C50.2216 62.704 50.1443 62.7893 50.0483 62.864C49.9576 62.9333 49.8456 62.9893 49.7123 63.032C49.5843 63.0747 49.435 63.096 49.2643 63.096C48.8323 63.096 48.4963 62.9573 48.2563 62.68C48.0216 62.4027 47.9043 62.0053 47.9043 61.488V58.84H48.7763V61.376C48.7763 62.0213 49.043 62.344 49.5763 62.344C49.6883 62.344 49.7976 62.3307 49.9043 62.304C50.011 62.272 50.1043 62.2267 50.1843 62.168C50.2696 62.1093 50.3363 62.0347 50.3843 61.944C50.4376 61.8533 50.4643 61.7467 50.4643 61.624V58.84H51.3363V63H50.4643V62.312ZM53.7369 63C53.4329 63 53.2036 62.9227 53.0489 62.768C52.8943 62.608 52.8169 62.384 52.8169 62.096V59.552H52.1689V58.84H52.5209C52.6649 58.84 52.7636 58.808 52.8169 58.744C52.8756 58.68 52.9049 58.576 52.9049 58.432V57.704H53.6889V58.84H54.5609V59.552H53.6889V62.288H54.4969V63H53.7369ZM55.5068 57.08H56.3788V59.528H56.4188C56.5095 59.304 56.6455 59.1173 56.8268 58.968C57.0135 58.8187 57.2668 58.744 57.5868 58.744C58.0135 58.744 58.3441 58.8853 58.5788 59.168C58.8188 59.4453 58.9388 59.8427 58.9388 60.36V63H58.0668V60.464C58.0668 59.8187 57.8055 59.496 57.2828 59.496C57.1708 59.496 57.0588 59.512 56.9468 59.544C56.8401 59.5707 56.7441 59.6133 56.6588 59.672C56.5735 59.7307 56.5041 59.8053 56.4508 59.896C56.4028 59.9867 56.3788 60.0907 56.3788 60.208V63H55.5068V57.08ZM61.7794 63.096C61.4914 63.096 61.2274 63.0453 60.9874 62.944C60.7528 62.8427 60.5528 62.6987 60.3874 62.512C60.2221 62.32 60.0941 62.0907 60.0034 61.824C59.9128 61.552 59.8674 61.2507 59.8674 60.92C59.8674 60.5893 59.9128 60.2907 60.0034 60.024C60.0941 59.752 60.2221 59.5227 60.3874 59.336C60.5528 59.144 60.7528 58.9973 60.9874 58.896C61.2274 58.7947 61.4914 58.744 61.7794 58.744C62.0674 58.744 62.3288 58.7947 62.5634 58.896C62.8034 58.9973 63.0061 59.144 63.1714 59.336C63.3368 59.5227 63.4648 59.752 63.5554 60.024C63.6461 60.2907 63.6914 60.5893 63.6914 60.92C63.6914 61.2507 63.6461 61.552 63.5554 61.824C63.4648 62.0907 63.3368 62.32 63.1714 62.512C63.0061 62.6987 62.8034 62.8427 62.5634 62.944C62.3288 63.0453 62.0674 63.096 61.7794 63.096ZM61.7794 62.376C62.0781 62.376 62.3181 62.2853 62.4994 62.104C62.6808 61.9173 62.7714 61.64 62.7714 61.272V60.568C62.7714 60.2 62.6808 59.9253 62.4994 59.744C62.3181 59.5573 62.0781 59.464 61.7794 59.464C61.4808 59.464 61.2408 59.5573 61.0594 59.744C60.8781 59.9253 60.7874 60.2 60.7874 60.568V61.272C60.7874 61.64 60.8781 61.9173 61.0594 62.104C61.2408 62.2853 61.4808 62.376 61.7794 62.376ZM64.6631 63V58.84H65.5351V59.64H65.5751C65.6337 59.4267 65.7564 59.24 65.9431 59.08C66.1297 58.92 66.3884 58.84 66.7191 58.84H66.9511V59.68H66.6071C66.2604 59.68 65.9937 59.736 65.8071 59.848C65.6257 59.96 65.5351 60.1253 65.5351 60.344V63H64.6631ZM68.1656 58.096C67.9842 58.096 67.8509 58.0533 67.7656 57.968C67.6856 57.8827 67.6456 57.7733 67.6456 57.64V57.504C67.6456 57.3707 67.6856 57.2613 67.7656 57.176C67.8509 57.0907 67.9842 57.048 68.1656 57.048C68.3469 57.048 68.4776 57.0907 68.5576 57.176C68.6376 57.2613 68.6776 57.3707 68.6776 57.504V57.64C68.6776 57.7733 68.6376 57.8827 68.5576 57.968C68.4776 58.0533 68.3469 58.096 68.1656 58.096ZM67.7256 58.84H68.5976V63H67.7256V58.84ZM70.9948 63C70.6908 63 70.4614 62.9227 70.3068 62.768C70.1521 62.608 70.0748 62.384 70.0748 62.096V59.552H69.4268V58.84H69.7788C69.9228 58.84 70.0214 58.808 70.0748 58.744C70.1334 58.68 70.1628 58.576 70.1628 58.432V57.704H70.9468V58.84H71.8188V59.552H70.9468V62.288H71.7548V63H70.9948ZM75.3166 58.84H76.1566L74.4046 63.824C74.3566 63.9627 74.3006 64.08 74.2366 64.176C74.178 64.2773 74.106 64.3573 74.0206 64.416C73.9406 64.48 73.842 64.5253 73.7246 64.552C73.6073 64.584 73.4686 64.6 73.3086 64.6H72.8046V63.888H73.5086L73.7486 63.184L72.2366 58.84H73.1086L73.9406 61.288L74.1806 62.192H74.2206L74.4846 61.288L75.3166 58.84ZM80.3966 63.096C80.1086 63.096 79.8446 63.0453 79.6046 62.944C79.37 62.8427 79.17 62.6987 79.0046 62.512C78.8393 62.32 78.7113 62.0907 78.6206 61.824C78.53 61.552 78.4846 61.2507 78.4846 60.92C78.4846 60.5893 78.53 60.2907 78.6206 60.024C78.7113 59.752 78.8393 59.5227 79.0046 59.336C79.17 59.144 79.37 58.9973 79.6046 58.896C79.8446 58.7947 80.1086 58.744 80.3966 58.744C80.6846 58.744 80.946 58.7947 81.1806 58.896C81.4206 58.9973 81.6233 59.144 81.7886 59.336C81.954 59.5227 82.082 59.752 82.1726 60.024C82.2633 60.2907 82.3086 60.5893 82.3086 60.92C82.3086 61.2507 82.2633 61.552 82.1726 61.824C82.082 62.0907 81.954 62.32 81.7886 62.512C81.6233 62.6987 81.4206 62.8427 81.1806 62.944C80.946 63.0453 80.6846 63.096 80.3966 63.096ZM80.3966 62.376C80.6953 62.376 80.9353 62.2853 81.1166 62.104C81.298 61.9173 81.3886 61.64 81.3886 61.272V60.568C81.3886 60.2 81.298 59.9253 81.1166 59.744C80.9353 59.5573 80.6953 59.464 80.3966 59.464C80.098 59.464 79.858 59.5573 79.6766 59.744C79.4953 59.9253 79.4046 60.2 79.4046 60.568V61.272C79.4046 61.64 79.4953 61.9173 79.6766 62.104C79.858 62.2853 80.098 62.376 80.3966 62.376ZM83.4494 59.552H82.8174V58.84H83.4494V58.152C83.4494 57.816 83.5374 57.5547 83.7134 57.368C83.8894 57.176 84.1534 57.08 84.5054 57.08H85.1934V57.792H84.3214V58.84H85.1934V59.552H84.3214V63H83.4494V59.552ZM90.0028 63.096C89.2721 63.096 88.6988 62.8507 88.2828 62.36C87.8668 61.864 87.6588 61.1467 87.6588 60.208C87.6588 59.7387 87.7121 59.3253 87.8188 58.968C87.9254 58.6107 88.0801 58.3093 88.2828 58.064C88.4854 57.8187 88.7308 57.6347 89.0188 57.512C89.3121 57.384 89.6401 57.32 90.0028 57.32C90.4881 57.32 90.8934 57.4267 91.2188 57.64C91.5494 57.8533 91.8081 58.168 91.9948 58.584L91.2348 59C91.1388 58.7333 90.9894 58.5227 90.7868 58.368C90.5894 58.208 90.3281 58.128 90.0028 58.128C89.5708 58.128 89.2321 58.2747 88.9868 58.568C88.7414 58.8613 88.6188 59.2667 88.6188 59.784V60.632C88.6188 61.1493 88.7414 61.5547 88.9868 61.848C89.2321 62.1413 89.5708 62.288 90.0028 62.288C90.3388 62.288 90.6108 62.2027 90.8188 62.032C91.0321 61.856 91.1894 61.632 91.2908 61.36L92.0188 61.8C91.8321 62.2053 91.5708 62.5227 91.2348 62.752C90.8988 62.9813 90.4881 63.096 90.0028 63.096ZM93.3531 58.096C93.1717 58.096 93.0384 58.0533 92.9531 57.968C92.8731 57.8827 92.8331 57.7733 92.8331 57.64V57.504C92.8331 57.3707 92.8731 57.2613 92.9531 57.176C93.0384 57.0907 93.1717 57.048 93.3531 57.048C93.5344 57.048 93.6651 57.0907 93.7451 57.176C93.8251 57.2613 93.8651 57.3707 93.8651 57.504V57.64C93.8651 57.7733 93.8251 57.8827 93.7451 57.968C93.6651 58.0533 93.5344 58.096 93.3531 58.096ZM92.9131 58.84H93.7851V63H92.9131V58.84ZM95.9343 63L94.5183 58.84H95.3823L96.0143 60.736L96.4383 62.192H96.4863L96.9103 60.736L97.5583 58.84H98.3903L96.9583 63H95.9343ZM99.564 58.096C99.3827 58.096 99.2493 58.0533 99.164 57.968C99.084 57.8827 99.044 57.7733 99.044 57.64V57.504C99.044 57.3707 99.084 57.2613 99.164 57.176C99.2493 57.0907 99.3827 57.048 99.564 57.048C99.7453 57.048 99.876 57.0907 99.956 57.176C100.036 57.2613 100.076 57.3707 100.076 57.504V57.64C100.076 57.7733 100.036 57.8827 99.956 57.968C99.876 58.0533 99.7453 58.096 99.564 58.096ZM99.124 58.84H99.996V63H99.124V58.84ZM102.129 63C101.831 63 101.607 62.9253 101.457 62.776C101.313 62.6213 101.241 62.408 101.241 62.136V57.08H102.113V62.288H102.689V63H102.129ZM108.965 63L108.461 61.488H106.373L105.885 63H104.965L106.869 57.416H108.005L109.909 63H108.965ZM107.437 58.248H107.397L106.589 60.712H108.237L107.437 58.248ZM111.419 63L110.003 58.84H110.867L111.499 60.736L111.923 62.192H111.971L112.395 60.736L113.043 58.84H113.875L112.443 63H111.419ZM115.048 58.096C114.867 58.096 114.734 58.0533 114.648 57.968C114.568 57.8827 114.528 57.7733 114.528 57.64V57.504C114.528 57.3707 114.568 57.2613 114.648 57.176C114.734 57.0907 114.867 57.048 115.048 57.048C115.23 57.048 115.36 57.0907 115.44 57.176C115.52 57.2613 115.56 57.3707 115.56 57.504V57.64C115.56 57.7733 115.52 57.8827 115.44 57.968C115.36 58.0533 115.23 58.096 115.048 58.096ZM114.608 58.84H115.48V63H114.608V58.84ZM119.774 63C119.544 63 119.368 62.936 119.246 62.808C119.123 62.6747 119.048 62.5067 119.022 62.304H118.982C118.902 62.5653 118.755 62.7627 118.542 62.896C118.328 63.0293 118.07 63.096 117.766 63.096C117.334 63.096 117 62.984 116.766 62.76C116.536 62.536 116.422 62.2347 116.422 61.856C116.422 61.44 116.571 61.128 116.87 60.92C117.174 60.712 117.616 60.608 118.198 60.608H118.95V60.256C118.95 60 118.88 59.8027 118.742 59.664C118.603 59.5253 118.387 59.456 118.094 59.456C117.848 59.456 117.648 59.5093 117.494 59.616C117.339 59.7227 117.208 59.8587 117.102 60.024L116.582 59.552C116.72 59.3173 116.915 59.1253 117.166 58.976C117.416 58.8213 117.744 58.744 118.15 58.744C118.688 58.744 119.102 58.8693 119.39 59.12C119.678 59.3707 119.822 59.7307 119.822 60.2V62.288H120.262V63H119.774ZM118.014 62.432C118.286 62.432 118.51 62.3733 118.686 62.256C118.862 62.1333 118.95 61.9707 118.95 61.768V61.168H118.214C117.611 61.168 117.31 61.3547 117.31 61.728V61.872C117.31 62.0587 117.371 62.2 117.494 62.296C117.622 62.3867 117.795 62.432 118.014 62.432ZM122.245 63C121.941 63 121.711 62.9227 121.557 62.768C121.402 62.608 121.325 62.384 121.325 62.096V59.552H120.677V58.84H121.029C121.173 58.84 121.271 58.808 121.325 58.744C121.383 58.68 121.413 58.576 121.413 58.432V57.704H122.197V58.84H123.069V59.552H122.197V62.288H123.005V63H122.245ZM124.455 58.096C124.273 58.096 124.14 58.0533 124.055 57.968C123.975 57.8827 123.935 57.7733 123.935 57.64V57.504C123.935 57.3707 123.975 57.2613 124.055 57.176C124.14 57.0907 124.273 57.048 124.455 57.048C124.636 57.048 124.767 57.0907 124.847 57.176C124.927 57.2613 124.967 57.3707 124.967 57.504V57.64C124.967 57.7733 124.927 57.8827 124.847 57.968C124.767 58.0533 124.636 58.096 124.455 58.096ZM124.015 58.84H124.887V63H124.015V58.84ZM127.764 63.096C127.476 63.096 127.212 63.0453 126.972 62.944C126.737 62.8427 126.537 62.6987 126.372 62.512C126.206 62.32 126.078 62.0907 125.988 61.824C125.897 61.552 125.852 61.2507 125.852 60.92C125.852 60.5893 125.897 60.2907 125.988 60.024C126.078 59.752 126.206 59.5227 126.372 59.336C126.537 59.144 126.737 58.9973 126.972 58.896C127.212 58.7947 127.476 58.744 127.764 58.744C128.052 58.744 128.313 58.7947 128.548 58.896C128.788 58.9973 128.99 59.144 129.156 59.336C129.321 59.5227 129.449 59.752 129.54 60.024C129.63 60.2907 129.676 60.5893 129.676 60.92C129.676 61.2507 129.63 61.552 129.54 61.824C129.449 62.0907 129.321 62.32 129.156 62.512C128.99 62.6987 128.788 62.8427 128.548 62.944C128.313 63.0453 128.052 63.096 127.764 63.096ZM127.764 62.376C128.062 62.376 128.302 62.2853 128.484 62.104C128.665 61.9173 128.756 61.64 128.756 61.272V60.568C128.756 60.2 128.665 59.9253 128.484 59.744C128.302 59.5573 128.062 59.464 127.764 59.464C127.465 59.464 127.225 59.5573 127.044 59.744C126.862 59.9253 126.772 60.2 126.772 60.568V61.272C126.772 61.64 126.862 61.9173 127.044 62.104C127.225 62.2853 127.465 62.376 127.764 62.376ZM130.647 63V58.84H131.519V59.528H131.559C131.65 59.304 131.786 59.1173 131.967 58.968C132.154 58.8187 132.407 58.744 132.727 58.744C133.154 58.744 133.485 58.8853 133.719 59.168C133.959 59.4453 134.079 59.8427 134.079 60.36V63H133.207V60.472C133.207 59.8213 132.946 59.496 132.423 59.496C132.311 59.496 132.199 59.512 132.087 59.544C131.981 59.5707 131.885 59.6133 131.799 59.672C131.714 59.7307 131.645 59.8053 131.591 59.896C131.543 59.9867 131.519 60.0933 131.519 60.216V63H130.647Z" fill="black"/>
<path d="M108.584 4.48396C109.546 4.48396 110.326 3.70405 110.326 2.74198C110.326 1.77991 109.546 1 108.584 1C107.622 1 106.842 1.77991 106.842 2.74198C106.842 3.70405 107.622 4.48396 108.584 4.48396Z" stroke="white" stroke-width="0.25" stroke-linecap="round" stroke-linejoin="round"/>
<path d="M108.155 4.16211H107.903V2.06811H108.737C108.921 2.06811 109.064 2.11911 109.166 2.22111C109.27 2.32311 109.322 2.47011 109.322 2.66211C109.322 2.81611 109.286 2.94311 109.214 3.04311C109.144 3.14111 109.04 3.20611 108.902 3.23811L109.382 4.16211H109.097L108.644 3.26211H108.155V4.16211ZM108.737 3.04611C108.837 3.04611 108.914 3.02011 108.968 2.96811C109.024 2.91611 109.052 2.84211 109.052 2.74611V2.59011C109.052 2.49411 109.024 2.42011 108.968 2.36811C108.914 2.31611 108.837 2.29011 108.737 2.29011H108.155V3.04611H108.737Z" fill="white"/>
</svg>
