<svg width="23" height="20" viewBox="0 0 23 20" fill="none" xmlns="http://www.w3.org/2000/svg">
<path d="M4.27571 18.5873C4.01731 18.1862 4.02161 17.6386 4.36183 17.2419L9.22396 11.5025L3.50483 8.66083L1.55395 9.79491C1.31278 9.93721 1.01993 9.95445 0.76154 9.84665C0.589276 9.77334 0.455767 9.65692 0.365329 9.51462C0.167226 9.20847 0.167237 8.78588 0.417019 8.4711L1.5841 7.11279L0.649564 6.66864C0.576353 6.63414 0.516059 6.57809 0.472993 6.51341C0.395475 6.38836 0.378258 6.22881 0.442857 6.08651C0.546215 5.8709 0.808906 5.77604 1.02423 5.87953L1.95446 6.32367L2.03199 4.5859C2.1052 3.99946 2.71672 3.64587 3.25935 3.87441C3.423 3.9434 3.56082 4.06414 3.65987 4.21075C3.71155 4.29268 3.75031 4.38323 3.77614 4.4781L4.31878 6.66864L10.4858 8.50991L11.2179 1.0198C11.2911 0.260874 12.0792 -0.209139 12.7812 0.0883952C12.9922 0.178949 13.1688 0.325556 13.2894 0.515288C13.3755 0.644651 13.4315 0.795578 13.4573 0.950813L13.9914 4.31424L14.4565 4.29699C14.6632 4.28837 14.8484 4.39617 14.9517 4.55572C15.0077 4.63765 15.0378 4.73683 15.0422 4.84463C15.0551 5.1551 14.8053 5.42245 14.4952 5.43107L14.1679 5.44401L14.3832 6.7937L14.9732 6.77213C15.18 6.76351 15.3651 6.87131 15.4685 7.03086C15.5245 7.11279 15.5546 7.21196 15.5589 7.31977C15.5719 7.63024 15.3221 7.89759 15.012 7.90621L14.5641 7.92346L14.9603 10.3986L20.4297 12.7185C20.4297 12.7185 22.1911 13.5119 22.7983 14.4433C22.9792 14.7193 23.0567 15.0125 22.9533 15.2971C22.372 16.9271 19.1076 15.6766 19.1076 15.6766L13.6985 13.3826L11.9285 14.6244L12.4367 15.2928C12.4367 15.2928 12.4539 15.3144 12.4625 15.3273C12.6219 15.5731 12.5659 15.9094 12.329 16.0862C12.0792 16.276 11.7218 16.2285 11.5323 15.9784L10.9983 15.2756L9.88718 16.0561L10.1929 16.4571C10.1929 16.4571 10.2102 16.4786 10.2188 16.4916C10.3781 16.7374 10.3221 17.0737 10.0853 17.2505C9.8355 17.4402 9.47805 17.3928 9.28856 17.1427L8.95696 16.7029L5.87345 18.8719C5.55476 19.0961 5.14564 19.1392 4.78388 18.9883C4.56425 18.8977 4.39629 18.7468 4.27571 18.5657" fill="url(#paint0_linear_78_56565)"/>
<path d="M22.9541 15.3089C23.3977 14.0627 20.4304 12.7302 20.4304 12.7302L14.9611 10.4103L14.5649 7.93518L15.0128 7.91793C15.3228 7.90499 15.5726 7.64196 15.5597 7.33149C15.5468 7.02102 15.2841 6.77092 14.974 6.78385L14.384 6.80541L14.1687 5.45573L14.496 5.44279C14.806 5.42986 15.0558 5.16682 15.0429 4.85635C15.03 4.54588 14.7673 4.29577 14.4572 4.30871L13.9921 4.32596L13.4581 0.962531C13.3978 0.578755 13.1437 0.251036 12.782 0.100113C12.08 -0.197421 11.2919 0.272598 11.2187 1.03153L10.4865 8.52162L4.31953 6.68036L3.7769 4.48982C3.70799 4.21816 3.5185 3.99393 3.2601 3.88613C2.71747 3.65759 2.10595 4.01118 2.03274 4.59762L1.95521 6.33539L1.02499 5.89125C0.809656 5.78776 0.546965 5.88263 0.443607 6.09823C0.340249 6.31384 0.434986 6.57687 0.650315 6.68036L1.58485 7.12451L0.417769 8.48282C0.0474032 8.94421 0.219661 9.62983 0.76229 9.85837C1.02068 9.96617 1.31353 9.94893 1.5547 9.80663L3.50558 8.67254L9.22472 11.5142L4.36258 17.2536C3.87163 17.8357 4.08266 18.7283 4.78463 19.0259C5.14208 19.1768 5.55551 19.1337 5.8742 18.9094L8.95771 16.7405L9.28931 17.1803C9.4788 17.4304 9.83625 17.4778 10.086 17.2881C10.3358 17.0984 10.3832 16.7405 10.1937 16.4904L9.88793 16.0893L10.999 15.3089L11.533 16.0117C11.7225 16.2618 12.08 16.3093 12.3298 16.1195C12.5795 15.9298 12.6269 15.5719 12.4374 15.3218L11.9292 14.6534L13.6993 13.4115L19.1083 15.7056C19.1083 15.7056 22.3727 16.9561 22.9541 15.3261V15.3089Z" fill="url(#paint1_linear_78_56565)"/>
<path d="M0.224711 6.05323L0.25158 5.99441C0.346523 5.78658 0.59195 5.69509 0.799515 5.79016L3.6271 7.08519C3.83467 7.18025 3.92604 7.426 3.8311 7.63383L3.80423 7.69265C3.70929 7.90048 3.46385 7.99197 3.25628 7.89691L0.428698 6.60188C0.221133 6.50681 0.129768 6.26106 0.224711 6.05323Z" fill="#BCBACE"/>
<path d="M10.4863 8.51397L11.7482 9.04435L11.7309 2.82632C11.7309 2.82632 11.0806 2.44254 11.072 2.55035C11.0634 2.65384 10.4906 8.51397 10.4906 8.51397H10.4863Z" fill="#BCBACE"/>
<path d="M9.22442 11.502L10.4992 12.0323L6.54143 15.7839L5.84375 15.4906L9.22442 11.502Z" fill="#BCBACE"/>
<defs>
<linearGradient id="paint0_linear_78_56565" x1="11.6111" y1="-0.00195313" x2="11.6111" y2="19.0771" gradientUnits="userSpaceOnUse">
<stop stop-color="#0097FF"/>
<stop offset="1" stop-color="#0375C4"/>
</linearGradient>
<linearGradient id="paint1_linear_78_56565" x1="11.61" y1="0.00976562" x2="11.61" y2="19.1147" gradientUnits="userSpaceOnUse">
<stop stop-color="#0097FF"/>
<stop offset="1" stop-color="#0375C4"/>
</linearGradient>
</defs>
</svg>
