<svg width="23" height="23" viewBox="0 0 23 23" fill="none" xmlns="http://www.w3.org/2000/svg">
<g id="review 1" clip-path="url(#clip0_242_1956)">
<g id="Review">
<path id="Vector" d="M14.3977 10.1215C14.3977 9.76427 14.108 9.47461 13.7508 9.47461H6.63516C6.27794 9.47461 5.98828 9.76427 5.98828 10.1215C5.98828 10.4787 6.27794 10.7684 6.63516 10.7684H13.7508C14.108 10.7684 14.3977 10.4787 14.3977 10.1215Z" fill="white"/>
<path id="Vector_2" d="M6.6332 12.7422C6.27598 12.7422 5.98633 13.0318 5.98633 13.3891C5.98633 13.7463 6.27598 14.0359 6.6332 14.0359H10.4059C10.7631 14.0359 11.0528 13.7463 11.0528 13.3891C11.0528 13.0318 10.7631 12.7422 10.4059 12.7422H6.6332Z" fill="white"/>
<path id="Vector_3" d="M18.6591 10.1575C18.3019 10.1575 18.0123 10.4471 18.0123 10.8044V16.0361C18.0123 17.0151 17.2159 17.8115 16.237 17.8115H11.9101C11.7699 17.8115 11.6334 17.8567 11.5212 17.9415L7.78517 20.7511C7.6903 20.8223 7.60117 20.7928 7.55661 20.7684C7.51133 20.7454 7.43658 20.6886 7.43945 20.5729L7.51133 18.4813C7.51708 18.306 7.45167 18.1356 7.3302 18.0098C7.20873 17.8833 7.04055 17.8122 6.86517 17.8122H3.86008C2.88114 17.8122 2.08477 17.0165 2.08477 16.0369V7.48373C2.08477 6.5012 2.88114 5.70195 3.86008 5.70195H11.831C12.1882 5.70195 12.4779 5.4123 12.4779 5.05508C12.4779 4.69786 12.1882 4.4082 11.831 4.4082H3.86008C2.16814 4.4082 0.791016 5.7882 0.791016 7.48445V16.0369C0.791016 17.7288 2.16814 19.1066 3.86008 19.1066H6.1953L6.14642 20.5312C6.12917 21.1163 6.44039 21.6481 6.96005 21.9177C7.18214 22.0334 7.42148 22.0902 7.65867 22.0902C7.97708 22.0902 8.29261 21.9874 8.56142 21.7869L12.1257 19.1066H16.2362C17.9282 19.1066 19.3053 17.7295 19.3053 16.0369V10.8051C19.306 10.4471 19.0164 10.1575 18.6591 10.1575Z" fill="white"/>
<path id="Vector_4" d="M22.1566 3.99612C22.0394 3.63674 21.7512 3.36793 21.3854 3.27737L19.7322 2.86552L18.8295 1.42084C18.4291 0.778274 17.3841 0.779711 16.9845 1.42084L16.0817 2.86552L14.4286 3.27737C14.0627 3.36793 13.7738 3.63674 13.6574 3.99612C13.5409 4.35549 13.6157 4.7429 13.8586 5.03255L14.954 6.33637L14.8347 8.03549C14.8081 8.41212 14.9748 8.76934 15.2803 8.99143C15.4701 9.12943 15.6929 9.20059 15.9186 9.20059C16.0558 9.20059 16.1946 9.17399 16.3275 9.12009L17.9073 8.48184L19.4864 9.12009C19.8365 9.2624 20.2275 9.21352 20.5336 8.99215C20.8391 8.77006 21.0059 8.41284 20.98 8.03549L20.8607 6.33637L21.9561 5.03184C22.1983 4.7429 22.2737 4.35549 22.1566 3.99612ZM19.7013 5.70459C19.5935 5.83324 19.5396 5.99856 19.5518 6.16674L19.6668 7.79831L18.1503 7.18521C18.0726 7.15359 17.99 7.13777 17.9081 7.13777C17.8261 7.13777 17.7435 7.15359 17.6658 7.18521L16.15 7.79831L16.2643 6.16674C16.2758 5.99927 16.2219 5.83324 16.1148 5.70459L15.0632 4.45252L16.6502 4.05649C16.8127 4.01552 16.9536 3.91418 17.042 3.77187L17.9088 2.3854L18.7756 3.77187C18.8647 3.91418 19.0049 4.01624 19.1673 4.05649L20.7543 4.45252L19.7013 5.70459Z" fill="white"/>
</g>
</g>
<defs>
<clipPath id="clip0_242_1956">
<rect width="23" height="23" fill="white"/>
</clipPath>
</defs>
</svg>
