<svg width="140" height="140" viewBox="0 0 140 140" fill="none" xmlns="http://www.w3.org/2000/svg">
<g id="SANS">
<g id="2">
<rect id="2_2" x="0.5" y="0.5" width="139" height="139" rx="69.5" fill="white" stroke="#CDCDCD"/>
</g>
<g id="2_3">
<g id="Group 1820547327">
<path id="Polygon 19" d="M113.338 18.2363L65.582 55.1708H82.9906L113.338 18.2363Z" fill="#005490"/>
<path id="Polygon 20" d="M112.631 18L60.8762 51.1704L27 25.2928L112.631 18Z" fill="#3998C6"/>
</g>
<path id="Vector" fill-rule="evenodd" clip-rule="evenodd" d="M33.8311 61.6232C31.8371 61.9879 30.1953 62.7792 29.0145 63.9446C26.7176 66.2119 26.332 69.9883 28.1307 72.6022C29.1429 74.0733 30.6791 74.9815 34.6474 76.4551C38.4666 77.8731 39.2821 78.3403 39.7977 79.4053C40.3127 80.4691 40.0395 81.9949 39.2184 82.6408C37.404 84.068 33.3959 83.7305 28.8496 81.7678C28.0304 81.4143 27.5982 81.2875 27.5609 81.3899C27.4205 81.7742 26.9983 86.1872 27.0928 86.282C27.3139 86.5042 30.138 87.4152 31.4427 87.6852C36.7007 88.7736 41.0721 88.0817 43.2991 85.8088C44.6133 84.4673 45.3579 82.5896 45.3636 80.6027C45.3692 78.6157 44.7504 77.1209 43.361 75.7655C42.2477 74.6796 40.4569 73.7518 37.4263 72.6906C34.4947 71.6642 34.3536 71.6109 33.7083 71.2874C33.0277 70.9466 32.3212 70.3134 32.0558 69.8067C31.8099 69.3375 31.8163 68.0685 32.0669 67.5839C33.1309 65.5262 37.8587 65.5248 42.8441 67.5806C43.3807 67.8018 43.8419 67.9609 43.8687 67.9339C43.9444 67.8582 44.4028 63.2956 44.3456 63.1865C44.2665 63.0354 41.4646 62.1795 40.0728 61.8811C38.6734 61.5813 34.9106 61.4258 33.8311 61.6232ZM101.29 61.7046C97.8741 62.47 95.7271 64.3686 95.0553 67.2184C94.4982 69.5807 95.1233 71.8549 96.7775 73.4854C97.7229 74.417 99.6378 75.4355 102.068 76.2992C106.053 77.7156 107.077 78.2939 107.641 79.446C107.938 80.0546 107.981 80.2777 107.916 80.9019C107.768 82.3436 106.79 83.1624 104.857 83.4644C102.835 83.7803 98.8074 82.8647 96.001 81.4512C95.721 81.3101 95.4737 81.2138 95.4515 81.2371C95.3465 81.3465 94.8707 86.1766 94.9566 86.2596C95.1473 86.4439 97.0996 87.1608 98.1217 87.4218C103.725 88.8525 108.738 88.2393 111.149 85.8278C112.828 84.1485 113.604 81.3457 113.046 78.9767C112.658 77.3303 111.881 76.1698 110.474 75.1322C109.123 74.1368 108.163 73.7115 103.722 72.1414C101.774 71.4527 101.064 71.0927 100.445 70.4789C99.4121 69.4567 99.405 68.0001 100.428 67.0263C102.014 65.5155 106.276 65.7448 110.728 67.5806C111.264 67.8018 111.721 67.9649 111.743 67.9428C111.796 67.8897 112.191 63.9468 112.191 63.4692C112.191 63.115 112.128 63.0768 110.901 62.6809C108.432 61.885 106.906 61.6193 104.45 61.5573C102.737 61.5142 101.983 61.5493 101.29 61.7046ZM54.7252 62.3236C54.6885 62.4875 54.379 63.3955 54.0374 64.3416C53.6957 65.2878 52.8885 67.5505 52.2434 69.37C51.5984 71.1895 50.3171 74.7921 49.3961 77.3758C48.4753 79.9595 47.3975 82.9964 47.001 84.1245C46.6046 85.2525 46.1647 86.4881 46.0234 86.8702L45.7665 87.5649H48.3249H50.8834L51.0871 86.9364C51.7588 84.8642 52.9511 81.665 53.0835 81.5793C53.3564 81.4026 61.8459 81.4693 62.0804 81.6501C62.1937 81.7373 62.7302 83.089 63.2727 84.6538L64.2589 87.4988L66.7879 87.5348C68.179 87.5545 69.317 87.5425 69.317 87.5081C69.317 87.4737 67.2924 81.7512 64.8179 74.7916C62.3434 67.8319 60.3188 62.1125 60.3188 62.0818C60.3188 62.0511 59.0752 62.0259 57.5554 62.0259C54.7976 62.0259 54.7917 62.0266 54.7252 62.3236ZM71.2296 62.1924C71.1946 62.2839 71.1815 68.0154 71.2008 74.9288L71.2357 87.4988L73.8482 87.5347L76.4608 87.5705L76.4948 78.9489L76.5288 70.3273L82.2732 78.9461L88.0178 87.5649H90.1797H92.3418V74.7954V62.0259H89.7614H87.1811L87.1795 70.1971L87.1778 78.3682L82.4475 71.2226C79.8458 67.2925 77.42 63.6162 77.0569 63.0532L76.3964 62.0293L73.8451 62.0276C71.9157 62.0263 71.2779 62.0665 71.2296 62.1924ZM57.3083 69.2455C57.1581 69.678 56.4621 71.6623 55.7616 73.6553C55.061 75.6483 54.5107 77.3018 54.5387 77.3299C54.5667 77.3579 55.9585 77.3648 57.6315 77.3452L60.6733 77.3096L59.5013 73.9353C58.8567 72.0794 58.1609 70.0882 57.9553 69.5102L57.5812 68.4595L57.3083 69.2455ZM50.2322 94.8004L50.1958 96.8752L49.8193 96.9757C49.6122 97.0311 49.2995 97.0219 49.1246 96.9554C48.825 96.8414 48.8064 96.7722 48.8064 95.7725C48.8064 94.7281 48.8009 94.7106 48.4755 94.7106C48.149 94.7106 48.1447 94.7247 48.1447 95.8212C48.1447 97.032 48.0402 97.1971 47.4226 96.9623C47.139 96.8545 47.0948 96.746 47.0598 96.0728C47.0244 95.3927 46.9863 95.3013 46.7222 95.2637C46.4421 95.224 46.4245 95.2681 46.4245 96.0084C46.4245 96.9257 46.246 97.1689 45.7196 96.9689C45.4159 96.8533 45.3751 96.7574 45.3395 96.0728C45.305 95.4069 45.2626 95.3008 45.0184 95.266C44.7632 95.2296 44.7316 95.3002 44.6793 96.0241C44.6476 96.463 44.581 96.8627 44.5315 96.9124C44.4819 96.9619 44.0307 97.0156 43.5288 97.0319L42.6161 97.0614L42.9324 96.5953C43.3108 96.0377 43.3395 95.3815 43.0037 94.9666C42.68 94.567 41.424 94.4524 40.6971 94.7562C40.0866 95.0112 40.0167 95.5073 40.5427 95.8519C40.8899 96.0795 41.3385 96.7971 41.2124 96.9232C41.1734 96.9623 40.7522 97.0235 40.2763 97.0594L39.4112 97.1245L39.4104 96.5461C39.4093 95.7242 39.1834 95.0161 38.8473 94.7806C38.5168 94.5491 37.6631 94.513 37.2867 94.7146C36.8931 94.9251 36.6323 95.5563 36.6323 96.298C36.6323 97.2333 37.0166 97.6218 37.9418 97.6218C38.6713 97.6218 38.8332 97.7476 38.6187 98.1483C38.5046 98.3615 38.3424 98.4157 37.8186 98.4157C37.2061 98.4157 37.1616 98.4381 37.1616 98.7465C37.1616 99.0583 37.2025 99.0774 37.8715 99.0774C38.7403 99.0774 39.2292 98.7483 39.3548 98.0792L39.4407 97.6218L40.5175 97.6081C41.11 97.6006 42.3263 97.6059 43.2207 97.62C44.2784 97.6367 44.9103 97.5929 45.0284 97.495C45.1531 97.3914 45.2368 97.3877 45.2957 97.483C45.4052 97.6601 46.6467 97.6653 46.7556 97.489C46.8103 97.4004 46.9198 97.4004 47.0854 97.489C47.2217 97.5621 47.572 97.6218 47.8635 97.6218C48.1552 97.6218 48.4307 97.5621 48.4758 97.489C48.5306 97.4004 48.64 97.4004 48.8057 97.489C49.1185 97.6566 50.3952 97.6588 50.6589 97.4925C50.8204 97.3906 50.8652 96.9333 50.899 95.0464L50.9406 92.7257H50.6047H50.2687L50.2322 94.8004ZM51.8499 95.1645V97.6218H52.1837H52.5175L52.4815 95.2068C52.4457 92.8155 52.4424 92.7915 52.1476 92.7495L51.8499 92.7073V95.1645ZM68.523 94.7597C68.523 96.8994 68.4996 96.9894 67.9299 97.0352C67.3515 97.0817 67.0674 96.8605 67.0674 96.3637C67.0674 95.7441 66.7734 95.0623 66.3903 94.7941C65.9429 94.4806 64.938 94.5118 64.5049 94.8526C64.3132 95.0033 64.1562 95.178 64.1562 95.2406C64.1562 95.429 64.7014 95.5416 64.8577 95.3853C65.0686 95.1744 65.8247 95.2069 66.0547 95.4371C66.2986 95.6809 66.4526 96.3393 66.3451 96.6783C66.2388 97.0133 65.9061 97.0885 64.5201 97.0906L63.3623 97.0925L63.3591 96.5962C63.3541 95.7992 63.1327 95.0593 62.8249 94.8098C62.4295 94.4895 61.5059 94.5052 61.081 94.8395C60.3925 95.3811 60.3521 96.9551 61.0149 97.4194C61.1777 97.5334 61.5838 97.6218 61.9449 97.6218C62.5661 97.6218 62.5846 97.633 62.544 97.9857C62.5049 98.3251 62.4554 98.3522 61.8074 98.3895C61.1695 98.4263 61.1127 98.456 61.1127 98.7534C61.1127 99.0569 61.1577 99.0774 61.8227 99.0774C62.6923 99.0774 63.1606 98.7607 63.287 98.0873L63.3743 97.6218H64.8987C65.7371 97.6218 66.5348 97.5621 66.6711 97.489C66.8368 97.4004 66.9462 97.4004 67.001 97.489C67.0461 97.5621 67.4652 97.6218 67.9323 97.6218C69.1659 97.6218 69.2011 97.5432 69.155 94.894C69.1191 92.8274 69.1135 92.7912 68.8208 92.7495L68.523 92.7073V94.7597ZM70.1109 95.1645V97.6218H70.4448H70.7785L70.7425 95.2068C70.7068 92.8155 70.7035 92.7915 70.4087 92.7495L70.1109 92.7073V95.1645ZM83.6082 94.8264V96.9271L83.1947 97.0098C82.9673 97.0553 82.7291 97.0925 82.6654 97.0925C82.6018 97.0925 82.5496 96.3481 82.5496 95.4384V93.7843H82.2229H81.8962L81.859 95.4053L81.8218 97.0263L81.1602 97.026C80.4781 97.0258 80.2745 97.1367 80.3927 97.4443C80.4759 97.6613 83.6116 97.7001 84.0059 97.489C84.1716 97.4004 84.281 97.4004 84.3358 97.489C84.4397 97.6571 85.8159 97.6642 85.9191 97.4974C85.9646 97.4237 86.1816 97.4507 86.4519 97.5635C87.0192 97.8007 87.2844 97.8021 87.7281 97.5706C87.9407 97.4597 88.1472 97.4333 88.2574 97.5032C88.3568 97.5662 88.806 97.6186 89.2558 97.6198C90.4913 97.6228 90.4892 97.6275 90.4892 94.9658V92.7257H90.1584H89.8276V94.8429C89.8276 96.0074 89.783 96.9645 89.7284 96.9699C89.6737 96.9753 89.4915 97.0053 89.3234 97.0365C88.7871 97.136 88.5043 96.8781 88.5043 96.2896C88.5043 95.6246 88.2111 94.9078 87.8625 94.7212C87.7157 94.6426 87.3487 94.5783 87.0473 94.5783C86.6178 94.5783 86.4153 94.662 86.1123 94.965C85.7878 95.2895 85.7255 95.4586 85.7255 96.0143C85.7255 97.0026 85.4391 97.1963 84.4353 96.8871C84.3122 96.8491 84.2699 96.3096 84.2699 94.7808V92.7257H83.9391H83.6082V94.8264ZM91.4155 95.1737V97.6218H91.7463H92.0771V95.1737V92.7257H91.7463H91.4155V95.1737ZM100.546 94.9085C100.546 96.2472 100.603 97.2157 100.691 97.38C100.822 97.6252 100.94 97.6464 101.981 97.6093C102.611 97.587 103.34 97.6152 103.601 97.6721C104.231 97.8093 105 97.4935 105.178 97.024C105.251 96.8339 105.31 96.3797 105.31 96.0151C105.31 95.4585 105.248 95.2896 104.923 94.965C104.62 94.662 104.418 94.5783 103.988 94.5783C103.687 94.5783 103.32 94.6426 103.173 94.7212C102.824 94.9078 102.531 95.6246 102.531 96.2896C102.531 96.875 102.302 97.0861 101.737 97.0206C101.555 96.9994 101.363 96.9772 101.31 96.9711C101.258 96.9652 101.198 96.0223 101.178 94.876C101.142 92.828 101.136 92.7911 100.844 92.7495L100.546 92.7073V94.9085ZM28.0826 93.1796C27.9508 93.523 28.1354 93.8067 28.4606 93.7605C28.6792 93.7294 28.7589 93.6299 28.7589 93.3873C28.7589 93.1448 28.6792 93.0453 28.4606 93.0142C28.2816 92.9887 28.1303 93.0549 28.0826 93.1796ZM28.9574 93.3873C28.9574 93.7225 29.0088 93.7843 29.2882 93.7843C29.5675 93.7843 29.619 93.7225 29.619 93.3873C29.619 93.0521 29.5675 92.9903 29.2882 92.9903C29.0088 92.9903 28.9574 93.0521 28.9574 93.3873ZM55.5354 93.054C55.4943 93.0951 55.4887 93.2763 55.5233 93.4567C55.5696 93.6991 55.6701 93.7843 55.91 93.7843C56.1857 93.7843 56.2279 93.7298 56.1923 93.4204C56.1638 93.1724 56.0643 93.0442 55.8804 93.0179C55.7318 92.9966 55.5766 93.0128 55.5354 93.054ZM56.3969 93.1888C56.2787 93.4968 56.4452 93.7843 56.7418 93.7843C56.9522 93.7843 57.0106 93.6982 57.0106 93.3873C57.0106 93.0765 56.9522 92.9903 56.7418 92.9903C56.5939 92.9903 56.4387 93.0797 56.3969 93.1888ZM73.7965 93.054C73.7553 93.0951 73.7498 93.2763 73.7843 93.4567C73.8306 93.6991 73.9312 93.7843 74.1711 93.7843C74.4468 93.7843 74.489 93.7298 74.4534 93.4204C74.4249 93.1724 74.3254 93.0442 74.1415 93.0179C73.9929 92.9966 73.8376 93.0128 73.7965 93.054ZM74.6983 93.0786C74.6497 93.127 74.61 93.3057 74.61 93.4756C74.61 93.7167 74.6826 93.7843 74.9409 93.7843C75.2202 93.7843 75.2717 93.7225 75.2717 93.3873C75.2717 93.0906 75.2104 92.9903 75.0291 92.9903C74.8956 92.9903 74.7467 93.03 74.6983 93.0786ZM110.956 93.3433C110.907 93.3917 110.868 93.5703 110.868 93.7402C110.868 93.9813 110.94 94.049 111.198 94.049C111.478 94.049 111.529 93.9872 111.529 93.652C111.529 93.3553 111.468 93.255 111.287 93.255C111.153 93.255 111.004 93.2947 110.956 93.3433ZM96.3116 94.1151C96.3116 94.3945 96.3734 94.4459 96.7086 94.4459C97.0438 94.4459 97.1056 94.3945 97.1056 94.1151C97.1056 93.8358 97.0438 93.7843 96.7086 93.7843C96.3734 93.7843 96.3116 93.8358 96.3116 94.1151ZM97.2379 94.1151C97.2379 94.3798 97.304 94.4459 97.5687 94.4459C97.8334 94.4459 97.8995 94.3798 97.8995 94.1151C97.8995 93.8505 97.8334 93.7843 97.5687 93.7843C97.304 93.7843 97.2379 93.8505 97.2379 94.1151ZM29.4867 94.3798C29.4867 94.5273 29.3312 94.5783 28.881 94.5783C28.3881 94.5783 28.2034 94.6502 27.8886 94.965C27.5719 95.2817 27.5018 95.4635 27.5018 95.9677C27.5018 96.4779 27.5711 96.6527 27.9062 96.9879C28.2767 97.3584 28.3643 97.3858 28.9547 97.316C29.4279 97.2599 29.641 97.2903 29.7575 97.4307C29.8692 97.5654 30.2016 97.6218 30.8828 97.6218C32.2002 97.6218 32.2655 97.543 32.2655 95.9583C32.2655 94.7156 32.2642 94.7106 31.9347 94.7106C31.6077 94.7106 31.6039 94.7238 31.6039 95.8354C31.6039 96.454 31.5592 96.9679 31.5047 96.9773C31.0854 97.05 30.5735 97.0303 30.3799 96.9338C30.1826 96.8355 30.1483 96.6235 30.1483 95.4999C30.1483 94.1815 30.1482 94.1813 29.8175 94.1813C29.6116 94.1813 29.4867 94.2563 29.4867 94.3798ZM56.9262 94.3798C56.8742 94.5153 56.6622 94.5783 56.2585 94.5783C55.7812 94.5783 55.5923 94.6529 55.2802 94.965C54.9635 95.2817 54.8934 95.4635 54.8934 95.9677C54.8934 96.4779 54.9627 96.6527 55.2978 96.9879C55.6683 97.3584 55.7559 97.3858 56.3463 97.316C56.8195 97.2599 57.0326 97.2903 57.1491 97.4307C57.2627 97.5675 57.6024 97.6218 58.3454 97.6218C59.6213 97.6218 59.6571 97.5751 59.6571 95.9103C59.6571 94.7188 59.6549 94.7106 59.3263 94.7106C58.9993 94.7106 58.9955 94.7238 58.9955 95.8354C58.9955 96.8097 58.9645 96.9632 58.7639 96.9828C57.5615 97.1003 57.5399 97.0742 57.5399 95.4999C57.5399 94.2627 57.5234 94.1813 57.2712 94.1813C57.1232 94.1813 56.968 94.2706 56.9262 94.3798ZM75.1872 94.3798C75.1352 94.5153 74.9233 94.5783 74.5195 94.5783C74.0422 94.5783 73.8534 94.6529 73.5412 94.965C73.2246 95.2817 73.1544 95.4635 73.1544 95.9677C73.1544 96.4779 73.2238 96.6527 73.5588 96.9879C73.9294 97.3584 74.017 97.3858 74.6074 97.316C75.0806 97.2599 75.2936 97.2903 75.4102 97.4307C75.6278 97.6928 79.073 97.7079 79.4281 97.4483C79.7343 97.2244 79.8515 96.2163 79.6443 95.5884C79.4237 94.9201 78.9412 94.5783 78.2185 94.5783C77.6037 94.5783 76.8596 94.915 76.8596 95.1933C76.8596 95.4181 77.3845 95.5618 77.5611 95.3853C77.7296 95.2167 78.4361 95.1946 78.6815 95.3505C78.9091 95.4949 79.1203 96.2746 79.0296 96.6355C78.9445 96.9743 78.4723 97.0888 77.1486 97.091C75.8356 97.0933 75.801 97.0524 75.801 95.4999C75.801 94.2627 75.7844 94.1813 75.5322 94.1813C75.3843 94.1813 75.2291 94.2706 75.1872 94.3798ZM33.4803 94.876C33.5168 95.1323 33.6141 95.1796 34.181 95.2153C34.543 95.2382 34.9151 95.3198 35.008 95.3968C35.1029 95.4756 35.1767 95.8215 35.1767 96.1866C35.1767 96.9493 35.0821 97.0137 33.9532 97.0213C33.2544 97.0259 33.1927 97.0505 33.1923 97.324C33.1918 97.6093 33.2385 97.6218 34.309 97.6218C35.6995 97.6218 35.8383 97.4864 35.8383 96.1307C35.8383 95.3485 35.7949 95.1844 35.5135 94.9031C35.2341 94.6236 35.0664 94.5783 34.3134 94.5783C33.4813 94.5783 33.4402 94.5929 33.4803 94.876ZM106.392 94.876C106.429 95.1323 106.526 95.1796 107.093 95.2153C107.455 95.2382 107.827 95.3198 107.92 95.3968C108.015 95.4756 108.089 95.8215 108.089 96.1866C108.089 96.9314 108.016 96.9865 106.98 97.0295C106.075 97.0669 106.104 97.0561 106.104 97.3571C106.104 97.6005 106.192 97.6218 107.202 97.6218C107.88 97.6218 108.361 97.561 108.459 97.463C108.583 97.3395 108.653 97.3395 108.777 97.463C108.884 97.5698 109.484 97.6218 110.609 97.6218C112.062 97.6218 112.311 97.5899 112.501 97.3797C112.764 97.089 112.801 95.8273 112.562 95.3023C112.23 94.5728 110.925 94.3305 110.182 94.86C109.825 95.1143 109.806 95.1616 109.991 95.3465C110.159 95.5142 110.258 95.5231 110.538 95.3956C111.429 94.9897 112.058 95.3734 112.058 96.3232C112.058 96.6963 111.987 96.8565 111.771 96.9726C111.403 97.1695 109.226 97.0582 108.949 96.8282C108.814 96.716 108.75 96.4172 108.75 95.8949C108.75 94.8556 108.424 94.5783 107.202 94.5783C106.394 94.5783 106.352 94.5937 106.392 94.876ZM99.0905 95.7646C99.0905 96.6711 99.0547 96.8376 98.8345 96.9555C98.5412 97.1124 95.6645 97.1397 95.4255 96.9878C95.337 96.9316 95.2494 96.5089 95.2271 96.0304C95.1908 95.2571 95.1578 95.1696 94.8891 95.1314C94.6006 95.0905 94.5914 95.1238 94.5914 96.1966C94.5914 96.8817 94.652 97.3648 94.7501 97.463C94.8609 97.5737 95.5757 97.6218 97.1159 97.6218C99.0059 97.6218 99.3488 97.5904 99.5044 97.4033C99.6208 97.263 99.7023 96.7414 99.7318 95.9477L99.7776 94.7106H99.4341C99.0928 94.7106 99.0905 94.7181 99.0905 95.7646ZM28.3222 95.3987C28.1171 95.6038 28.1171 96.3316 28.3222 96.5367C28.4095 96.624 28.6456 96.6955 28.8469 96.6955C29.2821 96.6955 29.4867 96.3809 29.4867 95.7118C29.4867 95.2537 29.4721 95.2399 28.9838 95.2399C28.7073 95.2399 28.4095 95.3113 28.3222 95.3987ZM37.4232 95.5101C37.3437 95.6588 37.297 96.0008 37.3193 96.2701C37.3515 96.6568 37.4386 96.7972 37.7338 96.938C37.9438 97.0382 38.2558 97.079 38.4461 97.0312C38.7678 96.9505 38.7808 96.9129 38.7056 96.2776C38.6619 95.9097 38.5574 95.5258 38.4732 95.4244C38.238 95.1408 37.5927 95.1936 37.4232 95.5101ZM41.2894 95.6038C41.4764 95.804 41.716 96.1383 41.822 96.3467L42.0147 96.7257L42.3009 96.3619C42.8573 95.6545 42.6018 95.2399 41.6095 95.2399H40.9496L41.2894 95.6038ZM55.692 95.4958C55.3588 96.1185 55.611 96.6955 56.2166 96.6955C56.7044 96.6955 56.8783 96.4625 56.8783 95.8089V95.2399H56.3536C55.9704 95.2399 55.792 95.3088 55.692 95.4958ZM61.382 95.4958C61.1929 95.8491 61.2101 96.6344 61.4105 96.7987C61.5655 96.926 62.0279 97.008 62.4029 96.9748C62.6207 96.9555 62.6263 95.6154 62.4095 95.3987C62.158 95.1471 61.5372 95.2058 61.382 95.4958ZM73.9749 95.3987C73.8875 95.486 73.8161 95.7421 73.8161 95.9677C73.8161 96.4683 74.0226 96.6955 74.4777 96.6955C74.9655 96.6955 75.1393 96.4625 75.1393 95.8089V95.2399H74.6365C74.3599 95.2399 74.0622 95.3113 73.9749 95.3987ZM86.5241 95.4958C86.3195 95.8782 86.3588 96.6482 86.595 96.8846C87.0796 97.369 87.8427 96.9297 87.8427 96.1662C87.8427 95.3723 86.8581 94.8719 86.5241 95.4958ZM103.399 95.5341C102.804 96.3832 103.735 97.5901 104.44 96.8846C104.676 96.6482 104.716 95.8782 104.511 95.4958C104.318 95.134 103.663 95.1565 103.399 95.5341ZM30.9925 98.4755C30.8832 98.7604 31.0487 98.945 31.4132 98.945C31.6695 98.945 31.7362 98.8768 31.7362 98.6142C31.7362 98.3485 31.6703 98.2834 31.4013 98.2834C31.217 98.2834 31.033 98.3698 30.9925 98.4755ZM31.8685 98.6142C31.8685 98.8789 31.9347 98.945 32.1994 98.945C32.464 98.945 32.5302 98.8789 32.5302 98.6142C32.5302 98.3496 32.464 98.2834 32.1994 98.2834C31.9347 98.2834 31.8685 98.3496 31.8685 98.6142ZM58.3842 98.4755C58.2748 98.7604 58.4403 98.945 58.8048 98.945C59.0611 98.945 59.1278 98.8768 59.1278 98.6142C59.1278 98.3485 59.0619 98.2834 58.7929 98.2834C58.6086 98.2834 58.4246 98.3698 58.3842 98.4755ZM59.2602 98.6142C59.2602 98.8789 59.3263 98.945 59.591 98.945C59.8556 98.945 59.9218 98.8789 59.9218 98.6142C59.9218 98.3496 59.8556 98.2834 59.591 98.2834C59.3263 98.2834 59.2602 98.3496 59.2602 98.6142ZM65.2149 98.6142C65.2149 98.8789 65.281 98.945 65.5457 98.945C65.8103 98.945 65.8765 98.8789 65.8765 98.6142C65.8765 98.3496 65.8103 98.2834 65.5457 98.2834C65.281 98.2834 65.2149 98.3496 65.2149 98.6142ZM28.4281 100.759C28.0353 100.902 27.6366 101.377 27.5583 101.795C27.4327 102.464 27.7843 103.006 28.4619 103.188C29.6947 103.518 29.9489 103.646 29.9935 103.956C30.0978 104.681 29.1528 104.998 28.2157 104.553C27.8534 104.382 27.7258 104.372 27.567 104.503C27.2558 104.762 27.3284 104.894 27.9318 105.168C29.3185 105.797 30.6776 105.239 30.6776 104.04C30.6776 103.179 30.3825 102.953 28.7958 102.596C28.2747 102.479 28.0861 102.06 28.3637 101.636C28.5558 101.343 28.6508 101.311 29.134 101.373C29.4372 101.412 29.8322 101.462 30.0119 101.484C30.2389 101.513 30.353 101.454 30.386 101.291C30.471 100.871 29.1236 100.505 28.4281 100.759ZM40.6759 100.768C40.6353 100.808 40.6021 101.161 40.6021 101.552C40.6021 102.214 40.5844 102.253 40.3462 102.126C39.2409 101.534 38.2863 102.671 38.5546 104.259C38.7167 105.219 39.5635 105.711 40.3381 105.296C40.4842 105.218 40.6165 105.213 40.6603 105.284C40.7012 105.35 40.8538 105.373 40.9992 105.335C41.2504 105.269 41.2637 105.154 41.2637 103.047C41.2637 100.962 41.2483 100.824 41.0068 100.761C40.8654 100.724 40.7166 100.727 40.6759 100.768ZM42.3223 101.09C42.3223 101.416 42.3695 101.471 42.6201 101.435C43.067 101.372 43.0982 100.85 42.6602 100.767C42.3601 100.709 42.3223 100.745 42.3223 101.09ZM46.9767 100.844C46.9112 100.928 46.5428 101.889 46.1581 102.981C45.7734 104.073 45.4344 105.032 45.4048 105.114C45.3751 105.195 45.4786 105.295 45.6346 105.336C45.8706 105.398 45.962 105.312 46.1776 104.824L46.4369 104.238H47.2084C48.0288 104.238 48.1979 104.34 48.3436 104.92C48.4229 105.236 48.9445 105.511 49.1237 105.332C49.1561 105.3 49.0481 104.906 48.8836 104.458C48.7191 104.01 48.3621 103.008 48.0902 102.233C47.7334 101.216 47.5262 100.805 47.3459 100.758C47.2084 100.722 47.0422 100.761 46.9767 100.844ZM50.0304 100.762C49.9395 100.794 49.865 100.964 49.865 101.139C49.865 101.392 49.9342 101.459 50.1958 101.459C50.4565 101.459 50.5266 101.392 50.5266 101.143C50.5266 100.817 50.322 100.66 50.0304 100.762ZM56.139 100.846C56.1052 100.934 56.094 101.987 56.114 103.185C56.1488 105.262 56.1627 105.363 56.4151 105.363C56.6619 105.363 56.6843 105.253 56.7459 103.735L56.8121 102.108L57.7285 103.649C58.5767 105.075 59.0298 105.554 59.2965 105.306C59.3529 105.254 59.3827 104.203 59.3627 102.971C59.3279 100.832 59.3144 100.731 59.0617 100.731C58.8149 100.731 58.7925 100.842 58.7308 102.364L58.6647 103.996L57.704 102.412C56.7933 100.91 56.3028 100.419 56.139 100.846ZM67.2328 100.762C67.1419 100.794 67.0674 100.964 67.0674 101.139C67.0674 101.392 67.1366 101.459 67.3982 101.459C67.6589 101.459 67.7291 101.392 67.7291 101.143C67.7291 100.817 67.5245 100.66 67.2328 100.762ZM77.9513 100.754C77.8604 100.79 77.7859 100.964 77.7859 101.139C77.7859 101.395 77.8546 101.459 78.1254 101.459C78.4158 101.459 78.459 101.408 78.4232 101.106C78.3802 100.742 78.2407 100.638 77.9513 100.754ZM88.9517 100.918C88.4956 101.196 88.2194 101.804 88.3342 102.277C88.4669 102.824 88.9005 103.161 89.6799 103.32C90.5842 103.506 90.7539 103.632 90.7539 104.117C90.7539 104.755 89.8414 104.987 89.0151 104.559C88.5444 104.316 88.2397 104.39 88.2397 104.749C88.2397 104.922 88.4088 105.071 88.7716 105.216C89.9423 105.685 91.1503 105.336 91.3922 104.46C91.6634 103.478 91.232 102.884 90.1269 102.719C89.2001 102.58 89.0109 102.443 89.059 101.949C89.1125 101.4 89.5938 101.21 90.3913 101.423C90.781 101.527 90.9996 101.53 91.1162 101.433C91.3868 101.209 91.3118 101.061 90.8243 100.857C90.1931 100.593 89.4441 100.618 88.9517 100.918ZM102.002 101.066C102.002 101.359 102.288 101.53 102.587 101.415C102.702 101.371 102.747 101.237 102.704 101.07C102.605 100.692 102.002 100.689 102.002 101.066ZM75.801 101.582C75.801 101.973 75.7465 102.121 75.6025 102.121C75.4923 102.121 75.404 102.239 75.404 102.386C75.404 102.533 75.4923 102.65 75.6025 102.65C75.7634 102.65 75.801 102.863 75.801 103.775C75.801 105.023 76.0124 105.429 76.6611 105.429C76.9258 105.429 76.9919 105.363 76.9919 105.098C76.9919 104.856 76.9214 104.767 76.7273 104.767C76.4847 104.767 76.4626 104.679 76.4626 103.709C76.4626 102.738 76.4847 102.65 76.7273 102.65C76.9037 102.65 76.9919 102.562 76.9919 102.386C76.9919 102.212 76.9037 102.121 76.7352 102.121C76.5342 102.121 76.4698 102.013 76.4375 101.625C76.4045 101.226 76.3378 101.12 76.0987 101.086C75.8318 101.048 75.801 101.1 75.801 101.582ZM46.9667 102.58C46.5675 103.647 46.5851 103.709 47.2846 103.709C47.6121 103.709 47.8801 103.689 47.8801 103.664C47.8801 103.584 47.3258 101.923 47.2846 101.88C47.2624 101.857 47.1193 102.172 46.9667 102.58ZM32.1332 102.076C31.7772 102.22 31.6183 102.401 31.6881 102.583C31.739 102.716 31.9423 102.742 32.487 102.686C33.2522 102.607 33.4501 102.715 33.4545 103.213C33.4561 103.404 33.3355 103.444 32.7537 103.444C31.8824 103.444 31.4716 103.761 31.4716 104.432C31.4716 105.185 32.5263 105.72 33.1873 105.302C33.2941 105.235 33.443 105.224 33.5181 105.279C33.5934 105.334 33.7443 105.375 33.8534 105.37C34.1623 105.356 34.1415 102.617 33.8303 102.306C33.6023 102.078 32.4972 101.928 32.1332 102.076ZM52.448 102.117C52.4044 102.187 52.1926 102.209 51.977 102.166L51.5852 102.088V103.758C51.5852 105.17 51.6166 105.429 51.7878 105.429C52.0521 105.429 52.083 105.308 52.1578 103.989C52.2273 102.763 52.3307 102.605 52.9995 102.702C53.5607 102.783 53.8827 102.448 53.5067 102.173C53.2179 101.961 52.5652 101.927 52.448 102.117ZM60.8078 102.138C60.5719 102.228 60.4525 102.359 60.4801 102.498C60.5153 102.677 60.659 102.708 61.2701 102.671C61.9199 102.632 62.0362 102.662 62.1663 102.906C62.3861 103.316 62.2317 103.444 61.5166 103.444C60.6644 103.444 60.2658 103.76 60.2658 104.437C60.2658 104.797 60.3503 105.002 60.5716 105.181C60.9209 105.464 61.7696 105.513 62.0181 105.265C62.1269 105.156 62.2141 105.146 62.2761 105.236C62.3276 105.311 62.4591 105.37 62.5683 105.367C62.7295 105.364 62.7738 105.1 62.8041 103.965C62.8376 102.709 62.8144 102.542 62.578 102.328C62.2615 102.042 61.3218 101.941 60.8078 102.138ZM69.1391 102.132C68.5798 102.471 68.3591 103.722 68.7103 104.563C68.9934 105.24 69.7379 105.506 70.3843 105.16C70.5943 105.047 70.6402 105.066 70.6402 105.267C70.6402 105.881 69.7521 106.242 69.2554 105.83C69.0932 105.695 69.0124 105.694 68.8538 105.826C68.5659 106.065 68.6066 106.191 69.0457 106.418C69.8681 106.843 70.8985 106.546 71.1553 105.81C71.2358 105.579 71.3019 104.652 71.3019 103.751V102.113L70.8718 102.116C70.6352 102.118 70.2036 102.089 69.9124 102.052C69.6213 102.015 69.2733 102.051 69.1391 102.132ZM72.6582 102.125C72.4944 102.191 72.3605 102.357 72.3605 102.493C72.3605 102.711 72.462 102.74 73.1875 102.729C73.995 102.717 74.0155 102.725 74.0564 103.08C74.0975 103.437 74.0851 103.444 73.3848 103.444C72.5373 103.444 72.0958 103.795 72.0958 104.469C72.0958 105.186 73.1701 105.708 73.8116 105.302C73.9184 105.235 74.0672 105.224 74.1424 105.279C74.2177 105.334 74.3685 105.375 74.4777 105.37C74.6414 105.363 74.6762 105.11 74.6762 103.928C74.6762 102.58 74.6574 102.479 74.3638 102.241C74.0286 101.97 73.1863 101.913 72.6582 102.125ZM79.7992 102.337C79.0995 103.036 79.1318 104.586 79.858 105.157C80.3305 105.529 81.1095 105.517 81.5568 105.131C82.2141 104.565 82.2662 102.969 81.6478 102.351C81.4979 102.201 81.1333 102.063 80.7844 102.024C80.2491 101.963 80.1371 101.999 79.7992 102.337ZM84.0938 102.076C84.0455 102.125 83.7657 102.155 83.4722 102.143L82.9385 102.122L82.9756 103.743C83.0105 105.262 83.0292 105.363 83.2774 105.363C83.5176 105.363 83.5482 105.253 83.6082 104.172C83.6446 103.517 83.7226 102.907 83.7815 102.816C83.9221 102.598 84.5953 102.603 84.7775 102.822C84.8561 102.917 84.9379 103.528 84.959 104.179C84.9944 105.262 85.0203 105.363 85.2623 105.363C85.5044 105.363 85.5303 105.262 85.5656 104.18C85.6088 102.855 85.4673 102.359 84.9825 102.138C84.6153 101.971 84.2265 101.944 84.0938 102.076ZM92.8409 102.219C91.9471 102.774 92.0212 104.855 92.9498 105.278C93.6268 105.587 94.856 105.295 94.856 104.826C94.856 104.565 94.4823 104.427 94.2914 104.617C93.9134 104.995 92.8711 104.661 92.8711 104.163C92.8711 104.014 93.1004 103.973 93.9297 103.973H94.9883V103.596C94.9883 102.298 93.87 101.581 92.8409 102.219ZM96.7802 102.112C96.7381 102.18 96.4945 102.202 96.2388 102.16L95.7738 102.085L95.8111 103.724C95.8462 105.262 95.8647 105.363 96.1131 105.363C96.3531 105.363 96.3841 105.252 96.4462 104.172C96.4838 103.517 96.5645 102.902 96.6255 102.806C96.6967 102.693 96.9326 102.646 97.2821 102.673C97.7301 102.709 97.8364 102.672 97.8766 102.468C97.9035 102.331 97.8453 102.168 97.7471 102.106C97.5076 101.954 96.8753 101.958 96.7802 102.112ZM104.236 102.18C103.747 102.456 103.547 103.035 103.615 103.978C103.686 104.959 103.971 105.298 104.799 105.39C105.259 105.442 105.452 105.395 105.75 105.159C106.091 104.891 106.106 104.845 105.917 104.656C105.754 104.493 105.674 104.483 105.549 104.608C105.29 104.867 104.545 104.805 104.388 104.511C104.194 104.149 104.218 103.143 104.428 102.856C104.601 102.619 105.051 102.608 105.574 102.829C105.684 102.874 105.862 102.855 105.971 102.785C106.142 102.677 106.131 102.62 105.892 102.38C105.536 102.023 104.694 101.922 104.236 102.18ZM107.43 102.158C106.958 102.397 106.77 102.865 106.767 103.801C106.766 104.478 106.821 104.685 107.085 104.992C107.363 105.316 107.498 105.363 108.14 105.363C108.725 105.363 108.936 105.302 109.171 105.067C109.407 104.831 109.434 104.737 109.304 104.607C109.175 104.477 109.086 104.477 108.881 104.605C108.549 104.813 107.792 104.815 107.586 104.609C107.498 104.521 107.427 104.343 107.427 104.212C107.427 104.003 107.552 103.973 108.424 103.973C109.561 103.973 109.642 103.9 109.418 103.068C109.168 102.14 108.274 101.731 107.43 102.158ZM111 102.082C110.126 102.404 110.104 103.65 110.968 103.887C111.094 103.922 111.422 103.988 111.695 104.034C112.073 104.098 112.191 104.18 112.191 104.38C112.191 104.844 111.266 104.989 110.77 104.601C110.68 104.531 110.516 104.508 110.406 104.55C110.056 104.684 110.19 105.039 110.665 105.237C111.533 105.6 112.432 105.413 112.706 104.813C113.055 104.045 112.714 103.533 111.756 103.389C110.551 103.208 110.642 102.597 111.863 102.67C112.783 102.726 112.988 102.484 112.273 102.185C111.795 101.986 111.359 101.95 111 102.082ZM35.0444 103.45C35.0444 104.685 35.0674 104.802 35.3692 105.104C35.7161 105.451 36.4586 105.55 36.724 105.284C36.8285 105.18 36.9464 105.182 37.1501 105.291C37.3051 105.373 37.49 105.405 37.5614 105.361C37.6341 105.316 37.6909 104.589 37.6909 103.701V102.121H37.3601C37.0346 102.121 37.0293 102.138 37.0293 103.188C37.0293 104.498 36.9066 104.767 36.311 104.767C35.7545 104.767 35.706 104.645 35.706 103.235C35.706 102.135 35.7019 102.121 35.3752 102.121H35.0444V103.45ZM42.3223 103.775C42.3223 105.434 42.3247 105.447 42.6201 105.405C42.91 105.364 42.9178 105.321 42.9178 103.775C42.9178 102.229 42.91 102.186 42.6201 102.145C42.3247 102.103 42.3223 102.116 42.3223 103.775ZM49.865 103.709V105.297H50.1958H50.5266V103.709V102.121H50.1958H49.865V103.709ZM63.4946 102.247C63.4946 102.445 64.5728 105.215 64.7059 105.36C64.893 105.563 65.2395 105.272 65.4213 104.76C65.5101 104.509 65.7651 103.809 65.988 103.204L66.3932 102.104L66.0513 102.146C65.7587 102.181 65.6593 102.324 65.3623 103.136C65.1713 103.658 64.9769 104.123 64.9301 104.17C64.8834 104.217 64.6853 103.775 64.4898 103.188C64.1761 102.246 64.0971 102.121 63.8146 102.121C63.6386 102.121 63.4946 102.178 63.4946 102.247ZM67.0674 103.687C67.0674 104.548 67.1006 105.286 67.1413 105.326C67.1819 105.367 67.3308 105.37 67.4721 105.333C67.7083 105.271 67.7291 105.139 67.7291 103.693V102.121H67.3982H67.0674V103.687ZM77.8149 103.742C77.8498 105.262 77.8685 105.363 78.1167 105.363C78.3649 105.363 78.3836 105.262 78.4185 103.742L78.4557 102.121H78.1167H77.7777L77.8149 103.742ZM98.5611 102.303C98.5611 102.404 98.6423 102.686 98.7414 102.932C98.8406 103.177 99.084 103.81 99.2823 104.337C99.585 105.142 99.6915 105.297 99.9446 105.297C100.209 105.297 100.309 105.12 100.749 103.874C101.025 103.092 101.277 102.377 101.31 102.286C101.346 102.184 101.249 102.121 101.054 102.121C100.781 102.121 100.691 102.26 100.358 103.196C99.9974 104.211 99.9665 104.254 99.8131 103.957C99.7235 103.784 99.5433 103.3 99.4124 102.882C99.2126 102.243 99.1253 102.121 98.8678 102.121C98.6955 102.121 98.5611 102.201 98.5611 102.303ZM102.126 102.22C102.118 102.312 102.122 105.124 102.13 105.317C102.132 105.365 102.253 105.373 102.399 105.335C102.644 105.271 102.663 105.155 102.663 103.693C102.663 102.209 102.648 102.121 102.399 102.121C102.253 102.121 102.13 102.165 102.126 102.22ZM107.694 102.743C107.547 102.846 107.427 103.046 107.427 103.187C107.427 103.407 107.522 103.444 108.081 103.444C108.806 103.444 108.901 103.376 108.746 102.965C108.613 102.615 108.048 102.495 107.694 102.743ZM39.3525 102.944C39.2393 103.106 39.1465 103.45 39.1465 103.709C39.1465 104.349 39.4614 104.767 39.9434 104.767C40.4122 104.767 40.6021 104.462 40.6021 103.709C40.6021 103.408 40.5404 103.047 40.4651 102.906C40.2716 102.544 39.6169 102.567 39.3525 102.944ZM69.3907 102.944C68.947 103.578 69.2875 104.767 69.9124 104.767C70.2838 104.767 70.6402 104.263 70.6402 103.738C70.6402 103.116 70.3287 102.65 69.9124 102.65C69.7361 102.65 69.5057 102.78 69.3907 102.944ZM80.1721 102.844C79.9293 103.136 79.8703 103.997 80.0672 104.37C80.2018 104.625 80.3461 104.701 80.6971 104.701C81.2594 104.701 81.5298 104.279 81.4419 103.538C81.3664 102.9 81.1564 102.65 80.6971 102.65C80.4966 102.65 80.2603 102.737 80.1721 102.844ZM93.0081 102.906C92.7623 103.365 92.8489 103.444 93.5989 103.444C94.3489 103.444 94.4355 103.365 94.1897 102.906C94.0951 102.729 93.9121 102.65 93.5989 102.65C93.2857 102.65 93.1027 102.729 93.0081 102.906ZM32.2215 104.062C32.0025 104.281 32.1437 104.741 32.4536 104.819C33.0071 104.958 33.4502 104.686 33.4545 104.205C33.4561 104.02 33.3417 103.973 32.8831 103.973C32.5676 103.973 32.2699 104.013 32.2215 104.062ZM60.907 104.261C60.8432 104.462 60.8879 104.602 61.0557 104.724C61.5241 105.067 62.1713 104.821 62.1713 104.3C62.1713 104.002 62.12 103.973 61.5847 103.973C61.0988 103.973 60.9825 104.023 60.907 104.261ZM72.8457 104.062C72.6311 104.276 72.7661 104.764 73.0604 104.838C73.5598 104.964 74.0807 104.693 74.0807 104.308C74.0807 104.002 74.0323 103.973 73.5074 103.973C73.1919 103.973 72.8942 104.013 72.8457 104.062Z" fill="black"/>
</g>
</g>
</svg>
