<svg width="140" height="140" viewBox="0 0 140 140" fill="none" xmlns="http://www.w3.org/2000/svg">
<rect width="140" height="140" rx="70" fill="#106A37"/>
<path fill-rule="evenodd" clip-rule="evenodd" d="M69.7418 22.4578C69.4808 22.9792 69.116 24.0223 69.116 24.2469C69.116 24.4988 68.9956 24.4951 68.6054 24.231C67.8925 23.7487 66.7069 23.5186 65.8396 23.6943L65.5727 23.7483L65.8501 23.9156C66.1722 24.1099 66.8178 24.7207 66.9399 24.9466C67.0195 25.0939 66.979 25.0989 66.1547 25.0431C64.5397 24.9339 62.5981 25.2723 61.2383 25.8998C59.7721 26.5765 58.2415 27.8261 57.2707 29.1389C57.03 29.4643 56.8449 29.7426 56.8593 29.757C56.8737 29.7716 57.2169 29.586 57.6219 29.3446C58.8674 28.6022 60.4169 27.9889 61.8339 27.6775C62.5261 27.5254 64.4031 27.426 64.8737 27.5164L65.2014 27.5795L64.4858 27.7881C63.5715 28.0548 62.0598 28.7881 61.2263 29.3691C59.1213 30.8366 57.6954 33.2053 57.2841 35.9177L57.226 36.3014L57.5906 35.8751C58.866 34.384 60.7439 32.6409 61.9769 31.8035C62.6638 31.337 63.8777 30.6351 64.0017 30.6328C64.0365 30.6321 63.8231 30.9865 63.5277 31.4202C62.1603 33.4276 61.6149 35.2169 61.6334 37.6363C61.6388 38.3558 61.6673 39.0565 61.6965 39.1935C61.7446 39.4185 61.7691 39.3815 61.9504 38.8099C62.4378 37.2735 63.2914 35.6493 64.3001 34.339C64.8781 33.5884 66.3004 32.0955 66.3659 32.1708C66.3842 32.1917 66.323 32.6309 66.2299 33.1467C66.0946 33.8965 66.0589 34.4779 66.0519 36.0456C66.0433 37.995 66.1294 38.9341 66.4467 40.3487L66.5512 40.8153L66.9211 39.4535C67.8435 36.0582 69.0351 32.9804 69.7737 32.0854L70.0163 31.7914L70.3199 32.2133C70.8174 32.9044 71.4304 34.1781 71.8772 35.4488C72.3042 36.663 73.0179 39.0224 73.3085 40.1807L73.469 40.8201L73.5751 40.4365C73.8078 39.5949 73.9186 38.6089 73.9679 36.9408C74.0174 35.2633 73.9654 34.4337 73.6901 32.5073L73.6353 32.1236L74.0064 32.4304C74.5995 32.9203 75.7345 34.2662 76.36 35.2208C77.0137 36.2186 77.5714 37.3285 77.9527 38.3902C78.0958 38.7888 78.2374 39.1725 78.2672 39.2428C78.3499 39.4376 78.4451 38.6286 78.4528 37.6655C78.4697 35.5818 77.8716 33.5278 76.7151 31.6973C76.5078 31.3691 76.2599 31.0143 76.1644 30.909C75.8829 30.5987 76.0476 30.6009 76.6632 30.9155C77.934 31.565 79.7736 33.0756 81.5683 34.9435C82.2669 35.6706 82.8385 36.2296 82.8385 36.1859C82.8385 36.1422 82.7274 35.661 82.5916 35.1167C81.6905 31.503 79.4478 29.0954 75.8769 27.9084L74.8955 27.5823L75.3368 27.5208C76.3589 27.3785 78.6254 27.6974 79.9593 28.1712C80.7987 28.4694 81.9848 29.0562 82.6659 29.5101C83.394 29.9955 83.3747 29.985 83.299 29.8536C83.2617 29.7891 82.9929 29.4244 82.7014 29.0431C80.6097 26.3067 77.3715 24.8262 73.9357 25.0354C73.4611 25.0644 73.0728 25.0666 73.0728 25.0405C73.0728 24.9016 73.5789 24.3552 73.971 24.0709C74.3792 23.7748 74.4027 23.7408 74.2304 23.6939C73.8771 23.5981 72.8528 23.6396 72.4294 23.7669C72.1976 23.8367 71.7769 24.045 71.4945 24.2299L70.9809 24.566L70.9235 24.2097C70.8446 23.719 70.4584 22.7266 70.1919 22.3294L69.9709 22L69.7418 22.4578ZM94.4562 38.5669C87.8581 39.9217 80.1825 41.4968 77.3993 42.0669L72.339 43.1035L72.2855 44.1785C72.1029 47.8473 71.8953 54.3255 71.9576 54.415C71.9723 54.4363 72.5418 54.1719 73.2232 53.8275C75.7335 52.5586 79.2758 51.0484 82.0074 50.0822C84.3227 49.2633 85.8453 48.879 88.0159 48.5659C89.8474 48.3017 94.1469 48.3869 95.1984 48.7082L95.4243 48.7773L95.1995 48.7846C93.6712 48.8344 90.2555 49.2158 88.942 49.4833C86.266 50.0283 82.5382 51.4802 78.2082 53.6638C76.0823 54.7359 73.0714 56.4191 73.0743 56.5338C73.0763 56.6111 78.572 59.9393 81.281 61.5037C82.4386 62.1722 83.3992 62.7294 83.4158 62.7419C83.473 62.785 81.6225 64.8208 81.5262 64.8208C81.4733 64.8208 79.4075 63.5423 76.9356 61.9796C71.3136 58.4254 71.8172 58.7292 71.7763 58.867C71.7579 58.9295 71.6819 60.496 71.6075 62.3483C71.1273 74.3177 71.0472 76.5247 71.0916 76.5696C71.1544 76.6332 70.6386 77.1977 76.4894 70.6612C79.2596 67.5662 81.5611 65.0452 81.6038 65.059C81.6465 65.0727 82.0361 65.2953 82.4695 65.5536C83.9691 66.4474 85.574 67.0551 87.1838 67.3385C88.273 67.5302 90.3657 67.5347 91.2992 67.3474C93.997 66.8059 94.7648 66.5507 93.7514 66.532C92.6371 66.5115 90.1004 65.9534 88.6052 65.3996C86.9979 64.8042 85.0932 63.8062 83.9149 62.9417L83.5972 62.7087L89.6294 55.9421C92.9471 52.2205 98.1843 46.3608 101.268 42.9204C105.035 38.7172 106.883 36.5946 106.901 36.4499C106.93 36.228 106.8 36.0861 106.579 36.0972C106.51 36.1007 101.054 37.212 94.4562 38.5669ZM33.1334 36.3134C33.1042 36.3903 33.1334 36.5342 33.1981 36.6331C33.329 36.8329 42.3424 46.9495 50.865 56.4621C53.9114 59.8625 56.4039 62.6752 56.4039 62.7127C56.4039 62.8507 54.8089 63.8282 53.5415 64.4669C51.5091 65.4912 49.5043 66.1151 47.3384 66.3974C45.4898 66.6383 45.5163 66.5929 47.0103 66.9595C48.7532 67.3872 49.3395 67.4642 50.8326 67.4622C52.2321 67.4603 52.8673 67.3855 54.1308 67.0737C55.0622 66.8438 56.7163 66.097 57.8831 65.3795L58.4923 65.0051L59.1949 65.7917C61.9457 68.8711 68.433 76.0874 68.6696 76.331L68.9594 76.6294L68.9098 75.3931C68.8825 74.7131 68.8018 72.3728 68.7305 70.1922C68.5626 65.0629 68.3025 58.8529 68.2534 58.8031C68.195 58.7441 63.22 61.8464 59.7805 64.0866C59.1604 64.4905 58.6064 64.8208 58.5494 64.8208C58.369 64.8208 56.5778 62.8258 56.6723 62.7301C56.6941 62.708 57.9591 61.9665 59.4834 61.0824C62.2689 59.4669 66.7118 56.7852 66.904 56.6036C66.9831 56.529 66.6883 56.3238 65.6412 55.725C61.0091 53.0763 57.5089 51.4527 53.8266 50.245C51.3425 49.4302 49.4774 49.1112 45.4175 48.8064L44.5757 48.7432L45.2491 48.64C48.3245 48.169 51.7728 48.3338 54.8885 49.1008C57.5961 49.7673 62.3904 51.6388 66.2461 53.5342C67.2374 54.0215 68.0677 54.4009 68.0911 54.3772C68.135 54.3327 68.0092 50.0275 67.8359 45.6504C67.7409 43.2491 67.7299 43.1455 67.5636 43.0821C67.2254 42.9531 33.6211 36.1735 33.32 36.1735C33.2465 36.1735 33.1626 36.2364 33.1334 36.3134ZM35.5256 81.7V82.9812H36.7907H38.0557L38.0324 81.7236L38.0091 80.4661L36.7673 80.4424L35.5256 80.4189V81.7ZM40.4926 81.7023V82.9812H41.7133H42.934V81.7023V80.4234H41.7133H40.4926V81.7023ZM100.433 86.7327V93.0419H99.6758H98.9181V89.2478V85.4538H97.6553H96.3925V89.2478V93.0419H95.1718H93.9511V89.2478V85.4538H92.6883H91.4255V89.2478V93.0419H90.2048H88.9841V89.2478V85.4538H87.7213H86.4585V89.2478V93.0419H81.9545H77.4505V90.5267V88.0116H81.1968H84.9431V86.7212V85.4308L81.1911 85.4704L77.4391 85.5101L76.182 86.7811L74.9249 88.0521V90.5503V93.0486L74.1883 93.0239L73.4516 92.9993L73.4298 89.215L73.4078 85.4308L69.6567 85.4704L65.9055 85.5101L64.6905 86.7385L63.4755 87.9667V91.7932V95.6196L66.002 95.5863L68.5285 95.5531L69.6926 94.3762L70.8568 93.1995L70.9125 94.8823C70.9431 95.8078 70.9681 96.9041 70.9681 97.3186V98.0723H67.2218H63.4755V99.3512V100.63H67.1998H70.924L72.1668 99.3736L73.4096 98.117V96.868V95.6189L86.9638 95.5874L100.518 95.556L101.717 94.3412L102.917 93.1265L102.945 86.775L102.972 80.4234H101.703H100.433V86.7327ZM104.474 88.0116V95.5997H105.737H107V88.0116V80.4234H105.737H104.474V88.0116ZM34.2311 86.7391L33 88.0244V91.8213V95.6181L35.5245 95.5876L38.0489 95.5571L39.2088 94.3848C39.8466 93.74 40.3965 93.2124 40.4306 93.2124C40.4647 93.2124 40.4926 93.754 40.4926 94.4159V95.6192L44.2398 95.5868L47.9871 95.5545L49.1858 94.3405L50.3845 93.1265L50.4136 89.2901L50.4425 85.4538H49.2148H47.987L47.965 89.2265L47.9431 92.9993L45.4386 93.0219L42.934 93.0445V89.2491V85.4538H39.1982H35.4623L34.2311 86.7391ZM54.4676 86.7314V88.009L56.93 88.0316L59.3925 88.0542V90.5267V92.9993L55.6672 93.0215L51.942 93.0437V94.3314V95.6192L55.7311 95.587L59.5202 95.5549L60.699 94.3611L61.8777 93.1673L61.9327 89.3106L61.9876 85.4538H58.2276H54.4676V86.7314ZM35.5256 90.5707V93.1297L37.9881 93.1071L40.4505 93.0845L40.4728 90.5481L40.4951 88.0116H38.0104H35.5256V90.5707ZM66.0011 90.5267V93.0445L68.4636 93.0219L70.9261 92.9993V90.5267V88.0542L68.4636 88.0316L66.0011 88.009V90.5267ZM42.934 99.3512V100.63H44.1968H45.4596V99.3512V98.0723H44.1968H42.934V99.3512ZM47.9852 99.3512V100.63H49.2059H50.4266V99.3512V98.0723H49.2059H47.9852V99.3512ZM81.9124 104.424V106.939H79.4068H76.9011L75.7025 108.155L74.504 109.371V113.186V117H76.9675H79.4312L80.6075 115.806C81.2545 115.15 81.8128 114.613 81.8482 114.613C81.8834 114.613 81.9124 115.15 81.9124 115.806V117H83.1752H84.438V109.454V101.909H83.1752H81.9124V104.424ZM85.9534 103.145V104.382H87.2162H88.479V103.145V101.909H87.2162H85.9534V103.145ZM41.1871 105.656L39.9875 106.916V109.443V111.97H43.7338H47.4801V113.206V114.442H43.7338H39.9875V115.721V117H43.7138H47.4401L48.6783 115.742L49.9166 114.485L49.9401 111.97L49.9636 109.454L46.2383 109.432L42.5131 109.41V108.175V106.939H46.2594H50.0057V105.66V104.382L46.1962 104.389L42.3868 104.396L41.1871 105.656ZM52.7196 108.155L51.521 109.371V113.186V117H54.0245H56.528L57.7287 115.786L58.9295 114.572V115.786V117H60.1923H61.4551V111.97V106.939H57.6866H53.9182L52.7196 108.155ZM62.9704 111.97V117H66.6968H70.423L71.6578 115.742L72.8927 114.485L72.9524 110.712L73.0123 106.939H71.7376H70.463V110.691V114.442H67.9795H65.496V110.691V106.939H64.2332H62.9704V111.97ZM85.9534 111.97V117H87.2162H88.479V111.97V106.939H87.2162H85.9534V111.97ZM91.2364 108.17L90.0791 109.384L90.023 113.192L89.9669 117H92.4862H95.0057L96.182 115.806C96.829 115.15 97.3873 114.613 97.4227 114.613C97.458 114.613 97.4869 115.15 97.4869 115.806V117H98.7497H100.013V111.97V106.939L96.2031 106.948L92.3936 106.957L91.2364 108.17ZM53.9625 111.97V114.442H56.446H58.9295V111.97V109.497H56.446H53.9625V111.97ZM76.9454 111.97V114.442H79.4289H81.9124V111.97V109.497H79.4289H76.9454V111.97ZM92.5199 111.97V114.442H95.0034H97.4869V111.97V109.497H95.0034H92.5199V111.97Z" fill="white"/>
</svg>
