<svg width="20" height="20" viewBox="0 0 20 20" fill="none" xmlns="http://www.w3.org/2000/svg">
<path fill-rule="evenodd" clip-rule="evenodd" d="M17.5023 8.33268C17.9625 8.33268 18.3356 7.95958 18.3356 7.49935V2.49935C18.3356 2.03912 17.9625 1.66602 17.5023 1.66602H12.4993C12.039 1.66602 11.6659 2.03911 11.6659 2.49935C11.6659 2.95958 12.039 3.33268 12.4993 3.33268H15.4906L8.31837 10.5048C7.99294 10.8303 7.99294 11.3579 8.31837 11.6833C8.64385 12.0088 9.17143 12.0088 9.49685 11.6833L16.6689 4.51132V7.49935C16.6689 7.95958 17.042 8.33268 17.5023 8.33268ZM4.16602 4.16602C2.78531 4.16602 1.66602 5.28531 1.66602 6.66602V15.8327C1.66602 17.2134 2.78531 18.3327 4.16602 18.3327H13.3327C14.7134 18.3327 15.8327 17.2134 15.8327 15.8327V10.8327C15.8327 10.3724 15.4596 9.99935 14.9993 9.99935C14.5391 9.99935 14.166 10.3724 14.166 10.8327V15.8327C14.166 16.2929 13.7929 16.666 13.3327 16.666H4.16602C3.70578 16.666 3.33268 16.2929 3.33268 15.8327V6.66602C3.33268 6.20578 3.70578 5.83268 4.16602 5.83268H9.16602C9.62627 5.83268 9.99935 5.45958 9.99935 4.99935C9.99935 4.53912 9.62627 4.16602 9.16602 4.16602H4.16602Z" fill="white"/>
</svg>
