<svg width="19" height="21" viewBox="0 0 19 21" fill="none" xmlns="http://www.w3.org/2000/svg">
<path id="Vector" fill-rule="evenodd" clip-rule="evenodd" d="M15.2576 0C13.1907 0 11.5152 1.567 11.5152 3.5C11.5152 3.71098 11.5351 3.91759 11.5734 4.11828L6.12596 7.68447C6.09827 7.70259 6.07208 7.72195 6.04739 7.74242C5.41204 7.27728 4.61185 7 3.74242 7C1.67554 7 0 8.56703 0 10.5C0 12.433 1.67554 14 3.74242 14C4.61185 14 5.41204 13.7227 6.04739 13.2576C6.07208 13.278 6.09827 13.2974 6.12596 13.3155L11.5734 16.8817C11.5351 17.0824 11.5152 17.289 11.5152 17.5C11.5152 19.433 13.1907 21 15.2576 21C17.3244 21 19 19.433 19 17.5C19 15.567 17.3244 14 15.2576 14C14.0453 14 12.9676 14.5391 12.2837 15.3749L7.12564 11.9981C7.35598 11.544 7.48485 11.0361 7.48485 10.5C7.48485 9.96391 7.35598 9.45603 7.12564 9.00189L12.2837 5.62509C12.9676 6.46091 14.0453 7 15.2576 7C17.3244 7 19 5.433 19 3.5C19 1.567 17.3244 0 15.2576 0ZM13.2424 3.5C13.2424 2.45915 14.1446 1.61538 15.2576 1.61538C16.3705 1.61538 17.2727 2.45915 17.2727 3.5C17.2727 4.54085 16.3705 5.38462 15.2576 5.38462C14.1446 5.38462 13.2424 4.54085 13.2424 3.5ZM3.74242 8.61539C2.62948 8.61539 1.72727 9.45915 1.72727 10.5C1.72727 11.5408 2.62948 12.3846 3.74242 12.3846C4.85536 12.3846 5.75758 11.5408 5.75758 10.5C5.75758 9.45915 4.85536 8.61539 3.74242 8.61539ZM15.2576 15.6154C14.1446 15.6154 13.2424 16.4592 13.2424 17.5C13.2424 18.5408 14.1446 19.3846 15.2576 19.3846C16.3705 19.3846 17.2727 18.5408 17.2727 17.5C17.2727 16.4592 16.3705 15.6154 15.2576 15.6154Z" fill="#1c7a54"/>
</svg>
