<svg width="1900" height="886" viewBox="0 0 1900 886" fill="none" xmlns="http://www.w3.org/2000/svg">
<path d="M1513.35 278H1566.7C1603 278 1625.37 284.233 1633.8 296.7C1637.83 302.567 1640.95 308.25 1643.15 313.75C1645.72 319.25 1647.37 327.867 1648.1 339.6C1649.93 360.867 1650.85 384.517 1650.85 410.55C1650.85 436.583 1650.67 455.467 1650.3 467.2C1649.93 478.567 1648.65 490.3 1646.45 502.4C1644.62 514.133 1642.05 522.75 1638.75 528.25C1635.45 533.383 1630.5 538.15 1623.9 542.55C1617.3 546.95 1609.6 549.883 1600.8 551.35C1592 552.45 1580.63 553 1566.7 553H1513.35V511.75H1543.05C1552.58 511.75 1558.63 510.467 1561.2 507.9C1564.13 505.333 1565.6 501.3 1565.6 495.8V335.75C1565.6 329.883 1564.13 325.667 1561.2 323.1C1558.63 320.533 1552.58 319.25 1543.05 319.25H1513.35V278ZM1496.85 675.65H1463.3C1447.17 675.65 1434.88 671.617 1426.45 663.55C1418.38 655.85 1414.35 645.767 1414.35 633.3V320.35C1414.35 307.883 1418.38 297.8 1426.45 290.1C1434.88 282.033 1447.17 278 1463.3 278H1496.85V675.65Z" fill="white"/>
<path d="M1156.6 270C1119.7 270 1097.35 285.806 1086.57 318.221L967 678H1061.53C1068.26 678 1076.07 673.982 1080.65 669.427L1194.57 557.448C1196.99 555.037 1196.18 553.966 1193.49 553.966H1178.14C1171.68 553.966 1165.75 555.573 1160.1 558.788L1083.61 602.454L1156.33 358.137C1156.33 358.137 1242.78 653.89 1249.78 677.732H1347L1229.04 317.417C1219.08 287.413 1194.03 270 1156.6 270Z" fill="white"/>
<path d="M945 270V678H853.433L675.752 442.523H672.917V678H565V270H657.874L833.595 505.077H837.301V270H945Z" fill="white"/>
<path d="M358.101 422.775C311.857 419.181 275.667 413.789 275.667 388.626C275.667 368.855 299.794 354.476 335.984 354.476C378.206 354.476 410.376 376.044 408.365 404.802L504.873 354.476C478.735 304.15 414.397 270 331.963 270C225.402 270 151.011 322.123 151.011 399.41C151.011 489.278 233.444 509.048 319.899 518.035C364.132 523.427 402.333 527.022 402.333 555.78C402.333 579.145 378.206 595.322 340.005 595.322C293.762 595.322 259.582 571.956 259.582 539.604H149C149 557.577 153.021 575.551 161.063 591.727C187.201 643.85 253.55 678 337.995 678C450.587 678 529 622.282 529 541.401C526.989 451.533 444.556 431.762 358.101 422.775Z" fill="white"/>
</svg>
