<svg width="27" height="26" viewBox="0 0 27 26" fill="none" xmlns="http://www.w3.org/2000/svg">
<path d="M19.8776 11.4845L12.4606 4.06745C12.1185 3.71331 11.9293 3.23899 11.9335 2.74666C11.9378 2.25433 12.1353 1.78337 12.4834 1.43522C12.8316 1.08708 13.3025 0.889601 13.7949 0.885322C14.2872 0.881044 14.7615 1.07031 15.1157 1.41235L25.738 12.0346C25.9129 12.2086 26.0518 12.4155 26.1465 12.6433C26.2413 12.8711 26.2901 13.1154 26.2901 13.3622C26.2901 13.6089 26.2413 13.8532 26.1465 14.0811C26.0518 14.3089 25.9129 14.5157 25.738 14.6897L15.1157 25.312C14.9425 25.4913 14.7353 25.6344 14.5062 25.7328C14.2771 25.8312 14.0307 25.883 13.7814 25.8852C13.532 25.8873 13.2848 25.8398 13.054 25.7454C12.8233 25.651 12.6136 25.5116 12.4373 25.3353C12.261 25.159 12.1216 24.9493 12.0272 24.7186C11.9327 24.4878 11.8852 24.2405 11.8874 23.9912C11.8896 23.7419 11.9414 23.4955 12.0398 23.2664C12.1382 23.0373 12.2812 22.8301 12.4606 22.6569L19.8776 15.2399L1.87773 15.2399C1.37972 15.2399 0.902116 15.0421 0.549975 14.6899C0.197833 14.3378 2.26861e-06 13.8602 2.18153e-06 13.3622C2.09446e-06 12.8642 0.197833 12.3866 0.549974 12.0344C0.902116 11.6823 1.37972 11.4845 1.87772 11.4845L19.8776 11.4845Z" fill="#005149"/>
</svg>
