<svg width="484" height="386" viewBox="0 0 484 386" fill="none" xmlns="http://www.w3.org/2000/svg">
<mask id="mask0_242_420" style="mask-type:luminance" maskUnits="userSpaceOnUse" x="357" y="155" width="26" height="16">
<path d="M380.49 157.101C377.175 155.178 371.799 155.178 368.484 157.101C366.826 158.073 365.998 159.327 365.998 160.582C363.916 160.623 361.834 161.088 360.258 161.999C356.943 163.922 356.943 167.019 360.258 168.942C363.572 170.865 368.949 170.865 372.263 168.942C373.921 167.971 374.75 166.716 374.75 165.461C376.831 165.42 378.913 164.955 380.49 164.044C383.804 162.121 383.804 159.024 380.49 157.101Z" fill="white"/>
</mask>
<g mask="url(#mask0_242_420)">
<path d="M343.462 164.368L343.037 163.619L376.811 144.146L377.256 144.895L343.462 164.368Z" fill="#150035"/>
<path d="M345.866 165.602L345.441 164.853L379.216 145.381L379.66 146.13L345.866 165.602Z" fill="#150035"/>
<path d="M347.848 166.979L347.424 166.23L381.198 146.757L381.643 147.526L347.848 166.979Z" fill="#150035"/>
<path d="M350.212 168.234L349.787 167.485L383.561 148.033L383.986 148.782L350.212 168.234Z" fill="#150035"/>
<path d="M352.354 169.57L351.93 168.821L385.704 149.369L386.128 150.118L352.354 169.57Z" fill="#150035"/>
<path d="M354.759 170.804L354.314 170.055L388.109 150.603L388.533 151.352L354.759 170.804Z" fill="#150035"/>
<path d="M356.902 172.161L356.457 171.391L390.251 151.939L390.676 152.688L356.902 172.161Z" fill="#150035"/>
<path d="M359.288 173.395L358.863 172.647L392.637 153.194L393.062 153.943L359.288 173.395Z" fill="#150035"/>
<path d="M361.43 174.752L361.006 174.003L394.78 154.53L395.204 155.279L361.43 174.752Z" fill="#150035"/>
<path d="M363.835 175.986L363.41 175.237L397.184 155.765L397.609 156.514L363.835 175.986Z" fill="#150035"/>
<path d="M365.815 177.363L365.391 176.614L399.165 157.141L399.589 157.911L365.815 177.363Z" fill="#150035"/>
<path d="M368.181 178.618L367.736 177.869L401.531 158.417L401.955 159.165L368.181 178.618Z" fill="#150035"/>
<path d="M370.303 179.954L369.879 179.205L403.653 159.752L404.098 160.501L370.303 179.954Z" fill="#150035"/>
<path d="M372.708 181.188L372.283 180.439L406.057 160.987L406.502 161.736L372.708 181.188Z" fill="#150035"/>
</g>
<path d="M376.569 155.461C381.016 156.716 381.016 160.643 376.569 161.878C375.336 162.222 374.043 162.222 372.81 161.878C368.363 160.623 368.363 156.696 372.81 155.461C374.043 155.117 375.336 155.117 376.569 155.461Z" fill="#150035"/>
<path d="M374.689 162.566C374.022 162.566 373.355 162.465 372.688 162.283C370.424 161.655 369.029 160.259 369.029 158.659C369.029 157.06 370.424 155.664 372.688 155.036C374.001 154.672 375.376 154.672 376.669 155.036C378.933 155.664 380.328 157.06 380.328 158.659C380.328 160.259 378.933 161.655 376.669 162.283C376.023 162.465 375.356 162.566 374.668 162.566H374.689ZM374.689 155.623C374.103 155.623 373.496 155.704 372.93 155.866C371.071 156.392 369.898 157.465 369.898 158.659C369.898 159.854 371.051 160.927 372.93 161.453C374.082 161.777 375.295 161.777 376.467 161.453C378.327 160.927 379.499 159.854 379.499 158.659C379.499 157.465 378.347 156.392 376.467 155.866C375.881 155.704 375.295 155.623 374.709 155.623H374.689Z" fill="#150035"/>
<path d="M375.82 155.299C374.83 155.137 373.799 155.178 372.809 155.461C369.171 156.473 368.504 159.267 370.788 160.947C371.778 161.109 372.809 161.068 373.799 160.785C377.437 159.773 378.104 156.979 375.82 155.299Z" fill="#3BA1FD"/>
<path d="M371.96 161.473C371.556 161.473 371.152 161.433 370.727 161.372L370.545 161.291C369.413 160.461 368.868 159.327 369.09 158.174C369.353 156.737 370.666 155.603 372.708 155.036C373.739 154.753 374.81 154.692 375.901 154.874L376.083 154.955C377.215 155.785 377.741 156.919 377.538 158.072C377.276 159.51 375.962 160.643 373.921 161.21C373.274 161.392 372.627 161.473 371.96 161.473ZM370.97 160.542C371.899 160.684 372.809 160.623 373.678 160.38C375.356 159.914 376.487 158.983 376.669 157.911C376.811 157.141 376.427 156.332 375.639 155.724C374.709 155.583 373.799 155.644 372.93 155.886C371.253 156.352 370.121 157.283 369.939 158.356C369.797 159.125 370.181 159.935 370.97 160.542Z" fill="#150035"/>
<path d="M378.185 161.271L377.458 160.785C378.004 159.935 378.226 159.186 378.084 158.538C377.923 157.83 377.397 157.486 377.377 157.486L377.822 156.737C377.822 156.737 378.671 157.263 378.913 158.336C379.115 159.226 378.852 160.198 378.165 161.25L378.185 161.271Z" fill="#3BA1FD"/>
<path d="M374.688 41.2178C373.172 41.2178 371.939 42.4525 371.939 43.9706V156.878C371.939 157.485 372.526 158.073 373.698 158.356C374.345 158.518 375.032 158.518 375.679 158.356C376.851 158.073 377.437 157.465 377.437 156.878V43.9706C377.437 42.4525 376.204 41.2178 374.688 41.2178Z" fill="#3BA1FD"/>
<path d="M374.689 158.902C374.325 158.902 373.961 158.862 373.597 158.761C372.304 158.437 371.516 157.728 371.516 156.858V43.9504C371.516 42.1894 372.93 40.7725 374.689 40.7725C376.447 40.7725 377.862 42.1894 377.862 43.9504V156.858C377.862 157.728 377.074 158.437 375.78 158.761C375.417 158.842 375.053 158.902 374.689 158.902ZM374.689 41.6429C373.416 41.6429 372.385 42.6752 372.385 43.9504V156.858C372.385 157.182 372.749 157.668 373.8 157.931C374.386 158.072 374.992 158.072 375.558 157.931C376.609 157.668 376.993 157.202 376.993 156.858V43.9504C376.993 42.6752 375.962 41.6429 374.689 41.6429Z" fill="#150035"/>
<path d="M375.012 44.9423C373.618 44.9423 373.031 44.2339 372.971 44.1529L373.658 43.6267C373.658 43.6267 374.062 44.0922 375.032 44.0922C375.72 44.0922 376.326 43.8695 376.609 43.5052C376.75 43.323 376.811 43.1206 376.75 42.8575L377.599 42.6753C377.721 43.1813 377.599 43.6469 377.296 44.0517C376.851 44.6185 375.982 44.9626 375.032 44.9626L375.012 44.9423Z" fill="#150035"/>
<path d="M377.135 43.3432C377.135 43.3432 376.953 44.3553 375.761 44.416L375.68 158.336L376.407 158.073L377.175 157.486L377.418 156.838V43.9302L377.135 43.323V43.3432Z" fill="#150035"/>
<path d="M376.507 158.518L376.305 157.668C376.305 157.668 377.336 157.404 377.598 156.392L378.427 156.615C378.023 158.133 376.567 158.497 376.507 158.518Z" fill="#3BA1FD"/>
<path d="M373.719 43.1408L372.91 42.8574C372.91 42.8574 373.314 41.7441 374.709 41.7441V42.6145C373.961 42.6145 373.759 43.0801 373.739 43.1408H373.719Z" fill="white"/>
<path d="M373.738 45.853H372.869V153.457H373.738V45.853Z" fill="white"/>
<path d="M376.629 136.738C375.557 137.365 373.819 137.365 372.748 136.738C372.222 136.434 371.939 136.029 371.939 135.625V141.899C371.939 142.304 372.202 142.709 372.748 143.013C373.819 143.64 375.557 143.64 376.629 143.013C377.154 142.709 377.437 142.304 377.437 141.899V135.625C377.437 136.029 377.174 136.434 376.629 136.738Z" fill="white"/>
<path d="M374.689 143.903C373.921 143.903 373.133 143.721 372.526 143.377C371.879 142.992 371.516 142.466 371.516 141.879V135.604H372.385C372.385 135.867 372.607 136.131 372.971 136.353C373.901 136.9 375.477 136.9 376.407 136.353C376.771 136.131 376.993 135.867 376.993 135.604H377.862V141.879C377.862 142.466 377.498 142.992 376.852 143.377C376.245 143.721 375.477 143.903 374.689 143.903ZM372.385 137.021V141.879C372.385 142.142 372.607 142.405 372.971 142.628C373.901 143.175 375.477 143.175 376.407 142.628C376.771 142.405 376.993 142.142 376.993 141.879V137.021C376.993 137.021 376.892 137.082 376.831 137.122C375.619 137.811 373.739 137.811 372.526 137.122C372.466 137.082 372.425 137.062 372.365 137.021H372.385Z" fill="#150035"/>
<path d="M376.628 136.879C376.345 137.041 376.021 137.163 375.678 137.244V143.357C376.021 143.276 376.345 143.316 376.628 143.154C377.153 142.851 377.436 142.446 377.436 142.041V135.766C377.436 136.171 377.173 136.576 376.628 136.879Z" fill="#3BA1FD"/>
<path d="M375.254 143.883V136.879L375.597 136.798C375.921 136.738 376.204 136.616 376.426 136.495C376.79 136.272 377.012 136.009 377.012 135.746H377.881V142.021C377.881 142.608 377.518 143.134 376.871 143.519C376.608 143.66 376.345 143.701 376.103 143.721C376.002 143.721 375.901 143.741 375.8 143.762L375.274 143.883H375.254ZM376.123 137.547V142.83C376.244 142.83 376.345 142.79 376.426 142.749C376.79 142.527 377.012 142.264 377.012 142.001V137.143C377.012 137.143 376.911 137.203 376.851 137.244C376.628 137.365 376.386 137.466 376.123 137.568V137.547Z" fill="#150035"/>
<path d="M376.629 53.7473C375.557 54.3748 373.819 54.3748 372.748 53.7473C372.222 53.4437 371.939 53.0389 371.939 52.634V58.9089C371.939 59.3138 372.202 59.7186 372.748 60.0222C373.819 60.6497 375.557 60.6497 376.629 60.0222C377.154 59.7186 377.437 59.3138 377.437 58.9089V52.634C377.437 53.0389 377.174 53.4437 376.629 53.7473Z" fill="white"/>
<path d="M374.689 60.9128C373.921 60.9128 373.133 60.7307 372.526 60.3865C371.879 60.002 371.516 59.4757 371.516 58.8887V52.6138H372.385C372.385 52.8769 372.607 53.1401 372.971 53.3627C373.901 53.9092 375.477 53.9092 376.407 53.3627C376.771 53.1401 376.993 52.8769 376.993 52.6138H377.862V58.8887C377.862 59.4757 377.498 60.002 376.852 60.3865C376.245 60.7307 375.477 60.9128 374.689 60.9128ZM372.385 54.0307V58.8887C372.385 59.1518 372.607 59.4149 372.971 59.6376C373.901 60.1841 375.477 60.1841 376.407 59.6376C376.771 59.4149 376.993 59.1518 376.993 58.8887V54.0307C376.993 54.0307 376.892 54.0914 376.831 54.1319C375.619 54.8201 373.739 54.8201 372.526 54.1319C372.466 54.0914 372.425 54.0712 372.365 54.0307H372.385Z" fill="#150035"/>
<path d="M376.628 53.8687C376.345 54.0306 376.021 54.152 375.678 54.233V60.346C376.021 60.265 376.345 60.3055 376.628 60.1436C377.153 59.8399 377.436 59.4351 377.436 59.0303V52.7554C377.436 53.1602 377.173 53.565 376.628 53.8687Z" fill="#3BA1FD"/>
<path d="M375.254 60.8722V53.8686L375.597 53.7877C375.921 53.7269 376.204 53.6055 376.426 53.484C376.79 53.2614 377.012 52.9982 377.012 52.7351H377.881V59.01C377.881 59.597 377.518 60.1233 376.871 60.5079C376.608 60.6496 376.345 60.69 376.103 60.7103C376.002 60.7103 375.901 60.7305 375.8 60.7508L375.274 60.8722H375.254ZM376.123 54.5366V59.8197C376.244 59.8197 376.345 59.7792 376.426 59.7387C376.79 59.516 377.012 59.2529 377.012 58.9898V54.1318C377.012 54.1318 376.911 54.1925 376.851 54.233C376.628 54.3544 376.386 54.4556 376.123 54.5568V54.5366Z" fill="#150035"/>
<path d="M412.93 78.2194C412.203 78.179 404.502 77.6527 400.803 75.4868C396.923 73.2198 396.761 66.8437 393.507 63.5443C390.313 60.3056 384.674 56.399 381.966 56.1156H381.946C381.946 56.1156 381.844 56.0954 381.784 56.0954C381.764 56.0954 381.743 56.0954 381.723 56.0954C381.036 56.0144 380.228 56.1966 379.358 56.7026C376.771 58.2005 374.689 61.8238 374.689 64.7993C374.689 66.702 375.538 67.8557 376.812 68.0986C377.135 68.1391 382.613 68.7666 388.07 72.5316C394.659 77.0657 395.346 78.4826 398.176 80.1019C401.005 81.7212 407.675 82.2273 411.617 80.8508C411.617 80.8508 411.617 80.8508 411.637 80.8306L412.951 78.2802C412.951 78.2802 412.951 78.2194 412.93 78.2194Z" fill="#3BA1FD"/>
<path d="M405.998 82.0857C402.926 82.0857 399.773 81.5189 397.953 80.4866C396.599 79.7174 395.71 78.9685 394.497 77.9564C393.143 76.8229 391.304 75.2845 387.807 72.8757C382.431 69.1715 376.973 68.544 376.751 68.5238L376.468 68.4631C375.074 68.0987 374.225 66.7425 374.225 64.7993C374.225 61.6821 376.408 57.8767 379.116 56.3181C380.005 55.8121 380.854 55.5894 381.683 55.6501H381.784C381.784 55.6501 381.885 55.6501 381.925 55.6501H382.047C384.836 55.974 390.495 59.8806 393.79 63.2205C395.306 64.7589 396.175 66.9045 397.024 68.9894C398.034 71.5196 399.004 73.9081 401.005 75.0821C404.583 77.1872 412.082 77.7135 412.93 77.754H413.173L413.436 78.1993L413.314 78.4422L411.92 81.1545L411.738 81.2355C410.161 81.782 408.08 82.0452 405.978 82.0452L405.998 82.0857ZM376.953 67.6737C377.701 67.7749 383.057 68.544 388.312 72.1673C391.829 74.5963 393.689 76.1549 395.063 77.2884C396.256 78.2802 397.104 78.9887 398.398 79.7376C400.945 81.195 407.352 81.8225 411.354 80.5068L412.324 78.6243C410.242 78.4624 403.916 77.8147 400.621 75.8715C398.358 74.5356 397.286 71.9041 396.256 69.3537C395.447 67.3498 394.618 65.2851 393.224 63.8682C390.03 60.6498 384.533 56.8444 381.946 56.561H381.703C381.056 56.4801 380.349 56.6622 379.601 57.0873C377.155 58.5042 375.154 61.9655 375.154 64.8196C375.154 66.4187 375.821 67.4915 376.913 67.6737H376.973H376.953Z" fill="#150035"/>
<path d="M411.656 80.8306L412.97 78.2802C412.97 78.2802 412.97 78.2194 412.949 78.2194C412.707 78.2194 411.595 78.1182 410.14 77.9563C410.14 77.9563 409.534 78.766 405.653 79.859C401.752 80.952 398.215 80.1019 398.215 80.1019C401.045 81.7212 407.714 82.2273 411.656 80.8508C411.656 80.8508 411.656 80.8508 411.676 80.8306H411.656Z" fill="#150035"/>
<path d="M398.356 76.762C400.802 78.1789 406.158 78.7457 410.12 77.9563C407.351 77.6122 403.167 76.9037 400.741 75.4868C396.861 73.2198 396.699 66.8437 393.445 63.5443C390.251 60.3056 384.612 56.399 381.904 56.1156H381.884C381.884 56.1156 381.783 56.0954 381.722 56.0954C381.702 56.0954 381.682 56.0954 381.661 56.0954C380.974 56.0144 380.166 56.1966 379.297 56.7026C377.377 57.8159 375.719 60.1234 375.012 62.4512C375.254 63.7467 376.002 64.5564 377.033 64.7385C377.356 64.779 382.834 65.4065 388.291 69.1714C394.88 73.7056 395.567 75.1225 398.397 76.7418L398.356 76.762Z" fill="white"/>
<path d="M406.179 78.7458C403.067 78.7458 399.934 78.1588 398.135 77.1264C396.781 76.3573 395.891 75.6083 394.679 74.5962C393.324 73.4627 391.485 71.9243 387.988 69.5156C382.592 65.7911 377.155 65.1839 376.933 65.1637L376.67 65.1029C375.558 64.8195 374.79 63.8884 374.527 62.512V62.3096C375.316 59.7996 377.074 57.4314 379.035 56.2978C379.924 55.7918 380.773 55.5692 381.602 55.6299H381.703C381.703 55.6299 381.804 55.6299 381.844 55.6299H381.965C384.755 55.9537 390.414 59.8604 393.708 63.2002C395.224 64.7386 396.094 66.8842 396.942 68.9691C397.953 71.4993 398.923 73.8878 400.924 75.0618C403.248 76.418 407.23 77.1264 410.141 77.4908L412.869 77.8147L410.181 78.3409C408.928 78.5838 407.554 78.7053 406.159 78.7053L406.179 78.7458ZM398.58 76.3775C400.318 77.3694 403.572 77.9159 406.685 77.8551C404.441 77.4301 402.117 76.7823 400.52 75.831C398.256 74.495 397.185 71.8636 396.154 69.3132C395.346 67.3093 394.517 65.2446 393.122 63.8277C389.929 60.6093 384.431 56.8039 381.844 56.5205H381.602C380.955 56.4395 380.247 56.6217 379.5 57.0468C377.741 58.0589 376.165 60.164 375.437 62.4513C375.659 63.4836 376.245 64.1516 377.094 64.2933H377.195C377.984 64.4147 383.279 65.1839 388.534 68.8071C392.051 71.2361 393.911 72.7947 395.285 73.9283C396.478 74.9201 397.326 75.6286 398.62 76.3775H398.58Z" fill="#150035"/>
<path d="M387.847 72.8351C387.119 72.3291 386.715 71.3777 386.715 70.1835C386.715 67.6938 388.453 64.6575 390.616 63.4228C391.909 62.6738 393.142 62.6738 393.991 63.4228L393.425 64.0705C392.879 63.5847 392.01 63.6252 391.04 64.1717C389.12 65.285 387.584 67.9771 387.584 70.1835C387.584 71.0943 387.847 71.7826 388.352 72.1267L387.847 72.8351Z" fill="#150035"/>
<path d="M378.59 68.807C377.721 68.1998 377.256 67.0663 377.256 65.6291C377.256 62.6131 379.378 58.9089 382.006 57.3908C383.562 56.4799 385.037 56.4799 386.048 57.3705L385.482 58.0183C384.775 57.3908 383.663 57.4313 382.43 58.1397C380.045 59.5162 378.125 62.8763 378.125 65.6291C378.125 66.7829 378.469 67.6533 379.095 68.0986L378.59 68.807Z" fill="#150035"/>
<path d="M398.983 80.871C398.558 80.5674 398.336 80.0411 398.336 79.3731C398.336 78.0372 399.225 76.4786 400.377 75.8308C401.105 75.4058 401.812 75.426 402.318 75.8511L401.752 76.4988C401.55 76.3166 401.206 76.3571 400.822 76.5798C399.953 77.0858 399.205 78.361 399.205 79.3731C399.205 79.7375 399.306 80.0411 399.488 80.1625L398.983 80.871Z" fill="#150035"/>
<path d="M411.109 80.0814C411.109 80.7697 411.594 81.0531 412.201 80.7089C412.807 80.3648 413.292 79.5147 413.292 78.8265C413.292 78.1383 412.807 77.8549 412.201 78.199C411.594 78.5431 411.109 79.3932 411.109 80.0814Z" fill="#3BA1FD"/>
<path d="M411.716 81.296C411.534 81.296 411.373 81.2556 411.211 81.1746C410.867 80.9722 410.686 80.5876 410.686 80.1018C410.686 79.2517 411.251 78.2598 411.979 77.855C412.404 77.6121 412.848 77.5918 413.172 77.774C413.515 77.9764 413.697 78.361 413.697 78.8468C413.697 79.697 413.131 80.6888 412.404 81.0936C412.161 81.2353 411.918 81.296 411.696 81.296H411.716ZM412.687 78.5027C412.687 78.5027 412.525 78.523 412.424 78.5837C411.959 78.8468 411.555 79.5553 411.555 80.0816C411.555 80.2637 411.615 80.3852 411.656 80.4054C411.716 80.4257 411.838 80.4054 411.979 80.3245C412.444 80.0613 412.848 79.3529 412.848 78.8266C412.848 78.6444 412.788 78.523 412.747 78.5027C412.747 78.5027 412.707 78.5027 412.687 78.5027Z" fill="#150035"/>
<path d="M374.972 62.8157C374.972 62.8157 376.043 64.435 377.438 64.8196C377.943 64.9613 377.054 65.8519 377.7 66.196C378.367 66.5604 379.196 66.9045 380.227 67.2081C385.664 68.7869 388.635 72.9162 388.635 72.9162L384.471 70.4468L381.743 69.3132L380.126 68.8072L376.831 68.0987L375.699 67.2081L374.911 66.2365L374.709 64.7994V63.5444L374.992 62.8157H374.972Z" fill="#150035"/>
<path d="M375.557 67.957C375.436 67.9165 372.444 66.9652 371.232 64.2528C370.464 62.5525 370.585 60.5486 371.575 58.322L372.363 58.6661C371.474 60.6498 371.353 62.4108 372.02 63.8885C373.071 66.2365 375.799 67.1271 375.82 67.1271L375.557 67.957Z" fill="#150035"/>
<path d="M385.28 57.8767C380.995 55.5894 377.499 55.7311 377.458 55.7311L377.418 54.8607C377.559 54.8607 381.177 54.6987 385.685 57.1075L385.28 57.8767Z" fill="#150035"/>
<path d="M358.053 161.21V158.376C358.053 158.376 358.134 158.194 358.235 158.194H360.458C363.086 156.858 367.007 156.858 369.634 158.194H371.858C371.858 158.194 372.039 158.275 372.039 158.376V161.21C372.039 162.647 370.726 164.084 368.118 164.853C366.138 165.44 363.995 165.44 362.014 164.853C359.387 164.064 358.073 162.647 358.073 161.21H358.053Z" fill="#150035"/>
<path d="M365.026 165.886C363.935 165.886 362.843 165.724 361.812 165.42C359.084 164.61 357.467 163.031 357.467 161.21V158.376C357.467 157.951 357.81 157.627 358.215 157.627H360.297C363.066 156.291 366.987 156.291 369.756 157.627H371.838C372.262 157.627 372.585 157.971 372.585 158.376V161.21C372.585 163.031 370.968 164.59 368.24 165.4C367.209 165.703 366.118 165.865 365.006 165.865L365.026 165.886ZM358.619 158.781V161.23C358.619 162.485 359.973 163.679 362.136 164.327C363.995 164.873 366.057 164.873 367.916 164.327C370.079 163.679 371.433 162.485 371.433 161.23V158.781H369.473L369.351 158.72C366.886 157.465 363.167 157.465 360.701 158.72L360.579 158.781H358.619Z" fill="#150035"/>
<path d="M360.095 155.34C357.367 156.918 357.367 159.469 360.095 161.048C362.824 162.627 367.25 162.627 369.979 161.048C372.707 159.469 372.707 156.918 369.979 155.34C367.25 153.761 362.824 153.761 360.095 155.34Z" fill="white"/>
<path d="M365.027 162.809C363.127 162.809 361.247 162.384 359.792 161.554C358.296 160.684 357.447 159.489 357.447 158.194C357.447 156.898 358.276 155.704 359.792 154.834C362.682 153.174 367.371 153.174 370.241 154.834C371.737 155.704 372.586 156.898 372.586 158.194C372.586 159.489 371.757 160.684 370.241 161.554C368.806 162.384 366.906 162.809 365.007 162.809H365.027ZM365.027 154.733C363.349 154.733 361.651 155.097 360.378 155.846C359.246 156.494 358.62 157.344 358.62 158.194C358.62 159.044 359.246 159.894 360.378 160.542C362.945 162.019 367.109 162.019 369.675 160.542C370.807 159.894 371.434 159.044 371.434 158.194C371.434 157.344 370.807 156.494 369.675 155.846C368.402 155.097 366.704 154.733 365.027 154.733Z" fill="#150035"/>
<path d="M363.065 157.06C361.973 157.688 361.973 158.7 363.065 159.348C364.156 159.975 365.915 159.975 367.006 159.348C368.097 158.72 368.097 157.708 367.006 157.06C365.915 156.433 364.156 156.433 363.065 157.06Z" fill="#3BA1FD"/>
<path d="M365.026 160.38C364.217 160.38 363.409 160.198 362.762 159.833C362.055 159.429 361.65 158.821 361.65 158.194C361.65 157.566 362.055 156.959 362.762 156.554C364.035 155.826 366.016 155.826 367.269 156.554C367.977 156.959 368.381 157.566 368.381 158.194C368.381 158.821 367.977 159.429 367.269 159.833C366.643 160.198 365.814 160.38 365.006 160.38H365.026ZM365.026 157.162C364.419 157.162 363.793 157.283 363.348 157.566C363.005 157.769 362.823 157.991 362.823 158.214C362.823 158.417 363.025 158.659 363.348 158.862C364.258 159.388 365.794 159.388 366.703 158.862C367.047 158.659 367.229 158.437 367.229 158.214C367.229 158.012 367.027 157.769 366.703 157.566C366.238 157.303 365.632 157.162 365.026 157.162Z" fill="#150035"/>
<mask id="mask1_242_420" style="mask-type:luminance" maskUnits="userSpaceOnUse" x="0" y="356" width="31" height="18">
<path d="M29.2251 369.172L22.9594 372.795C21.6658 373.544 19.4425 373.443 17.9468 372.593L1.67622 363.18C0.200754 362.33 0.382661 361.804 1.67622 361.075L7.9419 357.452C9.21525 356.703 11.1152 356.015 12.6109 356.865L28.8815 366.277C30.3569 367.128 30.5186 368.423 29.2453 369.172H29.2251Z" fill="white"/>
</mask>
<g mask="url(#mask1_242_420)">
<path d="M-21.6283 363.16L-22.0527 362.411L11.7214 342.959L12.1458 343.708L-21.6283 363.16Z" fill="#150035"/>
<path d="M-19.224 364.395L-19.6484 363.646L14.1257 344.174L14.5501 344.943L-19.224 364.395Z" fill="#150035"/>
<path d="M-17.2416 365.771L-17.666 365.022L16.1081 345.57L16.5326 346.319L-17.2416 365.771Z" fill="#150035"/>
<path d="M-14.8776 367.026L-15.3223 366.277L18.4721 346.825L18.8965 347.574L-14.8776 367.026Z" fill="#150035"/>
<path d="M-12.7552 368.382L-13.1797 367.634L20.5944 348.161L21.0391 348.91L-12.7552 368.382Z" fill="#150035"/>
<path d="M-10.3509 369.617L-10.7754 368.848L22.9987 349.396L23.4434 350.145L-10.3509 369.617Z" fill="#150035"/>
<path d="M-8.20835 370.953L-8.63281 370.204L25.1413 350.732L25.5658 351.481L-8.20835 370.953Z" fill="#150035"/>
<path d="M-5.80143 372.208L-6.24609 371.459L27.5482 351.987L27.9727 352.736L-5.80143 372.208Z" fill="#150035"/>
<path d="M-3.6608 373.544L-4.10547 372.795L29.6889 353.343L30.1133 354.092L-3.6608 373.544Z" fill="#150035"/>
<path d="M-1.27479 374.779L-1.69922 374.03L32.0749 354.557L32.5196 355.327L-1.27479 374.779Z" fill="#150035"/>
<path d="M0.725915 376.155L0.28125 375.406L34.0756 355.954L34.5001 356.703L0.725915 376.155Z" fill="#150035"/>
<path d="M3.07095 377.41L2.64648 376.661L36.4206 357.209L36.8451 357.958L3.07095 377.41Z" fill="#150035"/>
<path d="M5.21353 378.766L4.78906 378.017L38.5632 358.545L38.9876 359.294L5.21353 378.766Z" fill="#150035"/>
<path d="M7.61782 380.001L7.19336 379.232L40.9675 359.78L41.3919 360.529L7.61782 380.001Z" fill="#150035"/>
</g>
<path d="M7.13449 364.051C6.4877 364.051 5.98242 363.524 5.98242 362.897V358.403C5.98242 357.756 6.50792 357.25 7.13449 357.25C7.78127 357.25 8.28658 357.776 8.28658 358.403V362.897C8.28658 363.545 7.76106 364.051 7.13449 364.051Z" fill="#150035"/>
<path d="M17.7244 370.083C17.0776 370.083 16.5723 369.557 16.5723 368.929V364.436C16.5723 363.788 17.0978 363.282 17.7244 363.282C18.3711 363.282 18.8764 363.808 18.8764 364.436V368.929C18.8764 369.577 18.3509 370.083 17.7244 370.083Z" fill="#150035"/>
<path d="M6.6276 357.654L21.6653 368.767C22.4535 369.233 24.7577 367.229 24.7577 366.156V358.747C24.7577 357.675 24.1109 356.44 23.3226 355.974L6.6478 346.38C5.85954 345.914 3.07031 347.068 3.07031 348.121L5.19257 354.861C5.19257 355.934 5.83933 357.169 6.6276 357.634V357.654Z" fill="#150035"/>
<path d="M21.9289 369.415C21.6864 369.415 21.5045 369.354 21.363 369.273L6.3051 358.14C5.37535 357.573 4.64773 356.217 4.6073 354.983L2.46484 348.141C2.46484 347.351 3.19247 346.764 3.81904 346.42C4.62752 345.955 6.10298 345.429 6.91146 345.894L23.5863 355.489C24.5565 356.055 25.3245 357.493 25.3245 358.748V366.156C25.3245 367.249 23.9905 368.524 23.081 369.05C22.5959 369.334 22.2321 369.415 21.9289 369.415ZM3.63714 348.1L5.7594 354.902C5.7594 355.752 6.3051 356.804 6.91146 357.169L6.97209 357.209L22.0098 368.322C22.0098 368.322 22.4544 368.18 23.0608 367.674C23.7884 367.067 24.1927 366.419 24.1927 366.176V358.768C24.1927 357.918 23.6469 356.865 23.0406 356.501L6.36573 346.906C6.16361 346.805 5.21365 346.947 4.34454 347.473C3.89988 347.736 3.718 347.979 3.67757 348.1H3.63714Z" fill="#150035"/>
<path d="M4.38425 359.011L21.0591 368.605C21.8474 369.071 22.4941 368.585 22.4941 367.512V360.104C22.4941 359.031 21.8474 357.796 21.0591 357.331L4.38425 347.736C3.59598 347.271 2.94922 347.756 2.94922 348.829V356.238C2.94922 357.31 3.59598 358.545 4.38425 359.011Z" fill="white"/>
<path d="M21.6259 369.354C21.3429 369.354 21.0398 369.273 20.7568 369.111L4.08198 359.517C3.1118 358.95 2.34375 357.513 2.34375 356.258V348.849C2.34375 348.08 2.62672 347.473 3.13201 347.19C3.57668 346.926 4.1224 346.967 4.64791 347.271L21.3227 356.865C22.2929 357.432 23.061 358.869 23.061 360.124V367.532C23.061 368.302 22.778 368.909 22.2727 369.192C22.0706 369.314 21.8483 369.374 21.6057 369.374L21.6259 369.354ZM4.64791 358.505L21.3227 368.099C21.4844 368.2 21.6259 368.221 21.6865 368.18C21.7876 368.119 21.8887 367.897 21.8887 367.512V360.104C21.8887 359.254 21.3429 358.201 20.7366 357.837L4.06174 348.242C3.90005 348.161 3.75858 348.121 3.69795 348.161C3.59689 348.222 3.49581 348.445 3.49581 348.829V356.238C3.49581 357.088 4.04155 358.14 4.64791 358.505Z" fill="#150035"/>
<path d="M5.96209 357.594L19.4839 365.367C19.9083 365.609 20.2721 365.367 20.2721 364.78V360.245C20.2721 359.679 19.9285 359.011 19.4839 358.748L5.96209 350.975C5.53764 350.732 5.17383 350.975 5.17383 351.562V356.096C5.17383 356.663 5.51743 357.331 5.96209 357.594Z" fill="#3BA1FD"/>
<path d="M19.7872 366.034C19.5851 366.034 19.383 365.974 19.1809 365.872L5.65912 358.1C5.05276 357.756 4.58789 356.885 4.58789 356.116V351.602C4.58789 351.096 4.79001 350.671 5.15382 350.469C5.47721 350.286 5.88144 350.307 6.24525 350.509L19.767 358.282C20.3734 358.626 20.8383 359.496 20.8383 360.266V364.779C20.8383 365.285 20.6361 365.711 20.2723 365.913C20.1308 365.994 19.9489 366.034 19.7872 366.034ZM6.24525 357.088L19.6862 364.8V360.245C19.6862 359.84 19.4234 359.395 19.2011 359.253L5.78039 351.541V356.096C5.78039 356.501 6.04315 356.946 6.26548 357.088H6.24525Z" fill="#150035"/>
<path d="M7.13506 356.885C6.71061 356.642 6.34679 355.974 6.34679 355.387V351.197L5.94256 350.975C5.51811 350.732 5.1543 350.975 5.1543 351.562V356.096C5.1543 356.663 5.4979 357.331 5.94256 357.594L19.4643 365.367C19.8888 365.609 20.2526 365.367 20.2526 364.78V364.435L7.13506 356.906V356.885Z" fill="#150035"/>
<path d="M19.7872 366.034C19.5851 366.034 19.383 365.974 19.1809 365.872L5.65912 358.1C5.05276 357.756 4.58789 356.885 4.58789 356.116V351.602C4.58789 351.096 4.79001 350.671 5.15382 350.469C5.47721 350.286 5.88144 350.307 6.24525 350.509L6.93245 350.914V355.428C6.93245 355.833 7.19522 356.278 7.41755 356.42L20.8181 364.132V364.8C20.8181 365.306 20.6159 365.731 20.2521 365.933C20.1106 366.014 19.9287 366.055 19.767 366.055L19.7872 366.034ZM5.76019 351.541V356.096C5.76019 356.501 6.02292 356.946 6.24525 357.088L19.666 364.8V364.759L6.83142 357.391C6.22506 357.047 5.76019 356.177 5.76019 355.408V351.541Z" fill="#150035"/>
<path d="M11.0881 346.375L6.91602 348.606L7.32539 349.374L11.4975 347.143L11.0881 346.375Z" fill="#3BA1FD"/>
<path d="M26.4807 355.583L22.3086 357.814L22.7179 358.582L26.89 356.351L26.4807 355.583Z" fill="#3BA1FD"/>
<path d="M26.6018 363.401L22.4297 365.632L22.839 366.4L27.0111 364.169L26.6018 363.401Z" fill="#3BA1FD"/>
<path d="M9.45139 354.036L5.2793 356.267L5.68865 357.035L9.86074 354.804L9.45139 354.036Z" fill="#3BA1FD"/>
<mask id="mask2_242_420" style="mask-type:luminance" maskUnits="userSpaceOnUse" x="22" y="11" width="31" height="18">
<path d="M51.3169 24.316L45.0512 27.9393C43.7576 28.6882 41.5343 28.587 40.0386 27.7368L23.768 18.3245C22.2926 17.4743 22.4745 16.9481 23.768 16.2194L30.0337 12.5961C31.3273 11.8472 33.207 11.159 34.7027 12.0091L50.9733 21.4215C52.4488 22.2716 52.6104 23.5671 51.3371 24.316H51.3169Z" fill="white"/>
</mask>
<g mask="url(#mask2_242_420)">
<path d="M0.464196 18.3244L0.0195312 17.5552L33.8139 -1.89697L34.2383 -1.14804L0.464196 18.3244Z" fill="#150035"/>
<path d="M2.86849 19.5388L2.42383 18.7898L36.2182 -0.662354L36.6426 0.0865909L2.86849 19.5388Z" fill="#150035"/>
<path d="M4.85091 20.9355L4.40625 20.1865L38.2006 0.714111L38.6251 1.46306L4.85091 20.9355Z" fill="#150035"/>
<path d="M7.19396 22.1906L6.76953 21.4417L40.5436 1.96924L40.9883 2.71818L7.19396 22.1906Z" fill="#150035"/>
<path d="M9.33654 23.5265L8.91211 22.7776L42.6862 3.32544L43.1107 4.07438L9.33654 23.5265Z" fill="#150035"/>
<path d="M11.7428 24.7612L11.3184 24.0122L45.0925 4.53979L45.5169 5.30898L11.7428 24.7612Z" fill="#150035"/>
<path d="M13.8841 26.0971L13.4395 25.3482L47.2338 5.896L47.6583 6.64493L13.8841 26.0971Z" fill="#150035"/>
<path d="M16.2702 27.3522L15.8457 26.6033L49.6198 7.15112L50.0645 7.90007L16.2702 27.3522Z" fill="#150035"/>
<path d="M18.4127 28.7084L17.9883 27.9392L51.7624 8.48706L52.2071 9.23601L18.4127 28.7084Z" fill="#150035"/>
<path d="M20.817 29.9228L20.3926 29.1739L54.1667 9.72168L54.5911 10.4706L20.817 29.9228Z" fill="#150035"/>
<path d="M22.7975 31.3195L22.373 30.5706L56.1472 11.0981L56.5918 11.8471L22.7975 31.3195Z" fill="#150035"/>
<path d="M25.1627 32.5744L24.7383 31.8254L58.5124 12.353L58.9369 13.102L25.1627 32.5744Z" fill="#150035"/>
<path d="M27.306 33.9103L26.8613 33.1614L60.6557 13.7092L61.0801 14.4582L27.306 33.9103Z" fill="#150035"/>
<path d="M29.6901 35.1452L29.2656 34.3962L63.06 14.9238L63.4844 15.693L29.6901 35.1452Z" fill="#150035"/>
</g>
<path d="M29.2263 19.1947C28.5795 19.1947 28.0742 18.6685 28.0742 18.041V13.5473C28.0742 12.8996 28.5997 12.3936 29.2263 12.3936C29.8731 12.3936 30.3784 12.9198 30.3784 13.5473V18.041C30.3784 18.6887 29.8529 19.1947 29.2263 19.1947Z" fill="#150035"/>
<path d="M39.8161 25.247C39.1693 25.247 38.6641 24.7207 38.6641 24.0932V19.5996C38.6641 18.9518 39.1896 18.4458 39.8161 18.4458C40.4629 18.4458 40.9682 18.9721 40.9682 19.5996V24.0932C40.9682 24.7409 40.4427 25.247 39.8161 25.247Z" fill="#150035"/>
<path d="M28.6999 12.7985L43.7375 23.9111C44.5258 24.3767 46.83 22.3728 46.83 21.3V13.8915C46.83 12.8187 46.1832 11.584 45.3949 11.1184L28.7201 1.52392C27.9318 1.05836 25.1426 2.21213 25.1426 3.26469L27.2648 10.0051C27.2648 11.0779 27.9116 12.3127 28.6999 12.7782V12.7985Z" fill="#150035"/>
<path d="M44.0207 24.5589C43.7782 24.5589 43.5963 24.4981 43.4548 24.4172L28.3969 13.2843C27.4672 12.7175 26.7396 11.3613 26.6991 10.1266L24.5566 3.28495C24.5566 2.49552 25.2843 1.90852 25.9109 1.56441C26.7193 1.09886 28.1948 0.572571 29.0033 1.03813L45.6781 10.6326C46.6483 11.1994 47.4164 12.6366 47.4164 13.8915V21.3C47.4164 22.393 46.0824 23.6682 45.1728 24.1945C44.6877 24.4779 44.3239 24.5589 44.0207 24.5589ZM25.7289 3.24446L27.8512 10.0456C27.8512 10.8958 28.3969 11.9483 29.0033 12.3127L29.0639 12.3532L44.1016 23.4658C44.1016 23.4658 44.5462 23.3241 45.1526 22.8181C45.8802 22.2108 46.2845 21.5631 46.2845 21.3202V13.9118C46.2845 13.0616 45.7388 12.0091 45.1324 11.6447L28.4576 2.05021C28.2554 1.949 27.3055 2.0907 26.4364 2.61698C25.9917 2.88012 25.8098 3.12301 25.7694 3.24446H25.7289Z" fill="#150035"/>
<path d="M26.4565 14.1548L43.1314 23.7493C43.9196 24.2149 44.5664 23.7291 44.5664 22.6563V15.2478C44.5664 14.175 43.9196 12.9403 43.1314 12.4748L26.4565 2.88023C25.6682 2.41468 25.0215 2.90048 25.0215 3.97328V11.3817C25.0215 12.4545 25.6682 13.6892 26.4565 14.1548Z" fill="white"/>
<path d="M43.7177 24.4982C43.4348 24.4982 43.1316 24.4172 42.8486 24.2553L26.1738 14.6608C25.2036 14.094 24.4355 12.6569 24.4355 11.4019V3.99348C24.4355 3.2243 24.7185 2.61705 25.2238 2.33367C25.6685 2.07053 26.2142 2.11101 26.7397 2.41463L43.4145 12.0091C44.3847 12.5759 45.1528 14.0131 45.1528 15.268V22.6765C45.1528 23.4457 44.8698 24.0529 44.3645 24.3363C44.1624 24.4577 43.9401 24.5185 43.6975 24.5185L43.7177 24.4982ZM26.7397 13.6487L43.4145 23.2432C43.5762 23.3444 43.7177 23.3647 43.7784 23.3242C43.8794 23.2635 43.9805 23.0408 43.9805 22.6562V15.2478C43.9805 14.3977 43.4348 13.3451 42.8284 12.9807L26.1536 3.38623C25.9919 3.30526 25.8504 3.26478 25.7897 3.30526C25.6887 3.36599 25.5876 3.58864 25.5876 3.97323V11.3817C25.5876 12.2318 26.1333 13.2844 26.7397 13.6487Z" fill="#150035"/>
<path d="M28.0344 12.7376L41.5561 20.5104C41.9806 20.7533 42.3444 20.5104 42.3444 19.9233V15.3892C42.3444 14.8225 42.0008 14.1545 41.5561 13.8914L28.0344 6.11858C27.6099 5.87568 27.2461 6.11858 27.2461 6.70559V11.2397C27.2461 11.8065 27.5897 12.4744 28.0344 12.7376Z" fill="#3BA1FD"/>
<path d="M41.8791 21.1784C41.6769 21.1784 41.4748 21.1177 41.2727 21.0165L27.7509 13.2437C27.1446 12.8996 26.6797 12.0292 26.6797 11.2601V6.72594C26.6797 6.2199 26.8818 5.79482 27.2456 5.59241C27.569 5.41023 27.9733 5.43047 28.3371 5.63289L41.8589 13.4057C42.4652 13.7498 42.9301 14.6202 42.9301 15.3893V19.9235C42.9301 20.4295 42.728 20.8546 42.3642 21.057C42.2227 21.138 42.0408 21.1784 41.8791 21.1784ZM28.3371 12.2317L41.778 19.9437V15.3893C41.778 14.9845 41.5152 14.5392 41.2929 14.3975L27.8722 6.68545V11.2398C27.8722 11.6446 28.1349 12.09 28.3573 12.2317H28.3371Z" fill="#150035"/>
<path d="M29.2269 12.0494C28.8024 11.8065 28.4386 11.1385 28.4386 10.5515V6.3615L28.0344 6.13884C27.6099 5.89594 27.2461 6.13884 27.2461 6.72585V11.26C27.2461 11.8267 27.5897 12.4947 28.0344 12.7578L41.5561 20.5306C41.9806 20.7735 42.3444 20.5306 42.3444 19.9436V19.5995L29.2269 12.0696V12.0494Z" fill="#150035"/>
<path d="M41.8791 21.1784C41.6769 21.1784 41.4748 21.1177 41.2727 21.0165L27.7509 13.2437C27.1446 12.8996 26.6797 12.0292 26.6797 11.2601V6.72594C26.6797 6.2199 26.8818 5.79482 27.2456 5.59241C27.569 5.41023 27.9733 5.43047 28.3371 5.63289L29.0243 6.03772V10.5516C29.0243 10.9564 29.287 11.4017 29.5094 11.5434L42.9099 19.2555V19.9235C42.9099 20.4295 42.7077 20.8546 42.3439 21.057C42.2024 21.138 42.0206 21.1784 41.8589 21.1784H41.8791ZM27.852 6.68545V11.2398C27.852 11.6446 28.1147 12.09 28.3371 12.2317L41.7578 19.9437V19.9032L28.9232 12.5353C28.3169 12.1912 27.852 11.3208 27.852 10.5516V6.68545Z" fill="#150035"/>
<path d="M33.192 1.50512L29.0195 3.73535L29.4288 4.50322L33.6012 2.27299L33.192 1.50512Z" fill="#3BA1FD"/>
<path d="M48.5451 10.7246L44.373 12.9556L44.7824 13.7234L48.9545 11.4924L48.5451 10.7246Z" fill="#3BA1FD"/>
<path d="M48.7154 18.5322L44.543 20.7625L44.9522 21.5303L49.1247 19.3001L48.7154 18.5322Z" fill="#3BA1FD"/>
<path d="M31.5627 9.20555L27.3906 11.4365L27.8 12.2043L31.9721 9.97334L31.5627 9.20555Z" fill="#3BA1FD"/>
<mask id="mask3_242_420" style="mask-type:luminance" maskUnits="userSpaceOnUse" x="454" y="368" width="30" height="18">
<path d="M482.639 381.013L476.373 384.637C475.08 385.385 472.857 385.284 471.361 384.434L455.09 375.022C453.615 374.172 453.797 373.645 455.09 372.917L461.356 369.293C462.65 368.544 464.529 367.856 466.025 368.706L482.296 378.119C483.771 378.969 483.933 380.264 482.659 381.013H482.639Z" fill="white"/>
</mask>
<g mask="url(#mask3_242_420)">
<path d="M431.786 375.002L431.361 374.253L465.135 354.78L465.58 355.529L431.786 375.002Z" fill="#150035"/>
<path d="M434.19 376.236L433.766 375.487L467.54 356.015L467.984 356.764L434.19 376.236Z" fill="#150035"/>
<path d="M436.172 377.613L435.748 376.864L469.522 357.391L469.967 358.161L436.172 377.613Z" fill="#150035"/>
<path d="M438.536 378.868L438.111 378.119L471.885 358.667L472.31 359.416L438.536 378.868Z" fill="#150035"/>
<path d="M440.679 380.204L440.234 379.455L474.029 360.003L474.453 360.752L440.679 380.204Z" fill="#150035"/>
<path d="M443.083 381.438L442.639 380.689L476.433 361.237L476.857 361.986L443.083 381.438Z" fill="#150035"/>
<path d="M445.206 382.795L444.781 382.025L478.555 362.573L479 363.322L445.206 382.795Z" fill="#150035"/>
<path d="M447.612 384.05L447.188 383.281L480.962 363.828L481.386 364.577L447.612 384.05Z" fill="#150035"/>
<path d="M449.753 385.386L449.309 384.637L483.103 365.164L483.527 365.913L449.753 385.386Z" fill="#150035"/>
<path d="M452.16 386.62L451.715 385.871L485.509 366.399L485.934 367.148L452.16 386.62Z" fill="#150035"/>
<path d="M454.14 387.997L453.695 387.248L487.49 367.775L487.914 368.545L454.14 387.997Z" fill="#150035"/>
<path d="M456.485 389.252L456.061 388.503L489.835 369.051L490.279 369.799L456.485 389.252Z" fill="#150035"/>
<path d="M458.628 390.588L458.203 389.839L491.977 370.386L492.422 371.135L458.628 390.588Z" fill="#150035"/>
<path d="M461.032 391.822L460.607 391.074L494.382 371.621L494.806 372.37L461.032 391.822Z" fill="#150035"/>
</g>
<path d="M460.568 375.892C459.921 375.892 459.416 375.366 459.416 374.738V370.245C459.416 369.597 459.942 369.091 460.568 369.091C461.215 369.091 461.72 369.617 461.72 370.245V374.738C461.72 375.386 461.195 375.892 460.568 375.892Z" fill="#150035"/>
<path d="M471.158 381.924C470.511 381.924 470.006 381.398 470.006 380.77V376.277C470.006 375.629 470.531 375.123 471.158 375.123C471.805 375.123 472.31 375.649 472.31 376.277V380.77C472.31 381.418 471.784 381.924 471.158 381.924Z" fill="#150035"/>
<path d="M460.042 369.496L475.079 380.608C475.868 381.074 478.172 379.07 478.172 377.997V370.589C478.172 369.516 477.525 368.281 476.737 367.816L460.062 358.221C459.274 357.756 456.484 358.909 456.484 359.962L458.607 366.702C458.607 367.775 459.253 369.01 460.042 369.476V369.496Z" fill="#150035"/>
<path d="M475.342 381.256C475.1 381.256 474.918 381.195 474.776 381.114L459.719 369.982C458.789 369.415 458.061 368.059 458.021 366.824L455.898 359.982C455.898 359.193 456.626 358.606 457.253 358.262C458.061 357.796 459.537 357.27 460.345 357.735L477.02 367.33C477.99 367.897 478.758 369.334 478.758 370.589V377.997C478.758 379.09 477.424 380.366 476.515 380.892C476.03 381.175 475.666 381.256 475.363 381.256H475.342ZM457.051 359.942L459.173 366.743C459.173 367.593 459.718 368.646 460.325 369.01L460.385 369.05L475.423 380.163C475.423 380.163 475.868 380.021 476.474 379.515C477.202 378.908 477.606 378.26 477.606 378.017V370.609C477.606 369.759 477.06 368.706 476.454 368.342L459.779 358.747C459.577 358.646 458.627 358.788 457.758 359.314C457.313 359.577 457.131 359.82 457.091 359.942H457.051Z" fill="#150035"/>
<path d="M457.798 370.832L474.473 380.426C475.261 380.892 475.908 380.406 475.908 379.333V371.925C475.908 370.852 475.261 369.617 474.473 369.152L457.798 359.557C457.01 359.092 456.363 359.577 456.363 360.65V368.059C456.363 369.132 457.01 370.366 457.798 370.832Z" fill="white"/>
<path d="M475.06 381.175C474.777 381.175 474.473 381.094 474.19 380.932L457.516 371.338C456.545 370.771 455.777 369.334 455.777 368.079V360.67C455.777 359.901 456.06 359.294 456.566 358.99C457.01 358.727 457.556 358.768 458.082 359.071L474.756 368.666C475.727 369.233 476.495 370.67 476.495 371.925V379.333C476.495 380.102 476.212 380.71 475.706 381.013C475.504 381.135 475.282 381.195 475.039 381.195L475.06 381.175ZM458.082 370.326L474.756 379.92C474.918 380.001 475.039 380.042 475.12 380.001C475.221 379.94 475.322 379.718 475.322 379.333V371.925C475.322 371.075 474.777 370.022 474.17 369.658L457.495 360.063C457.334 359.982 457.192 359.942 457.132 359.982C457.031 360.043 456.929 360.266 456.929 360.65V368.059C456.929 368.909 457.475 369.961 458.082 370.326Z" fill="#150035"/>
<path d="M459.374 369.415L472.896 377.188C473.32 377.431 473.684 377.188 473.684 376.601V372.066C473.684 371.5 473.341 370.832 472.896 370.569L459.374 362.796C458.95 362.553 458.586 362.796 458.586 363.383V367.917C458.586 368.484 458.93 369.152 459.374 369.415Z" fill="#3BA1FD"/>
<path d="M473.199 377.855C472.997 377.855 472.795 377.795 472.593 377.694L459.071 369.921C458.465 369.577 458 368.706 458 367.937V363.403C458 362.897 458.202 362.472 458.566 362.269C458.889 362.087 459.294 362.107 459.657 362.31L473.179 370.083C473.785 370.427 474.25 371.297 474.25 372.066V376.6C474.25 377.106 474.048 377.532 473.684 377.734C473.543 377.815 473.361 377.855 473.199 377.855ZM459.657 368.909L473.098 376.621V372.066C473.098 371.662 472.836 371.216 472.613 371.075L459.192 363.362V367.917C459.192 368.322 459.455 368.767 459.678 368.909H459.657Z" fill="#150035"/>
<path d="M460.567 368.726C460.142 368.483 459.778 367.816 459.778 367.229V363.038L459.374 362.816C458.95 362.573 458.586 362.816 458.586 363.403V367.937C458.586 368.504 458.93 369.172 459.374 369.435L472.896 377.208C473.32 377.451 473.684 377.208 473.684 376.621V376.277L460.567 368.747V368.726Z" fill="#150035"/>
<path d="M473.199 377.855C472.997 377.855 472.795 377.795 472.593 377.694L459.071 369.921C458.465 369.577 458 368.706 458 367.937V363.403C458 362.897 458.202 362.472 458.566 362.269C458.889 362.087 459.294 362.107 459.657 362.31L460.345 362.715V367.229C460.345 367.633 460.607 368.079 460.83 368.22L474.23 375.932V376.6C474.23 377.106 474.028 377.532 473.664 377.734C473.523 377.815 473.341 377.855 473.179 377.855H473.199ZM459.172 363.362V367.917C459.172 368.322 459.435 368.767 459.657 368.909L473.078 376.621V376.58L460.243 369.212C459.637 368.868 459.172 367.998 459.172 367.229V363.362Z" fill="#150035"/>
<path d="M464.535 358.206L460.363 360.437L460.773 361.205L464.945 358.974L464.535 358.206Z" fill="#3BA1FD"/>
<path d="M479.901 367.442L475.729 369.673L476.138 370.44L480.31 368.209L479.901 367.442Z" fill="#3BA1FD"/>
<path d="M480.059 375.25L475.887 377.48L476.296 378.248L480.468 376.017L480.059 375.25Z" fill="#3BA1FD"/>
<path d="M462.871 365.894L458.699 368.125L459.109 368.893L463.281 366.662L462.871 365.894Z" fill="#3BA1FD"/>
</svg>
