<svg width="99" height="47" viewBox="0 0 99 47" fill="none" xmlns="http://www.w3.org/2000/svg">
<path d="M95.9169 5.00531C97.1433 5.00531 98.1482 4.02438 98.1482 2.78976C98.1482 1.52132 97.1433 0.574219 95.9169 0.574219C94.6905 0.574219 93.6855 1.53823 93.6855 2.78976C93.6855 4.00747 94.6905 5.00531 95.9169 5.00531ZM95.9169 0.997033C96.9048 0.997033 97.6883 1.7581 97.6883 2.77285C97.6883 3.77069 96.9048 4.56558 95.9169 4.56558C94.9119 4.56558 94.1284 3.77069 94.1284 2.77285C94.1284 1.77501 94.9119 0.997033 95.9169 0.997033Z" fill="white"/>
<path d="M95.4766 3.94198V3.0287H96.0387L96.4986 3.94198H96.9755L96.4645 2.94414C96.703 2.82575 96.8733 2.6228 96.8733 2.28455C96.8733 1.81099 96.5327 1.57422 96.1409 1.57422H95.4085C95.17 1.57422 95.0508 1.69261 95.0508 1.89556V3.92507H95.4766V3.94198ZM95.4936 1.9463H96.1068C96.2942 1.9463 96.4305 2.06468 96.4305 2.28455C96.4305 2.50441 96.2772 2.63971 96.0728 2.63971H95.4766L95.4936 1.9463Z" fill="white"/>
<path d="M11.8597 4.95671C16.5438 4.95671 17.1229 9.74296 17.1229 9.74296L22.6928 8.4407C22.6587 8.3054 21.6878 0.0351562 11.8597 0.0351562C5.7789 0.0351562 0.0898438 3.72209 0.0898438 13.1424C0.0898438 22.495 6.06846 26.0805 12.2685 26.0805C16.4927 26.0805 19.4565 24.6768 20.4955 24.1017C21.8411 23.3238 22.5906 22.5627 22.5906 20.956V15.1888C22.5906 13.6836 21.5856 12.7703 19.9504 12.7703H12.3196V17.0323H17.1059V20.3471C17.1059 20.3471 15.4196 21.4803 12.4559 21.4803C9.32178 21.4803 6.05143 19.603 6.05143 13.1424C6.05143 6.834 8.89595 4.95671 11.8597 4.95671Z" fill="white"/>
<path d="M36.6261 0C34.2925 0 32.8788 0.997841 32.1975 3.04426L24.6348 25.7578H30.6134C31.0392 25.7578 31.5332 25.5041 31.8227 25.2166L39.0277 18.1472C39.181 17.995 39.1299 17.9273 38.9596 17.9273H37.9887C37.5799 17.9273 37.2052 18.0288 36.8475 18.2317L32.0101 20.9885L36.609 5.56423C36.609 5.56423 42.0767 24.2357 42.5195 25.7409H48.6685L41.208 2.99352C40.5778 1.09932 38.9937 0 36.6261 0Z" fill="white"/>
<path d="M61.3597 4.88906C66.0438 4.88906 66.657 10.0136 66.657 10.0136L72.2268 8.8466C72.2268 8.8466 71.3922 0.0351562 61.3597 0.0351562C55.2789 0.0351562 49.5898 3.62062 49.5898 13.0409C49.5898 22.3936 55.2278 26.1143 61.3256 26.1143C71.1538 26.1143 72.2268 17.5058 72.2268 17.5058L66.657 16.305C66.657 16.305 66.2142 21.2604 61.4279 21.2604C58.4641 21.2604 55.5855 19.3831 55.5855 13.024C55.5685 6.73253 58.396 4.88906 61.3597 4.88906Z" fill="white"/>
<path d="M85.6294 0C83.2959 0 81.8822 0.997841 81.1838 3.04426L73.6211 25.7578H79.5997C80.0255 25.7578 80.5195 25.5041 80.8091 25.2166L88.0141 18.1472C88.1674 17.995 88.1163 17.9273 87.9459 17.9273H86.975C86.5663 17.9273 86.1745 18.0288 85.8338 18.2317L80.9964 20.9885L85.5954 5.56423C85.5954 5.56423 91.063 24.2357 91.5058 25.7409H97.6718L90.2113 2.99352C89.5811 1.09932 88.0141 0 85.6294 0Z" fill="white"/>
<path d="M0.90625 43.2635C0.90625 41.8091 1.67274 40.8281 2.86505 40.8281C3.64858 40.8281 4.10847 41.2848 4.381 41.826L3.73374 42.1135C3.56341 41.7752 3.27385 41.5046 2.86505 41.5046C2.18373 41.5046 1.72384 42.1811 1.72384 43.2466C1.72384 44.3121 2.18373 44.9886 2.86505 44.9886C3.22275 44.9886 3.51231 44.8195 3.66561 44.6504V43.8047H2.66065V43.1282H4.41506V44.9886C4.04033 45.4283 3.52934 45.7159 2.86505 45.7159C1.68977 45.7159 0.90625 44.718 0.90625 43.2635Z" fill="white"/>
<path d="M5.14844 43.906C5.14844 42.9251 5.71053 42.1133 6.63032 42.1133C7.56714 42.1133 8.07813 42.8913 8.07813 43.9229V44.1259H5.88086C5.91492 44.684 6.22152 45.1068 6.78362 45.1068C7.05615 45.1068 7.36274 44.9715 7.56714 44.7347L7.9078 45.1575C7.61824 45.4958 7.17538 45.6818 6.71548 45.6818C5.76163 45.6987 5.14844 44.9715 5.14844 43.906ZM6.63032 42.6883C6.08526 42.6883 5.8979 43.2295 5.86383 43.6354H7.37977C7.37977 43.2126 7.19241 42.6883 6.63032 42.6883Z" fill="white"/>
<path d="M10.7886 45.6116V43.2946C10.7886 42.8887 10.6012 42.7534 10.2946 42.7534C9.98801 42.7534 9.71548 42.9902 9.59625 43.2269V45.6285H8.88086V42.2291H9.59625V42.6857C9.78361 42.4151 10.1754 42.1445 10.6012 42.1445C11.2314 42.1445 11.504 42.4828 11.504 43.0747V45.6454H10.7886V45.6116Z" fill="white"/>
<path d="M12.3203 43.906C12.3203 42.9251 12.8824 42.1133 13.8022 42.1133C14.739 42.1133 15.25 42.8913 15.25 43.9229V44.1259H13.0527C13.0868 44.684 13.3934 45.1068 13.9555 45.1068C14.228 45.1068 14.5346 44.9715 14.739 44.7347L15.0797 45.1575C14.7901 45.4958 14.3473 45.6818 13.8874 45.6818C12.9165 45.6987 12.3203 44.9715 12.3203 43.906ZM13.8022 42.6883C13.2571 42.6883 13.0698 43.2295 13.0357 43.6354H14.5517C14.5517 43.2126 14.3473 42.6883 13.8022 42.6883Z" fill="white"/>
<path d="M16.0352 45.6116V42.2122H16.7506V42.7196C16.9549 42.3982 17.3126 42.1445 17.7044 42.1445V42.8379C17.6533 42.821 17.5852 42.821 17.517 42.821C17.2275 42.821 16.8868 43.0409 16.7506 43.2946V45.6285L16.0352 45.6116Z" fill="white"/>
<path d="M20.1907 45.6116V45.2734C19.9863 45.5609 19.6286 45.6962 19.2709 45.6962C18.7088 45.6962 18.2148 45.2903 18.2148 44.563C18.2148 43.8358 18.7088 43.4637 19.2709 43.4637C19.6286 43.4637 19.9863 43.599 20.1907 43.8696V43.3791C20.1907 42.9732 19.9522 42.7365 19.5093 42.7365C19.2028 42.7365 18.9132 42.8549 18.6407 43.1255L18.3681 42.635C18.7258 42.2967 19.1857 42.1445 19.6286 42.1445C20.361 42.1445 20.889 42.4828 20.889 43.3115V45.6454H20.1907V45.6116ZM20.1907 44.8336V44.3263C20.0544 44.0895 19.7989 43.9542 19.5434 43.9542C19.1687 43.9542 18.9473 44.2248 18.9473 44.5799C18.9473 44.952 19.1687 45.2226 19.5434 45.2226C19.7819 45.2057 20.0544 45.0704 20.1907 44.8336Z" fill="white"/>
<path d="M22.5904 40.9102H21.875V45.6118H22.5904V40.9102Z" fill="white"/>
<path d="M27.7885 45.6118L27.533 44.6817H25.966L25.7105 45.6118H24.8418L26.2726 40.9102H27.2264L28.6572 45.6118H27.7885ZM26.7495 41.7389L26.1193 43.9882H27.3627L26.7495 41.7389Z" fill="white"/>
<path d="M31.1069 45.6143V45.1576C30.9196 45.4451 30.5448 45.6988 30.102 45.6988C29.4888 45.6988 29.1992 45.3775 29.1992 44.7855V42.2148H29.9146V44.5488C29.9146 44.9378 30.102 45.09 30.4086 45.09C30.7152 45.09 30.9707 44.8701 31.1069 44.6333V42.2318H31.8223V45.6312L31.1069 45.6143Z" fill="white"/>
<path d="M32.9482 44.8537V42.8242H32.4883V42.2153H32.9482V41.2852H33.6636V42.2153H34.2427V42.8242H33.6636V44.7015C33.6636 44.9383 33.7487 45.0736 33.9361 45.0736C34.0553 45.0736 34.1575 45.0228 34.2086 44.9552L34.379 45.4795C34.2427 45.5979 34.0553 45.6824 33.7487 45.6824C33.2037 45.6993 32.9482 45.4118 32.9482 44.8537Z" fill="white"/>
<path d="M36.9169 45.6118V43.2779C36.9169 42.8889 36.7296 42.7367 36.4059 42.7367C36.0993 42.7367 35.8438 42.9735 35.7076 43.2103V45.6118H34.9922V40.9102H35.7076V42.6691C35.8949 42.3985 36.2867 42.1279 36.7125 42.1279C37.3257 42.1279 37.6153 42.4492 37.6153 43.0411V45.6118H36.9169Z" fill="white"/>
<path d="M38.4336 43.906C38.4336 42.942 38.9446 42.1133 39.9325 42.1133C40.9204 42.1133 41.4314 42.942 41.4314 43.906C41.4314 44.87 40.9204 45.6987 39.9325 45.6987C38.9616 45.6987 38.4336 44.87 38.4336 43.906ZM40.699 43.906C40.699 43.2972 40.4605 42.739 39.9325 42.739C39.4045 42.739 39.166 43.2802 39.166 43.906C39.166 44.5149 39.4045 45.073 39.9325 45.073C40.4605 45.073 40.699 44.5318 40.699 43.906Z" fill="white"/>
<path d="M42.248 45.6116V42.2122H42.9634V42.7196C43.1678 42.3982 43.5255 42.1445 43.9173 42.1445V42.8379C43.8662 42.821 43.7981 42.821 43.7299 42.821C43.4404 42.821 43.0997 43.0409 42.9634 43.2946V45.6285L42.248 45.6116Z" fill="white"/>
<path d="M44.5117 41.3343C44.5117 41.0806 44.7161 40.8945 44.9716 40.8945C45.2101 40.8945 45.4145 41.0975 45.4145 41.3343C45.4145 41.571 45.2101 41.774 44.9716 41.774C44.7161 41.774 44.5117 41.5879 44.5117 41.3343ZM44.5969 42.2137H45.3123V45.6131H44.5969V42.2137Z" fill="white"/>
<path d="M46.435 44.8537V42.8242H45.9922V42.2153H46.4521V41.2852H47.1675V42.2153H47.7466V42.8242H47.1675V44.7015C47.1675 44.9383 47.2526 45.0736 47.44 45.0736C47.5592 45.0736 47.6614 45.0228 47.7125 44.9552L47.8829 45.4795C47.7466 45.5979 47.5592 45.6824 47.2526 45.6824C46.6905 45.6993 46.435 45.4118 46.435 44.8537Z" fill="white"/>
<path d="M48.4654 46.3246C48.5336 46.3584 48.6358 46.3753 48.6869 46.3753C48.8742 46.3753 49.0105 46.3077 49.0786 46.0878L49.2149 45.6819L48.0566 42.2148H48.8231L49.5896 44.7686L50.3731 42.2148H51.1396L49.777 46.2569C49.5896 46.832 49.249 47.0011 48.755 47.0011C48.6528 47.0011 48.4654 46.9842 48.3632 46.9504L48.4654 46.3246Z" fill="white"/>
<path d="M53.2012 43.906C53.2012 42.942 53.7122 42.1133 54.7001 42.1133C55.688 42.1133 56.199 42.942 56.199 43.906C56.199 44.87 55.688 45.6987 54.7001 45.6987C53.7292 45.6987 53.2012 44.87 53.2012 43.906ZM55.4666 43.906C55.4666 43.2972 55.2281 42.739 54.7001 42.739C54.1721 42.739 53.9336 43.2802 53.9336 43.906C53.9336 44.5149 54.1721 45.073 54.7001 45.073C55.2281 45.073 55.4666 44.5318 55.4666 43.906Z" fill="white"/>
<path d="M57.1694 45.6131V42.8225H56.7266V42.2137H57.1694V41.8923C57.1694 41.2327 57.5441 40.8438 58.1403 40.8438C58.3958 40.8438 58.6513 40.9114 58.8387 41.0805L58.6002 41.571C58.498 41.4864 58.4128 41.4357 58.2766 41.4357C58.0211 41.4357 57.8848 41.6048 57.8848 41.8923V42.2137H58.4639V42.8225H57.8848V45.6131H57.1694Z" fill="white"/>
<path d="M60.6602 43.2635C60.6602 41.8429 61.4096 40.8281 62.619 40.8281C63.4536 40.8281 63.8794 41.3355 64.1349 41.8598L63.4706 42.1473C63.3003 41.7752 63.0107 41.5215 62.619 41.5215C61.9206 41.5215 61.4777 42.2488 61.4777 43.2635C61.4777 44.2614 61.9206 45.0055 62.619 45.0055C63.0278 45.0055 63.3344 44.7011 63.4706 44.3121L64.1349 44.5996C63.8964 45.1408 63.4536 45.6989 62.619 45.6989C61.4096 45.6989 60.6602 44.6842 60.6602 43.2635Z" fill="white"/>
<path d="M64.7637 41.3343C64.7637 41.0806 64.9681 40.8945 65.2236 40.8945C65.462 40.8945 65.6664 41.0975 65.6664 41.3343C65.6664 41.571 65.462 41.774 65.2236 41.774C64.9681 41.774 64.7637 41.5879 64.7637 41.3343ZM64.8659 42.2137H65.5812V45.6131H64.8659V42.2137Z" fill="white"/>
<path d="M67.3033 45.6143L66.1621 42.2148H66.9286L67.6951 44.7855L68.4616 42.2148H69.2281L68.0698 45.6143H67.3033Z" fill="white"/>
<path d="M69.7051 41.3343C69.7051 41.0806 69.9095 40.8945 70.165 40.8945C70.4034 40.8945 70.6078 41.0975 70.6078 41.3343C70.6078 41.571 70.4034 41.774 70.165 41.774C69.9095 41.774 69.7051 41.5879 69.7051 41.3343ZM69.7902 42.2137H70.5056V45.6131H69.7902V42.2137Z" fill="white"/>
<path d="M72.2252 40.9102H71.5098V45.6118H72.2252V40.9102Z" fill="white"/>
<path d="M77.4219 45.6118L77.1664 44.6817H75.5993L75.3438 45.6118H74.4922L75.923 40.9102H76.8768L78.3076 45.6118H77.4219ZM76.3658 41.7389L75.7356 43.9882H76.979L76.3658 41.7389Z" fill="white"/>
<path d="M79.4811 45.6143L78.3398 42.2148H79.1063L79.8728 44.7855L80.6393 42.2148H81.4058L80.2646 45.6143H79.4811Z" fill="white"/>
<path d="M81.8848 41.3343C81.8848 41.0806 82.0892 40.8945 82.3447 40.8945C82.5831 40.8945 82.7875 41.0975 82.7875 41.3343C82.7875 41.571 82.5831 41.774 82.3447 41.774C82.1062 41.774 81.8848 41.5879 81.8848 41.3343ZM81.987 42.2137H82.7024V45.6131H81.987V42.2137Z" fill="white"/>
<path d="M85.4797 45.6116V45.2734C85.2753 45.5609 84.9177 45.6962 84.56 45.6962C83.9979 45.6962 83.5039 45.2903 83.5039 44.563C83.5039 43.8358 84.0149 43.4637 84.56 43.4637C84.9177 43.4637 85.2753 43.599 85.4797 43.8696V43.3791C85.4797 42.9732 85.2413 42.7365 84.7984 42.7365C84.4918 42.7365 84.2023 42.8549 83.9297 43.1255L83.6572 42.635C84.0149 42.2967 84.4748 42.1445 84.9347 42.1445C85.6671 42.1445 86.1951 42.4828 86.1951 43.3115V45.6454H85.4797V45.6116ZM85.4797 44.8336V44.3263C85.3435 44.0895 85.088 43.9542 84.8325 43.9542C84.4578 43.9542 84.2363 44.2248 84.2363 44.5799C84.2363 44.952 84.4578 45.2226 84.8325 45.2226C85.088 45.2057 85.3435 45.0704 85.4797 44.8336Z" fill="white"/>
<path d="M87.3159 44.8537V42.8242H86.873V42.2153H87.3159V41.2852H88.0313V42.2153H88.6104V42.8242H88.0313V44.7015C88.0313 44.9383 88.1165 45.0736 88.3038 45.0736C88.4231 45.0736 88.5253 45.0228 88.5764 44.9552L88.7467 45.4795C88.6104 45.5979 88.4231 45.6824 88.1165 45.6824C87.5714 45.6993 87.3159 45.4118 87.3159 44.8537Z" fill="white"/>
<path d="M89.2578 41.3343C89.2578 41.0806 89.4622 40.8945 89.7007 40.8945C89.9391 40.8945 90.1435 41.0975 90.1435 41.3343C90.1435 41.571 89.9391 41.774 89.7007 41.774C89.4792 41.774 89.2578 41.5879 89.2578 41.3343ZM89.36 42.2137H90.0754V45.6131H89.36V42.2137Z" fill="white"/>
<path d="M90.8945 43.906C90.8945 42.942 91.4055 42.1133 92.3934 42.1133C93.3814 42.1133 93.8923 42.942 93.8923 43.906C93.8923 44.87 93.3814 45.6987 92.3934 45.6987C91.4055 45.6987 90.8945 44.87 90.8945 43.906ZM93.1429 43.906C93.1429 43.2972 92.9044 42.739 92.3764 42.739C91.8484 42.739 91.6099 43.2802 91.6099 43.906C91.6099 44.5149 91.8484 45.073 92.3764 45.073C92.9215 45.073 93.1429 44.5318 93.1429 43.906Z" fill="white"/>
<path d="M96.6187 45.6116V43.2946C96.6187 42.8887 96.4313 42.7534 96.1247 42.7534C95.8181 42.7534 95.5456 42.9902 95.4263 43.2269V45.6285H94.7109V42.2291H95.4263V42.6857C95.6137 42.4151 96.0055 42.1445 96.4313 42.1445C97.0615 42.1445 97.334 42.4828 97.334 43.0747V45.6454H96.6187V45.6116Z" fill="white"/>
<path d="M51.836 32.5566C52.0744 32.5566 52.2618 32.3705 52.2618 32.1338C52.2618 31.897 52.0744 31.7109 51.836 31.7109C51.5975 31.7109 51.4102 31.897 51.4102 32.1338C51.4102 32.3705 51.5975 32.5566 51.836 32.5566Z" fill="white"/>
<path d="M53.2012 32.5566C53.4397 32.5566 53.627 32.3705 53.627 32.1338C53.627 31.897 53.4397 31.7109 53.2012 31.7109C52.9628 31.7109 52.7754 31.897 52.7754 32.1338C52.7754 32.3705 52.9628 32.5566 53.2012 32.5566Z" fill="white"/>
<path d="M76.2129 32.5566C76.4514 32.5566 76.6388 32.3705 76.6388 32.1338C76.6388 31.897 76.4514 31.7109 76.2129 31.7109C75.9745 31.7109 75.7871 31.897 75.7871 32.1338C75.7871 32.3705 75.9745 32.5566 76.2129 32.5566Z" fill="white"/>
<path d="M77.5723 32.5566C77.8108 32.5566 77.9981 32.3705 77.9981 32.1338C77.9981 31.897 77.8108 31.7109 77.5723 31.7109C77.3338 31.7109 77.1465 31.897 77.1465 32.1338C77.1465 32.3705 77.3509 32.5566 77.5723 32.5566Z" fill="white"/>
<path d="M85.9555 33.57L85.8874 33.0288C85.5808 33.0796 84.8995 33.2825 84.8313 32.8259C84.7973 32.5891 84.9676 32.3523 85.2061 32.3016C85.3934 32.2678 85.5978 32.3354 85.7682 32.4031L85.9385 31.8788C85.5467 31.7604 85.1209 31.7097 84.7803 31.9634C84.4055 32.217 84.2693 32.7582 84.5077 33.1472C84.1671 33.1641 83.8945 33.1641 83.8945 33.1641V33.57C84.3033 33.587 84.6951 33.6039 85.1039 33.6039C85.172 33.6039 85.666 33.587 85.9555 33.57Z" fill="white"/>
<path d="M34.8204 37.9336C34.5819 37.9336 34.3945 38.1196 34.3945 38.3564C34.3945 38.5932 34.5819 38.7792 34.8204 38.7792C35.0588 38.7792 35.2462 38.5932 35.2462 38.3564C35.2462 38.1365 35.0588 37.9336 34.8204 37.9336Z" fill="white"/>
<path d="M36.1856 37.9336C35.9471 37.9336 35.7598 38.1196 35.7598 38.3564C35.7598 38.5932 35.9471 38.7792 36.1856 38.7792C36.4241 38.7792 36.6114 38.5932 36.6114 38.3564C36.6114 38.1365 36.4241 37.9336 36.1856 37.9336Z" fill="white"/>
<path d="M86.67 37.9336C86.4315 37.9336 86.2441 38.1196 86.2441 38.3564C86.2441 38.5932 86.4315 38.7792 86.67 38.7792C86.9084 38.7792 87.0958 38.5932 87.0958 38.3564C87.0958 38.1365 86.9084 37.9336 86.67 37.9336Z" fill="white"/>
<path d="M88.0332 37.9336C87.7948 37.9336 87.6074 38.1196 87.6074 38.3564C87.6074 38.5932 87.7948 38.7792 88.0332 38.7792C88.2717 38.7792 88.4591 38.5932 88.4591 38.3564C88.4591 38.1365 88.2717 37.9336 88.0332 37.9336Z" fill="white"/>
<path d="M2.71294 38.9492C2.47447 38.9492 2.28711 39.1353 2.28711 39.372C2.28711 39.6088 2.47447 39.7948 2.71294 39.7948C2.9514 39.7948 3.13876 39.6088 3.13876 39.372C3.13876 39.1353 2.9514 38.9492 2.71294 38.9492Z" fill="white"/>
<path d="M4.07622 38.9492C3.83775 38.9492 3.65039 39.1353 3.65039 39.372C3.65039 39.6088 3.83775 39.7948 4.07622 39.7948C4.31468 39.7948 4.50204 39.6088 4.50204 39.372C4.50204 39.1353 4.31468 38.9492 4.07622 38.9492Z" fill="white"/>
<path d="M26.7129 34.2128C26.9514 34.2128 27.1388 34.0268 27.1388 33.79C27.1388 33.5532 26.9514 33.3672 26.7129 33.3672C26.4745 33.3672 26.2871 33.5532 26.2871 33.79C26.2871 34.0268 26.4745 34.2128 26.7129 34.2128Z" fill="white"/>
<path d="M7.3477 33.4042C7.58617 33.4042 7.77353 33.2182 7.77353 32.9814C7.77353 32.7446 7.58617 32.5586 7.3477 32.5586C7.10924 32.5586 6.92188 32.7446 6.92188 32.9814C6.92188 33.2182 7.10924 33.4042 7.3477 33.4042Z" fill="white"/>
<path d="M97.2793 31.8984H96.5469V37.0737H97.2793V31.8984Z" fill="white"/>
<path d="M72.5996 31.8984H71.8672V37.0737H72.5996V31.8984Z" fill="white"/>
<path d="M30.5312 31.8984H29.7988V37.0737H30.5312V31.8984Z" fill="white"/>
<path d="M94.6249 36.0069C94.6249 36.2775 94.4034 36.4973 94.1309 36.4973H92.0869C92.104 36.4804 92.121 36.4635 92.121 36.4466C92.2743 36.2436 92.4446 35.8716 92.2913 35.3473C92.2062 35.0259 91.9166 34.0281 91.2012 34.0112H91.1842C90.3496 34.0112 89.8215 35.4149 89.7364 35.6855C89.6853 35.8546 89.6001 36.1422 89.532 36.4804C89.2083 36.4804 87.7265 36.4804 87.7265 36.4804C87.7946 36.3282 87.8287 36.1591 87.8287 35.9899V34.2141H87.0962V35.9899C87.0962 36.2605 86.8748 36.4804 86.6023 36.4804H86.1594C85.8869 36.4804 85.6655 36.2605 85.6655 35.9899V34.2141H84.933V35.9899C84.933 36.2605 84.7116 36.4804 84.4391 36.4804H78.205C77.9324 36.4804 77.711 36.2605 77.711 35.9899V33.3008H76.9786V33.6391C76.7742 33.7067 76.3824 33.8251 75.9736 34.0112C75.1049 34.4002 74.628 34.8737 74.5088 35.398C74.4577 35.6686 74.5258 35.9054 74.6961 36.0914C74.7983 36.2098 75.1901 36.5142 76.2291 36.5142C76.4676 36.5142 76.7401 36.4973 77.0637 36.4635C77.2511 36.9032 77.694 37.2076 78.1879 37.2076H84.422C84.7627 37.2076 85.0693 37.0723 85.2907 36.8525C85.5122 37.0723 85.8188 37.2076 86.1594 37.2076H86.6023C86.9259 37.2076 87.2325 37.0723 87.4539 36.8694V37.2076C87.4539 37.2076 89.2083 37.2076 89.4809 37.2076C89.4979 37.8842 89.7193 38.5607 90.4858 38.882C90.6902 38.9666 90.9116 39.0004 91.1331 39.0004C91.7122 39.0004 92.2743 38.7298 92.4957 38.2731C92.5979 38.0871 92.7001 37.6643 92.3424 37.1907H94.1309C94.8122 37.1907 95.3573 36.6495 95.3573 35.973V31.8633H94.6249V36.0069ZM75.2412 35.6348C75.2412 35.6179 75.2242 35.6179 75.2412 35.584C75.3264 35.1443 76.2291 34.6877 76.9786 34.4509V35.787C76.2632 35.8546 75.4115 35.8208 75.2412 35.6348ZM90.4347 35.9392C90.6902 35.1951 91.0649 34.7553 91.1842 34.7553C91.1842 34.7553 91.3715 34.823 91.593 35.5502C91.6611 35.8039 91.593 35.9392 91.5419 36.0069C91.3375 36.2605 90.8265 36.3958 90.2814 36.4466C90.3325 36.2944 90.3836 36.1252 90.4347 35.9392ZM91.8485 37.9856C91.7463 38.2055 91.2182 38.4084 90.7583 38.2224C90.3836 38.0702 90.1963 37.715 90.1963 37.1907C90.588 37.1569 90.9968 37.0893 91.3375 36.9709L91.2012 37.2246C91.6781 37.5121 91.9336 37.7996 91.8485 37.9856Z" fill="white"/>
<path d="M21.875 31.8984H21.1426V37.0737H21.875V31.8984Z" fill="white"/>
<path d="M19.2344 36.0056C19.2344 36.2762 19.013 36.496 18.7404 36.496H17.2926C17.3096 36.4622 17.3097 36.4453 17.3267 36.4115C17.5481 35.8534 17.4118 35.1769 17.2245 34.7879C16.969 34.2467 16.5091 33.9253 16.0151 33.9253C15.5212 33.9253 15.0613 34.2467 14.7888 34.8048C14.6525 35.0754 14.5673 35.3291 14.4822 35.5658C14.2607 36.2254 14.1585 36.496 13.4261 36.496H12.7277C12.5574 34.7371 10.9222 33.8746 10.8541 33.8238L10.5134 34.4665C10.5305 34.4665 11.825 35.1599 11.9953 36.4791H9.71289V37.2064H13.4431C13.9712 37.2064 14.3289 37.0711 14.5673 36.8681C14.925 37.1049 15.4701 37.2064 15.947 37.2064C16.2195 37.2064 16.458 37.1725 16.6283 37.1049C16.6624 37.088 16.7135 37.0711 16.7476 37.0541V37.2064H18.7404C19.4218 37.2064 19.9668 36.6652 19.9668 35.9887V31.8789H19.2344V36.0056ZM16.6454 36.1578C16.5943 36.31 16.4921 36.3946 16.3558 36.4453C16.0492 36.5637 15.2657 36.4622 14.9761 36.2931C15.0443 36.124 15.1124 35.9548 15.1635 35.7857C15.2316 35.5658 15.3168 35.346 15.419 35.1261C15.5723 34.8386 15.7767 34.6526 15.9981 34.6526C16.2025 34.6526 16.4069 34.8217 16.5432 35.1092C16.6794 35.3967 16.7646 35.8364 16.6454 36.1578Z" fill="white"/>
<path d="M59.5521 33.9422C59.0412 33.9422 58.5813 34.2635 58.3087 34.8216C58.1725 35.0922 58.0873 35.3459 58.0192 35.5658C57.7977 36.2254 57.6955 36.496 56.9631 36.496H53.9823C53.7098 36.496 53.4884 36.2761 53.4884 36.0055V33.3164H52.7559V33.6547C52.5515 33.7223 52.1598 33.8407 51.751 34.0267C50.8823 34.4157 50.4054 34.8893 50.2861 35.4136C50.235 35.6842 50.3032 35.9209 50.4735 36.107C50.5757 36.2254 50.9674 36.5298 52.0065 36.5298C52.2449 36.5298 52.5175 36.5129 52.8411 36.4791C53.0285 36.9188 53.4713 37.2232 53.9653 37.2232H56.9461C57.4741 37.2232 57.8318 37.0879 58.0703 36.885C58.6153 37.2401 59.6714 37.3078 60.1313 37.1217C60.4549 37.0033 60.7104 36.7497 60.8296 36.4114C61.0511 35.8533 60.9148 35.1768 60.7274 34.7878C60.506 34.2635 60.0461 33.9422 59.5521 33.9422ZM51.0185 35.6334C51.0185 35.6334 51.0015 35.6165 51.0185 35.5827C51.1037 35.143 52.0065 34.6863 52.7559 34.4495V35.7856C52.0405 35.8533 51.2059 35.8195 51.0185 35.6334ZM60.1824 36.1577C60.1313 36.3099 60.0291 36.3945 59.8928 36.4452C59.5862 36.5636 58.8027 36.4621 58.5131 36.293C58.5813 36.1239 58.6494 35.9548 58.7005 35.7856C58.7686 35.5658 58.8538 35.3459 58.956 35.126C59.1093 34.8385 59.3137 34.6525 59.5351 34.6525C59.7395 34.6525 59.9439 34.8216 60.0802 35.1091C60.2335 35.3967 60.3186 35.8364 60.1824 36.1577Z" fill="white"/>
<path d="M47.3902 36.0056C47.3902 36.2762 47.1687 36.496 46.8962 36.496H46.4533C46.1808 36.496 45.9594 36.2762 45.9594 36.0056V31.8958H45.227V36.0056C45.227 36.2762 45.0055 36.496 44.733 36.496H43.677C43.6599 35.7688 43.5236 34.8724 42.9275 34.3651C42.2291 33.79 41.2753 34.1452 40.611 34.568C40.2192 34.8048 39.8615 35.1092 39.5209 35.4305V31.8789H38.7884V36.4791H35.7906C35.8588 36.3269 35.8928 36.1578 35.8928 35.9887V34.2128H35.1604V35.9887C35.1604 36.2593 34.939 36.4791 34.6664 36.4791H33.1164C32.8439 36.4791 32.6225 36.2593 32.6225 35.9887V34.2128H31.856V37.0372C31.856 37.5953 31.3961 38.052 30.834 38.052V38.7792C31.7708 38.7792 32.5543 38.0351 32.5884 37.1049C32.7417 37.1725 32.912 37.2064 33.0824 37.2064H34.6324C34.8879 37.2064 35.1093 37.1387 35.2967 37.0034V37.2064H44.6989C45.0396 37.2064 45.3462 37.0711 45.5676 36.8512C45.7891 37.0711 46.0956 37.2064 46.4363 37.2064H46.8792C47.5605 37.2064 48.1056 36.6652 48.1056 35.9887V31.8789H47.3731V36.0056H47.3902ZM39.5038 36.2423C39.8104 35.9548 40.1341 35.6842 40.4918 35.4475C40.8835 35.1769 41.3264 34.9063 41.8033 34.8386C42.0077 34.8048 42.2291 34.8048 42.3824 34.9401C42.5357 35.0416 42.6209 35.2107 42.689 35.3629C42.8423 35.7181 42.8934 36.124 42.9105 36.5129H39.4868L39.5038 36.2423Z" fill="white"/>
<path d="M8.09517 36.005C8.09517 36.2756 7.87375 36.4955 7.60122 36.4955H7.27759C6.98803 36.4955 6.74956 36.2756 6.74956 36.005V35.041C6.74956 34.7365 6.63033 34.4829 6.4089 34.3137C6.1534 34.1108 5.81274 34.06 5.43801 34.1446C4.75669 34.2968 4.26273 34.8718 4.26273 35.4976V37.155C4.26273 37.358 4.07537 37.4764 3.92207 37.544C3.44514 37.747 2.61052 37.6793 2.11656 37.1889C1.63964 36.7322 1.5715 36.005 1.9292 35.0748L1.24788 34.8211C0.617651 36.4447 1.21381 37.3242 1.60557 37.7132C2.0825 38.1698 2.74679 38.3727 3.32591 38.3727C3.64954 38.3727 3.95614 38.3051 4.21163 38.2036C4.70559 38.0007 4.99516 37.6117 4.99516 37.155V35.4976C4.99516 35.2101 5.25065 34.9395 5.60835 34.8549C5.77868 34.8211 5.91494 34.8549 5.96604 34.8888C5.98307 34.9057 6.03418 34.9395 6.03418 35.0579V36.0219C6.03418 36.6815 6.6133 37.2396 7.29462 37.2396H7.61825C8.29957 37.2396 8.84464 36.6984 8.84464 36.0219V34.2461H8.11221V36.005H8.09517Z" fill="white"/>
<path d="M27.9575 37.1551C27.9575 37.358 27.7701 37.4764 27.6168 37.544C27.1399 37.747 26.3053 37.6793 25.7943 37.1889C25.3174 36.7322 25.2492 36.005 25.6069 35.0748L24.9256 34.8211C24.2954 36.4447 24.8915 37.3242 25.2833 37.7132C25.7602 38.1698 26.4245 38.3728 27.0036 38.3728C27.3273 38.3728 27.6339 38.3051 27.8894 38.2036C28.3833 38.0007 28.6729 37.6117 28.6729 37.1551V34.2461H27.9405L27.9575 37.1551Z" fill="white"/>
<path d="M69.9421 36.0056C69.9421 36.2762 69.7207 36.496 69.4481 36.496H69.1756C68.4602 36.5129 67.847 36.4453 67.3531 36.3269C67.3701 36.31 67.3871 36.2931 67.4042 36.2762C67.5575 36.1409 68.341 35.4475 68.2218 34.7371C68.1877 34.5004 68.0174 34.1959 67.5234 34.0099L67.4893 33.993H67.4553C66.808 33.9084 66.1267 33.9084 65.4794 33.9761H65.4454L65.4113 33.993C65.0025 34.1452 64.8492 34.3989 64.8151 34.6018C64.6789 35.2276 65.3261 35.9379 65.6157 36.2254C65.6668 36.2762 65.7009 36.31 65.752 36.3438C65.3432 36.4453 64.9003 36.4791 64.3893 36.4791H63.3162C63.0437 36.4791 62.8223 36.2593 62.8223 35.9887V31.8789H62.0898V35.9887C62.0898 36.6652 62.6349 37.2064 63.3162 37.2064H64.3893C65.241 37.2064 65.9223 37.1387 66.5866 36.8174C67.2679 37.088 68.1366 37.2064 69.2097 37.2064H69.4652C70.1465 37.2064 70.6916 36.6652 70.6916 35.9887V31.8789H69.9591V36.0056H69.9421ZM66.9443 35.735C66.808 35.8534 66.6718 35.9548 66.5355 36.0225C66.3652 35.9379 66.2289 35.8364 66.1097 35.7181C65.7009 35.3122 65.4794 34.9232 65.5135 34.771C65.5135 34.754 65.5646 34.7202 65.5987 34.7033C66.1778 34.6526 66.7399 34.6526 67.319 34.7202C67.4042 34.754 67.4893 34.8048 67.5064 34.8724C67.5404 35.0754 67.2849 35.4475 66.9443 35.735Z" fill="white"/>
</svg>
